<?xml version="1.0" encoding="UTF-8" standalone="no"?>
<!-- Creator: fig2dev Version 3.2 Patchlevel 5a -->

<!-- CreationDate: Tue Dec 14 14:42:59 2010 -->

<!-- Magnification: 1.000 -->

<svg
   xmlns:dc="http://purl.org/dc/elements/1.1/"
   xmlns:cc="http://creativecommons.org/ns#"
   xmlns:rdf="http://www.w3.org/1999/02/22-rdf-syntax-ns#"
   xmlns:svg="http://www.w3.org/2000/svg"
   xmlns="http://www.w3.org/2000/svg"
   xmlns:sodipodi="http://sodipodi.sourceforge.net/DTD/sodipodi-0.dtd"
   xmlns:inkscape="http://www.inkscape.org/namespaces/inkscape"
   width="3.0in"
   height="1.8in"
   viewBox="3588 3813 3624 2124"
   id="svg2912"
   version="1.1"
   inkscape:version="0.47 r22583"
   sodipodi:docname="birdstess.fig">
  <metadata
     id="metadata3096">
    <rdf:RDF>
      <cc:Work
         rdf:about="">
        <dc:format>image/svg+xml</dc:format>
        <dc:type
           rdf:resource="http://purl.org/dc/dcmitype/StillImage" />
        <dc:title></dc:title>
      </cc:Work>
    </rdf:RDF>
  </metadata>
  <defs
     id="defs3094">
    <inkscape:perspective
       sodipodi:type="inkscape:persp3d"
       inkscape:vp_x="0 : 81 : 1"
       inkscape:vp_y="0 : 1000 : 0"
       inkscape:vp_z="270 : 81 : 1"
       inkscape:persp3d-origin="135 : 54 : 1"
       id="perspective3098" />
  </defs>
  <sodipodi:namedview
     pagecolor="#ffffff"
     bordercolor="#666666"
     borderopacity="1"
     objecttolerance="10"
     gridtolerance="10"
     guidetolerance="10"
     inkscape:pageopacity="0"
     inkscape:pageshadow="2"
     inkscape:window-width="640"
     inkscape:window-height="487"
     id="namedview3092"
     showgrid="false"
     inkscape:zoom="1.4567901"
     inkscape:cx="135"
     inkscape:cy="81"
     inkscape:window-x="0"
     inkscape:window-y="0"
     inkscape:window-maximized="0"
     inkscape:current-layer="svg2912" />
  <g
     style="stroke-width:.025in; fill:none"
     id="g2914">
    <!-- Line -->
    <polyline
       points="4200,5625 4201,5624 4204,5621 4211,5614 4223,5602 4238,5587 4252,5573 4264,5561 4271,5554 4274,5551 4275,5550 4275,5549 4275,5546 4276,5539 4277,5530 4279,5519 4282,5510 4285,5502 4289,5496 4294,5491 4300,5488 4310,5484 4321,5480 4334,5478 4348,5475 4361,5472 4373,5470 4382,5466 4388,5463 4390,5458 4391,5452 4389,5444 4386,5436 4382,5427 4378,5418 4376,5409 4375,5400 4376,5393 4378,5386 4382,5378 4388,5369 4396,5359 4406,5349 4418,5337 4431,5326 4446,5313 4463,5300 4472,5292 4483,5284 4495,5274 4508,5264 4523,5253 4539,5240 4558,5226 4579,5211 4601,5194 4624,5176 4647,5159 4670,5142 4689,5127 4705,5115 4716,5107 4722,5102 4725,5100 4726,5099 4729,5096 4736,5089 4748,5077 4763,5062 4777,5048 4789,5036 4796,5029 4799,5026 4800,5025 4799,5024 4795,5020 4786,5012 4772,4998 4755,4982 4737,4966 4720,4951 4705,4939 4692,4929 4681,4922 4671,4916 4663,4913 4652,4910 4642,4909 4632,4910 4620,4912 4607,4914 4593,4917 4578,4920 4562,4923 4544,4924 4525,4925 4513,4925 4500,4924 4486,4923 4471,4922 4454,4920 4436,4917 4417,4914 4397,4911 4375,4907 4353,4903 4330,4899 4307,4894 4283,4889 4259,4884 4235,4879 4211,4874 4187,4868 4163,4863 4144,4858 4124,4854 4104,4849 4083,4844 4061,4839 4037,4833 4012,4827 3984,4820 3955,4813 3923,4805 3890,4797 3855,4788 3819,4779 3783,4770 3747,4761 3713,4753 3682,4746 3656,4739 3635,4734 3619,4730 3608,4727 3603,4726 3600,4725 3601,4725 3604,4726 3613,4728 3628,4732 3648,4737 3673,4744 3700,4751 3726,4758 3752,4764 3776,4771 3797,4777 3816,4782 3833,4787 3848,4791 3862,4796 3875,4800 3892,4806 3908,4812 3924,4818 3940,4825 3956,4832 3972,4839 3986,4847 4001,4855 4014,4863 4027,4871 4038,4879 4050,4888 4060,4895 4070,4903 4081,4912 4092,4922 4105,4934 4119,4947 4135,4962 4151,4977 4166,4992 4180,5006 4190,5016 4197,5022 4200,5025 4200,5026 4199,5029 4197,5038 4193,5054 4189,5075 4183,5100 4177,5128 4172,5156 4166,5183 4162,5208 4158,5231 4155,5252 4153,5272 4151,5290 4150,5308 4150,5325 4150,5342 4151,5360 4153,5378 4155,5398 4158,5419 4162,5442 4166,5467 4172,5494 4177,5522 4183,5550 4189,5575 4193,5596 4197,5612 4199,5621 4200,5624 4200,5625 "
       style="stroke:#000000;stroke-width:7; stroke-linejoin:bevel; stroke-linecap:butt; fill:#ff8080; "
       id="polyline2916" />
    <!-- Line -->
    <polyline
       points="4800,5625 4801,5624 4804,5621 4811,5614 4823,5602 4838,5587 4852,5573 4864,5561 4871,5554 4874,5551 4875,5550 4875,5549 4875,5546 4876,5539 4877,5530 4879,5519 4882,5510 4885,5502 4889,5496 4894,5491 4900,5488 4910,5484 4921,5480 4934,5478 4948,5475 4961,5472 4973,5470 4982,5466 4988,5463 4990,5458 4991,5452 4989,5444 4986,5436 4982,5427 4978,5418 4976,5409 4975,5400 4976,5393 4978,5386 4982,5378 4988,5369 4996,5359 5006,5349 5018,5337 5031,5326 5046,5313 5063,5300 5072,5292 5083,5284 5095,5274 5108,5264 5123,5253 5139,5240 5158,5226 5179,5211 5201,5194 5224,5176 5247,5159 5270,5142 5289,5127 5305,5115 5316,5107 5322,5102 5325,5100 5326,5099 5329,5096 5336,5089 5348,5077 5363,5062 5377,5048 5389,5036 5396,5029 5399,5026 5400,5025 5399,5024 5395,5020 5386,5012 5372,4998 5355,4982 5337,4966 5320,4951 5305,4939 5292,4929 5281,4922 5271,4916 5263,4913 5252,4910 5242,4909 5232,4910 5220,4912 5207,4914 5193,4917 5178,4920 5162,4923 5144,4924 5125,4925 5113,4925 5100,4924 5086,4923 5071,4922 5054,4920 5036,4917 5017,4914 4997,4911 4975,4907 4953,4903 4930,4899 4907,4894 4883,4889 4859,4884 4835,4879 4811,4874 4787,4868 4763,4863 4744,4858 4724,4854 4704,4849 4683,4844 4661,4839 4637,4833 4612,4827 4584,4820 4555,4813 4523,4805 4490,4797 4455,4788 4419,4779 4383,4770 4347,4761 4313,4753 4282,4746 4256,4739 4235,4734 4219,4730 4208,4727 4203,4726 4200,4725 4201,4725 4204,4726 4213,4728 4228,4732 4248,4737 4273,4744 4300,4751 4326,4758 4352,4764 4376,4771 4397,4777 4416,4782 4433,4787 4448,4791 4462,4796 4475,4800 4492,4806 4508,4812 4524,4818 4540,4825 4556,4832 4572,4839 4586,4847 4601,4855 4614,4863 4627,4871 4638,4879 4650,4888 4660,4895 4670,4903 4681,4912 4692,4922 4705,4934 4719,4947 4735,4962 4751,4977 4766,4992 4780,5006 4790,5016 4797,5022 4800,5025 4800,5026 4799,5029 4797,5038 4793,5054 4789,5075 4783,5100 4777,5128 4772,5156 4766,5183 4762,5208 4758,5231 4755,5252 4753,5272 4751,5290 4750,5308 4750,5325 4750,5342 4751,5360 4753,5378 4755,5398 4758,5419 4762,5442 4766,5467 4772,5494 4777,5522 4783,5550 4789,5575 4793,5596 4797,5612 4799,5621 4800,5624 4800,5625 "
       style="stroke:#000000;stroke-width:7; stroke-linejoin:bevel; stroke-linecap:butt; fill:#ff8080; "
       id="polyline2918" />
    <!-- Line -->
    <polyline
       points="5400,5625 5401,5624 5404,5621 5411,5614 5423,5602 5438,5587 5452,5573 5464,5561 5471,5554 5474,5551 5475,5550 5475,5549 5475,5546 5476,5539 5477,5530 5479,5519 5482,5510 5485,5502 5489,5496 5494,5491 5500,5488 5510,5484 5521,5480 5534,5478 5548,5475 5561,5472 5573,5470 5582,5466 5588,5463 5590,5458 5591,5452 5589,5444 5586,5436 5582,5427 5578,5418 5576,5409 5575,5400 5576,5393 5578,5386 5582,5378 5588,5369 5596,5359 5606,5349 5618,5337 5631,5326 5646,5313 5663,5300 5672,5292 5683,5284 5695,5274 5708,5264 5723,5253 5739,5240 5758,5226 5779,5211 5801,5194 5824,5176 5847,5159 5870,5142 5889,5127 5905,5115 5916,5107 5922,5102 5925,5100 5926,5099 5929,5096 5936,5089 5948,5077 5963,5062 5977,5048 5989,5036 5996,5029 5999,5026 6000,5025 5999,5024 5995,5020 5986,5012 5972,4998 5955,4982 5937,4966 5920,4951 5905,4939 5892,4929 5881,4922 5871,4916 5863,4913 5852,4910 5842,4909 5832,4910 5820,4912 5807,4914 5793,4917 5778,4920 5762,4923 5744,4924 5725,4925 5713,4925 5700,4924 5686,4923 5671,4922 5654,4920 5636,4917 5617,4914 5597,4911 5575,4907 5553,4903 5530,4899 5507,4894 5483,4889 5459,4884 5435,4879 5411,4874 5387,4868 5363,4863 5344,4858 5324,4854 5304,4849 5283,4844 5261,4839 5237,4833 5212,4827 5184,4820 5155,4813 5123,4805 5090,4797 5055,4788 5019,4779 4983,4770 4947,4761 4913,4753 4882,4746 4856,4739 4835,4734 4819,4730 4808,4727 4803,4726 4800,4725 4801,4725 4804,4726 4813,4728 4828,4732 4848,4737 4873,4744 4900,4751 4926,4758 4952,4764 4976,4771 4997,4777 5016,4782 5033,4787 5048,4791 5062,4796 5075,4800 5092,4806 5108,4812 5124,4818 5140,4825 5156,4832 5172,4839 5186,4847 5201,4855 5214,4863 5227,4871 5238,4879 5250,4888 5260,4895 5270,4903 5281,4912 5292,4922 5305,4934 5319,4947 5335,4962 5351,4977 5366,4992 5380,5006 5390,5016 5397,5022 5400,5025 5400,5026 5399,5029 5397,5038 5393,5054 5389,5075 5383,5100 5377,5128 5372,5156 5366,5183 5362,5208 5358,5231 5355,5252 5353,5272 5351,5290 5350,5308 5350,5325 5350,5342 5351,5360 5353,5378 5355,5398 5358,5419 5362,5442 5366,5467 5372,5494 5377,5522 5383,5550 5389,5575 5393,5596 5397,5612 5399,5621 5400,5624 5400,5625 "
       style="stroke:#000000;stroke-width:7; stroke-linejoin:bevel; stroke-linecap:butt; fill:#ff8080; "
       id="polyline2920" />
    <!-- Line -->
    <polyline
       points="6000,5625 6001,5624 6004,5621 6011,5614 6023,5602 6038,5587 6052,5573 6064,5561 6071,5554 6074,5551 6075,5550 6075,5549 6075,5546 6076,5539 6077,5530 6079,5519 6082,5510 6085,5502 6089,5496 6094,5491 6100,5488 6110,5484 6121,5480 6134,5478 6148,5475 6161,5472 6173,5470 6182,5466 6188,5463 6190,5458 6191,5452 6189,5444 6186,5436 6182,5427 6178,5418 6176,5409 6175,5400 6176,5393 6178,5386 6182,5378 6188,5369 6196,5359 6206,5349 6218,5337 6231,5326 6246,5313 6263,5300 6272,5292 6283,5284 6295,5274 6308,5264 6323,5253 6339,5240 6358,5226 6379,5211 6401,5194 6424,5176 6447,5159 6470,5142 6489,5127 6505,5115 6516,5107 6522,5102 6525,5100 6526,5099 6529,5096 6536,5089 6548,5077 6563,5062 6577,5048 6589,5036 6596,5029 6599,5026 6600,5025 6599,5024 6595,5020 6586,5012 6572,4998 6555,4982 6537,4966 6520,4951 6505,4939 6492,4929 6481,4922 6471,4916 6463,4913 6452,4910 6442,4909 6432,4910 6420,4912 6407,4914 6393,4917 6378,4920 6362,4923 6344,4924 6325,4925 6313,4925 6300,4924 6286,4923 6271,4922 6254,4920 6236,4917 6217,4914 6197,4911 6175,4907 6153,4903 6130,4899 6107,4894 6083,4889 6059,4884 6035,4879 6011,4874 5987,4868 5963,4863 5944,4858 5924,4854 5904,4849 5883,4844 5861,4839 5837,4833 5812,4827 5784,4820 5755,4813 5723,4805 5690,4797 5655,4788 5619,4779 5583,4770 5547,4761 5513,4753 5482,4746 5456,4739 5435,4734 5419,4730 5408,4727 5403,4726 5400,4725 5401,4725 5404,4726 5413,4728 5428,4732 5448,4737 5473,4744 5500,4751 5526,4758 5552,4764 5576,4771 5597,4777 5616,4782 5633,4787 5648,4791 5662,4796 5675,4800 5692,4806 5708,4812 5724,4818 5740,4825 5756,4832 5772,4839 5786,4847 5801,4855 5814,4863 5827,4871 5838,4879 5850,4888 5860,4895 5870,4903 5881,4912 5892,4922 5905,4934 5919,4947 5935,4962 5951,4977 5966,4992 5980,5006 5990,5016 5997,5022 6000,5025 6000,5026 5999,5029 5997,5038 5993,5054 5989,5075 5983,5100 5977,5128 5972,5156 5966,5183 5962,5208 5958,5231 5955,5252 5953,5272 5951,5290 5950,5308 5950,5325 5950,5342 5951,5360 5953,5378 5955,5398 5958,5419 5962,5442 5966,5467 5972,5494 5977,5522 5983,5550 5989,5575 5993,5596 5997,5612 5999,5621 6000,5624 6000,5625 "
       style="stroke:#000000;stroke-width:7; stroke-linejoin:bevel; stroke-linecap:butt; fill:#ff8080; "
       id="polyline2922" />
    <!-- Line -->
    <polyline
       points="5400,4725 5401,4724 5404,4721 5411,4714 5423,4702 5438,4687 5452,4673 5464,4661 5471,4654 5474,4651 5475,4650 5475,4649 5475,4646 5476,4639 5477,4630 5479,4619 5482,4610 5485,4602 5489,4596 5494,4591 5500,4588 5510,4584 5521,4580 5534,4578 5548,4575 5561,4572 5573,4570 5582,4566 5588,4563 5590,4558 5591,4552 5589,4544 5586,4536 5582,4527 5578,4518 5576,4509 5575,4500 5576,4493 5578,4486 5582,4478 5588,4469 5596,4459 5606,4449 5618,4437 5631,4426 5646,4413 5663,4400 5672,4392 5683,4384 5695,4374 5708,4364 5723,4353 5739,4340 5758,4326 5779,4311 5801,4294 5824,4276 5847,4259 5870,4242 5889,4227 5905,4215 5916,4207 5922,4202 5925,4200 5926,4199 5929,4196 5936,4189 5948,4177 5963,4162 5977,4148 5989,4136 5996,4129 5999,4126 6000,4125 5999,4124 5995,4120 5986,4112 5972,4098 5955,4082 5937,4066 5920,4051 5905,4039 5892,4029 5881,4022 5871,4016 5863,4013 5852,4010 5842,4009 5832,4010 5820,4012 5807,4014 5793,4017 5778,4020 5762,4023 5744,4024 5725,4025 5713,4025 5700,4024 5686,4023 5671,4022 5654,4020 5636,4017 5617,4014 5597,4011 5575,4007 5553,4003 5530,3999 5507,3994 5483,3989 5459,3984 5435,3979 5411,3974 5387,3968 5363,3963 5344,3958 5324,3954 5304,3949 5283,3944 5261,3939 5237,3933 5212,3927 5184,3920 5155,3913 5123,3905 5090,3897 5055,3888 5019,3879 4983,3870 4947,3861 4913,3853 4882,3846 4856,3839 4835,3834 4819,3830 4808,3827 4803,3826 4800,3825 4801,3825 4804,3826 4813,3828 4828,3832 4848,3837 4873,3844 4900,3851 4926,3858 4952,3864 4976,3871 4997,3877 5016,3882 5033,3887 5048,3891 5062,3896 5075,3900 5092,3906 5108,3912 5124,3918 5140,3925 5156,3932 5172,3939 5186,3947 5201,3955 5214,3963 5227,3971 5238,3979 5250,3988 5260,3995 5270,4003 5281,4012 5292,4022 5305,4034 5319,4047 5335,4062 5351,4077 5366,4092 5380,4106 5390,4116 5397,4122 5400,4125 5400,4126 5399,4129 5397,4138 5393,4154 5389,4175 5383,4200 5377,4228 5372,4256 5366,4283 5362,4308 5358,4331 5355,4352 5353,4372 5351,4390 5350,4408 5350,4425 5350,4442 5351,4460 5353,4478 5355,4498 5358,4519 5362,4542 5366,4567 5372,4594 5377,4622 5383,4650 5389,4675 5393,4696 5397,4712 5399,4721 5400,4724 5400,4725 "
       style="stroke:#000000;stroke-width:7; stroke-linejoin:bevel; stroke-linecap:butt; fill:#ff8080; "
       id="polyline2924" />
    <!-- Line -->
    <polyline
       points="4800,4725 4801,4724 4804,4721 4811,4714 4823,4702 4838,4687 4852,4673 4864,4661 4871,4654 4874,4651 4875,4650 4875,4649 4875,4646 4876,4639 4877,4630 4879,4619 4882,4610 4885,4602 4889,4596 4894,4591 4900,4588 4910,4584 4921,4580 4934,4578 4948,4575 4961,4572 4973,4570 4982,4566 4988,4563 4990,4558 4991,4552 4989,4544 4986,4536 4982,4527 4978,4518 4976,4509 4975,4500 4976,4493 4978,4486 4982,4478 4988,4469 4996,4459 5006,4449 5018,4437 5031,4426 5046,4413 5063,4400 5072,4392 5083,4384 5095,4374 5108,4364 5123,4353 5139,4340 5158,4326 5179,4311 5201,4294 5224,4276 5247,4259 5270,4242 5289,4227 5305,4215 5316,4207 5322,4202 5325,4200 5326,4199 5329,4196 5336,4189 5348,4177 5363,4162 5377,4148 5389,4136 5396,4129 5399,4126 5400,4125 5399,4124 5395,4120 5386,4112 5372,4098 5355,4082 5337,4066 5320,4051 5305,4039 5292,4029 5281,4022 5271,4016 5263,4013 5252,4010 5242,4009 5232,4010 5220,4012 5207,4014 5193,4017 5178,4020 5162,4023 5144,4024 5125,4025 5113,4025 5100,4024 5086,4023 5071,4022 5054,4020 5036,4017 5017,4014 4997,4011 4975,4007 4953,4003 4930,3999 4907,3994 4883,3989 4859,3984 4835,3979 4811,3974 4787,3968 4763,3963 4744,3958 4724,3954 4704,3949 4683,3944 4661,3939 4637,3933 4612,3927 4584,3920 4555,3913 4523,3905 4490,3897 4455,3888 4419,3879 4383,3870 4347,3861 4313,3853 4282,3846 4256,3839 4235,3834 4219,3830 4208,3827 4203,3826 4200,3825 4201,3825 4204,3826 4213,3828 4228,3832 4248,3837 4273,3844 4300,3851 4326,3858 4352,3864 4376,3871 4397,3877 4416,3882 4433,3887 4448,3891 4462,3896 4475,3900 4492,3906 4508,3912 4524,3918 4540,3925 4556,3932 4572,3939 4586,3947 4601,3955 4614,3963 4627,3971 4638,3979 4650,3988 4660,3995 4670,4003 4681,4012 4692,4022 4705,4034 4719,4047 4735,4062 4751,4077 4766,4092 4780,4106 4790,4116 4797,4122 4800,4125 4800,4126 4799,4129 4797,4138 4793,4154 4789,4175 4783,4200 4777,4228 4772,4256 4766,4283 4762,4308 4758,4331 4755,4352 4753,4372 4751,4390 4750,4408 4750,4425 4750,4442 4751,4460 4753,4478 4755,4498 4758,4519 4762,4542 4766,4567 4772,4594 4777,4622 4783,4650 4789,4675 4793,4696 4797,4712 4799,4721 4800,4724 4800,4725 "
       style="stroke:#000000;stroke-width:7; stroke-linejoin:bevel; stroke-linecap:butt; fill:#ff8080; "
       id="polyline2926" />
    <!-- Line -->
    <polyline
       points="6000,4725 6001,4724 6004,4721 6011,4714 6023,4702 6038,4687 6052,4673 6064,4661 6071,4654 6074,4651 6075,4650 6075,4649 6075,4646 6076,4639 6077,4630 6079,4619 6082,4610 6085,4602 6089,4596 6094,4591 6100,4588 6110,4584 6121,4580 6134,4578 6148,4575 6161,4572 6173,4570 6182,4566 6188,4563 6190,4558 6191,4552 6189,4544 6186,4536 6182,4527 6178,4518 6176,4509 6175,4500 6176,4493 6178,4486 6182,4478 6188,4469 6196,4459 6206,4449 6218,4437 6231,4426 6246,4413 6263,4400 6272,4392 6283,4384 6295,4374 6308,4364 6323,4353 6339,4340 6358,4326 6379,4311 6401,4294 6424,4276 6447,4259 6470,4242 6489,4227 6505,4215 6516,4207 6522,4202 6525,4200 6526,4199 6529,4196 6536,4189 6548,4177 6563,4162 6577,4148 6589,4136 6596,4129 6599,4126 6600,4125 6599,4124 6595,4120 6586,4112 6572,4098 6555,4082 6537,4066 6520,4051 6505,4039 6492,4029 6481,4022 6471,4016 6463,4013 6452,4010 6442,4009 6432,4010 6420,4012 6407,4014 6393,4017 6378,4020 6362,4023 6344,4024 6325,4025 6313,4025 6300,4024 6286,4023 6271,4022 6254,4020 6236,4017 6217,4014 6197,4011 6175,4007 6153,4003 6130,3999 6107,3994 6083,3989 6059,3984 6035,3979 6011,3974 5987,3968 5963,3963 5944,3958 5924,3954 5904,3949 5883,3944 5861,3939 5837,3933 5812,3927 5784,3920 5755,3913 5723,3905 5690,3897 5655,3888 5619,3879 5583,3870 5547,3861 5513,3853 5482,3846 5456,3839 5435,3834 5419,3830 5408,3827 5403,3826 5400,3825 5401,3825 5404,3826 5413,3828 5428,3832 5448,3837 5473,3844 5500,3851 5526,3858 5552,3864 5576,3871 5597,3877 5616,3882 5633,3887 5648,3891 5662,3896 5675,3900 5692,3906 5708,3912 5724,3918 5740,3925 5756,3932 5772,3939 5786,3947 5801,3955 5814,3963 5827,3971 5838,3979 5850,3988 5860,3995 5870,4003 5881,4012 5892,4022 5905,4034 5919,4047 5935,4062 5951,4077 5966,4092 5980,4106 5990,4116 5997,4122 6000,4125 6000,4126 5999,4129 5997,4138 5993,4154 5989,4175 5983,4200 5977,4228 5972,4256 5966,4283 5962,4308 5958,4331 5955,4352 5953,4372 5951,4390 5950,4408 5950,4425 5950,4442 5951,4460 5953,4478 5955,4498 5958,4519 5962,4542 5966,4567 5972,4594 5977,4622 5983,4650 5989,4675 5993,4696 5997,4712 5999,4721 6000,4724 6000,4725 "
       style="stroke:#000000;stroke-width:7; stroke-linejoin:bevel; stroke-linecap:butt; fill:#ff8080; "
       id="polyline2928" />
    <!-- Line -->
    <polyline
       points="4200,4725 4201,4724 4204,4721 4211,4714 4223,4702 4238,4687 4252,4673 4264,4661 4271,4654 4274,4651 4275,4650 4275,4649 4275,4646 4276,4639 4277,4630 4279,4619 4282,4610 4285,4602 4289,4596 4294,4591 4300,4588 4310,4584 4321,4580 4334,4578 4348,4575 4361,4572 4373,4570 4382,4566 4388,4563 4390,4558 4391,4552 4389,4544 4386,4536 4382,4527 4378,4518 4376,4509 4375,4500 4376,4493 4378,4486 4382,4478 4388,4469 4396,4459 4406,4449 4418,4437 4431,4426 4446,4413 4463,4400 4472,4392 4483,4384 4495,4374 4508,4364 4523,4353 4539,4340 4558,4326 4579,4311 4601,4294 4624,4276 4647,4259 4670,4242 4689,4227 4705,4215 4716,4207 4722,4202 4725,4200 4726,4199 4729,4196 4736,4189 4748,4177 4763,4162 4777,4148 4789,4136 4796,4129 4799,4126 4800,4125 4799,4124 4795,4120 4786,4112 4772,4098 4755,4082 4737,4066 4720,4051 4705,4039 4692,4029 4681,4022 4671,4016 4663,4013 4652,4010 4642,4009 4632,4010 4620,4012 4607,4014 4593,4017 4578,4020 4562,4023 4544,4024 4525,4025 4513,4025 4500,4024 4486,4023 4471,4022 4454,4020 4436,4017 4417,4014 4397,4011 4375,4007 4353,4003 4330,3999 4307,3994 4283,3989 4259,3984 4235,3979 4211,3974 4187,3968 4163,3963 4144,3958 4124,3954 4104,3949 4083,3944 4061,3939 4037,3933 4012,3927 3984,3920 3955,3913 3923,3905 3890,3897 3855,3888 3819,3879 3783,3870 3747,3861 3713,3853 3682,3846 3656,3839 3635,3834 3619,3830 3608,3827 3603,3826 3600,3825 3601,3825 3604,3826 3613,3828 3628,3832 3648,3837 3673,3844 3700,3851 3726,3858 3752,3864 3776,3871 3797,3877 3816,3882 3833,3887 3848,3891 3862,3896 3875,3900 3892,3906 3908,3912 3924,3918 3940,3925 3956,3932 3972,3939 3986,3947 4001,3955 4014,3963 4027,3971 4038,3979 4050,3988 4060,3995 4070,4003 4081,4012 4092,4022 4105,4034 4119,4047 4135,4062 4151,4077 4166,4092 4180,4106 4190,4116 4197,4122 4200,4125 4200,4126 4199,4129 4197,4138 4193,4154 4189,4175 4183,4200 4177,4228 4172,4256 4166,4283 4162,4308 4158,4331 4155,4352 4153,4372 4151,4390 4150,4408 4150,4425 4150,4442 4151,4460 4153,4478 4155,4498 4158,4519 4162,4542 4166,4567 4172,4594 4177,4622 4183,4650 4189,4675 4193,4696 4197,4712 4199,4721 4200,4724 4200,4725 "
       style="stroke:#000000;stroke-width:7; stroke-linejoin:bevel; stroke-linecap:butt; fill:#ff8080; "
       id="polyline2930" />
    <!-- Circle -->
    <circle
       cx="4345"
       cy="5526"
       r="20"
       style="stroke:#000000;stroke-width:7;"
       id="circle2932" />
    <!-- Circle -->
    <circle
       cx="4655"
       cy="4953"
       r="20"
       style="stroke:#000000;stroke-width:7;"
       id="circle2934" />
    <!-- Line -->
    <polyline
       points="4800,5025 4650,5025 "
       style="stroke:#000000;stroke-width:7; stroke-linejoin:bevel; stroke-linecap:butt; "
       id="polyline2936" />
    <!-- Line -->
    <polyline
       points="4200,5625 4355,5580 "
       style="stroke:#000000;stroke-width:7; stroke-linejoin:bevel; stroke-linecap:butt; "
       id="polyline2938" />
    <!-- Line -->
    <polyline
       points="4346,5580 4345,5581 4338,5587 4328,5596 4320,5604 4314,5610 4312,5616 4310,5622 4311,5628 4313,5636 4316,5645 4319,5651 4319,5652 "
       style="stroke:#000000;stroke-width:7; stroke-linejoin:bevel; stroke-linecap:butt; "
       id="polyline2940" />
    <!-- Line -->
    <polyline
       points="4346,5580 4345,5580 4338,5580 4327,5579 4317,5578 4310,5577 4304,5576 4299,5573 4293,5569 4286,5564 4279,5558 4275,5554 4274,5553 "
       style="stroke:#000000;stroke-width:7; stroke-linejoin:bevel; stroke-linecap:butt; "
       id="polyline2942" />
    <!-- Line -->
    <polyline
       points="4712,5100 4711,5100 4708,5100 4699,5100 4683,5099 4662,5098 4637,5097 4609,5096 4581,5095 4555,5093 4530,5092 4508,5090 4488,5089 4470,5087 4453,5086 4437,5084 4423,5082 4406,5080 4389,5077 4372,5073 4355,5070 4335,5065 4314,5060 4292,5054 4269,5048 4247,5042 4227,5036 4212,5032 4203,5029 4200,5028 4199,5028 "
       style="stroke:#000000;stroke-width:7; stroke-linejoin:bevel; stroke-linecap:butt; "
       id="polyline2944" />
    <!-- Line -->
    <polyline
       points="4727,4962 4726,4963 4723,4967 4718,4974 4713,4980 4708,4986 4703,4991 4697,4996 4689,5002 4677,5010 4665,5018 4657,5024 4655,5025 "
       style="stroke:#000000;stroke-width:7; stroke-linejoin:bevel; stroke-linecap:butt; "
       id="polyline2946" />
    <!-- Line -->
    <polyline
       points="4736,5079 4735,5078 4731,5074 4723,5067 4717,5061 4710,5056 4705,5052 4698,5048 4689,5043 4678,5037 4665,5030 4657,5026 4655,5025 "
       style="stroke:#000000;stroke-width:7; stroke-linejoin:bevel; stroke-linecap:butt; "
       id="polyline2948" />
    <!-- Line -->
    <polyline
       points="4200,5625 4201,5624 4204,5621 4211,5614 4223,5602 4238,5587 4252,5573 4264,5561 4271,5554 4274,5551 4275,5550 4275,5549 4275,5546 4276,5539 4277,5530 4279,5519 4282,5510 4285,5502 4289,5496 4294,5491 4300,5488 4310,5484 4321,5480 4334,5478 4348,5475 4361,5472 4373,5470 4382,5466 4388,5463 4390,5458 4391,5452 4389,5444 4386,5436 4382,5427 4378,5418 4376,5409 4375,5400 4376,5393 4378,5386 4382,5378 4388,5369 4396,5359 4406,5349 4418,5337 4431,5326 4446,5313 4463,5300 4472,5292 4483,5284 4495,5274 4508,5264 4523,5253 4539,5240 4558,5226 4579,5211 4601,5194 4624,5176 4647,5159 4670,5142 4689,5127 4705,5115 4716,5107 4722,5102 4725,5100 4726,5099 4729,5096 4736,5089 4748,5077 4763,5062 4777,5048 4789,5036 4796,5029 4799,5026 4800,5025 4800,5026 4799,5029 4797,5038 4793,5054 4789,5075 4783,5100 4777,5128 4772,5156 4766,5183 4762,5208 4758,5231 4755,5252 4753,5272 4751,5290 4750,5308 4750,5325 4750,5342 4751,5360 4753,5378 4755,5398 4758,5419 4762,5442 4766,5467 4772,5494 4777,5522 4783,5550 4789,5575 4793,5596 4797,5612 4799,5621 4800,5624 4800,5625 4801,5625 4804,5626 4813,5628 4828,5632 4848,5637 4873,5644 4900,5651 4926,5658 4952,5664 4976,5671 4997,5677 5016,5682 5033,5687 5048,5691 5062,5696 5075,5700 5092,5706 5108,5712 5124,5718 5140,5725 5156,5732 5172,5739 5186,5747 5201,5755 5214,5763 5227,5771 5238,5779 5250,5788 5260,5795 5270,5803 5281,5812 5292,5822 5305,5834 5319,5847 5335,5862 5351,5877 5366,5892 5380,5906 5390,5916 5397,5922 5400,5925 5399,5924 5395,5920 5386,5912 5372,5898 5355,5882 5337,5866 5320,5851 5305,5839 5292,5829 5281,5822 5271,5816 5263,5813 5252,5810 5242,5809 5232,5810 5220,5812 5207,5814 5193,5817 5178,5820 5162,5823 5144,5824 5125,5825 5113,5825 5100,5824 5086,5823 5071,5822 5054,5820 5036,5817 5017,5814 4997,5811 4975,5807 4953,5803 4930,5799 4907,5794 4883,5789 4859,5784 4835,5779 4811,5774 4787,5768 4763,5763 4744,5758 4724,5754 4704,5749 4683,5744 4661,5739 4637,5733 4612,5727 4584,5720 4555,5713 4523,5705 4490,5697 4455,5688 4419,5679 4383,5670 4347,5661 4313,5653 4282,5646 4256,5639 4235,5634 4219,5630 4208,5627 4203,5626 4200,5625 "
       style="stroke:#000000;stroke-width:7; stroke-linejoin:bevel; stroke-linecap:butt; "
       id="polyline2950" />
    <!-- Circle -->
    <circle
       cx="4945"
       cy="5526"
       r="20"
       style="stroke:#000000;stroke-width:7;"
       id="circle2952" />
    <!-- Circle -->
    <circle
       cx="5255"
       cy="4953"
       r="20"
       style="stroke:#000000;stroke-width:7;"
       id="circle2954" />
    <!-- Line -->
    <polyline
       points="5400,5025 5250,5025 "
       style="stroke:#000000;stroke-width:7; stroke-linejoin:bevel; stroke-linecap:butt; "
       id="polyline2956" />
    <!-- Line -->
    <polyline
       points="4800,5625 4955,5580 "
       style="stroke:#000000;stroke-width:7; stroke-linejoin:bevel; stroke-linecap:butt; "
       id="polyline2958" />
    <!-- Line -->
    <polyline
       points="4946,5580 4945,5581 4938,5587 4928,5596 4920,5604 4914,5610 4912,5616 4910,5622 4911,5628 4913,5636 4916,5645 4919,5651 4919,5652 "
       style="stroke:#000000;stroke-width:7; stroke-linejoin:bevel; stroke-linecap:butt; "
       id="polyline2960" />
    <!-- Line -->
    <polyline
       points="4946,5580 4945,5580 4938,5580 4927,5579 4917,5578 4910,5577 4904,5576 4899,5573 4893,5569 4886,5564 4879,5558 4875,5554 4874,5553 "
       style="stroke:#000000;stroke-width:7; stroke-linejoin:bevel; stroke-linecap:butt; "
       id="polyline2962" />
    <!-- Line -->
    <polyline
       points="5312,5100 5311,5100 5308,5100 5299,5100 5283,5099 5262,5098 5237,5097 5209,5096 5181,5095 5155,5093 5130,5092 5108,5090 5088,5089 5070,5087 5053,5086 5037,5084 5023,5082 5006,5080 4989,5077 4972,5073 4955,5070 4935,5065 4914,5060 4892,5054 4869,5048 4847,5042 4827,5036 4812,5032 4803,5029 4800,5028 4799,5028 "
       style="stroke:#000000;stroke-width:7; stroke-linejoin:bevel; stroke-linecap:butt; "
       id="polyline2964" />
    <!-- Line -->
    <polyline
       points="5327,4962 5326,4963 5323,4967 5318,4974 5313,4980 5308,4986 5303,4991 5297,4996 5289,5002 5277,5010 5265,5018 5257,5024 5255,5025 "
       style="stroke:#000000;stroke-width:7; stroke-linejoin:bevel; stroke-linecap:butt; "
       id="polyline2966" />
    <!-- Line -->
    <polyline
       points="5336,5079 5335,5078 5331,5074 5323,5067 5317,5061 5310,5056 5305,5052 5298,5048 5289,5043 5278,5037 5265,5030 5257,5026 5255,5025 "
       style="stroke:#000000;stroke-width:7; stroke-linejoin:bevel; stroke-linecap:butt; "
       id="polyline2968" />
    <!-- Line -->
    <polyline
       points="4800,5625 4801,5624 4804,5621 4811,5614 4823,5602 4838,5587 4852,5573 4864,5561 4871,5554 4874,5551 4875,5550 4875,5549 4875,5546 4876,5539 4877,5530 4879,5519 4882,5510 4885,5502 4889,5496 4894,5491 4900,5488 4910,5484 4921,5480 4934,5478 4948,5475 4961,5472 4973,5470 4982,5466 4988,5463 4990,5458 4991,5452 4989,5444 4986,5436 4982,5427 4978,5418 4976,5409 4975,5400 4976,5393 4978,5386 4982,5378 4988,5369 4996,5359 5006,5349 5018,5337 5031,5326 5046,5313 5063,5300 5072,5292 5083,5284 5095,5274 5108,5264 5123,5253 5139,5240 5158,5226 5179,5211 5201,5194 5224,5176 5247,5159 5270,5142 5289,5127 5305,5115 5316,5107 5322,5102 5325,5100 5326,5099 5329,5096 5336,5089 5348,5077 5363,5062 5377,5048 5389,5036 5396,5029 5399,5026 5400,5025 5400,5026 5399,5029 5397,5038 5393,5054 5389,5075 5383,5100 5377,5128 5372,5156 5366,5183 5362,5208 5358,5231 5355,5252 5353,5272 5351,5290 5350,5308 5350,5325 5350,5342 5351,5360 5353,5378 5355,5398 5358,5419 5362,5442 5366,5467 5372,5494 5377,5522 5383,5550 5389,5575 5393,5596 5397,5612 5399,5621 5400,5624 5400,5625 5401,5625 5404,5626 5413,5628 5428,5632 5448,5637 5473,5644 5500,5651 5526,5658 5552,5664 5576,5671 5597,5677 5616,5682 5633,5687 5648,5691 5662,5696 5675,5700 5692,5706 5708,5712 5724,5718 5740,5725 5756,5732 5772,5739 5786,5747 5801,5755 5814,5763 5827,5771 5838,5779 5850,5788 5860,5795 5870,5803 5881,5812 5892,5822 5905,5834 5919,5847 5935,5862 5951,5877 5966,5892 5980,5906 5990,5916 5997,5922 6000,5925 5999,5924 5995,5920 5986,5912 5972,5898 5955,5882 5937,5866 5920,5851 5905,5839 5892,5829 5881,5822 5871,5816 5863,5813 5852,5810 5842,5809 5832,5810 5820,5812 5807,5814 5793,5817 5778,5820 5762,5823 5744,5824 5725,5825 5713,5825 5700,5824 5686,5823 5671,5822 5654,5820 5636,5817 5617,5814 5597,5811 5575,5807 5553,5803 5530,5799 5507,5794 5483,5789 5459,5784 5435,5779 5411,5774 5387,5768 5363,5763 5344,5758 5324,5754 5304,5749 5283,5744 5261,5739 5237,5733 5212,5727 5184,5720 5155,5713 5123,5705 5090,5697 5055,5688 5019,5679 4983,5670 4947,5661 4913,5653 4882,5646 4856,5639 4835,5634 4819,5630 4808,5627 4803,5626 4800,5625 "
       style="stroke:#000000;stroke-width:7; stroke-linejoin:bevel; stroke-linecap:butt; "
       id="polyline2970" />
    <!-- Circle -->
    <circle
       cx="5545"
       cy="5526"
       r="20"
       style="stroke:#000000;stroke-width:7;"
       id="circle2972" />
    <!-- Circle -->
    <circle
       cx="5855"
       cy="4953"
       r="20"
       style="stroke:#000000;stroke-width:7;"
       id="circle2974" />
    <!-- Line -->
    <polyline
       points="6000,5025 5850,5025 "
       style="stroke:#000000;stroke-width:7; stroke-linejoin:bevel; stroke-linecap:butt; "
       id="polyline2976" />
    <!-- Line -->
    <polyline
       points="5400,5625 5555,5580 "
       style="stroke:#000000;stroke-width:7; stroke-linejoin:bevel; stroke-linecap:butt; "
       id="polyline2978" />
    <!-- Line -->
    <polyline
       points="5546,5580 5545,5581 5538,5587 5528,5596 5520,5604 5514,5610 5512,5616 5510,5622 5511,5628 5513,5636 5516,5645 5519,5651 5519,5652 "
       style="stroke:#000000;stroke-width:7; stroke-linejoin:bevel; stroke-linecap:butt; "
       id="polyline2980" />
    <!-- Line -->
    <polyline
       points="5546,5580 5545,5580 5538,5580 5527,5579 5517,5578 5510,5577 5504,5576 5499,5573 5493,5569 5486,5564 5479,5558 5475,5554 5474,5553 "
       style="stroke:#000000;stroke-width:7; stroke-linejoin:bevel; stroke-linecap:butt; "
       id="polyline2982" />
    <!-- Line -->
    <polyline
       points="5912,5100 5911,5100 5908,5100 5899,5100 5883,5099 5862,5098 5837,5097 5809,5096 5781,5095 5755,5093 5730,5092 5708,5090 5688,5089 5670,5087 5653,5086 5637,5084 5623,5082 5606,5080 5589,5077 5572,5073 5555,5070 5535,5065 5514,5060 5492,5054 5469,5048 5447,5042 5427,5036 5412,5032 5403,5029 5400,5028 5399,5028 "
       style="stroke:#000000;stroke-width:7; stroke-linejoin:bevel; stroke-linecap:butt; "
       id="polyline2984" />
    <!-- Line -->
    <polyline
       points="5927,4962 5926,4963 5923,4967 5918,4974 5913,4980 5908,4986 5903,4991 5897,4996 5889,5002 5877,5010 5865,5018 5857,5024 5855,5025 "
       style="stroke:#000000;stroke-width:7; stroke-linejoin:bevel; stroke-linecap:butt; "
       id="polyline2986" />
    <!-- Line -->
    <polyline
       points="5936,5079 5935,5078 5931,5074 5923,5067 5917,5061 5910,5056 5905,5052 5898,5048 5889,5043 5878,5037 5865,5030 5857,5026 5855,5025 "
       style="stroke:#000000;stroke-width:7; stroke-linejoin:bevel; stroke-linecap:butt; "
       id="polyline2988" />
    <!-- Line -->
    <polyline
       points="5400,5625 5401,5624 5404,5621 5411,5614 5423,5602 5438,5587 5452,5573 5464,5561 5471,5554 5474,5551 5475,5550 5475,5549 5475,5546 5476,5539 5477,5530 5479,5519 5482,5510 5485,5502 5489,5496 5494,5491 5500,5488 5510,5484 5521,5480 5534,5478 5548,5475 5561,5472 5573,5470 5582,5466 5588,5463 5590,5458 5591,5452 5589,5444 5586,5436 5582,5427 5578,5418 5576,5409 5575,5400 5576,5393 5578,5386 5582,5378 5588,5369 5596,5359 5606,5349 5618,5337 5631,5326 5646,5313 5663,5300 5672,5292 5683,5284 5695,5274 5708,5264 5723,5253 5739,5240 5758,5226 5779,5211 5801,5194 5824,5176 5847,5159 5870,5142 5889,5127 5905,5115 5916,5107 5922,5102 5925,5100 5926,5099 5929,5096 5936,5089 5948,5077 5963,5062 5977,5048 5989,5036 5996,5029 5999,5026 6000,5025 6000,5026 5999,5029 5997,5038 5993,5054 5989,5075 5983,5100 5977,5128 5972,5156 5966,5183 5962,5208 5958,5231 5955,5252 5953,5272 5951,5290 5950,5308 5950,5325 5950,5342 5951,5360 5953,5378 5955,5398 5958,5419 5962,5442 5966,5467 5972,5494 5977,5522 5983,5550 5989,5575 5993,5596 5997,5612 5999,5621 6000,5624 6000,5625 6001,5625 6004,5626 6013,5628 6028,5632 6048,5637 6073,5644 6100,5651 6126,5658 6152,5664 6176,5671 6197,5677 6216,5682 6233,5687 6248,5691 6262,5696 6275,5700 6292,5706 6308,5712 6324,5718 6340,5725 6356,5732 6372,5739 6386,5747 6401,5755 6414,5763 6427,5771 6438,5779 6450,5788 6460,5795 6470,5803 6481,5812 6492,5822 6505,5834 6519,5847 6535,5862 6551,5877 6566,5892 6580,5906 6590,5916 6597,5922 6600,5925 6599,5924 6595,5920 6586,5912 6572,5898 6555,5882 6537,5866 6520,5851 6505,5839 6492,5829 6481,5822 6471,5816 6463,5813 6452,5810 6442,5809 6432,5810 6420,5812 6407,5814 6393,5817 6378,5820 6362,5823 6344,5824 6325,5825 6313,5825 6300,5824 6286,5823 6271,5822 6254,5820 6236,5817 6217,5814 6197,5811 6175,5807 6153,5803 6130,5799 6107,5794 6083,5789 6059,5784 6035,5779 6011,5774 5987,5768 5963,5763 5944,5758 5924,5754 5904,5749 5883,5744 5861,5739 5837,5733 5812,5727 5784,5720 5755,5713 5723,5705 5690,5697 5655,5688 5619,5679 5583,5670 5547,5661 5513,5653 5482,5646 5456,5639 5435,5634 5419,5630 5408,5627 5403,5626 5400,5625 "
       style="stroke:#000000;stroke-width:7; stroke-linejoin:bevel; stroke-linecap:butt; "
       id="polyline2990" />
    <!-- Circle -->
    <circle
       cx="6145"
       cy="5526"
       r="20"
       style="stroke:#000000;stroke-width:7;"
       id="circle2992" />
    <!-- Circle -->
    <circle
       cx="6455"
       cy="4953"
       r="20"
       style="stroke:#000000;stroke-width:7;"
       id="circle2994" />
    <!-- Line -->
    <polyline
       points="6600,5025 6450,5025 "
       style="stroke:#000000;stroke-width:7; stroke-linejoin:bevel; stroke-linecap:butt; "
       id="polyline2996" />
    <!-- Line -->
    <polyline
       points="6000,5625 6155,5580 "
       style="stroke:#000000;stroke-width:7; stroke-linejoin:bevel; stroke-linecap:butt; "
       id="polyline2998" />
    <!-- Line -->
    <polyline
       points="6146,5580 6145,5581 6138,5587 6128,5596 6120,5604 6114,5610 6112,5616 6110,5622 6111,5628 6113,5636 6116,5645 6119,5651 6119,5652 "
       style="stroke:#000000;stroke-width:7; stroke-linejoin:bevel; stroke-linecap:butt; "
       id="polyline3000" />
    <!-- Line -->
    <polyline
       points="6146,5580 6145,5580 6138,5580 6127,5579 6117,5578 6110,5577 6104,5576 6099,5573 6093,5569 6086,5564 6079,5558 6075,5554 6074,5553 "
       style="stroke:#000000;stroke-width:7; stroke-linejoin:bevel; stroke-linecap:butt; "
       id="polyline3002" />
    <!-- Line -->
    <polyline
       points="6512,5100 6511,5100 6508,5100 6499,5100 6483,5099 6462,5098 6437,5097 6409,5096 6381,5095 6355,5093 6330,5092 6308,5090 6288,5089 6270,5087 6253,5086 6237,5084 6223,5082 6206,5080 6189,5077 6172,5073 6155,5070 6135,5065 6114,5060 6092,5054 6069,5048 6047,5042 6027,5036 6012,5032 6003,5029 6000,5028 5999,5028 "
       style="stroke:#000000;stroke-width:7; stroke-linejoin:bevel; stroke-linecap:butt; "
       id="polyline3004" />
    <!-- Line -->
    <polyline
       points="6527,4962 6526,4963 6523,4967 6518,4974 6513,4980 6508,4986 6503,4991 6497,4996 6489,5002 6477,5010 6465,5018 6457,5024 6455,5025 "
       style="stroke:#000000;stroke-width:7; stroke-linejoin:bevel; stroke-linecap:butt; "
       id="polyline3006" />
    <!-- Line -->
    <polyline
       points="6536,5079 6535,5078 6531,5074 6523,5067 6517,5061 6510,5056 6505,5052 6498,5048 6489,5043 6478,5037 6465,5030 6457,5026 6455,5025 "
       style="stroke:#000000;stroke-width:7; stroke-linejoin:bevel; stroke-linecap:butt; "
       id="polyline3008" />
    <!-- Line -->
    <polyline
       points="6000,5625 6001,5624 6004,5621 6011,5614 6023,5602 6038,5587 6052,5573 6064,5561 6071,5554 6074,5551 6075,5550 6075,5549 6075,5546 6076,5539 6077,5530 6079,5519 6082,5510 6085,5502 6089,5496 6094,5491 6100,5488 6110,5484 6121,5480 6134,5478 6148,5475 6161,5472 6173,5470 6182,5466 6188,5463 6190,5458 6191,5452 6189,5444 6186,5436 6182,5427 6178,5418 6176,5409 6175,5400 6176,5393 6178,5386 6182,5378 6188,5369 6196,5359 6206,5349 6218,5337 6231,5326 6246,5313 6263,5300 6272,5292 6283,5284 6295,5274 6308,5264 6323,5253 6339,5240 6358,5226 6379,5211 6401,5194 6424,5176 6447,5159 6470,5142 6489,5127 6505,5115 6516,5107 6522,5102 6525,5100 6526,5099 6529,5096 6536,5089 6548,5077 6563,5062 6577,5048 6589,5036 6596,5029 6599,5026 6600,5025 6600,5026 6599,5029 6597,5038 6593,5054 6589,5075 6583,5100 6577,5128 6572,5156 6566,5183 6562,5208 6558,5231 6555,5252 6553,5272 6551,5290 6550,5308 6550,5325 6550,5342 6551,5360 6553,5378 6555,5398 6558,5419 6562,5442 6566,5467 6572,5494 6577,5522 6583,5550 6589,5575 6593,5596 6597,5612 6599,5621 6600,5624 6600,5625 6601,5625 6604,5626 6613,5628 6628,5632 6648,5637 6673,5644 6700,5651 6726,5658 6752,5664 6776,5671 6797,5677 6816,5682 6833,5687 6848,5691 6862,5696 6875,5700 6892,5706 6908,5712 6924,5718 6940,5725 6956,5732 6972,5739 6986,5747 7001,5755 7014,5763 7027,5771 7038,5779 7050,5788 7060,5795 7070,5803 7081,5812 7092,5822 7105,5834 7119,5847 7135,5862 7151,5877 7166,5892 7180,5906 7190,5916 7197,5922 7200,5925 7199,5924 7195,5920 7186,5912 7172,5898 7155,5882 7137,5866 7120,5851 7105,5839 7092,5829 7081,5822 7071,5816 7063,5813 7052,5810 7042,5809 7032,5810 7020,5812 7007,5814 6993,5817 6978,5820 6962,5823 6944,5824 6925,5825 6913,5825 6900,5824 6886,5823 6871,5822 6854,5820 6836,5817 6817,5814 6797,5811 6775,5807 6753,5803 6730,5799 6707,5794 6683,5789 6659,5784 6635,5779 6611,5774 6587,5768 6563,5763 6544,5758 6524,5754 6504,5749 6483,5744 6461,5739 6437,5733 6412,5727 6384,5720 6355,5713 6323,5705 6290,5697 6255,5688 6219,5679 6183,5670 6147,5661 6113,5653 6082,5646 6056,5639 6035,5634 6019,5630 6008,5627 6003,5626 6000,5625 "
       style="stroke:#000000;stroke-width:7; stroke-linejoin:bevel; stroke-linecap:butt; "
       id="polyline3010" />
    <!-- Circle -->
    <circle
       cx="5545"
       cy="4626"
       r="20"
       style="stroke:#000000;stroke-width:7;"
       id="circle3012" />
    <!-- Circle -->
    <circle
       cx="5855"
       cy="4053"
       r="20"
       style="stroke:#000000;stroke-width:7;"
       id="circle3014" />
    <!-- Line -->
    <polyline
       points="6000,4125 5850,4125 "
       style="stroke:#000000;stroke-width:7; stroke-linejoin:bevel; stroke-linecap:butt; "
       id="polyline3016" />
    <!-- Line -->
    <polyline
       points="5400,4725 5555,4680 "
       style="stroke:#000000;stroke-width:7; stroke-linejoin:bevel; stroke-linecap:butt; "
       id="polyline3018" />
    <!-- Line -->
    <polyline
       points="5546,4680 5545,4681 5538,4687 5528,4696 5520,4704 5514,4710 5512,4716 5510,4722 5511,4728 5513,4736 5516,4745 5519,4751 5519,4752 "
       style="stroke:#000000;stroke-width:7; stroke-linejoin:bevel; stroke-linecap:butt; "
       id="polyline3020" />
    <!-- Line -->
    <polyline
       points="5546,4680 5545,4680 5538,4680 5527,4679 5517,4678 5510,4677 5504,4676 5499,4673 5493,4669 5486,4664 5479,4658 5475,4654 5474,4653 "
       style="stroke:#000000;stroke-width:7; stroke-linejoin:bevel; stroke-linecap:butt; "
       id="polyline3022" />
    <!-- Line -->
    <polyline
       points="5912,4200 5911,4200 5908,4200 5899,4200 5883,4199 5862,4198 5837,4197 5809,4196 5781,4195 5755,4193 5730,4192 5708,4190 5688,4189 5670,4187 5653,4186 5637,4184 5623,4182 5606,4180 5589,4177 5572,4173 5555,4170 5535,4165 5514,4160 5492,4154 5469,4148 5447,4142 5427,4136 5412,4132 5403,4129 5400,4128 5399,4128 "
       style="stroke:#000000;stroke-width:7; stroke-linejoin:bevel; stroke-linecap:butt; "
       id="polyline3024" />
    <!-- Line -->
    <polyline
       points="5927,4062 5926,4063 5923,4067 5918,4074 5913,4080 5908,4086 5903,4091 5897,4096 5889,4102 5877,4110 5865,4118 5857,4124 5855,4125 "
       style="stroke:#000000;stroke-width:7; stroke-linejoin:bevel; stroke-linecap:butt; "
       id="polyline3026" />
    <!-- Line -->
    <polyline
       points="5936,4179 5935,4178 5931,4174 5923,4167 5917,4161 5910,4156 5905,4152 5898,4148 5889,4143 5878,4137 5865,4130 5857,4126 5855,4125 "
       style="stroke:#000000;stroke-width:7; stroke-linejoin:bevel; stroke-linecap:butt; "
       id="polyline3028" />
    <!-- Line -->
    <polyline
       points="5400,4725 5401,4724 5404,4721 5411,4714 5423,4702 5438,4687 5452,4673 5464,4661 5471,4654 5474,4651 5475,4650 5475,4649 5475,4646 5476,4639 5477,4630 5479,4619 5482,4610 5485,4602 5489,4596 5494,4591 5500,4588 5510,4584 5521,4580 5534,4578 5548,4575 5561,4572 5573,4570 5582,4566 5588,4563 5590,4558 5591,4552 5589,4544 5586,4536 5582,4527 5578,4518 5576,4509 5575,4500 5576,4493 5578,4486 5582,4478 5588,4469 5596,4459 5606,4449 5618,4437 5631,4426 5646,4413 5663,4400 5672,4392 5683,4384 5695,4374 5708,4364 5723,4353 5739,4340 5758,4326 5779,4311 5801,4294 5824,4276 5847,4259 5870,4242 5889,4227 5905,4215 5916,4207 5922,4202 5925,4200 5926,4199 5929,4196 5936,4189 5948,4177 5963,4162 5977,4148 5989,4136 5996,4129 5999,4126 6000,4125 6000,4126 5999,4129 5997,4138 5993,4154 5989,4175 5983,4200 5977,4228 5972,4256 5966,4283 5962,4308 5958,4331 5955,4352 5953,4372 5951,4390 5950,4408 5950,4425 5950,4442 5951,4460 5953,4478 5955,4498 5958,4519 5962,4542 5966,4567 5972,4594 5977,4622 5983,4650 5989,4675 5993,4696 5997,4712 5999,4721 6000,4724 6000,4725 6001,4725 6004,4726 6013,4728 6028,4732 6048,4737 6073,4744 6100,4751 6126,4758 6152,4764 6176,4771 6197,4777 6216,4782 6233,4787 6248,4791 6262,4796 6275,4800 6292,4806 6308,4812 6324,4818 6340,4825 6356,4832 6372,4839 6386,4847 6401,4855 6414,4863 6427,4871 6438,4879 6450,4888 6460,4895 6470,4903 6481,4912 6492,4922 6505,4934 6519,4947 6535,4962 6551,4977 6566,4992 6580,5006 6590,5016 6597,5022 6600,5025 6599,5024 6595,5020 6586,5012 6572,4998 6555,4982 6537,4966 6520,4951 6505,4939 6492,4929 6481,4922 6471,4916 6463,4913 6452,4910 6442,4909 6432,4910 6420,4912 6407,4914 6393,4917 6378,4920 6362,4923 6344,4924 6325,4925 6313,4925 6300,4924 6286,4923 6271,4922 6254,4920 6236,4917 6217,4914 6197,4911 6175,4907 6153,4903 6130,4899 6107,4894 6083,4889 6059,4884 6035,4879 6011,4874 5987,4868 5963,4863 5944,4858 5924,4854 5904,4849 5883,4844 5861,4839 5837,4833 5812,4827 5784,4820 5755,4813 5723,4805 5690,4797 5655,4788 5619,4779 5583,4770 5547,4761 5513,4753 5482,4746 5456,4739 5435,4734 5419,4730 5408,4727 5403,4726 5400,4725 "
       style="stroke:#000000;stroke-width:7; stroke-linejoin:bevel; stroke-linecap:butt; "
       id="polyline3030" />
    <!-- Circle -->
    <circle
       cx="4945"
       cy="4626"
       r="20"
       style="stroke:#000000;stroke-width:7;"
       id="circle3032" />
    <!-- Circle -->
    <circle
       cx="5255"
       cy="4053"
       r="20"
       style="stroke:#000000;stroke-width:7;"
       id="circle3034" />
    <!-- Line -->
    <polyline
       points="5400,4125 5250,4125 "
       style="stroke:#000000;stroke-width:7; stroke-linejoin:bevel; stroke-linecap:butt; "
       id="polyline3036" />
    <!-- Line -->
    <polyline
       points="4800,4725 4955,4680 "
       style="stroke:#000000;stroke-width:7; stroke-linejoin:bevel; stroke-linecap:butt; "
       id="polyline3038" />
    <!-- Line -->
    <polyline
       points="4946,4680 4945,4681 4938,4687 4928,4696 4920,4704 4914,4710 4912,4716 4910,4722 4911,4728 4913,4736 4916,4745 4919,4751 4919,4752 "
       style="stroke:#000000;stroke-width:7; stroke-linejoin:bevel; stroke-linecap:butt; "
       id="polyline3040" />
    <!-- Line -->
    <polyline
       points="4946,4680 4945,4680 4938,4680 4927,4679 4917,4678 4910,4677 4904,4676 4899,4673 4893,4669 4886,4664 4879,4658 4875,4654 4874,4653 "
       style="stroke:#000000;stroke-width:7; stroke-linejoin:bevel; stroke-linecap:butt; "
       id="polyline3042" />
    <!-- Line -->
    <polyline
       points="5312,4200 5311,4200 5308,4200 5299,4200 5283,4199 5262,4198 5237,4197 5209,4196 5181,4195 5155,4193 5130,4192 5108,4190 5088,4189 5070,4187 5053,4186 5037,4184 5023,4182 5006,4180 4989,4177 4972,4173 4955,4170 4935,4165 4914,4160 4892,4154 4869,4148 4847,4142 4827,4136 4812,4132 4803,4129 4800,4128 4799,4128 "
       style="stroke:#000000;stroke-width:7; stroke-linejoin:bevel; stroke-linecap:butt; "
       id="polyline3044" />
    <!-- Line -->
    <polyline
       points="5327,4062 5326,4063 5323,4067 5318,4074 5313,4080 5308,4086 5303,4091 5297,4096 5289,4102 5277,4110 5265,4118 5257,4124 5255,4125 "
       style="stroke:#000000;stroke-width:7; stroke-linejoin:bevel; stroke-linecap:butt; "
       id="polyline3046" />
    <!-- Line -->
    <polyline
       points="5336,4179 5335,4178 5331,4174 5323,4167 5317,4161 5310,4156 5305,4152 5298,4148 5289,4143 5278,4137 5265,4130 5257,4126 5255,4125 "
       style="stroke:#000000;stroke-width:7; stroke-linejoin:bevel; stroke-linecap:butt; "
       id="polyline3048" />
    <!-- Line -->
    <polyline
       points="4800,4725 4801,4724 4804,4721 4811,4714 4823,4702 4838,4687 4852,4673 4864,4661 4871,4654 4874,4651 4875,4650 4875,4649 4875,4646 4876,4639 4877,4630 4879,4619 4882,4610 4885,4602 4889,4596 4894,4591 4900,4588 4910,4584 4921,4580 4934,4578 4948,4575 4961,4572 4973,4570 4982,4566 4988,4563 4990,4558 4991,4552 4989,4544 4986,4536 4982,4527 4978,4518 4976,4509 4975,4500 4976,4493 4978,4486 4982,4478 4988,4469 4996,4459 5006,4449 5018,4437 5031,4426 5046,4413 5063,4400 5072,4392 5083,4384 5095,4374 5108,4364 5123,4353 5139,4340 5158,4326 5179,4311 5201,4294 5224,4276 5247,4259 5270,4242 5289,4227 5305,4215 5316,4207 5322,4202 5325,4200 5326,4199 5329,4196 5336,4189 5348,4177 5363,4162 5377,4148 5389,4136 5396,4129 5399,4126 5400,4125 5400,4126 5399,4129 5397,4138 5393,4154 5389,4175 5383,4200 5377,4228 5372,4256 5366,4283 5362,4308 5358,4331 5355,4352 5353,4372 5351,4390 5350,4408 5350,4425 5350,4442 5351,4460 5353,4478 5355,4498 5358,4519 5362,4542 5366,4567 5372,4594 5377,4622 5383,4650 5389,4675 5393,4696 5397,4712 5399,4721 5400,4724 5400,4725 5401,4725 5404,4726 5413,4728 5428,4732 5448,4737 5473,4744 5500,4751 5526,4758 5552,4764 5576,4771 5597,4777 5616,4782 5633,4787 5648,4791 5662,4796 5675,4800 5692,4806 5708,4812 5724,4818 5740,4825 5756,4832 5772,4839 5786,4847 5801,4855 5814,4863 5827,4871 5838,4879 5850,4888 5860,4895 5870,4903 5881,4912 5892,4922 5905,4934 5919,4947 5935,4962 5951,4977 5966,4992 5980,5006 5990,5016 5997,5022 6000,5025 5999,5024 5995,5020 5986,5012 5972,4998 5955,4982 5937,4966 5920,4951 5905,4939 5892,4929 5881,4922 5871,4916 5863,4913 5852,4910 5842,4909 5832,4910 5820,4912 5807,4914 5793,4917 5778,4920 5762,4923 5744,4924 5725,4925 5713,4925 5700,4924 5686,4923 5671,4922 5654,4920 5636,4917 5617,4914 5597,4911 5575,4907 5553,4903 5530,4899 5507,4894 5483,4889 5459,4884 5435,4879 5411,4874 5387,4868 5363,4863 5344,4858 5324,4854 5304,4849 5283,4844 5261,4839 5237,4833 5212,4827 5184,4820 5155,4813 5123,4805 5090,4797 5055,4788 5019,4779 4983,4770 4947,4761 4913,4753 4882,4746 4856,4739 4835,4734 4819,4730 4808,4727 4803,4726 4800,4725 "
       style="stroke:#000000;stroke-width:7; stroke-linejoin:bevel; stroke-linecap:butt; "
       id="polyline3050" />
    <!-- Circle -->
    <circle
       cx="6145"
       cy="4626"
       r="20"
       style="stroke:#000000;stroke-width:7;"
       id="circle3052" />
    <!-- Circle -->
    <circle
       cx="6455"
       cy="4053"
       r="20"
       style="stroke:#000000;stroke-width:7;"
       id="circle3054" />
    <!-- Line -->
    <polyline
       points="6600,4125 6450,4125 "
       style="stroke:#000000;stroke-width:7; stroke-linejoin:bevel; stroke-linecap:butt; "
       id="polyline3056" />
    <!-- Line -->
    <polyline
       points="6000,4725 6155,4680 "
       style="stroke:#000000;stroke-width:7; stroke-linejoin:bevel; stroke-linecap:butt; "
       id="polyline3058" />
    <!-- Line -->
    <polyline
       points="6146,4680 6145,4681 6138,4687 6128,4696 6120,4704 6114,4710 6112,4716 6110,4722 6111,4728 6113,4736 6116,4745 6119,4751 6119,4752 "
       style="stroke:#000000;stroke-width:7; stroke-linejoin:bevel; stroke-linecap:butt; "
       id="polyline3060" />
    <!-- Line -->
    <polyline
       points="6146,4680 6145,4680 6138,4680 6127,4679 6117,4678 6110,4677 6104,4676 6099,4673 6093,4669 6086,4664 6079,4658 6075,4654 6074,4653 "
       style="stroke:#000000;stroke-width:7; stroke-linejoin:bevel; stroke-linecap:butt; "
       id="polyline3062" />
    <!-- Line -->
    <polyline
       points="6512,4200 6511,4200 6508,4200 6499,4200 6483,4199 6462,4198 6437,4197 6409,4196 6381,4195 6355,4193 6330,4192 6308,4190 6288,4189 6270,4187 6253,4186 6237,4184 6223,4182 6206,4180 6189,4177 6172,4173 6155,4170 6135,4165 6114,4160 6092,4154 6069,4148 6047,4142 6027,4136 6012,4132 6003,4129 6000,4128 5999,4128 "
       style="stroke:#000000;stroke-width:7; stroke-linejoin:bevel; stroke-linecap:butt; "
       id="polyline3064" />
    <!-- Line -->
    <polyline
       points="6527,4062 6526,4063 6523,4067 6518,4074 6513,4080 6508,4086 6503,4091 6497,4096 6489,4102 6477,4110 6465,4118 6457,4124 6455,4125 "
       style="stroke:#000000;stroke-width:7; stroke-linejoin:bevel; stroke-linecap:butt; "
       id="polyline3066" />
    <!-- Line -->
    <polyline
       points="6536,4179 6535,4178 6531,4174 6523,4167 6517,4161 6510,4156 6505,4152 6498,4148 6489,4143 6478,4137 6465,4130 6457,4126 6455,4125 "
       style="stroke:#000000;stroke-width:7; stroke-linejoin:bevel; stroke-linecap:butt; "
       id="polyline3068" />
    <!-- Line -->
    <polyline
       points="6000,4725 6001,4724 6004,4721 6011,4714 6023,4702 6038,4687 6052,4673 6064,4661 6071,4654 6074,4651 6075,4650 6075,4649 6075,4646 6076,4639 6077,4630 6079,4619 6082,4610 6085,4602 6089,4596 6094,4591 6100,4588 6110,4584 6121,4580 6134,4578 6148,4575 6161,4572 6173,4570 6182,4566 6188,4563 6190,4558 6191,4552 6189,4544 6186,4536 6182,4527 6178,4518 6176,4509 6175,4500 6176,4493 6178,4486 6182,4478 6188,4469 6196,4459 6206,4449 6218,4437 6231,4426 6246,4413 6263,4400 6272,4392 6283,4384 6295,4374 6308,4364 6323,4353 6339,4340 6358,4326 6379,4311 6401,4294 6424,4276 6447,4259 6470,4242 6489,4227 6505,4215 6516,4207 6522,4202 6525,4200 6526,4199 6529,4196 6536,4189 6548,4177 6563,4162 6577,4148 6589,4136 6596,4129 6599,4126 6600,4125 6600,4126 6599,4129 6597,4138 6593,4154 6589,4175 6583,4200 6577,4228 6572,4256 6566,4283 6562,4308 6558,4331 6555,4352 6553,4372 6551,4390 6550,4408 6550,4425 6550,4442 6551,4460 6553,4478 6555,4498 6558,4519 6562,4542 6566,4567 6572,4594 6577,4622 6583,4650 6589,4675 6593,4696 6597,4712 6599,4721 6600,4724 6600,4725 6601,4725 6604,4726 6613,4728 6628,4732 6648,4737 6673,4744 6700,4751 6726,4758 6752,4764 6776,4771 6797,4777 6816,4782 6833,4787 6848,4791 6862,4796 6875,4800 6892,4806 6908,4812 6924,4818 6940,4825 6956,4832 6972,4839 6986,4847 7001,4855 7014,4863 7027,4871 7038,4879 7050,4888 7060,4895 7070,4903 7081,4912 7092,4922 7105,4934 7119,4947 7135,4962 7151,4977 7166,4992 7180,5006 7190,5016 7197,5022 7200,5025 7199,5024 7195,5020 7186,5012 7172,4998 7155,4982 7137,4966 7120,4951 7105,4939 7092,4929 7081,4922 7071,4916 7063,4913 7052,4910 7042,4909 7032,4910 7020,4912 7007,4914 6993,4917 6978,4920 6962,4923 6944,4924 6925,4925 6913,4925 6900,4924 6886,4923 6871,4922 6854,4920 6836,4917 6817,4914 6797,4911 6775,4907 6753,4903 6730,4899 6707,4894 6683,4889 6659,4884 6635,4879 6611,4874 6587,4868 6563,4863 6544,4858 6524,4854 6504,4849 6483,4844 6461,4839 6437,4833 6412,4827 6384,4820 6355,4813 6323,4805 6290,4797 6255,4788 6219,4779 6183,4770 6147,4761 6113,4753 6082,4746 6056,4739 6035,4734 6019,4730 6008,4727 6003,4726 6000,4725 "
       style="stroke:#000000;stroke-width:7; stroke-linejoin:bevel; stroke-linecap:butt; "
       id="polyline3070" />
    <!-- Circle -->
    <circle
       cx="4345"
       cy="4626"
       r="20"
       style="stroke:#000000;stroke-width:7;"
       id="circle3072" />
    <!-- Circle -->
    <circle
       cx="4655"
       cy="4053"
       r="20"
       style="stroke:#000000;stroke-width:7;"
       id="circle3074" />
    <!-- Line -->
    <polyline
       points="4800,4125 4650,4125 "
       style="stroke:#000000;stroke-width:7; stroke-linejoin:bevel; stroke-linecap:butt; "
       id="polyline3076" />
    <!-- Line -->
    <polyline
       points="4200,4725 4355,4680 "
       style="stroke:#000000;stroke-width:7; stroke-linejoin:bevel; stroke-linecap:butt; "
       id="polyline3078" />
    <!-- Line -->
    <polyline
       points="4346,4680 4345,4681 4338,4687 4328,4696 4320,4704 4314,4710 4312,4716 4310,4722 4311,4728 4313,4736 4316,4745 4319,4751 4319,4752 "
       style="stroke:#000000;stroke-width:7; stroke-linejoin:bevel; stroke-linecap:butt; "
       id="polyline3080" />
    <!-- Line -->
    <polyline
       points="4346,4680 4345,4680 4338,4680 4327,4679 4317,4678 4310,4677 4304,4676 4299,4673 4293,4669 4286,4664 4279,4658 4275,4654 4274,4653 "
       style="stroke:#000000;stroke-width:7; stroke-linejoin:bevel; stroke-linecap:butt; "
       id="polyline3082" />
    <!-- Line -->
    <polyline
       points="4712,4200 4711,4200 4708,4200 4699,4200 4683,4199 4662,4198 4637,4197 4609,4196 4581,4195 4555,4193 4530,4192 4508,4190 4488,4189 4470,4187 4453,4186 4437,4184 4423,4182 4406,4180 4389,4177 4372,4173 4355,4170 4335,4165 4314,4160 4292,4154 4269,4148 4247,4142 4227,4136 4212,4132 4203,4129 4200,4128 4199,4128 "
       style="stroke:#000000;stroke-width:7; stroke-linejoin:bevel; stroke-linecap:butt; "
       id="polyline3084" />
    <!-- Line -->
    <polyline
       points="4727,4062 4726,4063 4723,4067 4718,4074 4713,4080 4708,4086 4703,4091 4697,4096 4689,4102 4677,4110 4665,4118 4657,4124 4655,4125 "
       style="stroke:#000000;stroke-width:7; stroke-linejoin:bevel; stroke-linecap:butt; "
       id="polyline3086" />
    <!-- Line -->
    <polyline
       points="4736,4179 4735,4178 4731,4174 4723,4167 4717,4161 4710,4156 4705,4152 4698,4148 4689,4143 4678,4137 4665,4130 4657,4126 4655,4125 "
       style="stroke:#000000;stroke-width:7; stroke-linejoin:bevel; stroke-linecap:butt; "
       id="polyline3088" />
    <!-- Line -->
    <polyline
       points="4200,4725 4201,4724 4204,4721 4211,4714 4223,4702 4238,4687 4252,4673 4264,4661 4271,4654 4274,4651 4275,4650 4275,4649 4275,4646 4276,4639 4277,4630 4279,4619 4282,4610 4285,4602 4289,4596 4294,4591 4300,4588 4310,4584 4321,4580 4334,4578 4348,4575 4361,4572 4373,4570 4382,4566 4388,4563 4390,4558 4391,4552 4389,4544 4386,4536 4382,4527 4378,4518 4376,4509 4375,4500 4376,4493 4378,4486 4382,4478 4388,4469 4396,4459 4406,4449 4418,4437 4431,4426 4446,4413 4463,4400 4472,4392 4483,4384 4495,4374 4508,4364 4523,4353 4539,4340 4558,4326 4579,4311 4601,4294 4624,4276 4647,4259 4670,4242 4689,4227 4705,4215 4716,4207 4722,4202 4725,4200 4726,4199 4729,4196 4736,4189 4748,4177 4763,4162 4777,4148 4789,4136 4796,4129 4799,4126 4800,4125 4800,4126 4799,4129 4797,4138 4793,4154 4789,4175 4783,4200 4777,4228 4772,4256 4766,4283 4762,4308 4758,4331 4755,4352 4753,4372 4751,4390 4750,4408 4750,4425 4750,4442 4751,4460 4753,4478 4755,4498 4758,4519 4762,4542 4766,4567 4772,4594 4777,4622 4783,4650 4789,4675 4793,4696 4797,4712 4799,4721 4800,4724 4800,4725 4801,4725 4804,4726 4813,4728 4828,4732 4848,4737 4873,4744 4900,4751 4926,4758 4952,4764 4976,4771 4997,4777 5016,4782 5033,4787 5048,4791 5062,4796 5075,4800 5092,4806 5108,4812 5124,4818 5140,4825 5156,4832 5172,4839 5186,4847 5201,4855 5214,4863 5227,4871 5238,4879 5250,4888 5260,4895 5270,4903 5281,4912 5292,4922 5305,4934 5319,4947 5335,4962 5351,4977 5366,4992 5380,5006 5390,5016 5397,5022 5400,5025 5399,5024 5395,5020 5386,5012 5372,4998 5355,4982 5337,4966 5320,4951 5305,4939 5292,4929 5281,4922 5271,4916 5263,4913 5252,4910 5242,4909 5232,4910 5220,4912 5207,4914 5193,4917 5178,4920 5162,4923 5144,4924 5125,4925 5113,4925 5100,4924 5086,4923 5071,4922 5054,4920 5036,4917 5017,4914 4997,4911 4975,4907 4953,4903 4930,4899 4907,4894 4883,4889 4859,4884 4835,4879 4811,4874 4787,4868 4763,4863 4744,4858 4724,4854 4704,4849 4683,4844 4661,4839 4637,4833 4612,4827 4584,4820 4555,4813 4523,4805 4490,4797 4455,4788 4419,4779 4383,4770 4347,4761 4313,4753 4282,4746 4256,4739 4235,4734 4219,4730 4208,4727 4203,4726 4200,4725 "
       style="stroke:#000000;stroke-width:7; stroke-linejoin:bevel; stroke-linecap:butt; "
       id="polyline3090" />
  </g>
</svg>
