<?xml version="1.0" encoding="UTF-8" standalone="no"?>
<!-- Creator: fig2dev Version 3.2 Patchlevel 5a -->

<!-- CreationDate: Tue Dec 14 14:43:15 2010 -->

<!-- Magnification: 1.050 -->

<svg
   xmlns:dc="http://purl.org/dc/elements/1.1/"
   xmlns:cc="http://creativecommons.org/ns#"
   xmlns:rdf="http://www.w3.org/1999/02/22-rdf-syntax-ns#"
   xmlns:svg="http://www.w3.org/2000/svg"
   xmlns="http://www.w3.org/2000/svg"
   xmlns:sodipodi="http://sodipodi.sourceforge.net/DTD/sodipodi-0.dtd"
   xmlns:inkscape="http://www.inkscape.org/namespaces/inkscape"
   width="2.6in"
   height="1.4in"
   viewBox="2058 7979 3119 1639"
   id="svg3464"
   version="1.1"
   inkscape:version="0.47 r22583"
   sodipodi:docname="pbpcas.fig">
  <metadata
     id="metadata3664">
    <rdf:RDF>
      <cc:Work
         rdf:about="">
        <dc:format>image/svg+xml</dc:format>
        <dc:type
           rdf:resource="http://purl.org/dc/dcmitype/StillImage" />
        <dc:title></dc:title>
      </cc:Work>
    </rdf:RDF>
  </metadata>
  <defs
     id="defs3662">
    <inkscape:perspective
       sodipodi:type="inkscape:persp3d"
       inkscape:vp_x="0 : 63 : 1"
       inkscape:vp_y="0 : 1000 : 0"
       inkscape:vp_z="233.99998 : 63 : 1"
       inkscape:persp3d-origin="116.99999 : 42 : 1"
       id="perspective3666" />
  </defs>
  <sodipodi:namedview
     pagecolor="#ffffff"
     bordercolor="#666666"
     borderopacity="1"
     objecttolerance="10"
     gridtolerance="10"
     guidetolerance="10"
     inkscape:pageopacity="0"
     inkscape:pageshadow="2"
     inkscape:window-width="640"
     inkscape:window-height="487"
     id="namedview3660"
     showgrid="false"
     inkscape:zoom="1.8730159"
     inkscape:cx="116.99999"
     inkscape:cy="63"
     inkscape:window-x="0"
     inkscape:window-y="0"
     inkscape:window-maximized="0"
     inkscape:current-layer="svg3464" />
  <g
     style="stroke-width:.025in; fill:none"
     id="g3466">
    <!-- Line -->
    <polyline
       points="2931,9458 2759,9549 2759,9354 2931,9262 2931,9458 "
       style="stroke:#000000;stroke-width:8; stroke-linejoin:bevel; stroke-linecap:butt; "
       id="polyline3468" />
    <!-- Line -->
    <polyline
       points="2586,9446 2586,9251 2415,9148 2415,9343 2586,9446 "
       style="stroke:#000000;stroke-width:8; stroke-linejoin:bevel; stroke-linecap:butt; "
       id="polyline3470" />
    <!-- Line -->
    <polyline
       points="3103,9365 2931,9458 2931,9262 3103,9171 3103,9365 "
       style="stroke:#000000;stroke-width:8; stroke-linejoin:bevel; stroke-linecap:butt; "
       id="polyline3472" />
    <!-- Line -->
    <polyline
       points="2759,9160 2931,9068 3103,9171 2931,9262 2759,9160 "
       style="stroke:#000000;stroke-width:8; stroke-linejoin:bevel; stroke-linecap:butt; "
       id="polyline3474" />
    <!-- Line -->
    <polyline
       points="2586,9251 2586,9057 2415,8953 2415,9148 2586,9251 "
       style="stroke:#000000;stroke-width:8; stroke-linejoin:bevel; stroke-linecap:butt; "
       id="polyline3476" />
    <!-- Line -->
    <polyline
       points="2759,9160 2586,9251 2586,9057 2759,8964 2759,9160 "
       style="stroke:#000000;stroke-width:8; stroke-linejoin:bevel; stroke-linecap:butt; "
       id="polyline3478" />
    <!-- Line -->
    <polyline
       points="2931,9068 2759,9160 2759,8964 2931,8873 2931,9068 "
       style="stroke:#000000;stroke-width:8; stroke-linejoin:bevel; stroke-linecap:butt; "
       id="polyline3480" />
    <!-- Line -->
    <polyline
       points="2586,9251 2759,9160 2931,9262 2759,9354 2586,9251 "
       style="stroke:#000000;stroke-width:8; stroke-linejoin:bevel; stroke-linecap:butt; "
       id="polyline3482" />
    <!-- Line -->
    <polyline
       points="2759,9549 2759,9354 2586,9251 2586,9446 2759,9549 "
       style="stroke:#000000;stroke-width:8; stroke-linejoin:bevel; stroke-linecap:butt; "
       id="polyline3484" />
    <!-- Line -->
    <polyline
       points="2415,8953 2586,8861 2759,8964 2586,9057 2415,8953 "
       style="stroke:#000000;stroke-width:8; stroke-linejoin:bevel; stroke-linecap:butt; "
       id="polyline3486" />
    <!-- Line -->
    <polyline
       points="2415,9343 2415,9148 2243,9045 2243,9239 2415,9343 "
       style="stroke:#000000;stroke-width:8; stroke-linejoin:bevel; stroke-linecap:butt; "
       id="polyline3488" />
    <!-- Line -->
    <polyline
       points="2415,9148 2415,8953 2243,8850 2243,9045 2415,9148 "
       style="stroke:#000000;stroke-width:8; stroke-linejoin:bevel; stroke-linecap:butt; "
       id="polyline3490" />
    <!-- Line -->
    <polyline
       points="2243,8850 2415,8759 2586,8861 2415,8953 2243,8850 "
       style="stroke:#000000;stroke-width:8; stroke-linejoin:bevel; stroke-linecap:butt; "
       id="polyline3492" />
    <!-- Line -->
    <polyline
       points="3274,9274 3103,9365 3103,9171 3274,9079 3274,9274 "
       style="stroke:#000000;stroke-width:8; stroke-linejoin:bevel; stroke-linecap:butt; "
       id="polyline3494" />
    <!-- Line -->
    <polyline
       points="2243,9239 2243,9045 2071,8942 2071,9137 2243,9239 "
       style="stroke:#000000;stroke-width:8; stroke-linejoin:bevel; stroke-linecap:butt; "
       id="polyline3496" />
    <!-- Line -->
    <polyline
       points="3446,9183 3274,9274 3274,9079 3446,8987 3446,9183 "
       style="stroke:#000000;stroke-width:8; stroke-linejoin:bevel; stroke-linecap:butt; "
       id="polyline3498" />
    <!-- Line -->
    <polyline
       points="2931,9068 3103,8976 3274,9079 3103,9171 2931,9068 "
       style="stroke:#000000;stroke-width:8; stroke-linejoin:bevel; stroke-linecap:butt; "
       id="polyline3500" />
    <!-- Line -->
    <polyline
       points="2586,8861 2759,8770 2931,8873 2759,8964 2586,8861 "
       style="stroke:#000000;stroke-width:8; stroke-linejoin:bevel; stroke-linecap:butt; "
       id="polyline3502" />
    <!-- Line -->
    <polyline
       points="2586,8861 2586,8667 2415,8563 2415,8759 2586,8861 "
       style="stroke:#000000;stroke-width:8; stroke-linejoin:bevel; stroke-linecap:butt; "
       id="polyline3504" />
    <!-- Line -->
    <polyline
       points="2759,8770 2586,8861 2586,8667 2759,8575 2759,8770 "
       style="stroke:#000000;stroke-width:8; stroke-linejoin:bevel; stroke-linecap:butt; "
       id="polyline3506" />
    <!-- Line -->
    <polyline
       points="2243,9045 2243,8850 2071,8747 2071,8942 2243,9045 "
       style="stroke:#000000;stroke-width:8; stroke-linejoin:bevel; stroke-linecap:butt; "
       id="polyline3508" />
    <!-- Line -->
    <polyline
       points="2071,8747 2243,8656 2415,8759 2243,8850 2071,8747 "
       style="stroke:#000000;stroke-width:8; stroke-linejoin:bevel; stroke-linecap:butt; "
       id="polyline3510" />
    <!-- Line -->
    <polyline
       points="3103,8976 2931,9068 2931,8873 3103,8782 3103,8976 "
       style="stroke:#000000;stroke-width:8; stroke-linejoin:bevel; stroke-linecap:butt; "
       id="polyline3512" />
    <!-- Line -->
    <polyline
       points="3103,8782 2931,8873 2931,8678 3103,8586 3103,8782 "
       style="stroke:#000000;stroke-width:8; stroke-linejoin:bevel; stroke-linecap:butt; "
       id="polyline3514" />
    <!-- Line -->
    <polyline
       points="2931,8873 2931,8678 2759,8575 2759,8770 2931,8873 "
       style="stroke:#000000;stroke-width:8; stroke-linejoin:bevel; stroke-linecap:butt; "
       id="polyline3516" />
    <!-- Line -->
    <polyline
       points="2759,8575 2931,8483 3103,8586 2931,8678 2759,8575 "
       style="stroke:#000000;stroke-width:8; stroke-linejoin:bevel; stroke-linecap:butt; "
       id="polyline3518" />
    <!-- Line -->
    <polyline
       points="3103,8976 3274,8885 3446,8987 3274,9079 3103,8976 "
       style="stroke:#000000;stroke-width:8; stroke-linejoin:bevel; stroke-linecap:butt; "
       id="polyline3520" />
    <!-- Line -->
    <polyline
       points="3274,8885 3103,8976 3103,8782 3274,8689 3274,8885 "
       style="stroke:#000000;stroke-width:8; stroke-linejoin:bevel; stroke-linecap:butt; "
       id="polyline3522" />
    <!-- Line -->
    <polyline
       points="3446,8987 3446,8793 3274,8689 3274,8885 3446,8987 "
       style="stroke:#000000;stroke-width:8; stroke-linejoin:bevel; stroke-linecap:butt; "
       id="polyline3524" />
    <!-- Line -->
    <polyline
       points="2415,8759 2415,8563 2243,8460 2243,8656 2415,8759 "
       style="stroke:#000000;stroke-width:8; stroke-linejoin:bevel; stroke-linecap:butt; "
       id="polyline3526" />
    <!-- Line -->
    <polyline
       points="2415,8563 2586,8472 2759,8575 2586,8667 2415,8563 "
       style="stroke:#000000;stroke-width:8; stroke-linejoin:bevel; stroke-linecap:butt; "
       id="polyline3528" />
    <!-- Line -->
    <polyline
       points="2243,8656 2071,8747 2071,8552 2243,8460 2243,8656 "
       style="stroke:#000000;stroke-width:8; stroke-linejoin:bevel; stroke-linecap:butt; "
       id="polyline3530" />
    <!-- Line -->
    <polyline
       points="3446,8793 3446,8598 3274,8495 3274,8689 3446,8793 "
       style="stroke:#000000;stroke-width:8; stroke-linejoin:bevel; stroke-linecap:butt; "
       id="polyline3532" />
    <!-- Line -->
    <polyline
       points="3274,8689 3103,8782 3103,8586 3274,8495 3274,8689 "
       style="stroke:#000000;stroke-width:8; stroke-linejoin:bevel; stroke-linecap:butt; "
       id="polyline3534" />
    <!-- Line -->
    <polyline
       points="2759,8575 2759,8381 2586,8278 2586,8472 2759,8575 "
       style="stroke:#000000;stroke-width:8; stroke-linejoin:bevel; stroke-linecap:butt; "
       id="polyline3536" />
    <!-- Line -->
    <polyline
       points="2931,8483 2759,8575 2759,8381 2931,8288 2931,8483 "
       style="stroke:#000000;stroke-width:8; stroke-linejoin:bevel; stroke-linecap:butt; "
       id="polyline3538" />
    <!-- Line -->
    <polyline
       points="2243,8460 2415,8369 2586,8472 2415,8563 2243,8460 "
       style="stroke:#000000;stroke-width:8; stroke-linejoin:bevel; stroke-linecap:butt; "
       id="polyline3540" />
    <!-- Line -->
    <polyline
       points="2243,8460 2071,8552 2071,8358 2243,8266 2243,8460 "
       style="stroke:#000000;stroke-width:8; stroke-linejoin:bevel; stroke-linecap:butt; "
       id="polyline3542" />
    <!-- Line -->
    <polyline
       points="3446,8598 3446,8404 3274,8300 3274,8495 3446,8598 "
       style="stroke:#000000;stroke-width:8; stroke-linejoin:bevel; stroke-linecap:butt; "
       id="polyline3544" />
    <!-- Line -->
    <polyline
       points="2931,8288 3103,8197 3274,8300 3103,8392 2931,8288 "
       style="stroke:#000000;stroke-width:8; stroke-linejoin:bevel; stroke-linecap:butt; "
       id="polyline3546" />
    <!-- Line -->
    <polyline
       points="3274,8495 3103,8586 3103,8392 3274,8300 3274,8495 "
       style="stroke:#000000;stroke-width:8; stroke-linejoin:bevel; stroke-linecap:butt; "
       id="polyline3548" />
    <!-- Line -->
    <polyline
       points="3103,8586 3103,8392 2931,8288 2931,8483 3103,8586 "
       style="stroke:#000000;stroke-width:8; stroke-linejoin:bevel; stroke-linecap:butt; "
       id="polyline3550" />
    <!-- Line -->
    <polyline
       points="2586,8278 2759,8185 2931,8288 2759,8381 2586,8278 "
       style="stroke:#000000;stroke-width:8; stroke-linejoin:bevel; stroke-linecap:butt; "
       id="polyline3552" />
    <!-- Line -->
    <polyline
       points="2586,8472 2586,8278 2415,8174 2415,8369 2586,8472 "
       style="stroke:#000000;stroke-width:8; stroke-linejoin:bevel; stroke-linecap:butt; "
       id="polyline3554" />
    <!-- Line -->
    <polyline
       points="2415,8369 2243,8460 2243,8266 2415,8174 2415,8369 "
       style="stroke:#000000;stroke-width:8; stroke-linejoin:bevel; stroke-linecap:butt; "
       id="polyline3556" />
    <!-- Line -->
    <polyline
       points="2415,8174 2586,8082 2759,8185 2586,8278 2415,8174 "
       style="stroke:#000000;stroke-width:8; stroke-linejoin:bevel; stroke-linecap:butt; "
       id="polyline3558" />
    <!-- Line -->
    <polyline
       points="2586,8082 2759,7991 2931,8094 2759,8185 2586,8082 "
       style="stroke:#000000;stroke-width:8; stroke-linejoin:bevel; stroke-linecap:butt; "
       id="polyline3560" />
    <!-- Line -->
    <polyline
       points="2759,8185 2931,8094 3103,8197 2931,8288 2759,8185 "
       style="stroke:#000000;stroke-width:8; stroke-linejoin:bevel; stroke-linecap:butt; "
       id="polyline3562" />
    <!-- Line -->
    <polyline
       points="4649,8151 4477,8243 4306,8139 4477,8048 4649,8151 "
       style="stroke:#000000;stroke-width:8; stroke-linejoin:bevel; stroke-linecap:butt; "
       id="polyline3564" />
    <!-- Line -->
    <polyline
       points="4822,8255 4649,8346 4477,8243 4649,8151 4822,8255 "
       style="stroke:#000000;stroke-width:8; stroke-linejoin:bevel; stroke-linecap:butt; "
       id="polyline3566" />
    <!-- Line -->
    <polyline
       points="4477,8243 4306,8334 4134,8232 4306,8139 4477,8243 "
       style="stroke:#000000;stroke-width:8; stroke-linejoin:bevel; stroke-linecap:butt; "
       id="polyline3568" />
    <!-- Line -->
    <polyline
       points="4649,8346 4477,8437 4306,8334 4477,8243 4649,8346 "
       style="stroke:#000000;stroke-width:8; stroke-linejoin:bevel; stroke-linecap:butt; "
       id="polyline3570" />
    <!-- Line -->
    <polyline
       points="4134,8232 4134,8426 4306,8530 4306,8334 4134,8232 "
       style="stroke:#000000;stroke-width:8; stroke-linejoin:bevel; stroke-linecap:butt; fill:#ffbfbf; "
       id="polyline3572" />
    <!-- Line -->
    <polyline
       points="4306,8334 4306,8530 4477,8633 4477,8437 4306,8334 "
       style="stroke:#000000;stroke-width:8; stroke-linejoin:bevel; stroke-linecap:butt; fill:#ffbfbf; "
       id="polyline3574" />
    <!-- Line -->
    <polyline
       points="4477,8437 4649,8346 4649,8540 4477,8633 4477,8437 "
       style="stroke:#000000;stroke-width:8; stroke-linejoin:bevel; stroke-linecap:butt; fill:#b46100; "
       id="polyline3576" />
    <!-- Line -->
    <polyline
       points="4649,8346 4649,8540 4822,8644 4822,8449 4649,8346 "
       style="stroke:#000000;stroke-width:8; stroke-linejoin:bevel; stroke-linecap:butt; fill:#ffbfbf; "
       id="polyline3578" />
    <!-- Line -->
    <polyline
       points="4993,8358 4822,8449 4649,8346 4822,8255 4993,8358 "
       style="stroke:#000000;stroke-width:8; stroke-linejoin:bevel; stroke-linecap:butt; "
       id="polyline3580" />
    <!-- Line -->
    <polyline
       points="4822,8449 4993,8358 4993,8552 4822,8644 4822,8449 "
       style="stroke:#000000;stroke-width:8; stroke-linejoin:bevel; stroke-linecap:butt; fill:#b46100; "
       id="polyline3582" />
    <!-- Line -->
    <polyline
       points="4993,8358 4993,8552 5165,8656 5165,8460 4993,8358 "
       style="stroke:#000000;stroke-width:8; stroke-linejoin:bevel; stroke-linecap:butt; fill:#ffbfbf; "
       id="polyline3584" />
    <!-- Line -->
    <polyline
       points="4993,8552 4993,8747 5165,8850 5165,8656 4993,8552 "
       style="stroke:#000000;stroke-width:8; stroke-linejoin:bevel; stroke-linecap:butt; fill:#ffbfbf; "
       id="polyline3586" />
    <!-- Line -->
    <polyline
       points="4993,8747 4993,8941 5165,9045 5165,8850 4993,8747 "
       style="stroke:#000000;stroke-width:8; stroke-linejoin:bevel; stroke-linecap:butt; fill:#ffbfbf; "
       id="polyline3588" />
    <!-- Line -->
    <polyline
       points="4822,8644 4993,8552 4993,8747 4822,8838 4822,8644 "
       style="stroke:#000000;stroke-width:8; stroke-linejoin:bevel; stroke-linecap:butt; fill:#b46100; "
       id="polyline3590" />
    <!-- Line -->
    <polyline
       points="4822,8838 4993,8747 4993,8941 4822,9034 4822,8838 "
       style="stroke:#000000;stroke-width:8; stroke-linejoin:bevel; stroke-linecap:butt; fill:#b46100; "
       id="polyline3592" />
    <!-- Line -->
    <polyline
       points="5165,9045 4993,9137 4822,9034 4993,8941 5165,9045 "
       style="stroke:#000000;stroke-width:8; stroke-linejoin:bevel; stroke-linecap:butt; "
       id="polyline3594" />
    <!-- Line -->
    <polyline
       points="4993,9137 4822,9228 4649,9125 4822,9034 4993,9137 "
       style="stroke:#000000;stroke-width:8; stroke-linejoin:bevel; stroke-linecap:butt; "
       id="polyline3596" />
    <!-- Line -->
    <polyline
       points="4822,9228 4649,9320 4477,9216 4649,9125 4822,9228 "
       style="stroke:#000000;stroke-width:8; stroke-linejoin:bevel; stroke-linecap:butt; "
       id="polyline3598" />
    <!-- Line -->
    <polyline
       points="4649,9320 4477,9412 4306,9309 4477,9216 4649,9320 "
       style="stroke:#000000;stroke-width:8; stroke-linejoin:bevel; stroke-linecap:butt; "
       id="polyline3600" />
    <!-- Line -->
    <polyline
       points="4993,9137 5165,9045 5165,9239 4993,9331 4993,9137 "
       style="stroke:#000000;stroke-width:8; stroke-linejoin:bevel; stroke-linecap:butt; fill:#b46100; "
       id="polyline3602" />
    <!-- Line -->
    <polyline
       points="4822,9228 4993,9137 4993,9331 4822,9423 4822,9228 "
       style="stroke:#000000;stroke-width:8; stroke-linejoin:bevel; stroke-linecap:butt; fill:#b46100; "
       id="polyline3604" />
    <!-- Line -->
    <polyline
       points="4649,9320 4822,9228 4822,9423 4649,9514 4649,9320 "
       style="stroke:#000000;stroke-width:8; stroke-linejoin:bevel; stroke-linecap:butt; fill:#b46100; "
       id="polyline3606" />
    <!-- Line -->
    <polyline
       points="4477,9412 4649,9320 4649,9514 4477,9606 4477,9412 "
       style="stroke:#000000;stroke-width:8; stroke-linejoin:bevel; stroke-linecap:butt; fill:#b46100; "
       id="polyline3608" />
    <!-- Line -->
    <polyline
       points="4306,9309 4306,9503 4477,9606 4477,9412 4306,9309 "
       style="stroke:#000000;stroke-width:8; stroke-linejoin:bevel; stroke-linecap:butt; fill:#ffbfbf; "
       id="polyline3610" />
    <!-- Line -->
    <polyline
       points="4134,9205 4134,9400 4306,9503 4306,9309 4134,9205 "
       style="stroke:#000000;stroke-width:8; stroke-linejoin:bevel; stroke-linecap:butt; fill:#ffbfbf; "
       id="polyline3612" />
    <!-- Line -->
    <polyline
       points="4134,9011 4134,9205 4306,9309 4306,9113 4134,9011 "
       style="stroke:#000000;stroke-width:8; stroke-linejoin:bevel; stroke-linecap:butt; fill:#ffbfbf; "
       id="polyline3614" />
    <!-- Line -->
    <polyline
       points="4306,9113 4477,9022 4477,9216 4306,9309 4306,9113 "
       style="stroke:#000000;stroke-width:8; stroke-linejoin:bevel; stroke-linecap:butt; fill:#b46100; "
       id="polyline3616" />
    <!-- Line -->
    <polyline
       points="4477,9022 4649,8930 4649,9125 4477,9216 4477,9022 "
       style="stroke:#000000;stroke-width:8; stroke-linejoin:bevel; stroke-linecap:butt; fill:#b46100; "
       id="polyline3618" />
    <!-- Line -->
    <polyline
       points="4649,8930 4822,8838 4822,9034 4649,9125 4649,8930 "
       style="stroke:#000000;stroke-width:8; stroke-linejoin:bevel; stroke-linecap:butt; fill:#b46100; "
       id="polyline3620" />
    <!-- Line -->
    <polyline
       points="4649,8735 4822,8644 4822,8838 4649,8930 4649,8735 "
       style="stroke:#000000;stroke-width:8; stroke-linejoin:bevel; stroke-linecap:butt; fill:#b46100; "
       id="polyline3622" />
    <!-- Line -->
    <polyline
       points="4822,8644 4649,8735 4477,8633 4649,8540 4822,8644 "
       style="stroke:#000000;stroke-width:8; stroke-linejoin:bevel; stroke-linecap:butt; "
       id="polyline3624" />
    <!-- Line -->
    <polyline
       points="4477,8633 4477,8827 4649,8930 4649,8735 4477,8633 "
       style="stroke:#000000;stroke-width:8; stroke-linejoin:bevel; stroke-linecap:butt; fill:#ffbfbf; "
       id="polyline3626" />
    <!-- Line -->
    <polyline
       points="4649,8930 4477,9022 4306,8919 4477,8827 4649,8930 "
       style="stroke:#000000;stroke-width:8; stroke-linejoin:bevel; stroke-linecap:butt; "
       id="polyline3628" />
    <!-- Line -->
    <polyline
       points="4477,8633 4306,8724 4134,8621 4306,8530 4477,8633 "
       style="stroke:#000000;stroke-width:8; stroke-linejoin:bevel; stroke-linecap:butt; "
       id="polyline3630" />
    <!-- Line -->
    <polyline
       points="4306,8724 4477,8633 4477,8827 4306,8919 4306,8724 "
       style="stroke:#000000;stroke-width:8; stroke-linejoin:bevel; stroke-linecap:butt; fill:#b46100; "
       id="polyline3632" />
    <!-- Line -->
    <polyline
       points="4477,9022 4306,9113 4134,9011 4306,8919 4477,9022 "
       style="stroke:#000000;stroke-width:8; stroke-linejoin:bevel; stroke-linecap:butt; "
       id="polyline3634" />
    <!-- Line -->
    <polyline
       points="3962,9102 3962,9297 4134,9400 4134,9205 3962,9102 "
       style="stroke:#000000;stroke-width:8; stroke-linejoin:bevel; stroke-linecap:butt; fill:#ffbfbf; "
       id="polyline3636" />
    <!-- Line -->
    <polyline
       points="3790,8999 3790,9194 3962,9297 3962,9102 3790,8999 "
       style="stroke:#000000;stroke-width:8; stroke-linejoin:bevel; stroke-linecap:butt; fill:#ffbfbf; "
       id="polyline3638" />
    <!-- Line -->
    <polyline
       points="3790,8804 3790,8999 3962,9102 3962,8908 3790,8804 "
       style="stroke:#000000;stroke-width:8; stroke-linejoin:bevel; stroke-linecap:butt; fill:#ffbfbf; "
       id="polyline3640" />
    <!-- Line -->
    <polyline
       points="3962,8908 3962,9102 4134,9205 4134,9011 3962,8908 "
       style="stroke:#000000;stroke-width:8; stroke-linejoin:bevel; stroke-linecap:butt; fill:#ffbfbf; "
       id="polyline3642" />
    <!-- Line -->
    <polyline
       points="4134,8815 3962,8908 3790,8804 3962,8712 4134,8815 "
       style="stroke:#000000;stroke-width:8; stroke-linejoin:bevel; stroke-linecap:butt; "
       id="polyline3644" />
    <!-- Line -->
    <polyline
       points="4306,8919 4134,9011 3962,8908 4134,8815 4306,8919 "
       style="stroke:#000000;stroke-width:8; stroke-linejoin:bevel; stroke-linecap:butt; "
       id="polyline3646" />
    <!-- Line -->
    <polyline
       points="4134,8621 4134,8815 4306,8919 4306,8724 4134,8621 "
       style="stroke:#000000;stroke-width:8; stroke-linejoin:bevel; stroke-linecap:butt; fill:#ffbfbf; "
       id="polyline3648" />
    <!-- Line -->
    <polyline
       points="3962,8518 3962,8712 4134,8815 4134,8621 3962,8518 "
       style="stroke:#000000;stroke-width:8; stroke-linejoin:bevel; stroke-linecap:butt; fill:#ffbfbf; "
       id="polyline3650" />
    <!-- Line -->
    <polyline
       points="4306,8530 4134,8621 3962,8518 4134,8426 4306,8530 "
       style="stroke:#000000;stroke-width:8; stroke-linejoin:bevel; stroke-linecap:butt; "
       id="polyline3652" />
    <!-- Line -->
    <polyline
       points="3790,8609 3962,8518 3962,8712 3790,8804 3790,8609 "
       style="stroke:#000000;stroke-width:8; stroke-linejoin:bevel; stroke-linecap:butt; fill:#b46100; "
       id="polyline3654" />
    <!-- Line -->
    <polyline
       points="3790,8414 3962,8323 3962,8518 3790,8609 3790,8414 "
       style="stroke:#000000;stroke-width:8; stroke-linejoin:bevel; stroke-linecap:butt; fill:#b46100; "
       id="polyline3656" />
    <!-- Line -->
    <polyline
       points="3962,8323 4134,8232 4134,8426 3962,8518 3962,8323 "
       style="stroke:#000000;stroke-width:8; stroke-linejoin:bevel; stroke-linecap:butt; fill:#b46100; "
       id="polyline3658" />
  </g>
</svg>
