<?xml version="1.0" encoding="UTF-8" standalone="no"?>
<!-- Creator: fig2dev Version 3.2 Patchlevel 5a -->

<!-- CreationDate: Tue Dec 14 14:43:25 2010 -->

<!-- Magnification: 1.050 -->

<svg
   xmlns:ns0="http://www.iki.fi/pav/software/textext/"
   xmlns:dc="http://purl.org/dc/elements/1.1/"
   xmlns:cc="http://creativecommons.org/ns#"
   xmlns:rdf="http://www.w3.org/1999/02/22-rdf-syntax-ns#"
   xmlns:svg="http://www.w3.org/2000/svg"
   xmlns="http://www.w3.org/2000/svg"
   xmlns:xlink="http://www.w3.org/1999/xlink"
   xmlns:sodipodi="http://sodipodi.sourceforge.net/DTD/sodipodi-0.dtd"
   xmlns:inkscape="http://www.inkscape.org/namespaces/inkscape"
   width="1.2in"
   height="1.2in"
   viewBox="-204 8727 1398 1445"
   id="svg3872"
   version="1.1"
   inkscape:version="0.47 r22583"
   sodipodi:docname="pbpnr.svg">
  <sodipodi:namedview
     pagecolor="#ffffff"
     bordercolor="#666666"
     borderopacity="1"
     objecttolerance="10"
     gridtolerance="10"
     guidetolerance="10"
     inkscape:pageopacity="0"
     inkscape:pageshadow="2"
     inkscape:window-width="1280"
     inkscape:window-height="968"
     id="namedview3906"
     showgrid="true"
     inkscape:zoom="6.981946"
     inkscape:cx="53.40637"
     inkscape:cy="56.752027"
     inkscape:window-x="0"
     inkscape:window-y="0"
     inkscape:window-maximized="1"
     inkscape:current-layer="svg3872">
    <inkscape:grid
       type="xygrid"
       id="grid3076"
       empspacing="5"
       visible="true"
       enabled="true"
       snapvisiblegridlinesonly="true" />
  </sodipodi:namedview>
  <metadata
     id="metadata3910">
    <rdf:RDF>
      <cc:Work
         rdf:about="">
        <dc:format>image/svg+xml</dc:format>
        <dc:type
           rdf:resource="http://purl.org/dc/dcmitype/StillImage" />
        <dc:title />
      </cc:Work>
    </rdf:RDF>
  </metadata>
  <defs
     id="defs3908">
    <inkscape:perspective
       id="perspective3912"
       inkscape:persp3d-origin="54.000004 : 36.000003 : 1"
       inkscape:vp_z="108.00001 : 54.000004 : 1"
       inkscape:vp_y="0 : 1000 : 0"
       inkscape:vp_x="0 : 54.000004 : 1"
       sodipodi:type="inkscape:persp3d" />
    <defs
       id="defs2956">
      <g
         id="g2958">
        <symbol
           style="overflow:visible"
           overflow="visible"
           id="textext-6c44deef-0">
          <path
             style="stroke:none"
             d=""
             id="path2961" />
        </symbol>
        <symbol
           style="overflow:visible"
           overflow="visible"
           id="textext-6c44deef-1">
          <path
             style="stroke:none"
             d="m 2.328125,-4.4375 c 0,-0.1875 0,-0.1875 -0.203125,-0.1875 -0.453125,0.4375 -1.078125,0.4375 -1.359375,0.4375 l 0,0.25 c 0.15625,0 0.625,0 1,-0.1875 l 0,3.546875 c 0,0.234375 0,0.328125 -0.6875,0.328125 l -0.265625,0 0,0.25 c 0.125,0 0.984375,-0.03125 1.234375,-0.03125 0.21875,0 1.09375,0.03125 1.25,0.03125 l 0,-0.25 -0.265625,0 c -0.703125,0 -0.703125,-0.09375 -0.703125,-0.328125 l 0,-3.859375 z m 0,0"
             id="path2964" />
        </symbol>
        <symbol
           style="overflow:visible"
           overflow="visible"
           id="textext-6c44deef-2">
          <path
             style="stroke:none"
             d=""
             id="path2967" />
        </symbol>
        <symbol
           style="overflow:visible"
           overflow="visible"
           id="textext-6c44deef-3">
          <path
             style="stroke:none"
             d="M 1.734375,-0.734375 C 1.671875,-0.5 1.4375,-0.125 1.078125,-0.125 c -0.015625,0 -0.234375,0 -0.375,-0.09375 0.28125,-0.09375 0.3125,-0.34375 0.3125,-0.390625 0,-0.15625 -0.125,-0.25 -0.28125,-0.25 -0.203125,0 -0.40625,0.15625 -0.40625,0.421875 0,0.34375 0.390625,0.5 0.734375,0.5 0.328125,0 0.609375,-0.1875 0.78125,-0.484375 C 2.015625,-0.0625 2.390625,0.0625 2.671875,0.0625 c 0.8125,0 1.234375,-0.859375 1.234375,-1.0625 0,-0.09375 -0.09375,-0.09375 -0.109375,-0.09375 -0.109375,0 -0.109375,0.046875 -0.140625,0.125 -0.140625,0.484375 -0.5625,0.84375 -0.953125,0.84375 -0.28125,0 -0.421875,-0.1875 -0.421875,-0.453125 0,-0.1875 0.171875,-0.8125 0.359375,-1.59375 C 2.78125,-2.703125 3.09375,-2.875 3.328125,-2.875 c 0.015625,0 0.21875,0 0.375,0.09375 -0.21875,0.0625 -0.3125,0.265625 -0.3125,0.390625 0,0.140625 0.125,0.25 0.28125,0.25 0.15625,0 0.390625,-0.125 0.390625,-0.421875 0,-0.390625 -0.453125,-0.515625 -0.71875,-0.515625 -0.359375,0 -0.640625,0.234375 -0.78125,0.5 -0.125,-0.28125 -0.453125,-0.5 -0.84375,-0.5 C 0.9375,-3.078125 0.5,-2.21875 0.5,-2 c 0,0.078125 0.09375,0.078125 0.109375,0.078125 0.09375,0 0.09375,-0.015625 0.140625,-0.109375 C 0.921875,-2.578125 1.359375,-2.875 1.703125,-2.875 1.9375,-2.875 2.125,-2.75 2.125,-2.421875 2.125,-2.28125 2.03125,-1.9375 1.96875,-1.6875 l -0.234375,0.953125 z m 0,0"
             id="path2970" />
        </symbol>
      </g>
    </defs>
  </defs>
  <rect
     x="447.50848"
     y="9242.6143"
     width="236"
     height="236"
     rx="0"
     style="fill:none;stroke:#000000;stroke-width:8;stroke-linecap:butt;stroke-linejoin:bevel"
     id="rect3876" />
  <rect
     x="-24.491526"
     y="8770.6143"
     width="708"
     height="472"
     rx="0"
     style="fill:none;stroke:#000000;stroke-width:8;stroke-linecap:butt;stroke-linejoin:bevel"
     id="rect3878" />
  <rect
     x="447.50848"
     y="9478.6143"
     width="708"
     height="472"
     rx="0"
     style="fill:none;stroke:#000000;stroke-width:8;stroke-linecap:butt;stroke-linejoin:bevel"
     id="rect3880" />
  <rect
     x="-24.491526"
     y="9242.6143"
     width="472"
     height="708"
     rx="0"
     style="fill:none;stroke:#000000;stroke-width:8;stroke-linecap:butt;stroke-linejoin:bevel"
     id="rect3882" />
  <rect
     x="683.50848"
     y="8770.6143"
     width="472"
     height="708"
     rx="0"
     style="fill:none;stroke:#000000;stroke-width:8;stroke-linecap:butt;stroke-linejoin:bevel"
     id="rect3884" />
  <polyline
     transform="translate(-24.491525,30.614407)"
     points="472,9212 708,9448 708,9212 472,9448 "
     style="fill:none;stroke:#000000;stroke-width:8;stroke-linecap:butt;stroke-linejoin:bevel"
     id="polyline3886" />
  <rect
     x="-24.491526"
     y="9242.6143"
     width="472"
     height="708"
     rx="0"
     style="fill:none;stroke:#000000;stroke-width:8;stroke-linecap:butt;stroke-linejoin:bevel"
     id="rect3888" />
  <use
     style="fill:#000000;fill-opacity:1"
     height="1445"
     width="1398"
     xlink:href="#textext-6c44deef-1"
     x="224.901"
     y="130.842"
     id="use2975"
     transform="matrix(20,0,0,20,-4649.9418,6347.5327)" />
  <path
     id="path2977"
     d="m -157.36369,8993.0015 90.312488,0"
     style="fill:none;stroke:#000000;stroke-width:7.96000004;stroke-linecap:butt;stroke-linejoin:miter;stroke-miterlimit:10;stroke-opacity:1" />
  <use
     style="fill:#000000;fill-opacity:1"
     height="1445"
     width="1398"
     xlink:href="#textext-6c44deef-3"
     x="224.62801"
     y="138.2"
     id="use2981"
     transform="matrix(20,0,0,20,-4649.9418,6347.5327)" />
  <g
     transform="matrix(20,0,0,20,-4342.1036,7459.6331)"
     ns0:text="$\\frac{1}{x}$"
     ns0:preamble=""
     id="g3015">
    <defs
       id="defs3017">
      <g
         id="g3019">
        <symbol
           style="overflow:visible"
           overflow="visible"
           id="symbol3021">
          <path
             style="stroke:none"
             d=""
             id="path3023" />
        </symbol>
        <symbol
           style="overflow:visible"
           overflow="visible"
           id="symbol3025">
          <path
             style="stroke:none"
             d="m 2.328125,-4.4375 c 0,-0.1875 0,-0.1875 -0.203125,-0.1875 -0.453125,0.4375 -1.078125,0.4375 -1.359375,0.4375 l 0,0.25 c 0.15625,0 0.625,0 1,-0.1875 l 0,3.546875 c 0,0.234375 0,0.328125 -0.6875,0.328125 l -0.265625,0 0,0.25 c 0.125,0 0.984375,-0.03125 1.234375,-0.03125 0.21875,0 1.09375,0.03125 1.25,0.03125 l 0,-0.25 -0.265625,0 c -0.703125,0 -0.703125,-0.09375 -0.703125,-0.328125 l 0,-3.859375 z m 0,0"
             id="path3027" />
        </symbol>
        <symbol
           style="overflow:visible"
           overflow="visible"
           id="symbol3029">
          <path
             style="stroke:none"
             d=""
             id="path3031" />
        </symbol>
        <symbol
           style="overflow:visible"
           overflow="visible"
           id="symbol3033">
          <path
             style="stroke:none"
             d="M 1.734375,-0.734375 C 1.671875,-0.5 1.4375,-0.125 1.078125,-0.125 c -0.015625,0 -0.234375,0 -0.375,-0.09375 0.28125,-0.09375 0.3125,-0.34375 0.3125,-0.390625 0,-0.15625 -0.125,-0.25 -0.28125,-0.25 -0.203125,0 -0.40625,0.15625 -0.40625,0.421875 0,0.34375 0.390625,0.5 0.734375,0.5 0.328125,0 0.609375,-0.1875 0.78125,-0.484375 C 2.015625,-0.0625 2.390625,0.0625 2.671875,0.0625 c 0.8125,0 1.234375,-0.859375 1.234375,-1.0625 0,-0.09375 -0.09375,-0.09375 -0.109375,-0.09375 -0.109375,0 -0.109375,0.046875 -0.140625,0.125 -0.140625,0.484375 -0.5625,0.84375 -0.953125,0.84375 -0.28125,0 -0.421875,-0.1875 -0.421875,-0.453125 0,-0.1875 0.171875,-0.8125 0.359375,-1.59375 C 2.78125,-2.703125 3.09375,-2.875 3.328125,-2.875 c 0.015625,0 0.21875,0 0.375,0.09375 -0.21875,0.0625 -0.3125,0.265625 -0.3125,0.390625 0,0.140625 0.125,0.25 0.28125,0.25 0.15625,0 0.390625,-0.125 0.390625,-0.421875 0,-0.390625 -0.453125,-0.515625 -0.71875,-0.515625 -0.359375,0 -0.640625,0.234375 -0.78125,0.5 -0.125,-0.28125 -0.453125,-0.5 -0.84375,-0.5 C 0.9375,-3.078125 0.5,-2.21875 0.5,-2 c 0,0.078125 0.09375,0.078125 0.109375,0.078125 0.09375,0 0.09375,-0.015625 0.140625,-0.109375 C 0.921875,-2.578125 1.359375,-2.875 1.703125,-2.875 1.9375,-2.875 2.125,-2.75 2.125,-2.421875 2.125,-2.28125 2.03125,-1.9375 1.96875,-1.6875 l -0.234375,0.953125 z m 0,0"
             id="path3035" />
        </symbol>
      </g>
    </defs>
    <g
       id="g3037">
      <g
         style="fill:#000000;fill-opacity:1"
         id="g3039">
        <use
           height="1445"
           width="1398"
           xlink:href="#textext-6c44deef-1"
           x="224.901"
           y="130.842"
           id="use3041" />
      </g>
      <path
         style="fill:none;stroke:#000000;stroke-width:0.398;stroke-linecap:butt;stroke-linejoin:miter;stroke-miterlimit:10;stroke-opacity:1"
         d="m 9.0625e-4,5.625e-4 4.51562475,0"
         transform="matrix(1,0,0,-1,224.628,132.274)"
         id="path3043" />
      <g
         style="fill:#000000;fill-opacity:1"
         id="g3045">
        <use
           height="1445"
           width="1398"
           xlink:href="#textext-6c44deef-3"
           x="224.62801"
           y="138.2"
           id="use3047" />
      </g>
    </g>
  </g>
  <use
     transform="matrix(20,0,0,20,-4649.0043,6913.366)"
     id="use3072"
     y="138.2"
     x="224.62801"
     xlink:href="#textext-6c44deef-3"
     width="1398"
     height="1445"
     style="fill:#000000;fill-opacity:1" />
  <use
     style="fill:#000000;fill-opacity:1"
     height="1445"
     width="1398"
     xlink:href="#textext-6c44deef-3"
     x="224.62801"
     y="138.2"
     id="use3074"
     transform="matrix(20,0,0,20,-3740.891,7310.0673)" />
  <use
     transform="matrix(20,0,0,20,-4221.053,6380.6577)"
     id="use3086"
     y="130.842"
     x="224.901"
     xlink:href="#textext-6c44deef-1"
     width="1398"
     height="1445"
     style="fill:#000000;fill-opacity:1" />
  <use
     style="fill:#000000;fill-opacity:1"
     height="1445"
     width="1398"
     xlink:href="#textext-6c44deef-1"
     x="224.901"
     y="130.842"
     id="use3088"
     transform="matrix(20,0,0,20,-3681.8053,7120.2873)" />
  <use
     transform="matrix(20,0,0,20,-3588.6572,6492.6021)"
     id="use3090"
     y="130.842"
     x="224.901"
     xlink:href="#textext-6c44deef-1"
     width="1398"
     height="1445"
     style="fill:#000000;fill-opacity:1" />
  <use
     style="fill:#000000;fill-opacity:1"
     height="1445"
     width="1398"
     xlink:href="#textext-6c44deef-1"
     x="224.901"
     y="130.842"
     id="use3092"
     transform="matrix(20,0,0,20,-4324.5367,6960.8891)" />
</svg>
