<?xml version="1.0" encoding="UTF-8" standalone="no"?>
<!-- Creator: fig2dev Version 3.2 Patchlevel 5a -->

<!-- CreationDate: Tue Dec 14 14:43:36 2010 -->

<!-- Magnification: 1.050 -->

<svg
   xmlns:dc="http://purl.org/dc/elements/1.1/"
   xmlns:cc="http://creativecommons.org/ns#"
   xmlns:rdf="http://www.w3.org/1999/02/22-rdf-syntax-ns#"
   xmlns:svg="http://www.w3.org/2000/svg"
   xmlns="http://www.w3.org/2000/svg"
   xmlns:xlink="http://www.w3.org/1999/xlink"
   xmlns:sodipodi="http://sodipodi.sourceforge.net/DTD/sodipodi-0.dtd"
   xmlns:inkscape="http://www.inkscape.org/namespaces/inkscape"
   width="3.2in"
   height="4.0in"
   viewBox="-12 4711 3804 4749"
   id="svg4142"
   version="1.1"
   inkscape:version="0.47 r22583"
   sodipodi:docname="pbppythsqr.svg">
  <sodipodi:namedview
     pagecolor="#ffffff"
     bordercolor="#666666"
     borderopacity="1"
     objecttolerance="10"
     gridtolerance="10"
     guidetolerance="10"
     inkscape:pageopacity="0"
     inkscape:pageshadow="2"
     inkscape:window-width="1280"
     inkscape:window-height="968"
     id="namedview4172"
     showgrid="true"
     inkscape:zoom="2.0013472"
     inkscape:cx="194.83225"
     inkscape:cy="179.96215"
     inkscape:window-x="0"
     inkscape:window-y="0"
     inkscape:window-maximized="1"
     inkscape:current-layer="svg4142"
     inkscape:snap-grids="true">
    <inkscape:grid
       type="xygrid"
       id="grid2990"
       empspacing="5"
       visible="true"
       enabled="true"
       snapvisiblegridlinesonly="true" />
  </sodipodi:namedview>
  <metadata
     id="metadata4176">
    <rdf:RDF>
      <cc:Work
         rdf:about="">
        <dc:format>image/svg+xml</dc:format>
        <dc:type
           rdf:resource="http://purl.org/dc/dcmitype/StillImage" />
        <dc:title />
      </cc:Work>
    </rdf:RDF>
  </metadata>
  <defs
     id="defs4174">
    <inkscape:perspective
       id="perspective4178"
       inkscape:persp3d-origin="144 : 120 : 1"
       inkscape:vp_z="288 : 180 : 1"
       inkscape:vp_y="0 : 1000 : 0"
       inkscape:vp_x="0 : 180 : 1"
       sodipodi:type="inkscape:persp3d" />
    <defs
       id="defs2846">
      <g
         id="g2848">
        <symbol
           style="overflow:visible"
           overflow="visible"
           id="textext-dfdae8c8-0">
          <path
             style="stroke:none"
             d=""
             id="path2851" />
        </symbol>
        <symbol
           style="overflow:visible"
           overflow="visible"
           id="textext-dfdae8c8-1">
          <path
             style="stroke:none"
             d="M 3.71875,-3.765625 C 3.53125,-4.140625 3.25,-4.40625 2.796875,-4.40625 c -1.15625,0 -2.390625,1.46875 -2.390625,2.921875 0,0.9375 0.546875,1.59375 1.3125,1.59375 0.203125,0 0.703125,-0.046875 1.296875,-0.75 0.078125,0.421875 0.4375,0.75 0.90625,0.75 0.359375,0 0.578125,-0.234375 0.75,-0.546875 0.15625,-0.359375 0.296875,-0.96875 0.296875,-0.984375 0,-0.109375 -0.09375,-0.109375 -0.125,-0.109375 -0.09375,0 -0.109375,0.046875 -0.140625,0.1875 -0.171875,0.640625 -0.34375,1.234375 -0.75,1.234375 -0.28125,0 -0.296875,-0.265625 -0.296875,-0.453125 0,-0.21875 0.015625,-0.3125 0.125,-0.75 C 3.890625,-1.71875 3.90625,-1.828125 4,-2.203125 L 4.359375,-3.59375 c 0.0625,-0.28125 0.0625,-0.296875 0.0625,-0.34375 0,-0.171875 -0.109375,-0.265625 -0.28125,-0.265625 -0.25,0 -0.390625,0.21875 -0.421875,0.4375 z M 3.078125,-1.1875 C 3.015625,-1 3.015625,-0.984375 2.875,-0.8125 2.4375,-0.265625 2.03125,-0.109375 1.75,-0.109375 c -0.5,0 -0.640625,-0.546875 -0.640625,-0.9375 0,-0.5 0.3125,-1.71875 0.546875,-2.1875 0.3125,-0.578125 0.75,-0.953125 1.15625,-0.953125 0.640625,0 0.78125,0.8125 0.78125,0.875 0,0.0625 -0.015625,0.125 -0.03125,0.171875 L 3.078125,-1.1875 z m 0,0"
             id="path2854" />
        </symbol>
        <symbol
           style="overflow:visible"
           overflow="visible"
           id="textext-dfdae8c8-2">
          <path
             style="stroke:none"
             d="m 2.375,-6.8125 c 0,0 0,-0.109375 -0.125,-0.109375 -0.21875,0 -0.953125,0.078125 -1.21875,0.109375 -0.078125,0 -0.1875,0.015625 -0.1875,0.1875 0,0.125 0.09375,0.125 0.25,0.125 0.46875,0 0.484375,0.0625 0.484375,0.171875 0,0.0625 -0.078125,0.40625 -0.125,0.609375 l -0.828125,3.25 c -0.109375,0.5 -0.15625,0.671875 -0.15625,1.015625 0,0.9375 0.53125,1.5625 1.265625,1.5625 1.171875,0 2.40625,-1.484375 2.40625,-2.921875 0,-0.90625 -0.53125,-1.59375 -1.328125,-1.59375 -0.453125,0 -0.875,0.296875 -1.171875,0.59375 l 0.734375,-3 z M 1.453125,-3.046875 C 1.5,-3.265625 1.5,-3.28125 1.59375,-3.390625 2.078125,-4.03125 2.53125,-4.1875 2.796875,-4.1875 c 0.359375,0 0.625,0.296875 0.625,0.9375 0,0.59375 -0.328125,1.734375 -0.515625,2.109375 -0.328125,0.671875 -0.78125,1.03125 -1.171875,1.03125 -0.34375,0 -0.671875,-0.265625 -0.671875,-1 0,-0.203125 0,-0.390625 0.15625,-1.015625 l 0.234375,-0.921875 z m 0,0"
             id="path2857" />
        </symbol>
        <symbol
           style="overflow:visible"
           overflow="visible"
           id="textext-dfdae8c8-3">
          <path
             style="stroke:none"
             d="m 3.953125,-3.78125 c -0.171875,0 -0.296875,0 -0.4375,0.125 -0.171875,0.15625 -0.1875,0.328125 -0.1875,0.390625 0,0.25 0.1875,0.359375 0.375,0.359375 0.28125,0 0.546875,-0.25 0.546875,-0.640625 0,-0.484375 -0.46875,-0.859375 -1.171875,-0.859375 -1.34375,0 -2.671875,1.421875 -2.671875,2.828125 0,0.90625 0.578125,1.6875 1.625,1.6875 1.421875,0 2.25,-1.0625 2.25,-1.171875 0,-0.0625 -0.046875,-0.140625 -0.109375,-0.140625 -0.0625,0 -0.078125,0.03125 -0.140625,0.109375 -0.78125,0.984375 -1.875,0.984375 -1.984375,0.984375 -0.625,0 -0.90625,-0.484375 -0.90625,-1.09375 0,-0.40625 0.203125,-1.375 0.546875,-1.984375 0.3125,-0.578125 0.859375,-1 1.40625,-1 0.328125,0 0.71875,0.125 0.859375,0.40625 z m 0,0"
             id="path2860" />
        </symbol>
        <symbol
           style="overflow:visible"
           overflow="visible"
           id="textext-dfdae8c8-4">
          <path
             style="stroke:none"
             d=""
             id="path2863" />
        </symbol>
        <symbol
           style="overflow:visible"
           overflow="visible"
           id="textext-dfdae8c8-5">
          <path
             style="stroke:none"
             d="m 3.515625,-1.265625 -0.234375,0 c -0.015625,0.15625 -0.09375,0.5625 -0.1875,0.625 -0.046875,0.046875 -0.578125,0.046875 -0.6875,0.046875 l -1.28125,0 c 0.734375,-0.640625 0.984375,-0.84375 1.390625,-1.171875 0.515625,-0.40625 1,-0.84375 1,-1.5 0,-0.84375 -0.734375,-1.359375 -1.625,-1.359375 -0.859375,0 -1.453125,0.609375 -1.453125,1.25 0,0.34375 0.296875,0.390625 0.375,0.390625 0.15625,0 0.359375,-0.125 0.359375,-0.375 0,-0.125 -0.046875,-0.375 -0.40625,-0.375 C 0.984375,-4.21875 1.453125,-4.375 1.78125,-4.375 c 0.703125,0 1.0625,0.546875 1.0625,1.109375 0,0.609375 -0.4375,1.078125 -0.65625,1.328125 L 0.515625,-0.265625 C 0.4375,-0.203125 0.4375,-0.1875 0.4375,0 l 2.875,0 0.203125,-1.265625 z m 0,0"
             id="path2866" />
        </symbol>
      </g>
    </defs>
  </defs>
  <rect
     x="978.625"
     y="7547.7915"
     width="1889"
     height="1889"
     rx="0"
     style="fill:none;stroke:#000000;stroke-width:8;stroke-linecap:butt;stroke-linejoin:miter"
     id="rect4146" />
  <polyline
     points="944,7559 2834,7559 944,6614 944,7559 "
     style="fill:none;stroke:#000000;stroke-width:8.00425;stroke-linecap:butt;stroke-linejoin:bevel;stroke-miterlimit:4;stroke-dasharray:none"
     id="polyline4148"
     transform="translate(34.625,-11.208333)" />
  <polyline
     points="944,6614 0,6614 0,7559 944,7559 944,6614 "
     style="fill:none;stroke:#000000;stroke-width:8;stroke-linecap:butt;stroke-linejoin:bevel"
     id="polyline4150"
     transform="translate(34.625,-11.208333)" />
  <polyline
     points="944,6614 1889,4724 3779,5669 2834,7559 944,6614 "
     style="fill:none;stroke:#000000;stroke-width:8;stroke-linecap:butt;stroke-linejoin:bevel"
     id="polyline4152"
     transform="translate(34.625,-11.208333)" />
  <g
     id="g2869"
     style="fill:#000000;fill-opacity:1"
     transform="matrix(16,0,0,16,-3134.8518,4940.3219)">
    <use
       id="use2871"
       y="134.765"
       x="223.43201"
       xlink:href="#textext-dfdae8c8-1"
       width="3804"
       height="4749" />
  </g>
  <g
     id="g2873"
     style="fill:#000000;fill-opacity:1"
     transform="matrix(16,0,0,16,-3134.8518,4940.3219)">
    <use
       id="use2875"
       y="131.149"
       x="228.698"
       xlink:href="#textext-dfdae8c8-5"
       width="3804"
       height="4749" />
  </g>
  <g
     id="g2877"
     style="fill:#000000;fill-opacity:1"
     transform="matrix(16,0,0,16,-2125.0945,6405.46)">
    <use
       id="use2879"
       y="134.765"
       x="253.093"
       xlink:href="#textext-dfdae8c8-2"
       width="3804"
       height="4749" />
  </g>
  <g
     id="g2881"
     style="fill:#000000;fill-opacity:1"
     transform="matrix(16,0,0,16,-2125.0945,6405.46)">
    <use
       id="use2883"
       y="131.149"
       x="257.36899"
       xlink:href="#textext-dfdae8c8-5"
       width="3804"
       height="4749" />
  </g>
  <g
     id="g2885"
     style="fill:#000000;fill-opacity:1"
     transform="matrix(16,0,0,16,-2125.0945,3937.1643)">
    <use
       id="use2887"
       y="134.765"
       x="281.763"
       xlink:href="#textext-dfdae8c8-3"
       width="3804"
       height="4749" />
  </g>
  <g
     id="g2889"
     style="fill:#000000;fill-opacity:1"
     transform="matrix(16,0,0,16,-2125.0945,3937.1643)">
    <use
       id="use2891"
       y="131.149"
       x="286.07501"
       xlink:href="#textext-dfdae8c8-5"
       width="3804"
       height="4749" />
  </g>
  <path
     style="fill:#000000;fill-opacity:1;stroke:#000000;stroke-width:0.60600001;stroke-miterlimit:4;stroke-opacity:1;stroke-dasharray:none;stroke-dashoffset:0"
     d="m 75,210 5,0"
     id="path3764"
     transform="matrix(13.208333,0,0,13.208333,-12,4708)" />
  <path
     style="fill:#000000;fill-opacity:1;stroke:#000000;stroke-width:0.60600001;stroke-miterlimit:4;stroke-opacity:1;stroke-dasharray:none;stroke-dashoffset:0"
     d="m 80,215 0,-5"
     id="path3768"
     transform="matrix(13.208333,0,0,13.208333,-12,4708)" />
</svg>
