<?xml version="1.0" encoding="UTF-8" standalone="no"?>
<!-- Created with Inkscape (http://www.inkscape.org/) -->
<svg
   xmlns:ns0="http://www.iki.fi/pav/software/textext/"
   xmlns:dc="http://purl.org/dc/elements/1.1/"
   xmlns:cc="http://creativecommons.org/ns#"
   xmlns:rdf="http://www.w3.org/1999/02/22-rdf-syntax-ns#"
   xmlns:svg="http://www.w3.org/2000/svg"
   xmlns="http://www.w3.org/2000/svg"
   xmlns:xlink="http://www.w3.org/1999/xlink"
   xmlns:sodipodi="http://sodipodi.sourceforge.net/DTD/sodipodi-0.dtd"
   xmlns:inkscape="http://www.inkscape.org/namespaces/inkscape"
   id="svg2"
   sodipodi:version="0.32"
   inkscape:version="0.46"
   width="990"
   height="765"
   version="1.0"
   sodipodi:docname="refIdeaEg.svg"
   inkscape:output_extension="org.inkscape.output.svg.inkscape">
  <sodipodi:namedview
     inkscape:window-height="722"
     inkscape:window-width="1161"
     inkscape:pageshadow="2"
     inkscape:pageopacity="0.0"
     guidetolerance="10.0"
     gridtolerance="10.0"
     objecttolerance="10.0"
     borderopacity="1.0"
     bordercolor="#666666"
     pagecolor="#ffffff"
     id="base"
     showgrid="true"
     inkscape:zoom="3.16"
     inkscape:cx="331.81413"
     inkscape:cy="617.37238"
     inkscape:window-x="1280"
     inkscape:window-y="21"
     inkscape:current-layer="svg2"
     inkscape:document-units="in">
    <inkscape:grid
       empspacing="4"
       spacingy="0.125in"
       spacingx="0.125in"
       enabled="true"
       visible="true"
       units="in"
       id="grid2395"
       type="xygrid" />
  </sodipodi:namedview>
  <metadata
     id="metadata7">
    <rdf:RDF>
      <cc:Work
         rdf:about="">
        <dc:format>image/svg+xml</dc:format>
        <dc:type
           rdf:resource="http://purl.org/dc/dcmitype/StillImage" />
      </cc:Work>
    </rdf:RDF>
  </metadata>
  <defs
     id="defs5">
    <marker
       inkscape:stockid="Arrow2Mstart"
       orient="auto"
       refY="0.0"
       refX="0.0"
       id="Arrow2Mstart"
       style="overflow:visible">
      <path
         id="path3249"
         style="font-size:12.0;fill-rule:evenodd;stroke-width:0.62500000;stroke-linejoin:round"
         d="M 8.7185878,4.0337352 L -2.2072895,0.016013256 L 8.7185884,-4.0017078 C 6.9730900,-1.6296469 6.9831476,1.6157441 8.7185878,4.0337352 z "
         transform="scale(0.6) translate(0,0)" />
    </marker>
    <linearGradient
       inkscape:collect="always"
       id="linearGradient10083">
      <stop
         style="stop-color:#000000;stop-opacity:1;"
         offset="0"
         id="stop10085" />
      <stop
         style="stop-color:#000000;stop-opacity:0;"
         offset="1"
         id="stop10087" />
    </linearGradient>
    <marker
       style="overflow:visible;"
       id="Arrow1Send"
       refX="0.0"
       refY="0.0"
       orient="auto"
       inkscape:stockid="Arrow1Send">
      <path
         transform="scale(0.2) rotate(180) translate(6,0)"
         style="fill-rule:evenodd;stroke:#000000;stroke-width:1.0pt;marker-start:none;"
         d="M 0.0,0.0 L 5.0,-5.0 L -12.5,0.0 L 5.0,5.0 L 0.0,0.0 z "
         id="path3189" />
    </marker>
    <marker
       style="overflow:visible;"
       id="Arrow2Lend"
       refX="0.0"
       refY="0.0"
       orient="auto"
       inkscape:stockid="Arrow2Lend">
      <path
         transform="scale(1.1) rotate(180) translate(1,0)"
         d="M 8.7185878,4.0337352 L -2.2072895,0.016013256 L 8.7185884,-4.0017078 C 6.9730900,-1.6296469 6.9831476,1.6157441 8.7185878,4.0337352 z "
         style="font-size:12.0;fill-rule:evenodd;stroke-width:0.62500000;stroke-linejoin:round;"
         id="path3195" />
    </marker>
    <marker
       style="overflow:visible;"
       id="Arrow2Mend"
       refX="0.0"
       refY="0.0"
       orient="auto"
       inkscape:stockid="Arrow2Mend">
      <path
         transform="scale(0.6) rotate(180) translate(0,0)"
         d="M 8.7185878,4.0337352 L -2.2072895,0.016013256 L 8.7185884,-4.0017078 C 6.9730900,-1.6296469 6.9831476,1.6157441 8.7185878,4.0337352 z "
         style="font-size:12.0;fill-rule:evenodd;stroke-width:0.62500000;stroke-linejoin:round;"
         id="path3201" />
    </marker>
    <marker
       style="overflow:visible"
       id="Arrow1Mstart"
       refX="0.0"
       refY="0.0"
       orient="auto"
       inkscape:stockid="Arrow1Mstart">
      <path
         transform="scale(0.4) translate(10,0)"
         style="fill-rule:evenodd;stroke:#000000;stroke-width:1.0pt;marker-start:none"
         d="M 0.0,0.0 L 5.0,-5.0 L -12.5,0.0 L 5.0,5.0 L 0.0,0.0 z "
         id="path3180" />
    </marker>
    <inkscape:perspective
       id="perspective9"
       inkscape:persp3d-origin="372.04724 : 350.78739 : 1"
       inkscape:vp_z="744.09448 : 526.18109 : 1"
       inkscape:vp_y="0 : 1000 : 0"
       inkscape:vp_x="0 : 526.18109 : 1"
       sodipodi:type="inkscape:persp3d" />
    <marker
       style="overflow:visible;"
       id="Arrow2LendH"
       refX="0.0"
       refY="0.0"
       orient="auto"
       inkscape:stockid="Arrow2LendH">
      <path
         transform="scale(1.1) rotate(180) translate(1,0)"
         d="M 8.7185878,4.0337352 L -2.2072895,0.016013256 L 8.7185884,-4.0017078 C 6.9730900,-1.6296469 6.9831476,1.6157441 8.7185878,4.0337352 z "
         style="stroke-linejoin:round;font-size:12.0;fill-rule:evenodd;stroke:#000000;stroke-width:0.62500000;fill:#000000"
         id="path11517" />
    </marker>
    <marker
       style="overflow:visible;"
       id="Arrow1SendJ"
       refX="0.0"
       refY="0.0"
       orient="auto"
       inkscape:stockid="Arrow1SendJ">
      <path
         transform="scale(0.2) rotate(180) translate(6,0)"
         style="marker-start:none;stroke:#7f7f7f;stroke-width:1.0pt;fill:#7f7f7f;fill-rule:evenodd"
         d="M 0.0,0.0 L 5.0,-5.0 L -12.5,0.0 L 5.0,5.0 L 0.0,0.0 z "
         id="path11606" />
    </marker>
    <marker
       style="overflow:visible;"
       id="Arrow1SendJG"
       refX="0.0"
       refY="0.0"
       orient="auto"
       inkscape:stockid="Arrow1SendJG">
      <path
         transform="scale(0.2) rotate(180) translate(6,0)"
         style="fill-rule:evenodd;marker-start:none;stroke:#a6a6a6;stroke-width:1.0pt;fill:#a6a6a6"
         d="M 0.0,0.0 L 5.0,-5.0 L -12.5,0.0 L 5.0,5.0 L 0.0,0.0 z "
         id="path13005" />
    </marker>
    <radialGradient
       inkscape:collect="always"
       xlink:href="#linearGradient10083"
       id="radialGradient10091"
       cx="270.00961"
       cy="157.53719"
       fx="270.00961"
       fy="157.53719"
       r="2.4106328"
       gradientTransform="matrix(1,0,0,37.868556,0,-5808.1686)"
       gradientUnits="userSpaceOnUse" />
  </defs>
  <path
     sodipodi:nodetypes="cc"
     id="path3169"
     d="M 270,67.5 L 270,247.5"
     style="fill:url(#radialGradient10091);fill-rule:evenodd;stroke:#000000;stroke-width:0.99;stroke-linecap:butt;stroke-linejoin:miter;marker-start:url(#Arrow2Mstart);marker-end:url(#Arrow2Mend);stroke-opacity:1;fill-opacity:1;stroke-miterlimit:4;stroke-dasharray:none" />
  <path
     sodipodi:nodetypes="cc"
     id="path4472"
     d="M 135,157.5 L 405,157.5"
     style="fill:none;fill-rule:evenodd;stroke:#000000;stroke-width:1px;stroke-linecap:butt;stroke-linejoin:miter;marker-start:url(#Arrow2Mstart);marker-mid:none;marker-end:url(#Arrow2Mend);stroke-opacity:1" />
  <path
     id="path13127"
     d="M 202.5,90 L 337.5,225"
     style="fill:none;fill-rule:evenodd;stroke:#000000;stroke-width:0.75000000000000000;stroke-linecap:butt;stroke-linejoin:miter;stroke-opacity:1;stroke-miterlimit:4;stroke-dasharray:none;marker-start:url(#Arrow2Mstart);marker-mid:none;marker-end:url(#Arrow2Mend)" />
  <path
     id="path15359"
     d="M 198.56013,176.20253 L 288.70253,86.376582"
     style="fill:none;fill-rule:evenodd;stroke:#000000;stroke-width:0.5;stroke-linecap:butt;stroke-linejoin:miter;stroke-opacity:1;stroke-miterlimit:4;stroke-dasharray:0.5,1.5;stroke-dashoffset:0"
     sodipodi:nodetypes="cc" />
  <path
     id="path15363"
     d="M 292.5,123.75 L 236.25,180"
     style="fill:none;fill-rule:evenodd;stroke:#000000;stroke-width:0.5;stroke-linecap:butt;stroke-linejoin:miter;stroke-opacity:1;stroke-miterlimit:4;stroke-dasharray:0.5,1.5;stroke-dashoffset:0" />
  <path
     id="path15365"
     d="M 236.25,202.5 L 315,123.75"
     style="fill:none;fill-rule:evenodd;stroke:#000000;stroke-width:0.5;stroke-linecap:butt;stroke-linejoin:miter;stroke-opacity:1;stroke-miterlimit:4;stroke-dasharray:0.5,1.5;stroke-dashoffset:0" />
  <g
     id="g15429"
     ns0:preamble=""
     ns0:text="$\\ell$"
     transform="translate(-6.1685855,-31.375)">
    <defs
       id="defs15431">
      <g
         id="g15433">
        <symbol
           id="textext-b29ef7e1-0"
           overflow="visible"
           style="overflow:visible">
          <path
             id="path15436"
             d=""
             style="stroke:none" />
        </symbol>
        <symbol
           id="textext-b29ef7e1-1"
           overflow="visible"
           style="overflow:visible">
          <path
             id="path15439"
             d="M 0.15625,-0.984375 C 0.140625,-0.953125 0.109375,-0.921875 0.109375,-0.890625 C 0.109375,-0.84375 0.171875,-0.75 0.234375,-0.75 C 0.28125,-0.75 0.3125,-0.78125 0.59375,-1.0625 C 0.671875,-1.140625 0.875,-1.328125 0.953125,-1.40625 C 1.046875,-0.625 1.328125,0.125 2.0625,0.125 C 2.46875,0.125 2.8125,-0.109375 3.015625,-0.265625 C 3.15625,-0.359375 3.625,-0.75 3.625,-0.84375 C 3.625,-0.875 3.59375,-0.96875 3.515625,-0.96875 C 3.484375,-0.96875 3.46875,-0.953125 3.375,-0.875 C 2.734375,-0.25 2.375,-0.09375 2.078125,-0.09375 C 1.640625,-0.09375 1.46875,-0.625 1.46875,-1.390625 C 1.46875,-1.453125 1.5,-1.90625 1.53125,-1.96875 C 1.546875,-2 1.546875,-2.015625 1.75,-2.21875 C 2.546875,-3.015625 3.96875,-4.703125 3.96875,-6.25 C 3.96875,-6.421875 3.96875,-7.03125 3.375,-7.03125 C 2.546875,-7.03125 1.8125,-5.390625 1.71875,-5.15625 C 1.234375,-4.0625 0.921875,-2.90625 0.921875,-1.71875 L 0.15625,-0.984375 z M 1.578125,-2.375 C 1.59375,-2.5 2.03125,-4.703125 2.59375,-5.875 C 2.859375,-6.40625 3.078125,-6.8125 3.390625,-6.8125 C 3.734375,-6.8125 3.734375,-6.453125 3.734375,-6.296875 C 3.734375,-4.625 2.046875,-2.875 1.578125,-2.375 z"
             style="stroke:none" />
        </symbol>
      </g>
    </defs>
    <g
       id="textext-b29ef7e1-2">
      <g
         id="g15442"
         style="fill:#000000;fill-opacity:1">
        <use
           id="use15444"
           y="134.765"
           x="223.43201"
           xlink:href="#textext-b29ef7e1-1"
           width="990"
           height="765" />
      </g>
    </g>
  </g>
  <g
     id="g3709"
     transform="matrix(0.3,0,0,0.3,239.89126,65.852757)">
    <g
       id="g3532">
      <path
         sodipodi:nodetypes="cccccccccccccccccccccccccccccccscccccccccc"
         id="path3731"
         d="M 161.68725,42.908716 C 158.26625,44.587566 157.46525,49.145466 158.79025,52.445991 C 159.42,54.493266 160.6585,59.308624 158.79025,60.668924 C 156.15325,63.693749 157.90045,65.239125 154.51495,67.5 C 152.35195,68.696125 147.8605,69.562199 146.25,71.775424 C 144.775,73.556849 146.33675,72.929094 146.6155,75.095344 C 146.56025,77.126744 146.96875,79.822244 149.20875,80.534369 C 156.63025,82.765644 156.1115,81.173475 163.64425,81.0364 C 165.78,80.634125 168.7105,80.94415 169.46,83.3888 C 170.252,85.6855 169.464,88.055425 169.42275,90.390275 C 169.57375,92.340375 170.38725,94.17265 170.728,96.0993 C 174.09275,110.1296 177.058,124.2519 180.222,138.32763 C 182.38775,148.88835 182.3165,159.78042 181.35025,170.47425 C 181.03075,173.66617 180.58425,176.84567 180,180 C 178.98,181.56243 176.57775,182.01763 176.25025,184.03987 C 177.26,186.0269 176.245,188.08435 174.0995,188.77275 C 171.048,190.39097 174.378,193.46733 176.57625,193.78062 C 178.962,194.71775 181.78725,194.86375 184.10875,193.66105 C 185.7605,191.76812 186.92875,189.38808 189.09225,187.99165 C 192.63075,184.68 194.97775,180.11555 195.42025,175.27402 C 196.2805,170.41085 197.365,169.05951 198.977,164.36421 C 200.20575,162.09338 203.055,161.80351 205.3615,161.66573 C 214.034,160.05578 238.66925,161.63119 244.00525,166.90821 C 245.88075,169.83888 245.524,177.22393 244.193,180.65058 C 242.54788,189.44288 243.677,184.11613 237.236,188.95345 C 236.84475,191.07021 241.616,194.30745 243.22525,194.55623 C 246.789,195.14021 250.95,195.23346 254.47525,194.55623 C 256.71875,193.32643 256.2265,185.72952 258.75,184.7998 C 263.69351,176.31946 258.75,180.95589 258.75,168.75 C 258.92425,159.92869 261.00425,153.97395 260.05875,145.24962 C 259.79175,142.86382 259.37475,137.31055 258.75,135 C 255.43449,129.37951 279.60902,130.36577 258.6845,118.97267 C 248.84925,113.61751 237.7473,118.45795 225,119.41229 C 218.78952,118.87869 201.55419,119.3047 197.87404,112.5 C 191.25,105.51689 194.14971,107.99248 191.25,101.25 C 187.21367,85.408472 189.18389,80.049523 185.18835,67.5 C 183.4236,64.1214 176.32534,59.8703 177.18234,56.25 C 180.45675,54.92855 191.25,48.435497 182.5475,48.0726 C 175.64531,45.879019 173.42697,53.29935 168.75,56.25 C 166.80375,56.839675 168.2715,54.744261 166.896,52.815236 C 166.3385,51.244436 165.84725,49.595436 164.7945,48.243611 C 163.5005,46.323811 163.98675,42.015841 161.68725,42.908716 z"
         style="fill:none;fill-rule:evenodd;stroke:#000000;stroke-width:3.5;stroke-linecap:butt;stroke-linejoin:miter;stroke-miterlimit:4;stroke-dasharray:none;stroke-opacity:1" />
      <path
         style="fill:#000000;fill-opacity:1;stroke:#000000;stroke-width:0.625;stroke-linecap:butt;stroke-linejoin:bevel;stroke-miterlimit:4;stroke-dasharray:none;stroke-dashoffset:0;stroke-opacity:1"
         id="path3422"
         d="M 205.327,117.34397 C 205.76795,117.60569 207.40993,116.12611 207.25216,116.61642 C 206.78246,118.07616 207.73599,117.02851 207.97847,117.2339 C 208.5159,117.77442 208.24649,119.48106 208.52293,120.19373 C 208.79285,120.75786 209.80587,120.20223 209.9837,120.8052 C 210.16874,121.535 210.19699,122.28969 210.21718,123.03846 C 210.22978,123.77544 210.22526,124.51258 210.22341,125.24963 C 210.21762,125.95216 209.96217,126.60549 209.71597,127.25178 C 209.4815,127.81288 209.10126,128.29009 208.77299,128.79689 C 208.43655,129.26129 208.13484,129.75496 207.88188,130.26987 L 202.93626,132.4674 C 203.27269,131.9889 203.46202,131.41171 203.8117,130.9359 C 204.19024,130.49888 204.48267,129.96682 204.79723,129.48714 C 205.12231,128.94481 205.29374,128.30787 205.42326,127.69383 C 205.4253,126.96059 205.42982,126.22733 205.42355,125.4941 C 205.41192,124.78904 205.40152,124.07766 205.24868,123.386 C 205.08568,122.79185 204.77535,122.28115 204.53128,121.71916 C 204.31173,121.08744 203.89921,120.54542 203.4283,120.07604 C 202.84213,119.58536 198.97219,112.66877 198.21653,112.5 L 205.327,117.34397 z"
         sodipodi:nodetypes="cscccsscccccccsccccc" />
      <path
         style="fill:#000000;fill-opacity:1;stroke:#000000;stroke-width:0.625;stroke-linecap:butt;stroke-linejoin:bevel;stroke-miterlimit:4;stroke-dasharray:none;stroke-dashoffset:0;stroke-opacity:1"
         id="path3426"
         d="M 211.36266,118.44529 C 212.04654,118.70303 212.71731,119.00027 213.40998,119.23606 C 214.12801,119.51421 214.80826,119.84029 215.33926,120.40741 C 215.86952,120.87552 216.12802,121.52688 216.41626,122.15322 C 216.69028,122.78788 216.74934,123.47622 216.78852,124.15795 C 216.81737,124.88641 216.8121,125.61568 216.81059,126.34455 C 216.83774,127.02321 216.8075,127.68562 216.54349,128.31708 C 216.35442,128.83952 216.04897,129.29045 215.72551,129.73547 C 215.43942,130.05902 215.15482,130.38336 214.83955,130.67903 L 209.84451,132.77363 C 210.1152,132.43267 210.47324,132.18268 210.73069,131.83059 C 211.12044,131.49847 211.42936,131.03604 211.62032,130.56388 C 211.95565,129.90035 212.06597,129.56777 212.01043,128.78899 C 212.01221,128.0693 212.01742,127.34939 211.99701,126.6299 C 211.97037,126.01455 211.9414,125.38821 211.70939,124.80925 C 211.45413,124.23533 211.23553,123.64449 210.74433,123.22327 C 210.22691,122.75059 209.59252,122.48657 208.9397,122.2492 C 208.27394,121.98695 207.61409,121.69553 206.91054,121.54755 L 211.36266,118.44529 z" />
      <path
         style="fill:#000000;fill-opacity:1;stroke:#000000;stroke-width:0.625;stroke-linecap:butt;stroke-linejoin:bevel;stroke-miterlimit:4;stroke-dasharray:none;stroke-dashoffset:0;stroke-opacity:1"
         id="path3428"
         d="M 220.53338,119.73095 C 221.07533,120.36369 221.59871,121.00709 222.15292,121.63005 C 222.64269,122.17431 222.98372,122.76893 223.25752,123.44214 C 223.46011,124.1135 223.81954,124.71318 224.1078,125.34651 C 224.31349,125.92028 224.58067,126.46872 224.80734,127.03381 C 225.04049,127.66755 225.30348,128.27726 225.44608,128.94047 C 225.54026,129.60118 225.40095,130.23896 225.0887,130.82143 L 216.89294,136.13103 C 217.10434,135.95501 217.34712,135.88616 217.55377,135.70817 C 217.62259,135.6489 217.67049,135.56737 217.74135,135.51057 C 217.80963,135.45584 217.89192,135.42137 217.96721,135.37678 C 234.04373,125.95269 215.58789,136.78165 218.41651,135.08595 C 220.02185,134.12357 221.58948,133.08636 223.26996,132.26219 C 224.79213,131.51567 220.35124,133.98793 218.8928,134.85236 C 218.74959,134.93724 219.4917,134.53359 219.28557,134.5439 C 219.56245,134.0271 219.88002,133.53815 220.15442,133.02182 C 220.2544,132.85663 220.38499,132.71041 220.47679,132.54055 C 220.64853,132.22279 220.63008,131.83159 220.68745,131.48529 C 220.56953,130.85001 220.32079,130.27289 220.09494,129.67124 C 219.86,129.11515 219.59961,128.56876 219.40587,127.99621 C 219.12649,127.35472 218.76349,126.75056 218.55042,126.07983 C 218.28971,125.47021 218.00649,124.90759 217.55491,124.40796 C 217.03087,123.80728 214.34633,121.33433 213.75,120.80741 L 220.53338,119.73095 z"
         sodipodi:nodetypes="csccccccsssssscssccccscc" />
      <path
         d="M 242.51659,118.19876 C 242.07564,118.46048 240.10084,117.17562 239.67903,117.47121 C 239.4188,117.65358 239.1952,117.8833 238.95272,118.08869 C 238.41529,118.62921 237.95477,119.24096 237.67833,119.95363 C 237.40841,120.51776 237.12532,121.05702 236.94749,121.65999 C 236.76245,122.38979 236.7342,123.14448 236.71401,123.89325 C 236.70141,124.63023 236.70593,125.36737 236.70778,126.10442 C 236.71357,126.80695 236.96902,127.46028 237.21522,128.10657 C 237.44969,128.66767 237.82993,129.14488 238.1582,129.65168 C 238.49464,130.11608 238.79635,130.60975 239.04931,131.12466 L 243.99493,133.32219 C 243.6585,132.84369 243.46917,132.2665 243.11949,131.79069 C 242.74095,131.35367 242.44852,130.82161 242.13396,130.34193 C 241.80888,129.7996 241.63745,129.16266 241.50793,128.54862 C 241.50589,127.81538 241.50137,127.08212 241.50764,126.34889 C 241.51927,125.64383 241.52967,124.93245 241.68251,124.24079 C 241.84551,123.64664 242.15584,123.13594 242.39991,122.57395 C 242.61946,121.94223 243.03198,121.40021 243.50289,120.93083 C 244.08906,120.44015 246.74434,117.63653 247.5,117.46776 L 242.51659,118.19876 z"
         id="path3436"
         style="fill:#000000;fill-opacity:1;stroke:#000000;stroke-width:0.625;stroke-linecap:butt;stroke-linejoin:bevel;stroke-miterlimit:4;stroke-dasharray:none;stroke-dashoffset:0;stroke-opacity:1"
         inkscape:transform-center-x="-22.991657"
         inkscape:transform-center-y="34.17576"
         sodipodi:nodetypes="cscccsscccccccsccccc" />
      <path
         d="M 236.25,118.50894 C 235.56612,118.76668 234.21388,119.85506 233.52121,120.09085 C 232.80318,120.369 227.74337,119.96515 227.21237,120.53227 C 226.68211,121.00038 230.80317,122.38167 230.51493,123.00801 C 230.24091,123.64267 230.18185,124.33101 230.14267,125.01274 C 230.11382,125.7412 230.11909,126.47047 230.1206,127.19934 C 230.09345,127.878 230.12369,128.54041 230.3877,129.17187 C 230.57677,129.69431 230.88222,130.14524 231.20568,130.59026 C 231.49177,130.91381 231.77637,131.23815 232.09164,131.53382 L 237.08668,133.62842 C 236.81599,133.28746 236.45795,133.03747 236.2005,132.68538 C 235.81075,132.35326 235.50183,131.89083 235.31087,131.41867 C 234.97554,130.75514 234.86522,130.42256 234.92076,129.64378 C 234.91898,128.92409 234.91377,128.20418 234.93418,127.48469 C 234.96082,126.86934 234.98979,126.243 235.2218,125.66404 C 235.47706,125.09012 235.69566,124.49928 236.18686,124.07806 C 236.70428,123.60538 238.28804,120.1768 238.94086,119.93943 C 239.60662,119.67718 239.3171,122.55032 240.02065,122.40234 L 236.25,118.50894 z"
         id="path3438"
         style="fill:#000000;fill-opacity:1;stroke:#000000;stroke-width:0.625;stroke-linecap:butt;stroke-linejoin:bevel;stroke-miterlimit:4;stroke-dasharray:none;stroke-dashoffset:0;stroke-opacity:1"
         inkscape:transform-center-x="-16.951094"
         inkscape:transform-center-y="35.60946"
         sodipodi:nodetypes="ccccsccccccccsccccc" />
      <path
         d="M 226.39781,120.58574 C 225.85586,121.21848 221.68284,120.03706 221.12863,120.66002 C 220.63886,121.20428 223.94747,123.62372 223.67367,124.29693 C 223.47108,124.96829 223.11165,125.56797 222.82339,126.2013 C 222.6177,126.77507 222.35052,127.32351 222.12385,127.8886 C 221.8907,128.52234 221.62771,129.13205 221.48511,129.79526 C 221.39093,130.45597 221.53024,131.09375 221.84249,131.67622 C 222.13105,132.18128 222.40348,132.69628 222.70374,133.19432 L 230.03825,136.98582 C 229.82685,136.8098 229.58407,136.74095 229.37742,136.56296 C 229.3086,136.50369 229.2607,136.42216 229.18984,136.36536 C 229.12156,136.31063 229.03927,136.27616 228.96398,136.23157 C 212.88746,126.80748 231.3433,137.63644 228.51468,135.94074 C 226.90934,134.97836 225.34171,133.94115 223.66123,133.11698 C 222.13906,132.37046 226.57995,134.84272 228.03839,135.70715 C 228.1816,135.79203 227.43949,135.38838 227.64562,135.39869 C 227.36874,134.88189 227.05117,134.39294 226.77677,133.87661 C 226.67679,133.71142 226.5462,133.5652 226.4544,133.39534 C 226.28266,133.07758 226.30111,132.68638 226.24374,132.34008 C 226.36166,131.7048 226.6104,131.12768 226.83625,130.52603 C 227.07119,129.96994 227.33158,129.42355 227.52532,128.851 C 227.8047,128.20951 228.1677,127.60535 228.38077,126.93462 C 228.64148,126.325 228.9247,125.76238 229.37628,125.26275 C 229.90032,124.66207 230.38854,124.01394 230.98487,123.48702 L 226.39781,120.58574 z"
         id="path3440"
         style="fill:#000000;fill-opacity:1;stroke:#000000;stroke-width:0.625;stroke-linecap:butt;stroke-linejoin:bevel;stroke-miterlimit:4;stroke-dasharray:none;stroke-dashoffset:0;stroke-opacity:1"
         inkscape:transform-center-x="-8.104985"
         inkscape:transform-center-y="37.93099"
         sodipodi:nodetypes="cscccccccsssssscssccccscc" />
      <path
         style="fill:#000000;fill-opacity:1;stroke:#000000;stroke-width:0.625;stroke-linecap:butt;stroke-linejoin:bevel;stroke-miterlimit:4;stroke-dasharray:none;stroke-dashoffset:0;stroke-opacity:1"
         id="path3460"
         d="M 178.60967,126.84162 C 178.48432,127.68788 180.20133,128.05594 180.14345,128.90932 C 180.09637,129.68922 180.09008,130.47072 180.08624,131.25178 C 180.04193,131.91937 180.2247,132.56452 180.32988,133.21705 C 180.42213,133.80252 180.6341,134.35478 180.86527,134.89655 C 181.04107,135.46608 181.1669,136.03829 181.44349,136.57084 C 181.70981,137.20118 182.13958,137.70351 182.66451,138.13138 C 183.15974,138.44928 183.64215,138.78404 184.11342,139.13644 C 184.32733,139.35316 184.5677,139.53537 184.81697,139.70822 L 189.8373,141.71628 C 189.60454,141.51296 189.34693,141.38671 189.11297,141.18509 C 188.71114,140.73202 188.178,140.44438 187.69599,140.08865 C 187.11042,139.8073 186.67819,139.37198 186.35782,138.81512 C 186.14111,138.27231 185.80363,137.78974 185.77061,137.17705 C 185.59231,136.64066 185.31354,136.1532 185.17374,135.60046 C 185.09619,134.96022 184.89596,134.34007 184.88383,133.69775 C 184.81176,128.71038 180.24675,124.98526 178.21431,120.42169 L 178.60967,126.84162 z"
         sodipodi:nodetypes="cscscccccccccccccc" />
      <path
         sodipodi:nodetypes="cscscccccccccccccc"
         d="M 180.84261,140.61615 C 180.71726,141.46241 182.43427,141.83047 182.37639,142.68385 C 182.32931,143.46375 182.32302,144.24525 182.31918,145.02631 C 182.27487,145.6939 182.45764,146.33905 182.56282,146.99158 C 182.65507,147.57705 182.86704,148.12931 183.09821,148.67108 C 183.27401,149.24061 183.39984,149.81282 183.67643,150.34537 C 183.94275,150.97571 184.37252,151.47804 184.89745,151.90591 C 185.39268,152.22381 185.87509,152.55857 186.34636,152.91097 C 186.56027,153.12769 186.80064,153.3099 187.04991,153.48275 L 192.07024,155.49081 C 191.83748,155.28749 191.57987,155.16124 191.34591,154.95962 C 190.94408,154.50655 190.41094,154.21891 189.92893,153.86318 C 189.34336,153.58183 188.91113,153.14651 188.59076,152.58965 C 188.37405,152.04684 188.03657,151.56427 188.00355,150.95158 C 187.82525,150.41519 187.54648,149.92773 187.40668,149.37499 C 187.32913,148.73475 187.1289,148.1146 187.11677,147.47228 C 187.0447,142.48491 182.47969,138.75979 180.44725,134.19622 L 180.84261,140.61615 z"
         id="path3470"
         style="fill:#000000;fill-opacity:1;stroke:#000000;stroke-width:0.625;stroke-linecap:butt;stroke-linejoin:bevel;stroke-miterlimit:4;stroke-dasharray:none;stroke-dashoffset:0;stroke-opacity:1" />
      <path
         sodipodi:nodetypes="cscscccccccccccccc"
         d="M 173.09986,108.87534 C 172.97451,109.7216 174.69152,110.08966 174.63364,110.94304 C 174.58656,111.72294 174.58027,112.50444 174.57643,113.2855 C 174.53212,113.95309 174.71489,114.59824 174.82007,115.25077 C 174.91232,115.83624 175.12429,116.3885 175.35546,116.93027 C 175.53126,117.4998 175.65709,118.07201 175.93368,118.60456 C 176.2,119.2349 176.62977,119.73723 177.1547,120.1651 C 177.64993,120.483 178.13234,120.81776 178.60361,121.17016 C 178.81752,121.38688 179.05789,121.56909 179.30716,121.74194 L 184.32749,123.75 C 184.09473,123.54668 183.83712,123.42043 183.60316,123.21881 C 183.20133,122.76574 182.66819,122.4781 182.18618,122.12237 C 181.60061,121.84102 181.16838,121.4057 180.84801,120.84884 C 180.6313,120.30603 180.29382,119.82346 180.2608,119.21077 C 180.0825,118.67438 179.80373,118.18692 179.66393,117.63418 C 179.58638,116.99394 179.38615,116.37379 179.37402,115.73147 C 179.30195,110.7441 174.73694,107.01898 172.7045,102.45541 L 173.09986,108.87534 z"
         id="path3481"
         style="fill:#000000;fill-opacity:1;stroke:#000000;stroke-width:0.625;stroke-linecap:butt;stroke-linejoin:bevel;stroke-miterlimit:4;stroke-dasharray:none;stroke-dashoffset:0;stroke-opacity:1" />
      <path
         style="fill:#000000;fill-opacity:1;stroke:#000000;stroke-width:0.80483049;stroke-linecap:butt;stroke-linejoin:bevel;stroke-miterlimit:4;stroke-dasharray:none;stroke-dashoffset:0;stroke-opacity:1"
         d="M 176.44865,123.2602 C 176.56666,125.14009 179.86098,125.64603 180,127.52432 C 180.33547,128.60498 178.36498,130.81224 179.43622,131.71479 C 180.83645,132.75816 182.81683,133.5593 185.03205,134.09844 C 186.33673,134.4526 187.65523,134.79726 188.88972,135.21474 C 186.78526,134.60824 184.72028,133.96637 182.62795,133.34896 C 184.05942,134.00079 185.37862,134.77299 187.16361,135.16914 C 188.28719,135.29881 189.50163,135.2131 190.53974,135.52246 C 191.79129,135.78981 190.04194,135.21096 189.75065,135.06642 C 188.3168,134.49198 186.88297,133.91754 185.44913,133.3431 C 184.54896,133.18176 182.94778,132.7731 182.46818,132.79102 C 184.53336,133.46332 186.77565,133.97515 188.92844,134.5668 C 190.03898,134.86555 188.28654,134.36264 187.91268,134.23647 C 186.11011,133.67738 184.32245,133.09922 182.41362,132.63931 C 184.46425,133.29407 186.60314,133.87085 188.67715,134.50512 C 187.78766,134.21457 187.14623,133.76669 186.40382,133.38973 C 185.59387,132.83797 184.90654,132.241 184.12313,131.67977 C 183.38045,131.11407 182.76203,130.45319 182.93985,129.75067 C 183.00574,128.15911 179.90018,130.85116 180,129.25981 C 177.82304,128.68803 178.62558,123.83198 176.44865,123.2602 z"
         id="path3496"
         sodipodi:nodetypes="cccccccccccccccccccc" />
      <path
         sodipodi:nodetypes="cccccccccccccccccccc"
         id="path3500"
         d="M 180,135 C 180.11801,136.87989 183.41233,137.38583 183.55135,139.26412 C 183.88682,140.34478 181.91633,142.55204 182.98757,143.45459 C 184.3878,144.49796 186.36818,145.2991 188.5834,145.83824 C 189.88808,146.1924 191.20658,146.53706 192.44107,146.95454 C 190.33661,146.34804 188.27163,145.70617 186.1793,145.08876 C 187.61077,145.74059 188.92997,146.51279 190.71496,146.90894 C 191.83854,147.03861 193.05298,146.9529 194.09109,147.26226 C 195.34264,147.52961 193.59329,146.95076 193.302,146.80622 C 191.86815,146.23178 190.43432,145.65734 189.00048,145.0829 C 188.10031,144.92156 186.49913,144.5129 186.01953,144.53082 C 188.08471,145.20312 190.327,145.71495 192.47979,146.3066 C 193.59033,146.60535 191.83789,146.10244 191.46403,145.97627 C 189.66146,145.41718 187.8738,144.83902 185.96497,144.37911 C 188.0156,145.03387 190.15449,145.61065 192.2285,146.24492 C 191.33901,145.95437 190.69758,145.50649 189.95517,145.12953 C 189.14522,144.57777 188.45789,143.9808 187.67448,143.41957 C 186.9318,142.85387 183.28298,139.43808 183.4608,138.73556 C 183.52669,137.144 179.90018,136.59135 180,135 C 177.82304,134.42822 182.17693,135.57178 180,135 z"
         style="fill:#000000;fill-opacity:1;stroke:#000000;stroke-width:0.80483049;stroke-linecap:butt;stroke-linejoin:bevel;stroke-miterlimit:4;stroke-dasharray:none;stroke-dashoffset:0;stroke-opacity:1" />
    </g>
    <path
       transform="matrix(0.16,0,0,0.16,134.75,52.796192)"
       d="M 236.25,67.5 A 11.25,11.25 0 1 1 213.75,67.5 A 11.25,11.25 0 1 1 236.25,67.5 z"
       sodipodi:ry="11.25"
       sodipodi:rx="11.25"
       sodipodi:cy="67.5"
       sodipodi:cx="225"
       id="path3705"
       style="opacity:1;fill:#000000;fill-opacity:1;stroke:#000000;stroke-width:0.625;stroke-linecap:butt;stroke-linejoin:bevel;stroke-miterlimit:4;stroke-dasharray:none;stroke-dashoffset:0;stroke-opacity:1"
       sodipodi:type="arc" />
    <path
       transform="matrix(0.16,0,0,0.16,129.13808,54.9)"
       d="M 236.25,67.5 A 11.25,11.25 0 1 1 213.75,67.5 A 11.25,11.25 0 1 1 236.25,67.5 z"
       sodipodi:ry="11.25"
       sodipodi:rx="11.25"
       sodipodi:cy="67.5"
       sodipodi:cx="225"
       id="path3707"
       style="opacity:1;fill:#000000;fill-opacity:1;stroke:#000000;stroke-width:0.625;stroke-linecap:butt;stroke-linejoin:bevel;stroke-miterlimit:4;stroke-dasharray:none;stroke-dashoffset:0;stroke-opacity:1"
       sodipodi:type="arc" />
  </g>
  <g
     id="g3946"
     transform="matrix(0,0.3,0.3,0,178.19732,127.43201)">
    <g
       id="g3948">
      <path
         sodipodi:nodetypes="cccccccccccccccccccccccccccccccscccccccccc"
         id="path3950"
         d="M 161.68725,42.908716 C 158.26625,44.587566 157.46525,49.145466 158.79025,52.445991 C 159.42,54.493266 160.6585,59.308624 158.79025,60.668924 C 156.15325,63.693749 157.90045,65.239125 154.51495,67.5 C 152.35195,68.696125 147.8605,69.562199 146.25,71.775424 C 144.775,73.556849 146.33675,72.929094 146.6155,75.095344 C 146.56025,77.126744 146.96875,79.822244 149.20875,80.534369 C 156.63025,82.765644 156.1115,81.173475 163.64425,81.0364 C 165.78,80.634125 168.7105,80.94415 169.46,83.3888 C 170.252,85.6855 169.464,88.055425 169.42275,90.390275 C 169.57375,92.340375 170.38725,94.17265 170.728,96.0993 C 174.09275,110.1296 177.058,124.2519 180.222,138.32763 C 182.38775,148.88835 182.3165,159.78042 181.35025,170.47425 C 181.03075,173.66617 180.58425,176.84567 180,180 C 178.98,181.56243 176.57775,182.01763 176.25025,184.03987 C 177.26,186.0269 176.245,188.08435 174.0995,188.77275 C 171.048,190.39097 174.378,193.46733 176.57625,193.78062 C 178.962,194.71775 181.78725,194.86375 184.10875,193.66105 C 185.7605,191.76812 186.92875,189.38808 189.09225,187.99165 C 192.63075,184.68 194.97775,180.11555 195.42025,175.27402 C 196.2805,170.41085 197.365,169.05951 198.977,164.36421 C 200.20575,162.09338 203.055,161.80351 205.3615,161.66573 C 214.034,160.05578 238.66925,161.63119 244.00525,166.90821 C 245.88075,169.83888 245.524,177.22393 244.193,180.65058 C 242.54788,189.44288 243.677,184.11613 237.236,188.95345 C 236.84475,191.07021 241.616,194.30745 243.22525,194.55623 C 246.789,195.14021 250.95,195.23346 254.47525,194.55623 C 256.71875,193.32643 256.2265,185.72952 258.75,184.7998 C 263.69351,176.31946 258.75,180.95589 258.75,168.75 C 258.92425,159.92869 261.00425,153.97395 260.05875,145.24962 C 259.79175,142.86382 259.37475,137.31055 258.75,135 C 255.43449,129.37951 279.60902,130.36577 258.6845,118.97267 C 248.84925,113.61751 237.7473,118.45795 225,119.41229 C 218.78952,118.87869 201.55419,119.3047 197.87404,112.5 C 191.25,105.51689 194.14971,107.99248 191.25,101.25 C 187.21367,85.408472 189.18389,80.049523 185.18835,67.5 C 183.4236,64.1214 176.32534,59.8703 177.18234,56.25 C 180.45675,54.92855 191.25,48.435497 182.5475,48.0726 C 175.64531,45.879019 173.42697,53.29935 168.75,56.25 C 166.80375,56.839675 168.2715,54.744261 166.896,52.815236 C 166.3385,51.244436 165.84725,49.595436 164.7945,48.243611 C 163.5005,46.323811 163.98675,42.015841 161.68725,42.908716 z"
         style="fill:none;fill-rule:evenodd;stroke:#000000;stroke-width:3.5;stroke-linecap:butt;stroke-linejoin:miter;stroke-miterlimit:4;stroke-dasharray:none;stroke-opacity:1" />
      <path
         style="fill:#000000;fill-opacity:1;stroke:#000000;stroke-width:0.625;stroke-linecap:butt;stroke-linejoin:bevel;stroke-miterlimit:4;stroke-dasharray:none;stroke-dashoffset:0;stroke-opacity:1"
         id="path3952"
         d="M 205.327,117.34397 C 205.76795,117.60569 207.40993,116.12611 207.25216,116.61642 C 206.78246,118.07616 207.73599,117.02851 207.97847,117.2339 C 208.5159,117.77442 208.24649,119.48106 208.52293,120.19373 C 208.79285,120.75786 209.80587,120.20223 209.9837,120.8052 C 210.16874,121.535 210.19699,122.28969 210.21718,123.03846 C 210.22978,123.77544 210.22526,124.51258 210.22341,125.24963 C 210.21762,125.95216 209.96217,126.60549 209.71597,127.25178 C 209.4815,127.81288 209.10126,128.29009 208.77299,128.79689 C 208.43655,129.26129 208.13484,129.75496 207.88188,130.26987 L 202.93626,132.4674 C 203.27269,131.9889 203.46202,131.41171 203.8117,130.9359 C 204.19024,130.49888 204.48267,129.96682 204.79723,129.48714 C 205.12231,128.94481 205.29374,128.30787 205.42326,127.69383 C 205.4253,126.96059 205.42982,126.22733 205.42355,125.4941 C 205.41192,124.78904 205.40152,124.07766 205.24868,123.386 C 205.08568,122.79185 204.77535,122.28115 204.53128,121.71916 C 204.31173,121.08744 203.89921,120.54542 203.4283,120.07604 C 202.84213,119.58536 198.97219,112.66877 198.21653,112.5 L 205.327,117.34397 z"
         sodipodi:nodetypes="cscccsscccccccsccccc" />
      <path
         style="fill:#000000;fill-opacity:1;stroke:#000000;stroke-width:0.625;stroke-linecap:butt;stroke-linejoin:bevel;stroke-miterlimit:4;stroke-dasharray:none;stroke-dashoffset:0;stroke-opacity:1"
         id="path3954"
         d="M 211.36266,118.44529 C 212.04654,118.70303 212.71731,119.00027 213.40998,119.23606 C 214.12801,119.51421 214.80826,119.84029 215.33926,120.40741 C 215.86952,120.87552 216.12802,121.52688 216.41626,122.15322 C 216.69028,122.78788 216.74934,123.47622 216.78852,124.15795 C 216.81737,124.88641 216.8121,125.61568 216.81059,126.34455 C 216.83774,127.02321 216.8075,127.68562 216.54349,128.31708 C 216.35442,128.83952 216.04897,129.29045 215.72551,129.73547 C 215.43942,130.05902 215.15482,130.38336 214.83955,130.67903 L 209.84451,132.77363 C 210.1152,132.43267 210.47324,132.18268 210.73069,131.83059 C 211.12044,131.49847 211.42936,131.03604 211.62032,130.56388 C 211.95565,129.90035 212.06597,129.56777 212.01043,128.78899 C 212.01221,128.0693 212.01742,127.34939 211.99701,126.6299 C 211.97037,126.01455 211.9414,125.38821 211.70939,124.80925 C 211.45413,124.23533 211.23553,123.64449 210.74433,123.22327 C 210.22691,122.75059 209.59252,122.48657 208.9397,122.2492 C 208.27394,121.98695 207.61409,121.69553 206.91054,121.54755 L 211.36266,118.44529 z" />
      <path
         style="fill:#000000;fill-opacity:1;stroke:#000000;stroke-width:0.625;stroke-linecap:butt;stroke-linejoin:bevel;stroke-miterlimit:4;stroke-dasharray:none;stroke-dashoffset:0;stroke-opacity:1"
         id="path3956"
         d="M 220.53338,119.73095 C 221.07533,120.36369 221.59871,121.00709 222.15292,121.63005 C 222.64269,122.17431 222.98372,122.76893 223.25752,123.44214 C 223.46011,124.1135 223.81954,124.71318 224.1078,125.34651 C 224.31349,125.92028 224.58067,126.46872 224.80734,127.03381 C 225.04049,127.66755 225.30348,128.27726 225.44608,128.94047 C 225.54026,129.60118 225.40095,130.23896 225.0887,130.82143 L 216.89294,136.13103 C 217.10434,135.95501 217.34712,135.88616 217.55377,135.70817 C 217.62259,135.6489 217.67049,135.56737 217.74135,135.51057 C 217.80963,135.45584 217.89192,135.42137 217.96721,135.37678 C 234.04373,125.95269 215.58789,136.78165 218.41651,135.08595 C 220.02185,134.12357 221.58948,133.08636 223.26996,132.26219 C 224.79213,131.51567 220.35124,133.98793 218.8928,134.85236 C 218.74959,134.93724 219.4917,134.53359 219.28557,134.5439 C 219.56245,134.0271 219.88002,133.53815 220.15442,133.02182 C 220.2544,132.85663 220.38499,132.71041 220.47679,132.54055 C 220.64853,132.22279 220.63008,131.83159 220.68745,131.48529 C 220.56953,130.85001 220.32079,130.27289 220.09494,129.67124 C 219.86,129.11515 219.59961,128.56876 219.40587,127.99621 C 219.12649,127.35472 218.76349,126.75056 218.55042,126.07983 C 218.28971,125.47021 218.00649,124.90759 217.55491,124.40796 C 217.03087,123.80728 214.34633,121.33433 213.75,120.80741 L 220.53338,119.73095 z"
         sodipodi:nodetypes="csccccccsssssscssccccscc" />
      <path
         d="M 242.51659,118.19876 C 242.07564,118.46048 240.10084,117.17562 239.67903,117.47121 C 239.4188,117.65358 239.1952,117.8833 238.95272,118.08869 C 238.41529,118.62921 237.95477,119.24096 237.67833,119.95363 C 237.40841,120.51776 237.12532,121.05702 236.94749,121.65999 C 236.76245,122.38979 236.7342,123.14448 236.71401,123.89325 C 236.70141,124.63023 236.70593,125.36737 236.70778,126.10442 C 236.71357,126.80695 236.96902,127.46028 237.21522,128.10657 C 237.44969,128.66767 237.82993,129.14488 238.1582,129.65168 C 238.49464,130.11608 238.79635,130.60975 239.04931,131.12466 L 243.99493,133.32219 C 243.6585,132.84369 243.46917,132.2665 243.11949,131.79069 C 242.74095,131.35367 242.44852,130.82161 242.13396,130.34193 C 241.80888,129.7996 241.63745,129.16266 241.50793,128.54862 C 241.50589,127.81538 241.50137,127.08212 241.50764,126.34889 C 241.51927,125.64383 241.52967,124.93245 241.68251,124.24079 C 241.84551,123.64664 242.15584,123.13594 242.39991,122.57395 C 242.61946,121.94223 243.03198,121.40021 243.50289,120.93083 C 244.08906,120.44015 246.74434,117.63653 247.5,117.46776 L 242.51659,118.19876 z"
         id="path3958"
         style="fill:#000000;fill-opacity:1;stroke:#000000;stroke-width:0.625;stroke-linecap:butt;stroke-linejoin:bevel;stroke-miterlimit:4;stroke-dasharray:none;stroke-dashoffset:0;stroke-opacity:1"
         inkscape:transform-center-x="-22.991657"
         inkscape:transform-center-y="34.17576"
         sodipodi:nodetypes="cscccsscccccccsccccc" />
      <path
         d="M 236.25,118.50894 C 235.56612,118.76668 234.21388,119.85506 233.52121,120.09085 C 232.80318,120.369 227.74337,119.96515 227.21237,120.53227 C 226.68211,121.00038 230.80317,122.38167 230.51493,123.00801 C 230.24091,123.64267 230.18185,124.33101 230.14267,125.01274 C 230.11382,125.7412 230.11909,126.47047 230.1206,127.19934 C 230.09345,127.878 230.12369,128.54041 230.3877,129.17187 C 230.57677,129.69431 230.88222,130.14524 231.20568,130.59026 C 231.49177,130.91381 231.77637,131.23815 232.09164,131.53382 L 237.08668,133.62842 C 236.81599,133.28746 236.45795,133.03747 236.2005,132.68538 C 235.81075,132.35326 235.50183,131.89083 235.31087,131.41867 C 234.97554,130.75514 234.86522,130.42256 234.92076,129.64378 C 234.91898,128.92409 234.91377,128.20418 234.93418,127.48469 C 234.96082,126.86934 234.98979,126.243 235.2218,125.66404 C 235.47706,125.09012 235.69566,124.49928 236.18686,124.07806 C 236.70428,123.60538 238.28804,120.1768 238.94086,119.93943 C 239.60662,119.67718 239.3171,122.55032 240.02065,122.40234 L 236.25,118.50894 z"
         id="path3960"
         style="fill:#000000;fill-opacity:1;stroke:#000000;stroke-width:0.625;stroke-linecap:butt;stroke-linejoin:bevel;stroke-miterlimit:4;stroke-dasharray:none;stroke-dashoffset:0;stroke-opacity:1"
         inkscape:transform-center-x="-16.951094"
         inkscape:transform-center-y="35.60946"
         sodipodi:nodetypes="ccccsccccccccsccccc" />
      <path
         d="M 226.39781,120.58574 C 225.85586,121.21848 221.68284,120.03706 221.12863,120.66002 C 220.63886,121.20428 223.94747,123.62372 223.67367,124.29693 C 223.47108,124.96829 223.11165,125.56797 222.82339,126.2013 C 222.6177,126.77507 222.35052,127.32351 222.12385,127.8886 C 221.8907,128.52234 221.62771,129.13205 221.48511,129.79526 C 221.39093,130.45597 221.53024,131.09375 221.84249,131.67622 C 222.13105,132.18128 222.40348,132.69628 222.70374,133.19432 L 230.03825,136.98582 C 229.82685,136.8098 229.58407,136.74095 229.37742,136.56296 C 229.3086,136.50369 229.2607,136.42216 229.18984,136.36536 C 229.12156,136.31063 229.03927,136.27616 228.96398,136.23157 C 212.88746,126.80748 231.3433,137.63644 228.51468,135.94074 C 226.90934,134.97836 225.34171,133.94115 223.66123,133.11698 C 222.13906,132.37046 226.57995,134.84272 228.03839,135.70715 C 228.1816,135.79203 227.43949,135.38838 227.64562,135.39869 C 227.36874,134.88189 227.05117,134.39294 226.77677,133.87661 C 226.67679,133.71142 226.5462,133.5652 226.4544,133.39534 C 226.28266,133.07758 226.30111,132.68638 226.24374,132.34008 C 226.36166,131.7048 226.6104,131.12768 226.83625,130.52603 C 227.07119,129.96994 227.33158,129.42355 227.52532,128.851 C 227.8047,128.20951 228.1677,127.60535 228.38077,126.93462 C 228.64148,126.325 228.9247,125.76238 229.37628,125.26275 C 229.90032,124.66207 230.38854,124.01394 230.98487,123.48702 L 226.39781,120.58574 z"
         id="path3962"
         style="fill:#000000;fill-opacity:1;stroke:#000000;stroke-width:0.625;stroke-linecap:butt;stroke-linejoin:bevel;stroke-miterlimit:4;stroke-dasharray:none;stroke-dashoffset:0;stroke-opacity:1"
         inkscape:transform-center-x="-8.104985"
         inkscape:transform-center-y="37.93099"
         sodipodi:nodetypes="cscccccccsssssscssccccscc" />
      <path
         style="fill:#000000;fill-opacity:1;stroke:#000000;stroke-width:0.625;stroke-linecap:butt;stroke-linejoin:bevel;stroke-miterlimit:4;stroke-dasharray:none;stroke-dashoffset:0;stroke-opacity:1"
         id="path3964"
         d="M 178.60967,126.84162 C 178.48432,127.68788 180.20133,128.05594 180.14345,128.90932 C 180.09637,129.68922 180.09008,130.47072 180.08624,131.25178 C 180.04193,131.91937 180.2247,132.56452 180.32988,133.21705 C 180.42213,133.80252 180.6341,134.35478 180.86527,134.89655 C 181.04107,135.46608 181.1669,136.03829 181.44349,136.57084 C 181.70981,137.20118 182.13958,137.70351 182.66451,138.13138 C 183.15974,138.44928 183.64215,138.78404 184.11342,139.13644 C 184.32733,139.35316 184.5677,139.53537 184.81697,139.70822 L 189.8373,141.71628 C 189.60454,141.51296 189.34693,141.38671 189.11297,141.18509 C 188.71114,140.73202 188.178,140.44438 187.69599,140.08865 C 187.11042,139.8073 186.67819,139.37198 186.35782,138.81512 C 186.14111,138.27231 185.80363,137.78974 185.77061,137.17705 C 185.59231,136.64066 185.31354,136.1532 185.17374,135.60046 C 185.09619,134.96022 184.89596,134.34007 184.88383,133.69775 C 184.81176,128.71038 180.24675,124.98526 178.21431,120.42169 L 178.60967,126.84162 z"
         sodipodi:nodetypes="cscscccccccccccccc" />
      <path
         sodipodi:nodetypes="cscscccccccccccccc"
         d="M 180.84261,140.61615 C 180.71726,141.46241 182.43427,141.83047 182.37639,142.68385 C 182.32931,143.46375 182.32302,144.24525 182.31918,145.02631 C 182.27487,145.6939 182.45764,146.33905 182.56282,146.99158 C 182.65507,147.57705 182.86704,148.12931 183.09821,148.67108 C 183.27401,149.24061 183.39984,149.81282 183.67643,150.34537 C 183.94275,150.97571 184.37252,151.47804 184.89745,151.90591 C 185.39268,152.22381 185.87509,152.55857 186.34636,152.91097 C 186.56027,153.12769 186.80064,153.3099 187.04991,153.48275 L 192.07024,155.49081 C 191.83748,155.28749 191.57987,155.16124 191.34591,154.95962 C 190.94408,154.50655 190.41094,154.21891 189.92893,153.86318 C 189.34336,153.58183 188.91113,153.14651 188.59076,152.58965 C 188.37405,152.04684 188.03657,151.56427 188.00355,150.95158 C 187.82525,150.41519 187.54648,149.92773 187.40668,149.37499 C 187.32913,148.73475 187.1289,148.1146 187.11677,147.47228 C 187.0447,142.48491 182.47969,138.75979 180.44725,134.19622 L 180.84261,140.61615 z"
         id="path3966"
         style="fill:#000000;fill-opacity:1;stroke:#000000;stroke-width:0.625;stroke-linecap:butt;stroke-linejoin:bevel;stroke-miterlimit:4;stroke-dasharray:none;stroke-dashoffset:0;stroke-opacity:1" />
      <path
         sodipodi:nodetypes="cscscccccccccccccc"
         d="M 173.09986,108.87534 C 172.97451,109.7216 174.69152,110.08966 174.63364,110.94304 C 174.58656,111.72294 174.58027,112.50444 174.57643,113.2855 C 174.53212,113.95309 174.71489,114.59824 174.82007,115.25077 C 174.91232,115.83624 175.12429,116.3885 175.35546,116.93027 C 175.53126,117.4998 175.65709,118.07201 175.93368,118.60456 C 176.2,119.2349 176.62977,119.73723 177.1547,120.1651 C 177.64993,120.483 178.13234,120.81776 178.60361,121.17016 C 178.81752,121.38688 179.05789,121.56909 179.30716,121.74194 L 184.32749,123.75 C 184.09473,123.54668 183.83712,123.42043 183.60316,123.21881 C 183.20133,122.76574 182.66819,122.4781 182.18618,122.12237 C 181.60061,121.84102 181.16838,121.4057 180.84801,120.84884 C 180.6313,120.30603 180.29382,119.82346 180.2608,119.21077 C 180.0825,118.67438 179.80373,118.18692 179.66393,117.63418 C 179.58638,116.99394 179.38615,116.37379 179.37402,115.73147 C 179.30195,110.7441 174.73694,107.01898 172.7045,102.45541 L 173.09986,108.87534 z"
         id="path3968"
         style="fill:#000000;fill-opacity:1;stroke:#000000;stroke-width:0.625;stroke-linecap:butt;stroke-linejoin:bevel;stroke-miterlimit:4;stroke-dasharray:none;stroke-dashoffset:0;stroke-opacity:1" />
      <path
         style="fill:#000000;fill-opacity:1;stroke:#000000;stroke-width:0.80483049;stroke-linecap:butt;stroke-linejoin:bevel;stroke-miterlimit:4;stroke-dasharray:none;stroke-dashoffset:0;stroke-opacity:1"
         d="M 176.44865,123.2602 C 176.56666,125.14009 179.86098,125.64603 180,127.52432 C 180.33547,128.60498 178.36498,130.81224 179.43622,131.71479 C 180.83645,132.75816 182.81683,133.5593 185.03205,134.09844 C 186.33673,134.4526 187.65523,134.79726 188.88972,135.21474 C 186.78526,134.60824 184.72028,133.96637 182.62795,133.34896 C 184.05942,134.00079 185.37862,134.77299 187.16361,135.16914 C 188.28719,135.29881 189.50163,135.2131 190.53974,135.52246 C 191.79129,135.78981 190.04194,135.21096 189.75065,135.06642 C 188.3168,134.49198 186.88297,133.91754 185.44913,133.3431 C 184.54896,133.18176 182.94778,132.7731 182.46818,132.79102 C 184.53336,133.46332 186.77565,133.97515 188.92844,134.5668 C 190.03898,134.86555 188.28654,134.36264 187.91268,134.23647 C 186.11011,133.67738 184.32245,133.09922 182.41362,132.63931 C 184.46425,133.29407 186.60314,133.87085 188.67715,134.50512 C 187.78766,134.21457 187.14623,133.76669 186.40382,133.38973 C 185.59387,132.83797 184.90654,132.241 184.12313,131.67977 C 183.38045,131.11407 182.76203,130.45319 182.93985,129.75067 C 183.00574,128.15911 179.90018,130.85116 180,129.25981 C 177.82304,128.68803 178.62558,123.83198 176.44865,123.2602 z"
         id="path3970"
         sodipodi:nodetypes="cccccccccccccccccccc" />
      <path
         sodipodi:nodetypes="cccccccccccccccccccc"
         id="path3972"
         d="M 180,135 C 180.11801,136.87989 183.41233,137.38583 183.55135,139.26412 C 183.88682,140.34478 181.91633,142.55204 182.98757,143.45459 C 184.3878,144.49796 186.36818,145.2991 188.5834,145.83824 C 189.88808,146.1924 191.20658,146.53706 192.44107,146.95454 C 190.33661,146.34804 188.27163,145.70617 186.1793,145.08876 C 187.61077,145.74059 188.92997,146.51279 190.71496,146.90894 C 191.83854,147.03861 193.05298,146.9529 194.09109,147.26226 C 195.34264,147.52961 193.59329,146.95076 193.302,146.80622 C 191.86815,146.23178 190.43432,145.65734 189.00048,145.0829 C 188.10031,144.92156 186.49913,144.5129 186.01953,144.53082 C 188.08471,145.20312 190.327,145.71495 192.47979,146.3066 C 193.59033,146.60535 191.83789,146.10244 191.46403,145.97627 C 189.66146,145.41718 187.8738,144.83902 185.96497,144.37911 C 188.0156,145.03387 190.15449,145.61065 192.2285,146.24492 C 191.33901,145.95437 190.69758,145.50649 189.95517,145.12953 C 189.14522,144.57777 188.45789,143.9808 187.67448,143.41957 C 186.9318,142.85387 183.28298,139.43808 183.4608,138.73556 C 183.52669,137.144 179.90018,136.59135 180,135 C 177.82304,134.42822 182.17693,135.57178 180,135 z"
         style="fill:#000000;fill-opacity:1;stroke:#000000;stroke-width:0.80483049;stroke-linecap:butt;stroke-linejoin:bevel;stroke-miterlimit:4;stroke-dasharray:none;stroke-dashoffset:0;stroke-opacity:1" />
    </g>
    <path
       transform="matrix(0.16,0,0,0.16,134.75,52.796192)"
       d="M 236.25,67.5 A 11.25,11.25 0 1 1 213.75,67.5 A 11.25,11.25 0 1 1 236.25,67.5 z"
       sodipodi:ry="11.25"
       sodipodi:rx="11.25"
       sodipodi:cy="67.5"
       sodipodi:cx="225"
       id="path3974"
       style="opacity:1;fill:#000000;fill-opacity:1;stroke:#000000;stroke-width:0.625;stroke-linecap:butt;stroke-linejoin:bevel;stroke-miterlimit:4;stroke-dasharray:none;stroke-dashoffset:0;stroke-opacity:1"
       sodipodi:type="arc" />
    <path
       transform="matrix(0.16,0,0,0.16,129.13808,54.9)"
       d="M 236.25,67.5 A 11.25,11.25 0 1 1 213.75,67.5 A 11.25,11.25 0 1 1 236.25,67.5 z"
       sodipodi:ry="11.25"
       sodipodi:rx="11.25"
       sodipodi:cy="67.5"
       sodipodi:cx="225"
       id="path3976"
       style="opacity:1;fill:#000000;fill-opacity:1;stroke:#000000;stroke-width:0.625;stroke-linecap:butt;stroke-linejoin:bevel;stroke-miterlimit:4;stroke-dasharray:none;stroke-dashoffset:0;stroke-opacity:1"
       sodipodi:type="arc" />
  </g>
</svg>
