<?xml version="1.0" encoding="UTF-8" standalone="no"?>
<!-- Created with Inkscape (http://www.inkscape.org/) -->
<svg
   xmlns:ns0="http://www.iki.fi/pav/software/textext/"
   xmlns:dc="http://purl.org/dc/elements/1.1/"
   xmlns:cc="http://creativecommons.org/ns#"
   xmlns:rdf="http://www.w3.org/1999/02/22-rdf-syntax-ns#"
   xmlns:svg="http://www.w3.org/2000/svg"
   xmlns="http://www.w3.org/2000/svg"
   xmlns:xlink="http://www.w3.org/1999/xlink"
   xmlns:sodipodi="http://sodipodi.sourceforge.net/DTD/sodipodi-0.dtd"
   xmlns:inkscape="http://www.inkscape.org/namespaces/inkscape"
   id="svg2"
   sodipodi:version="0.32"
   inkscape:version="0.46"
   width="990"
   height="765"
   version="1.0"
   sodipodi:docname="rotEg1.svg"
   inkscape:output_extension="org.inkscape.output.svg.inkscape">
  <sodipodi:namedview
     inkscape:window-height="723"
     inkscape:window-width="1162"
     inkscape:pageshadow="2"
     inkscape:pageopacity="0.0"
     guidetolerance="10.0"
     gridtolerance="10.0"
     objecttolerance="10.0"
     borderopacity="1.0"
     bordercolor="#666666"
     pagecolor="#ffffff"
     id="base"
     showgrid="true"
     inkscape:zoom="1.8567357"
     inkscape:cx="278.24801"
     inkscape:cy="608.02648"
     inkscape:window-x="50"
     inkscape:window-y="0"
     inkscape:current-layer="svg2"
     inkscape:document-units="in"
     inkscape:snap-intersection-line-segments="true"
     inkscape:snap-bbox="true"
     inkscape:object-paths="true"
     inkscape:object-nodes="true"
     inkscape:snap-intersection-grid-guide="true"
     inkscape:snap-center="true"
     showguides="true"
     inkscape:guide-bbox="true">
    <inkscape:grid
       type="xygrid"
       id="grid2395"
       units="in"
       visible="true"
       enabled="true"
       spacingx="0.125in"
       spacingy="0.125in"
       empspacing="4" />
  </sodipodi:namedview>
  <metadata
     id="metadata7">
    <rdf:RDF>
      <cc:Work
         rdf:about="">
        <dc:format>image/svg+xml</dc:format>
        <dc:type
           rdf:resource="http://purl.org/dc/dcmitype/StillImage" />
      </cc:Work>
    </rdf:RDF>
  </metadata>
  <defs
     id="defs5">
    <marker
       inkscape:stockid="Arrow2Mstart"
       orient="auto"
       refY="0.0"
       refX="0.0"
       id="Arrow2Mstart"
       style="overflow:visible">
      <path
         id="path3249"
         style="font-size:12.0;fill-rule:evenodd;stroke-width:0.62500000;stroke-linejoin:round"
         d="M 8.7185878,4.0337352 L -2.2072895,0.016013256 L 8.7185884,-4.0017078 C 6.9730900,-1.6296469 6.9831476,1.6157441 8.7185878,4.0337352 z "
         transform="scale(0.6) translate(0,0)" />
    </marker>
    <marker
       inkscape:stockid="Arrow1Send"
       orient="auto"
       refY="0.0"
       refX="0.0"
       id="Arrow1Send"
       style="overflow:visible;">
      <path
         id="path3189"
         d="M 0.0,0.0 L 5.0,-5.0 L -12.5,0.0 L 5.0,5.0 L 0.0,0.0 z "
         style="fill-rule:evenodd;stroke:#000000;stroke-width:1.0pt;marker-start:none;"
         transform="scale(0.2) rotate(180) translate(6,0)" />
    </marker>
    <marker
       inkscape:stockid="Arrow2Lend"
       orient="auto"
       refY="0.0"
       refX="0.0"
       id="Arrow2Lend"
       style="overflow:visible;">
      <path
         id="path3195"
         style="font-size:12.0;fill-rule:evenodd;stroke-width:0.62500000;stroke-linejoin:round;"
         d="M 8.7185878,4.0337352 L -2.2072895,0.016013256 L 8.7185884,-4.0017078 C 6.9730900,-1.6296469 6.9831476,1.6157441 8.7185878,4.0337352 z "
         transform="scale(1.1) rotate(180) translate(1,0)" />
    </marker>
    <marker
       inkscape:stockid="Arrow2Mend"
       orient="auto"
       refY="0.0"
       refX="0.0"
       id="Arrow2Mend"
       style="overflow:visible;">
      <path
         id="path3201"
         style="font-size:12.0;fill-rule:evenodd;stroke-width:0.62500000;stroke-linejoin:round;"
         d="M 8.7185878,4.0337352 L -2.2072895,0.016013256 L 8.7185884,-4.0017078 C 6.9730900,-1.6296469 6.9831476,1.6157441 8.7185878,4.0337352 z "
         transform="scale(0.6) rotate(180) translate(0,0)" />
    </marker>
    <marker
       inkscape:stockid="Arrow1Mstart"
       orient="auto"
       refY="0.0"
       refX="0.0"
       id="Arrow1Mstart"
       style="overflow:visible">
      <path
         id="path3180"
         d="M 0.0,0.0 L 5.0,-5.0 L -12.5,0.0 L 5.0,5.0 L 0.0,0.0 z "
         style="fill-rule:evenodd;stroke:#000000;stroke-width:1.0pt;marker-start:none"
         transform="scale(0.4) translate(10,0)" />
    </marker>
    <inkscape:perspective
       sodipodi:type="inkscape:persp3d"
       inkscape:vp_x="0 : 526.18109 : 1"
       inkscape:vp_y="0 : 1000 : 0"
       inkscape:vp_z="744.09448 : 526.18109 : 1"
       inkscape:persp3d-origin="372.04724 : 350.78739 : 1"
       id="perspective9" />
    <marker
       inkscape:stockid="Arrow2LendH"
       orient="auto"
       refY="0.0"
       refX="0.0"
       id="Arrow2LendH"
       style="overflow:visible;">
      <path
         id="path11517"
         style="stroke-linejoin:round;font-size:12.0;fill-rule:evenodd;stroke:#000000;stroke-width:0.62500000;fill:#000000"
         d="M 8.7185878,4.0337352 L -2.2072895,0.016013256 L 8.7185884,-4.0017078 C 6.9730900,-1.6296469 6.9831476,1.6157441 8.7185878,4.0337352 z "
         transform="scale(1.1) rotate(180) translate(1,0)" />
    </marker>
    <marker
       inkscape:stockid="Arrow1SendJ"
       orient="auto"
       refY="0.0"
       refX="0.0"
       id="Arrow1SendJ"
       style="overflow:visible;">
      <path
         id="path11606"
         d="M 0.0,0.0 L 5.0,-5.0 L -12.5,0.0 L 5.0,5.0 L 0.0,0.0 z "
         style="marker-start:none;stroke:#7f7f7f;stroke-width:1.0pt;fill:#7f7f7f;fill-rule:evenodd"
         transform="scale(0.2) rotate(180) translate(6,0)" />
    </marker>
    <marker
       inkscape:stockid="Arrow1SendJm"
       orient="auto"
       refY="0.0"
       refX="0.0"
       id="Arrow1SendJm"
       style="overflow:visible;">
      <path
         id="path11817"
         d="M 0.0,0.0 L 5.0,-5.0 L -12.5,0.0 L 5.0,5.0 L 0.0,0.0 z "
         style="fill-rule:evenodd;marker-start:none;stroke:#a6a6a6;stroke-width:1.0pt;fill:#a6a6a6"
         transform="scale(0.2) rotate(180) translate(6,0)" />
    </marker>
    <defs
       id="defs3444">
      <g
         id="g3446">
        <symbol
           overflow="visible"
           id="textext-767a047d-0">
          <path
             style="stroke:none;"
             d=""
             id="path3449" />
        </symbol>
        <symbol
           overflow="visible"
           id="textext-767a047d-1">
          <path
             style="stroke:none;"
             d="M 3.296875 2.390625 C 3.296875 2.359375 3.296875 2.34375 3.125 2.171875 C 1.890625 0.921875 1.5625 -0.96875 1.5625 -2.5 C 1.5625 -4.234375 1.9375 -5.96875 3.171875 -7.203125 C 3.296875 -7.328125 3.296875 -7.34375 3.296875 -7.375 C 3.296875 -7.453125 3.265625 -7.484375 3.203125 -7.484375 C 3.09375 -7.484375 2.203125 -6.796875 1.609375 -5.53125 C 1.109375 -4.4375 0.984375 -3.328125 0.984375 -2.5 C 0.984375 -1.71875 1.09375 -0.515625 1.640625 0.625 C 2.25 1.84375 3.09375 2.5 3.203125 2.5 C 3.265625 2.5 3.296875 2.46875 3.296875 2.390625 Z M 3.296875 2.390625 "
             id="path3452" />
        </symbol>
        <symbol
           overflow="visible"
           id="textext-767a047d-2">
          <path
             style="stroke:none;"
             d="M 0.28125 -1.640625 L 2.9375 -1.640625 L 2.9375 -0.78125 C 2.9375 -0.421875 2.90625 -0.3125 2.171875 -0.3125 L 1.96875 -0.3125 L 1.96875 0 C 2.375 -0.03125 2.890625 -0.03125 3.3125 -0.03125 C 3.734375 -0.03125 4.25 -0.03125 4.671875 0 L 4.671875 -0.3125 L 4.453125 -0.3125 C 3.71875 -0.3125 3.703125 -0.421875 3.703125 -0.78125 L 3.703125 -1.640625 L 4.6875 -1.640625 L 4.6875 -1.953125 L 3.703125 -1.953125 L 3.703125 -6.484375 C 3.703125 -6.6875 3.703125 -6.75 3.53125 -6.75 C 3.453125 -6.75 3.421875 -6.75 3.34375 -6.625 L 0.28125 -1.953125 L 0.28125 -1.640625 Z M 2.984375 -1.953125 L 0.5625 -1.953125 L 2.984375 -5.671875 L 2.984375 -1.953125 Z M 2.984375 -1.953125 "
             id="path3455" />
        </symbol>
        <symbol
           overflow="visible"
           id="textext-767a047d-3">
          <path
             style="stroke:none;"
             d="M 4.46875 -1.734375 L 4.234375 -1.734375 C 4.171875 -1.4375 4.109375 -1 4 -0.84375 C 3.9375 -0.765625 3.28125 -0.765625 3.0625 -0.765625 L 1.265625 -0.765625 L 2.328125 -1.796875 C 3.875 -3.171875 4.46875 -3.703125 4.46875 -4.703125 C 4.46875 -5.84375 3.578125 -6.640625 2.359375 -6.640625 C 1.234375 -6.640625 0.5 -5.71875 0.5 -4.828125 C 0.5 -4.28125 1 -4.28125 1.03125 -4.28125 C 1.203125 -4.28125 1.546875 -4.390625 1.546875 -4.8125 C 1.546875 -5.0625 1.359375 -5.328125 1.015625 -5.328125 C 0.9375 -5.328125 0.921875 -5.328125 0.890625 -5.3125 C 1.109375 -5.96875 1.65625 -6.328125 2.234375 -6.328125 C 3.140625 -6.328125 3.5625 -5.515625 3.5625 -4.703125 C 3.5625 -3.90625 3.078125 -3.125 2.515625 -2.5 L 0.609375 -0.375 C 0.5 -0.265625 0.5 -0.234375 0.5 0 L 4.203125 0 L 4.46875 -1.734375 Z M 4.46875 -1.734375 "
             id="path3458" />
        </symbol>
        <symbol
           overflow="visible"
           id="textext-767a047d-4">
          <path
             style="stroke:none;"
             d="M 2.875 -2.5 C 2.875 -3.265625 2.765625 -4.46875 2.21875 -5.609375 C 1.625 -6.828125 0.765625 -7.484375 0.671875 -7.484375 C 0.609375 -7.484375 0.5625 -7.4375 0.5625 -7.375 C 0.5625 -7.34375 0.5625 -7.328125 0.75 -7.140625 C 1.734375 -6.15625 2.296875 -4.578125 2.296875 -2.5 C 2.296875 -0.78125 1.9375 0.96875 0.703125 2.21875 C 0.5625 2.34375 0.5625 2.359375 0.5625 2.390625 C 0.5625 2.453125 0.609375 2.5 0.671875 2.5 C 0.765625 2.5 1.671875 1.8125 2.25 0.546875 C 2.765625 -0.546875 2.875 -1.65625 2.875 -2.5 Z M 2.875 -2.5 "
             id="path3461" />
        </symbol>
        <symbol
           overflow="visible"
           id="textext-767a047d-5">
          <path
             style="stroke:none;"
             d=""
             id="path3464" />
        </symbol>
        <symbol
           overflow="visible"
           id="textext-767a047d-6">
          <path
             style="stroke:none;"
             d="M 2.03125 -0.015625 C 2.03125 -0.671875 1.78125 -1.0625 1.390625 -1.0625 C 1.0625 -1.0625 0.859375 -0.8125 0.859375 -0.53125 C 0.859375 -0.265625 1.0625 0 1.390625 0 C 1.5 0 1.640625 -0.046875 1.734375 -0.125 C 1.765625 -0.15625 1.78125 -0.15625 1.78125 -0.15625 C 1.796875 -0.15625 1.796875 -0.15625 1.796875 -0.015625 C 1.796875 0.734375 1.453125 1.328125 1.125 1.65625 C 1.015625 1.765625 1.015625 1.78125 1.015625 1.8125 C 1.015625 1.890625 1.0625 1.921875 1.109375 1.921875 C 1.21875 1.921875 2.03125 1.15625 2.03125 -0.015625 Z M 2.03125 -0.015625 "
             id="path3467" />
        </symbol>
        <symbol
           overflow="visible"
           id="textext-767a047d-7">
          <path
             style="stroke:none;"
             d=""
             id="path3470" />
        </symbol>
        <symbol
           overflow="visible"
           id="textext-767a047d-8">
          <path
             style="stroke:none;"
             d="M 6.59375 -2.296875 C 6.734375 -2.296875 6.921875 -2.296875 6.921875 -2.5 C 6.921875 -2.6875 6.734375 -2.6875 6.59375 -2.6875 L 1.15625 -2.6875 C 1.015625 -2.6875 0.828125 -2.6875 0.828125 -2.5 C 0.828125 -2.296875 1.015625 -2.296875 1.15625 -2.296875 L 6.59375 -2.296875 Z M 6.59375 -2.296875 "
             id="path3473" />
        </symbol>
      </g>
    </defs>
  </defs>
  <g
     id="g18382">
    <g
       id="g4724">
      <path
         sodipodi:nodetypes="cc"
         id="path11718"
         d="M 146.21281,134.96281 L 393.71281,134.96281"
         style="fill:none;fill-rule:evenodd;stroke:#7f7f7f;stroke-width:0.54000002;stroke-linecap:butt;stroke-linejoin:miter;stroke-miterlimit:4;stroke-dasharray:none;stroke-opacity:1" />
      <path
         id="path11742"
         d="M 247.46281,78.712813 L 247.46281,236.21281"
         style="fill:none;fill-rule:evenodd;stroke:#7f7f7f;stroke-width:0.54000002;stroke-linecap:butt;stroke-linejoin:miter;stroke-miterlimit:4;stroke-dasharray:none;stroke-opacity:1"
         sodipodi:nodetypes="cc" />
      <path
         sodipodi:nodetypes="cc"
         style="fill:none;fill-rule:evenodd;stroke:#7f7f7f;stroke-width:0.54000002;stroke-linecap:butt;stroke-linejoin:miter;stroke-miterlimit:4;stroke-dasharray:none;stroke-opacity:1"
         d="M 292.46281,78.712813 L 292.46281,236.21281"
         id="path11744" />
      <path
         id="path11746"
         d="M 314.96281,78.712813 L 314.96281,236.21281"
         style="fill:none;fill-rule:evenodd;stroke:#7f7f7f;stroke-width:0.54000002;stroke-linecap:butt;stroke-linejoin:miter;stroke-miterlimit:4;stroke-dasharray:none;stroke-opacity:1"
         sodipodi:nodetypes="cc" />
      <path
         sodipodi:nodetypes="cc"
         style="fill:none;fill-rule:evenodd;stroke:#7f7f7f;stroke-width:0.54000002;stroke-linecap:butt;stroke-linejoin:miter;stroke-miterlimit:4;stroke-dasharray:none;stroke-opacity:1"
         d="M 337.46281,78.712813 L 337.46281,236.21281"
         id="path11748" />
      <path
         id="path11750"
         d="M 359.96281,78.712813 L 359.96281,236.21281"
         style="fill:none;fill-rule:evenodd;stroke:#7f7f7f;stroke-width:0.54000002;stroke-linecap:butt;stroke-linejoin:miter;stroke-miterlimit:4;stroke-dasharray:none;stroke-opacity:1"
         sodipodi:nodetypes="cc" />
      <path
         sodipodi:nodetypes="cc"
         style="fill:none;fill-rule:evenodd;stroke:#7f7f7f;stroke-width:0.54000002;stroke-linecap:butt;stroke-linejoin:miter;stroke-miterlimit:4;stroke-dasharray:none;stroke-opacity:1"
         d="M 382.46281,78.712813 L 382.46281,236.21281"
         id="path11752" />
      <path
         sodipodi:nodetypes="cc"
         style="fill:none;fill-rule:evenodd;stroke:#7f7f7f;stroke-width:0.54000002;stroke-linecap:butt;stroke-linejoin:miter;stroke-miterlimit:4;stroke-dasharray:none;stroke-opacity:1"
         d="M 224.96281,78.712813 L 224.96281,236.21281"
         id="path11754" />
      <path
         id="path11756"
         d="M 202.46281,78.712813 L 202.46281,236.21281"
         style="fill:none;fill-rule:evenodd;stroke:#7f7f7f;stroke-width:0.54000002;stroke-linecap:butt;stroke-linejoin:miter;stroke-miterlimit:4;stroke-dasharray:none;stroke-opacity:1"
         sodipodi:nodetypes="cc" />
      <path
         sodipodi:nodetypes="cc"
         style="fill:none;fill-rule:evenodd;stroke:#7f7f7f;stroke-width:0.54000002;stroke-linecap:butt;stroke-linejoin:miter;stroke-miterlimit:4;stroke-dasharray:none;stroke-opacity:1"
         d="M 179.96281,78.712813 L 179.96281,236.21281"
         id="path11758" />
      <path
         id="path11760"
         d="M 157.46281,78.712813 L 157.46281,236.21281"
         style="fill:none;fill-rule:evenodd;stroke:#7f7f7f;stroke-width:0.54000002;stroke-linecap:butt;stroke-linejoin:miter;stroke-miterlimit:4;stroke-dasharray:none;stroke-opacity:1"
         sodipodi:nodetypes="cc" />
      <path
         style="fill:none;fill-rule:evenodd;stroke:#7f7f7f;stroke-width:0.54000002;stroke-linecap:butt;stroke-linejoin:miter;stroke-miterlimit:4;stroke-dasharray:none;stroke-opacity:1"
         d="M 146.21281,112.46281 L 393.71281,112.46281"
         id="path11762"
         sodipodi:nodetypes="cc" />
      <path
         sodipodi:nodetypes="cc"
         id="path11764"
         d="M 146.21281,89.962813 L 393.71281,89.962813"
         style="fill:none;fill-rule:evenodd;stroke:#7f7f7f;stroke-width:0.54000002;stroke-linecap:butt;stroke-linejoin:miter;stroke-miterlimit:4;stroke-dasharray:none;stroke-opacity:1" />
      <path
         style="fill:none;fill-rule:evenodd;stroke:#7f7f7f;stroke-width:0.54000002;stroke-linecap:butt;stroke-linejoin:miter;stroke-miterlimit:4;stroke-dasharray:none;stroke-opacity:1"
         d="M 146.21281,179.96281 L 393.71281,179.96281"
         id="path11766"
         sodipodi:nodetypes="cc" />
      <path
         sodipodi:nodetypes="cc"
         id="path11768"
         d="M 146.21281,202.46281 L 393.71281,202.46281"
         style="fill:none;fill-rule:evenodd;stroke:#7f7f7f;stroke-width:0.54000002;stroke-linecap:butt;stroke-linejoin:miter;stroke-miterlimit:4;stroke-dasharray:none;stroke-opacity:1" />
      <path
         style="fill:none;fill-rule:evenodd;stroke:#7f7f7f;stroke-width:0.54000002;stroke-linecap:butt;stroke-linejoin:miter;stroke-miterlimit:4;stroke-dasharray:none;stroke-opacity:1"
         d="M 146.21281,224.96281 L 393.71281,224.96281"
         id="path11770"
         sodipodi:nodetypes="cc" />
    </g>
    <path
       sodipodi:nodetypes="cc"
       id="path3169"
       d="M 269.96281,67.462813 L 269.96281,247.46281"
       style="fill:none;fill-rule:evenodd;stroke:#000000;stroke-width:1px;stroke-linecap:butt;stroke-linejoin:miter;marker-start:url(#Arrow2Mstart);marker-end:url(#Arrow2Mend);stroke-opacity:1" />
    <path
       sodipodi:nodetypes="cc"
       id="path4472"
       d="M 134.96281,157.46281 L 404.96281,157.46281"
       style="fill:none;fill-rule:evenodd;stroke:#000000;stroke-width:0.99;stroke-linecap:butt;stroke-linejoin:miter;marker-start:url(#Arrow2Mstart);marker-mid:none;marker-end:url(#Arrow2Mend);stroke-opacity:1;stroke-miterlimit:4;stroke-dasharray:none" />
  </g>
  <path
     d="M 202.5,112.5 A 0,0 0 1 1 202.5,112.5 A 0,0 0 1 1 202.5,112.5 z"
     sodipodi:ry="0"
     sodipodi:rx="0"
     sodipodi:cy="112.5"
     sodipodi:cx="202.5"
     id="path11772"
     style="opacity:1;fill:none;fill-opacity:1;stroke:#000000;stroke-width:0.5;stroke-linecap:square;stroke-linejoin:bevel;stroke-miterlimit:4;stroke-dasharray:none;stroke-opacity:0.39215686"
     sodipodi:type="arc" />
  <path
     transform="matrix(0.64,0,0,0.6417315,69.57,19.026248)"
     d="M 450,129.375 A 5.625,5.625 0 1 1 438.75,129.375 A 5.625,5.625 0 1 1 450,129.375 z"
     sodipodi:ry="5.625"
     sodipodi:rx="5.625"
     sodipodi:cy="129.375"
     sodipodi:cx="444.375"
     id="path11794"
     style="opacity:1;fill:#000000;fill-opacity:1;stroke:none;stroke-width:0.5;stroke-linecap:square;stroke-linejoin:bevel;stroke-miterlimit:4;stroke-dasharray:none;stroke-opacity:0.43171806"
     sodipodi:type="arc" />
  <path
     sodipodi:type="arc"
     style="opacity:1;fill:#000000;fill-opacity:1;stroke:none;stroke-width:0.5;stroke-linecap:square;stroke-linejoin:bevel;stroke-miterlimit:4;stroke-dasharray:none;stroke-opacity:0.43171806"
     id="path11796"
     sodipodi:cx="444.375"
     sodipodi:cy="129.375"
     sodipodi:rx="5.625"
     sodipodi:ry="5.625"
     d="M 450,129.375 A 5.625,5.625 0 1 1 438.75,129.375 A 5.625,5.625 0 1 1 450,129.375 z"
     transform="matrix(0.64,0,0,0.6417315,75.6,119.47599)" />
  <path
     transform="matrix(1.495796,0,0,1.631596,-234.86493,-200.12883)"
     d="M 405,219.375 A 67.5,61.875 0 1 1 270,219.375 A 67.5,61.875 0 1 1 405,219.375 z"
     sodipodi:ry="61.875"
     sodipodi:rx="67.5"
     sodipodi:cy="219.375"
     sodipodi:cx="337.5"
     id="path2582"
     style="opacity:1;fill:none;fill-opacity:1;stroke:#000000;stroke-width:0.32005712;stroke-linecap:square;stroke-linejoin:bevel;stroke-miterlimit:4;stroke-dasharray:0.32005712, 1.28022849;stroke-dashoffset:0;stroke-opacity:1"
     sodipodi:type="arc" />
  <path
     id="path2584"
     d="M 353.97,102.05026 L 270,157.5 L 360,202.5"
     style="fill:none;fill-rule:evenodd;stroke:#000000;stroke-width:0.5;stroke-linecap:butt;stroke-linejoin:miter;stroke-opacity:1;stroke-miterlimit:4;stroke-dasharray:0.5,2;stroke-dashoffset:0" />
  <g
     transform="translate(143.92187,80.546875)"
     id="textext-767a047d-9">
    <g
       style="fill:#000000;fill-opacity:1"
       id="g3476">
      <use
         height="765"
         width="990"
         xlink:href="#textext-767a047d-1"
         x="223.43201"
         y="134.765"
         id="use3478" />
      <use
         height="765"
         width="990"
         xlink:href="#textext-767a047d-2"
         x="227.30646"
         y="134.765"
         id="use3480" />
    </g>
    <g
       style="fill:#000000;fill-opacity:1"
       id="g3482">
      <use
         height="765"
         width="990"
         xlink:href="#textext-767a047d-6"
         x="232.28799"
         y="134.765"
         id="use3484" />
    </g>
    <g
       style="fill:#000000;fill-opacity:1"
       id="g3486">
      <use
         height="765"
         width="990"
         xlink:href="#textext-767a047d-8"
         x="236.716"
         y="134.765"
         id="use3488" />
    </g>
    <g
       style="fill:#000000;fill-opacity:1"
       id="g3490">
      <use
         height="765"
         width="990"
         xlink:href="#textext-767a047d-3"
         x="244.464"
         y="134.765"
         id="use3492" />
      <use
         height="765"
         width="990"
         xlink:href="#textext-767a047d-4"
         x="249.4453"
         y="134.765"
         id="use3494" />
    </g>
  </g>
  <path
     sodipodi:open="true"
     sodipodi:end="6.7482635"
     sodipodi:start="5.6987502"
     transform="matrix(1.4889072,0,0,1.4889072,-148.72743,-93.725418)"
     d="M 290.62967,162.51421 A 11.2686,11.268593 0 0 1 291.30311,173.7853"
     sodipodi:ry="11.268593"
     sodipodi:rx="11.2686"
     sodipodi:cy="168.73141"
     sodipodi:cx="281.23138"
     id="path4014"
     style="opacity:1;fill:none;fill-opacity:1;stroke:#000000;stroke-width:0.33581677;stroke-linecap:square;stroke-linejoin:bevel;stroke-miterlimit:4;stroke-dasharray:none;stroke-dashoffset:0;stroke-opacity:1"
     sodipodi:type="arc" />
  <g
     id="g4092"
     ns0:preamble=""
     ns0:text="$60^\\circ$"
     transform="translate(65.015625,20.5)">
    <defs
       id="defs4094">
      <g
         id="g4096">
        <symbol
           id="textext-c767aeba-0"
           overflow="visible"
           style="overflow:visible">
          <path
             id="path4099"
             d=""
             style="stroke:none" />
        </symbol>
        <symbol
           id="textext-c767aeba-1"
           overflow="visible"
           style="overflow:visible">
          <path
             id="path4102"
             d="M 1.3125,-3.265625 L 1.3125,-3.515625 C 1.3125,-6.03125 2.546875,-6.390625 3.0625,-6.390625 C 3.296875,-6.390625 3.71875,-6.328125 3.9375,-5.984375 C 3.78125,-5.984375 3.390625,-5.984375 3.390625,-5.546875 C 3.390625,-5.234375 3.625,-5.078125 3.84375,-5.078125 C 4,-5.078125 4.3125,-5.171875 4.3125,-5.5625 C 4.3125,-6.15625 3.875,-6.640625 3.046875,-6.640625 C 1.765625,-6.640625 0.421875,-5.359375 0.421875,-3.15625 C 0.421875,-0.484375 1.578125,0.21875 2.5,0.21875 C 3.609375,0.21875 4.5625,-0.71875 4.5625,-2.03125 C 4.5625,-3.296875 3.671875,-4.25 2.5625,-4.25 C 1.890625,-4.25 1.515625,-3.75 1.3125,-3.265625 z M 2.5,-0.0625 C 1.875,-0.0625 1.578125,-0.65625 1.515625,-0.8125 C 1.328125,-1.28125 1.328125,-2.078125 1.328125,-2.25 C 1.328125,-3.03125 1.65625,-4.03125 2.546875,-4.03125 C 2.71875,-4.03125 3.171875,-4.03125 3.484375,-3.40625 C 3.65625,-3.046875 3.65625,-2.53125 3.65625,-2.046875 C 3.65625,-1.5625 3.65625,-1.0625 3.484375,-0.703125 C 3.1875,-0.109375 2.734375,-0.0625 2.5,-0.0625 z"
             style="stroke:none" />
        </symbol>
        <symbol
           id="textext-c767aeba-2"
           overflow="visible"
           style="overflow:visible">
          <path
             id="path4105"
             d="M 4.578125,-3.1875 C 4.578125,-3.984375 4.53125,-4.78125 4.1875,-5.515625 C 3.734375,-6.484375 2.90625,-6.640625 2.5,-6.640625 C 1.890625,-6.640625 1.171875,-6.375 0.75,-5.453125 C 0.4375,-4.765625 0.390625,-3.984375 0.390625,-3.1875 C 0.390625,-2.4375 0.421875,-1.546875 0.84375,-0.78125 C 1.265625,0.015625 2,0.21875 2.484375,0.21875 C 3.015625,0.21875 3.78125,0.015625 4.21875,-0.9375 C 4.53125,-1.625 4.578125,-2.40625 4.578125,-3.1875 z M 2.484375,0 C 2.09375,0 1.5,-0.25 1.328125,-1.203125 C 1.21875,-1.796875 1.21875,-2.71875 1.21875,-3.3125 C 1.21875,-3.953125 1.21875,-4.609375 1.296875,-5.140625 C 1.484375,-6.328125 2.234375,-6.421875 2.484375,-6.421875 C 2.8125,-6.421875 3.46875,-6.234375 3.65625,-5.25 C 3.765625,-4.6875 3.765625,-3.9375 3.765625,-3.3125 C 3.765625,-2.5625 3.765625,-1.890625 3.65625,-1.25 C 3.5,-0.296875 2.9375,0 2.484375,0 z"
             style="stroke:none" />
        </symbol>
        <symbol
           id="textext-c767aeba-3"
           overflow="visible"
           style="overflow:visible">
          <path
             id="path4108"
             d=""
             style="stroke:none" />
        </symbol>
        <symbol
           id="textext-c767aeba-4"
           overflow="visible"
           style="overflow:visible">
          <path
             id="path4111"
             d="M 3.53125,-1.734375 C 3.53125,-2.59375 2.84375,-3.234375 2.03125,-3.234375 C 1.203125,-3.234375 0.546875,-2.5625 0.546875,-1.75 C 0.546875,-0.90625 1.21875,-0.25 2.03125,-0.25 C 2.859375,-0.25 3.53125,-0.921875 3.53125,-1.734375 z M 2.03125,-0.59375 C 1.390625,-0.59375 0.890625,-1.125 0.890625,-1.734375 C 0.890625,-2.390625 1.40625,-2.90625 2.03125,-2.90625 C 2.6875,-2.90625 3.1875,-2.375 3.1875,-1.75 C 3.1875,-1.109375 2.671875,-0.59375 2.03125,-0.59375 z"
             style="stroke:none" />
        </symbol>
      </g>
    </defs>
    <g
       id="textext-c767aeba-5">
      <g
         id="g4114"
         style="fill:#000000;fill-opacity:1">
        <use
           id="use4116"
           y="134.765"
           x="223.43201"
           xlink:href="#textext-c767aeba-1"
           width="990"
           height="765" />
        <use
           id="use4118"
           y="134.765"
           x="228.4133"
           xlink:href="#textext-c767aeba-2"
           width="990"
           height="765" />
      </g>
      <g
         id="g4120"
         style="fill:#000000;fill-opacity:1">
        <use
           id="use4122"
           y="131.149"
           x="233.395"
           xlink:href="#textext-c767aeba-4"
           width="990"
           height="765" />
      </g>
    </g>
  </g>
</svg>
