<?xml version="1.0" encoding="UTF-8" standalone="no"?>
<!-- Created with Inkscape (http://www.inkscape.org/) -->
<svg
   xmlns:ns0="http://www.iki.fi/pav/software/textext/"
   xmlns:dc="http://purl.org/dc/elements/1.1/"
   xmlns:cc="http://creativecommons.org/ns#"
   xmlns:rdf="http://www.w3.org/1999/02/22-rdf-syntax-ns#"
   xmlns:svg="http://www.w3.org/2000/svg"
   xmlns="http://www.w3.org/2000/svg"
   xmlns:sodipodi="http://sodipodi.sourceforge.net/DTD/sodipodi-0.dtd"
   xmlns:inkscape="http://www.inkscape.org/namespaces/inkscape"
   width="765"
   height="990"
   id="svg2"
   sodipodi:version="0.32"
   inkscape:version="0.46"
   version="1.0"
   sodipodi:docname="set1.svg"
   inkscape:output_extension="org.inkscape.output.svg.inkscape">
  <sodipodi:namedview
     id="base"
     pagecolor="#ffffff"
     bordercolor="#666666"
     borderopacity="1.0"
     gridtolerance="10"
     guidetolerance="10"
     objecttolerance="10"
     inkscape:pageopacity="0.0"
     inkscape:pageshadow="2"
     inkscape:zoom="4.7483871"
     inkscape:cx="135"
     inkscape:cy="562.5"
     inkscape:document-units="in"
     inkscape:current-layer="layer1"
     showgrid="true"
     units="in"
     inkscape:window-width="1440"
     inkscape:window-height="854"
     inkscape:window-x="0"
     inkscape:window-y="25">
    <inkscape:grid
       type="xygrid"
       id="grid3245"
       visible="true"
       enabled="true"
       units="in"
       spacingx="0.0625in"
       spacingy="0.0625in"
       empspacing="4" />
  </sodipodi:namedview>
  <defs
     id="defs4">
    <inkscape:perspective
       sodipodi:type="inkscape:persp3d"
       inkscape:vp_x="0 : 526.18109 : 1"
       inkscape:vp_y="0 : 1000 : 0"
       inkscape:vp_z="744.09448 : 526.18109 : 1"
       inkscape:persp3d-origin="372.04724 : 350.78739 : 1"
       id="perspective10" />
  </defs>
  <metadata
     id="metadata7">
    <rdf:RDF>
      <cc:Work
         rdf:about="">
        <dc:format>image/svg+xml</dc:format>
        <dc:type
           rdf:resource="http://purl.org/dc/dcmitype/StillImage" />
      </cc:Work>
    </rdf:RDF>
  </metadata>
  <g
     inkscape:label="Layer 1"
     inkscape:groupmode="layer"
     id="layer1">
    <path
       sodipodi:type="arc"
       style="opacity:1;fill:#000000;fill-opacity:1;stroke:#000000;stroke-width:0;stroke-linejoin:bevel;stroke-miterlimit:4;stroke-dasharray:none;stroke-dashoffset:0;stroke-opacity:1"
       id="path2422"
       sodipodi:cx="202.5"
       sodipodi:cy="450"
       sodipodi:rx="2.3883929"
       sodipodi:ry="2.529115"
       d="M 204.88839,450 A 2.3883929,2.529115 0 1 1 200.11161,450 A 2.3883929,2.529115 0 1 1 204.88839,450 z"
       transform="matrix(1.17757,0,0,1.0842287,-83.770434,-63.145046)" />
    <path
       sodipodi:type="arc"
       style="opacity:1;fill:none;fill-opacity:1;stroke:#000000;stroke-width:0.62500000000000000;stroke-linejoin:bevel;stroke-miterlimit:4;stroke-dasharray:none;stroke-dashoffset:0;stroke-opacity:1"
       id="path3194"
       sodipodi:cx="135"
       sodipodi:cy="427.5"
       sodipodi:rx="45"
       sodipodi:ry="45"
       d="M 180,427.5 A 45,45 0 1 1 90,427.5 A 45,45 0 1 1 180,427.5 z" />
    <rect
       style="opacity:1;fill:none;fill-opacity:1;stroke:#000000;stroke-width:0.625;stroke-linejoin:bevel;stroke-miterlimit:4;stroke-dasharray:none;stroke-dashoffset:0;stroke-opacity:1"
       id="rect3196"
       width="225"
       height="135"
       x="22.5"
       y="360" />
    <g
       style="font-style:normal;font-variant:normal;font-weight:normal;font-stretch:normal;letter-spacing:normal;word-spacing:normal;text-anchor:start;fill:none;fill-opacity:1;stroke:#000000;stroke-linecap:butt;stroke-linejoin:miter;stroke-miterlimit:10.43299961;stroke-dasharray:none;stroke-dashoffset:0;stroke-opacity:1"
       xml:space="preserve"
       id="content"
       transform="matrix(1,0,0,-1,-65.635,1087.74)"
       stroke-miterlimit="10.433"
       fill-rule="even-odd"
       font-style="normal"
       font-variant="normal"
       font-weight="normal"
       font-stretch="normal"
       font-size-adjust="none"
       letter-spacing="normal"
       word-spacing="normal"
       ns0:text="$x$"
       ns0:preamble="">
<path
   style="fill:#000000;stroke-width:0"
   d="M 226.76,660.24 L 226.77,660.27 L 226.77,660.3 L 226.78,660.33 L 226.79,660.37 L 226.8,660.4 L 226.81,660.45 L 226.83,660.49 L 226.84,660.53 L 226.86,660.58 L 226.87,660.63 L 226.89,660.68 L 226.91,660.73 L 226.94,660.78 L 226.96,660.83 L 226.99,660.88 L 227.01,660.93 L 227.04,660.97 L 227.07,661.02 L 227.11,661.07 L 227.14,661.11 L 227.18,661.16 L 227.22,661.2 L 227.26,661.23 L 227.31,661.27 L 227.35,661.3 L 227.4,661.33 L 227.43,661.34 L 227.45,661.36 L 227.48,661.37 L 227.51,661.38 L 227.53,661.39 L 227.56,661.39 L 227.59,661.4 L 227.62,661.41 L 227.65,661.41 L 227.68,661.41 L 227.71,661.42 L 227.75,661.42 C 227.8,661.42 228.04,661.42 228.24,661.29 C 227.96,661.24 227.77,660.99 227.77,660.75 C 227.77,660.59 227.88,660.4 228.15,660.4 C 228.36,660.4 228.68,660.58 228.68,660.98 C 228.68,661.5 228.1,661.64 227.76,661.64 C 227.18,661.64 226.83,661.11 226.71,660.88 C 226.46,661.54 225.92,661.64 225.63,661.64 C 224.6,661.64 224.03,660.35 224.03,660.1 C 224.03,660 224.13,660 224.15,660 C 224.23,660 224.26,660.02 224.28,660.11 C 224.62,661.17 225.28,661.42 225.61,661.42 C 225.8,661.42 226.15,661.33 226.15,660.75 C 226.15,660.44 225.98,659.77 225.61,658.38 C 225.46,657.76 225.11,657.34 224.67,657.34 C 224.61,657.34 224.38,657.34 224.17,657.47 C 224.42,657.52 224.64,657.73 224.64,658.01 C 224.64,658.28 224.42,658.36 224.27,658.36 C 223.97,658.36 223.72,658.1 223.72,657.78 C 223.72,657.32 224.22,657.12 224.66,657.12 C 225.32,657.12 225.67,657.82 225.7,657.88 C 225.82,657.51 226.18,657.12 226.78,657.12 C 227.81,657.12 228.37,658.41 228.37,658.66 C 228.37,658.76 228.28,658.76 228.25,658.76 C 228.16,658.76 228.15,658.72 228.12,658.65 C 227.8,657.58 227.12,657.34 226.8,657.34 C 226.41,657.34 226.25,657.66 226.25,658 C 226.25,658.22 226.31,658.44 226.42,658.88 L 226.76,660.24 z"
   id="path2419" />
</g>    <g
       ns0:preamble=""
       ns0:text="$X$"
       word-spacing="normal"
       letter-spacing="normal"
       font-size-adjust="none"
       font-stretch="normal"
       font-weight="normal"
       font-variant="normal"
       font-style="normal"
       fill-rule="even-odd"
       stroke-miterlimit="10.433"
       transform="matrix(1,0,0,-1,-138.26,1060.705)"
       id="g2483"
       xml:space="preserve"
       style="font-style:normal;font-variant:normal;font-weight:normal;font-stretch:normal;letter-spacing:normal;word-spacing:normal;text-anchor:start;fill:none;fill-opacity:1;stroke:#000000;stroke-linecap:butt;stroke-linejoin:miter;stroke-miterlimit:10.43299961;stroke-dasharray:none;stroke-dashoffset:0;stroke-opacity:1">
<path
   id="path2485"
   d="M 228.26,661.33 L 227.43,663.31 C 227.4,663.39 227.38,663.43 227.38,663.44 C 227.38,663.5 227.55,663.69 227.96,663.73 C 228.07,663.74 228.16,663.75 228.16,663.92 C 228.16,664.04 228.04,664.04 228.01,664.04 C 227.61,664.04 227.18,664.01 226.76,664.01 C 226.51,664.01 225.89,664.04 225.64,664.04 C 225.58,664.04 225.46,664.04 225.46,663.84 C 225.46,663.73 225.56,663.73 225.69,663.73 C 226.29,663.73 226.35,663.63 226.44,663.41 L 227.62,660.63 L 225.51,658.37 C 225.46,658.32 225.45,658.31 225.38,658.26 C 224.9,657.73 224.43,657.57 223.92,657.54 C 223.79,657.53 223.7,657.53 223.7,657.34 C 223.7,657.33 223.7,657.23 223.83,657.23 C 224.13,657.23 224.46,657.26 224.77,657.26 C 225.14,657.26 225.52,657.23 225.88,657.23 C 225.94,657.23 226.06,657.23 226.06,657.43 C 226.06,657.53 225.96,657.54 225.94,657.54 C 225.85,657.55 225.54,657.57 225.54,657.85 C 225.54,658.01 225.69,658.17 225.81,658.3 L 226.83,659.37 C 227.13,659.7 227.52,660.11 227.73,660.35 L 228.73,657.97 C 228.77,657.86 228.78,657.85 228.78,657.83 C 228.78,657.75 228.59,657.58 228.21,657.54 C 228.1,657.53 228.01,657.52 228.01,657.35 C 228.01,657.23 228.12,657.23 228.15,657.23 C 228.43,657.23 229.13,657.26 229.41,657.26 C 229.66,657.26 230.27,657.23 230.52,657.23 C 230.59,657.23 230.71,657.23 230.71,657.42 C 230.71,657.54 230.61,657.54 230.53,657.54 C 229.86,657.55 229.84,657.58 229.67,657.98 C 229.28,658.91 228.61,660.46 228.38,661.06 C 229.06,661.76 230.11,662.94 230.43,663.22 C 230.71,663.46 231.09,663.7 231.69,663.73 C 231.82,663.74 231.91,663.74 231.91,663.93 C 231.91,663.94 231.91,664.04 231.78,664.04 C 231.48,664.04 231.15,664.01 230.85,664.01 C 230.48,664.01 230.1,664.04 229.74,664.04 C 229.68,664.04 229.55,664.04 229.55,663.84 C 229.55,663.77 229.6,663.74 229.67,663.73 C 229.76,663.72 230.07,663.7 230.07,663.42 C 230.07,663.28 229.96,663.15 229.88,663.06 L 228.26,661.33 z"
   style="fill:#000000;stroke-width:0" />
</g>  </g>
</svg>
