<?xml version="1.0" encoding="UTF-8" standalone="no"?>
<!-- Created with Inkscape (http://www.inkscape.org/) -->
<svg
   xmlns:ns0="http://www.iki.fi/pav/software/textext/"
   xmlns:dc="http://purl.org/dc/elements/1.1/"
   xmlns:cc="http://creativecommons.org/ns#"
   xmlns:rdf="http://www.w3.org/1999/02/22-rdf-syntax-ns#"
   xmlns:svg="http://www.w3.org/2000/svg"
   xmlns="http://www.w3.org/2000/svg"
   xmlns:sodipodi="http://sodipodi.sourceforge.net/DTD/sodipodi-0.dtd"
   xmlns:inkscape="http://www.inkscape.org/namespaces/inkscape"
   width="765"
   height="990"
   id="svg2"
   sodipodi:version="0.32"
   inkscape:version="0.46"
   version="1.0"
   sodipodi:docname="set2.svg"
   inkscape:output_extension="org.inkscape.output.svg.inkscape">
  <sodipodi:namedview
     id="base"
     pagecolor="#ffffff"
     bordercolor="#666666"
     borderopacity="1.0"
     gridtolerance="10"
     guidetolerance="10"
     objecttolerance="10"
     inkscape:pageopacity="0.0"
     inkscape:pageshadow="2"
     inkscape:zoom="4.7483871"
     inkscape:cx="135"
     inkscape:cy="562.5"
     inkscape:document-units="in"
     inkscape:current-layer="layer1"
     showgrid="true"
     units="in"
     inkscape:window-width="1440"
     inkscape:window-height="854"
     inkscape:window-x="0"
     inkscape:window-y="25">
    <inkscape:grid
       empspacing="4"
       spacingy="0.0625in"
       spacingx="0.0625in"
       units="in"
       enabled="true"
       visible="true"
       id="grid3245"
       type="xygrid" />
  </sodipodi:namedview>
  <defs
     id="defs4">
    <inkscape:perspective
       id="perspective10"
       inkscape:persp3d-origin="372.04724 : 350.78739 : 1"
       inkscape:vp_z="744.09448 : 526.18109 : 1"
       inkscape:vp_y="0 : 1000 : 0"
       inkscape:vp_x="0 : 526.18109 : 1"
       sodipodi:type="inkscape:persp3d" />
  </defs>
  <metadata
     id="metadata7">
    <rdf:RDF>
      <cc:Work
         rdf:about="">
        <dc:format>image/svg+xml</dc:format>
        <dc:type
           rdf:resource="http://purl.org/dc/dcmitype/StillImage" />
      </cc:Work>
    </rdf:RDF>
  </metadata>
  <g
     id="layer1"
     inkscape:groupmode="layer"
     inkscape:label="Layer 1">
    <path
       id="path3228"
       d="M 135,389 C 121.55705,396.78551 112.5,411.29537 112.5,427.9375 C 112.5,444.57963 121.55705,459.08949 135,466.875 C 148.44295,459.08949 157.5,444.57963 157.5,427.9375 C 157.5,411.29537 148.44295,396.78551 135,389 z"
       style="opacity:1;fill:#c8c8c8;fill-opacity:1;stroke:#000000;stroke-width:0;stroke-linejoin:bevel;stroke-miterlimit:4;stroke-dasharray:none;stroke-dashoffset:0;stroke-opacity:1" />
    <path
       id="path3194"
       d="M 112.5 382.5 C 87.66 382.5 67.5 402.66 67.5 427.5 C 67.5 452.34 87.66 472.5 112.5 472.5 C 120.69787 472.5 128.37804 470.27262 135 466.4375 C 121.55705 458.65199 112.5 444.14213 112.5 427.5 C 112.5 410.85787 121.55705 396.34801 135 388.5625 C 128.37804 384.72738 120.69787 382.5 112.5 382.5 z "
       style="opacity:1;fill:#c8c8c8;fill-opacity:1;stroke:#000000;stroke-width:0.62500000000000000;stroke-linejoin:bevel;stroke-miterlimit:4;stroke-dasharray:none;stroke-dashoffset:0;stroke-opacity:1" />
    <rect
       y="360"
       x="22.5"
       height="135"
       width="225"
       id="rect3196"
       style="opacity:1;fill:none;fill-opacity:1;stroke:#000000;stroke-width:0.625;stroke-linejoin:bevel;stroke-miterlimit:4;stroke-dasharray:none;stroke-dashoffset:0;stroke-opacity:1" />
    <path
       id="path3223"
       d="M 157.5,382.5 C 182.34,382.5 202.5,402.66 202.5,427.5 C 202.5,452.34 182.34,472.5 157.5,472.5 C 149.30213,472.5 141.62196,470.27262 135,466.4375 C 148.44295,458.65199 157.5,444.14213 157.5,427.5 C 157.5,410.85787 148.44295,396.34801 135,388.5625 C 141.62196,384.72738 149.30213,382.5 157.5,382.5 z"
       style="opacity:1;fill:#c8c8c8;fill-opacity:1;stroke:#000000;stroke-width:0.62500000000000000;stroke-linejoin:bevel;stroke-miterlimit:4;stroke-dasharray:none;stroke-dashoffset:0;stroke-opacity:1" />
    <g
       style="font-style:normal;font-variant:normal;font-weight:normal;font-stretch:normal;letter-spacing:normal;word-spacing:normal;text-anchor:start;fill:none;fill-opacity:1;stroke:#000000;stroke-linecap:butt;stroke-linejoin:miter;stroke-miterlimit:10.43299961;stroke-dasharray:none;stroke-dashoffset:0;stroke-opacity:1"
       ns0:preamble=""
       ns0:text="$X$"
       word-spacing="normal"
       letter-spacing="normal"
       font-size-adjust="none"
       font-stretch="normal"
       font-weight="normal"
       font-variant="normal"
       font-style="normal"
       fill-rule="even-odd"
       stroke-miterlimit="10.433"
       transform="matrix(1,0,0,-1,-164.955,1062.0732)"
       id="content"
       xml:space="preserve">
<path
   style="fill:#000000;stroke-width:0"
   id="path2542"
   d="M 228.26,661.33 L 227.43,663.31 C 227.4,663.39 227.38,663.43 227.38,663.44 C 227.38,663.5 227.55,663.69 227.96,663.73 C 228.07,663.74 228.16,663.75 228.16,663.92 C 228.16,664.04 228.04,664.04 228.01,664.04 C 227.61,664.04 227.18,664.01 226.76,664.01 C 226.51,664.01 225.89,664.04 225.64,664.04 C 225.58,664.04 225.46,664.04 225.46,663.84 C 225.46,663.73 225.56,663.73 225.69,663.73 C 226.29,663.73 226.35,663.63 226.44,663.41 L 227.62,660.63 L 225.51,658.37 C 225.46,658.32 225.45,658.31 225.38,658.26 C 224.9,657.73 224.43,657.57 223.92,657.54 C 223.79,657.53 223.7,657.53 223.7,657.34 C 223.7,657.33 223.7,657.23 223.83,657.23 C 224.13,657.23 224.46,657.26 224.77,657.26 C 225.14,657.26 225.52,657.23 225.88,657.23 C 225.94,657.23 226.06,657.23 226.06,657.43 C 226.06,657.53 225.96,657.54 225.94,657.54 C 225.85,657.55 225.54,657.57 225.54,657.85 C 225.54,658.01 225.69,658.17 225.81,658.3 L 226.83,659.37 C 227.13,659.7 227.52,660.11 227.73,660.35 L 228.73,657.97 C 228.77,657.86 228.78,657.85 228.78,657.83 C 228.78,657.75 228.59,657.58 228.21,657.54 C 228.1,657.53 228.01,657.52 228.01,657.35 C 228.01,657.23 228.12,657.23 228.15,657.23 C 228.43,657.23 229.13,657.26 229.41,657.26 C 229.66,657.26 230.27,657.23 230.52,657.23 C 230.59,657.23 230.71,657.23 230.71,657.42 C 230.71,657.54 230.61,657.54 230.53,657.54 C 229.86,657.55 229.84,657.58 229.67,657.98 C 229.28,658.91 228.61,660.46 228.38,661.06 C 229.06,661.76 230.11,662.94 230.43,663.22 C 230.71,663.46 231.09,663.7 231.69,663.73 C 231.82,663.74 231.91,663.74 231.91,663.93 C 231.91,663.94 231.91,664.04 231.78,664.04 C 231.48,664.04 231.15,664.01 230.85,664.01 C 230.48,664.01 230.1,664.04 229.74,664.04 C 229.68,664.04 229.55,664.04 229.55,663.84 C 229.55,663.77 229.6,663.74 229.67,663.73 C 229.76,663.72 230.07,663.7 230.07,663.42 C 230.07,663.28 229.96,663.15 229.88,663.06 L 228.26,661.33 z" />
</g>    <g
       ns0:preamble=""
       ns0:text="$X\\cup Y$"
       text-anchor="start"
       word-spacing="normal"
       letter-spacing="normal"
       font-size-adjust="none"
       font-stretch="normal"
       font-weight="normal"
       font-variant="normal"
       font-style="normal"
       fill-opacity="1"
       fill-rule="even-odd"
       fill="none"
       stroke-opacity="1"
       stroke-dashoffset="0"
       stroke-dasharray="none"
       stroke-miterlimit="10.433"
       stroke-linejoin="miter"
       stroke-linecap="butt"
       stroke="black"
       transform="matrix(1,0,0,-1,-22.24,1057.14)"
       id="g2598"
       xml:space="preserve">
<path
   id="path2600"
   d="M 147.81,576.935 L 146.98,578.915 C 146.95,578.995 146.93,579.035 146.93,579.045 C 146.93,579.105 147.1,579.295 147.51,579.335 C 147.62,579.345 147.71,579.355 147.71,579.525 C 147.71,579.645 147.59,579.645 147.56,579.645 C 147.16,579.645 146.73,579.615 146.31,579.615 C 146.06,579.615 145.44,579.645 145.19,579.645 C 145.13,579.645 145.01,579.645 145.01,579.445 C 145.01,579.335 145.11,579.335 145.24,579.335 C 145.84,579.335 145.9,579.235 145.99,579.015 L 147.17,576.235 L 145.06,573.975 C 145.01,573.925 145,573.915 144.93,573.865 C 144.45,573.335 143.98,573.175 143.47,573.145 C 143.34,573.135 143.25,573.135 143.25,572.945 C 143.25,572.935 143.25,572.835 143.38,572.835 C 143.68,572.835 144.01,572.865 144.32,572.865 C 144.69,572.865 145.07,572.835 145.43,572.835 C 145.49,572.835 145.61,572.835 145.61,573.035 C 145.61,573.135 145.51,573.145 145.49,573.145 C 145.4,573.155 145.09,573.175 145.09,573.455 C 145.09,573.615 145.24,573.775 145.36,573.905 L 146.38,574.975 C 146.68,575.305 147.07,575.715 147.28,575.955 L 148.28,573.575 C 148.32,573.465 148.33,573.455 148.33,573.435 C 148.33,573.355 148.14,573.185 147.76,573.145 C 147.65,573.135 147.56,573.125 147.56,572.955 C 147.56,572.835 147.67,572.835 147.7,572.835 C 147.98,572.835 148.68,572.865 148.96,572.865 C 149.21,572.865 149.82,572.835 150.07,572.835 C 150.14,572.835 150.26,572.835 150.26,573.025 C 150.26,573.145 150.16,573.145 150.08,573.145 C 149.41,573.155 149.39,573.185 149.22,573.585 C 148.83,574.515 148.16,576.065 147.93,576.665 C 148.61,577.365 149.66,578.545 149.98,578.825 C 150.26,579.065 150.64,579.305 151.24,579.335 C 151.37,579.345 151.46,579.345 151.46,579.535 C 151.46,579.545 151.46,579.645 151.33,579.645 C 151.03,579.645 150.7,579.615 150.4,579.615 C 150.03,579.615 149.65,579.645 149.29,579.645 C 149.23,579.645 149.1,579.645 149.1,579.445 C 149.1,579.375 149.15,579.345 149.22,579.335 C 149.31,579.325 149.62,579.305 149.62,579.025 C 149.62,578.885 149.51,578.755 149.43,578.665 L 147.81,576.935 z"
   style="fill:#000000;stroke-width:0" />
<path
   id="path2602"
   d="M 160.31,578.465 L 160.31,578.495 L 160.31,578.525 L 160.31,578.545 L 160.31,578.565 L 160.31,578.575 L 160.31,578.595 L 160.3,578.605 L 160.3,578.615 L 160.3,578.635 L 160.3,578.645 L 160.29,578.655 L 160.29,578.675 L 160.28,578.685 L 160.28,578.695 L 160.27,578.705 L 160.27,578.715 L 160.26,578.725 L 160.25,578.735 L 160.25,578.745 L 160.24,578.755 L 160.23,578.755 L 160.23,578.765 L 160.22,578.765 L 160.21,578.775 L 160.21,578.775 L 160.2,578.775 L 160.2,578.775 L 160.19,578.785 L 160.18,578.785 L 160.18,578.785 L 160.17,578.785 L 160.16,578.795 L 160.15,578.795 L 160.15,578.795 L 160.14,578.795 L 160.13,578.795 L 160.12,578.795 L 160.11,578.795 C 159.91,578.795 159.91,578.605 159.91,578.465 L 159.91,574.815 C 159.91,573.485 158.51,573.015 157.55,573.015 C 156.6,573.015 155.19,573.475 155.19,574.815 L 155.19,578.465 C 155.19,578.605 155.19,578.795 154.99,578.795 C 154.79,578.795 154.79,578.605 154.79,578.465 L 154.79,574.775 C 154.79,573.325 156.25,572.615 157.55,572.615 C 158.85,572.615 160.31,573.335 160.31,574.775 L 160.31,578.465 z"
   style="fill:#000000;stroke-width:0" />
<path
   id="path2604"
   d="M 169.04,578.505 L 169.18,578.645 C 169.48,578.945 169.81,579.285 170.48,579.335 C 170.59,579.345 170.68,579.345 170.68,579.525 C 170.68,579.605 170.63,579.645 170.55,579.645 C 170.29,579.645 170,579.615 169.73,579.615 C 169.41,579.615 169.06,579.645 168.74,579.645 C 168.68,579.645 168.55,579.645 168.55,579.455 C 168.55,579.345 168.65,579.335 168.7,579.335 C 168.77,579.335 169.06,579.315 169.06,579.105 C 169.06,578.935 168.83,578.675 168.79,578.625 L 166.48,575.965 L 165.38,578.925 C 165.32,579.065 165.32,579.085 165.32,579.095 C 165.32,579.335 165.81,579.335 165.91,579.335 C 166.05,579.335 166.15,579.335 166.15,579.535 C 166.15,579.645 166.03,579.645 166,579.645 C 165.72,579.645 165.02,579.615 164.74,579.615 C 164.5,579.615 163.88,579.645 163.63,579.645 C 163.57,579.645 163.44,579.645 163.44,579.445 C 163.44,579.335 163.54,579.335 163.67,579.335 C 164.27,579.335 164.31,579.245 164.4,578.995 L 165.62,575.715 C 165.63,575.685 165.66,575.575 165.66,575.545 C 165.66,575.515 165.26,573.915 165.21,573.735 C 165.08,573.185 165.07,573.155 164.28,573.145 C 164.09,573.145 164.01,573.145 164.01,572.945 C 164.01,572.835 164.13,572.835 164.15,572.835 C 164.43,572.835 165.12,572.865 165.4,572.865 C 165.68,572.865 166.4,572.835 166.68,572.835 C 166.75,572.835 166.87,572.835 166.87,573.035 C 166.87,573.145 166.78,573.145 166.59,573.145 C 166.57,573.145 166.38,573.145 166.21,573.165 C 166,573.185 165.94,573.205 165.94,573.325 C 165.94,573.395 166.03,573.745 166.08,573.955 C 166.25,574.615 166.28,574.765 166.43,575.355 C 166.48,575.545 166.49,575.575 166.57,575.665 L 169.04,578.505 z"
   style="fill:#000000;stroke-width:0" />
<path
   d="M 230.225,657.625 L 230.365,657.765 C 230.665,658.065 230.995,658.405 231.665,658.455 C 231.775,658.465 231.865,658.465 231.865,658.645 C 231.865,658.725 231.815,658.765 231.735,658.765 C 231.475,658.765 231.185,658.735 230.915,658.735 C 230.595,658.735 230.245,658.765 229.925,658.765 C 229.865,658.765 229.735,658.765 229.735,658.575 C 229.735,658.465 229.835,658.455 229.885,658.455 C 229.955,658.455 230.245,658.435 230.245,658.225 C 230.245,658.055 230.015,657.795 229.975,657.745 L 227.665,655.085 L 226.565,658.045 C 226.505,658.185 226.505,658.205 226.505,658.215 C 226.505,658.455 226.995,658.455 227.095,658.455 C 227.235,658.455 227.335,658.455 227.335,658.655 C 227.335,658.765 227.215,658.765 227.185,658.765 C 226.905,658.765 226.205,658.735 225.925,658.735 C 225.685,658.735 225.065,658.765 224.815,658.765 C 224.755,658.765 224.625,658.765 224.625,658.565 C 224.625,658.455 224.725,658.455 224.855,658.455 C 225.455,658.455 225.495,658.365 225.585,658.115 L 226.805,654.835 C 226.815,654.805 226.845,654.695 226.845,654.665 C 226.845,654.635 226.445,653.035 226.395,652.855 C 226.265,652.305 226.255,652.275 225.465,652.265 C 225.275,652.265 225.195,652.265 225.195,652.065 C 225.195,651.955 225.315,651.955 225.335,651.955 C 225.615,651.955 226.305,651.985 226.585,651.985 C 226.865,651.985 227.585,651.955 227.865,651.955 C 227.935,651.955 228.055,651.955 228.055,652.155 C 228.055,652.265 227.965,652.265 227.775,652.265 C 227.755,652.265 227.565,652.265 227.395,652.285 C 227.185,652.305 227.125,652.325 227.125,652.445 C 227.125,652.515 227.215,652.865 227.265,653.075 C 227.435,653.735 227.465,653.885 227.615,654.475 C 227.665,654.665 227.675,654.695 227.755,654.785 L 230.225,657.625 z"
   id="path2621"
   style="fill:#000000;stroke-width:0" /></g>  </g>
</svg>
