<?xml version="1.0" encoding="UTF-8" standalone="no"?>
<!-- Created with Inkscape (http://www.inkscape.org/) -->
<svg
   xmlns:ns0="http://www.iki.fi/pav/software/textext/"
   xmlns:dc="http://purl.org/dc/elements/1.1/"
   xmlns:cc="http://creativecommons.org/ns#"
   xmlns:rdf="http://www.w3.org/1999/02/22-rdf-syntax-ns#"
   xmlns:svg="http://www.w3.org/2000/svg"
   xmlns="http://www.w3.org/2000/svg"
   xmlns:sodipodi="http://sodipodi.sourceforge.net/DTD/sodipodi-0.dtd"
   xmlns:inkscape="http://www.inkscape.org/namespaces/inkscape"
   width="765"
   height="990"
   id="svg2"
   sodipodi:version="0.32"
   inkscape:version="0.46"
   version="1.0"
   sodipodi:docname="set5.svg"
   inkscape:output_extension="org.inkscape.output.svg.inkscape">
  <sodipodi:namedview
     id="base"
     pagecolor="#ffffff"
     bordercolor="#666666"
     borderopacity="1.0"
     gridtolerance="10"
     guidetolerance="10"
     objecttolerance="10"
     inkscape:pageopacity="0.0"
     inkscape:pageshadow="2"
     inkscape:zoom="4.7483871"
     inkscape:cx="135"
     inkscape:cy="562.5"
     inkscape:document-units="in"
     inkscape:current-layer="layer1"
     showgrid="true"
     units="in"
     inkscape:window-width="1440"
     inkscape:window-height="854"
     inkscape:window-x="0"
     inkscape:window-y="25">
    <inkscape:grid
       empspacing="4"
       spacingy="0.0625in"
       spacingx="0.0625in"
       units="in"
       enabled="true"
       visible="true"
       id="grid3245"
       type="xygrid" />
  </sodipodi:namedview>
  <defs
     id="defs4">
    <inkscape:perspective
       id="perspective10"
       inkscape:persp3d-origin="372.04724 : 350.78739 : 1"
       inkscape:vp_z="744.09448 : 526.18109 : 1"
       inkscape:vp_y="0 : 1000 : 0"
       inkscape:vp_x="0 : 526.18109 : 1"
       sodipodi:type="inkscape:persp3d" />
  </defs>
  <metadata
     id="metadata7">
    <rdf:RDF>
      <cc:Work
         rdf:about="">
        <dc:format>image/svg+xml</dc:format>
        <dc:type
           rdf:resource="http://purl.org/dc/dcmitype/StillImage" />
      </cc:Work>
    </rdf:RDF>
  </metadata>
  <g
     id="layer1"
     inkscape:groupmode="layer"
     inkscape:label="Layer 1">
    <path
       id="path3194"
       d="M 112.5 382.5 C 87.66 382.5 67.5 402.66 67.5 427.5 C 67.5 452.34 87.66 472.5 112.5 472.5 C 120.69787 472.5 128.37804 470.27262 135 466.4375 C 121.55705 458.65199 112.5 444.14213 112.5 427.5 C 112.5 410.85787 121.55705 396.34801 135 388.5625 C 128.37804 384.72738 120.69787 382.5 112.5 382.5 z "
       style="opacity:1;fill:#c8c8c8;fill-opacity:1;stroke:#000000;stroke-width:0.62500000000000000;stroke-linejoin:bevel;stroke-miterlimit:4;stroke-dasharray:none;stroke-dashoffset:0;stroke-opacity:1" />
    <rect
       y="360"
       x="22.5"
       height="135"
       width="225"
       id="rect3196"
       style="opacity:1;fill:none;fill-opacity:1;stroke:#000000;stroke-width:0.625;stroke-linejoin:bevel;stroke-miterlimit:4;stroke-dasharray:none;stroke-dashoffset:0;stroke-opacity:1" />
    <path
       id="path3223"
       d="M 157.5,382.5 C 182.34,382.5 202.5,402.66 202.5,427.5 C 202.5,452.34 182.34,472.5 157.5,472.5 C 149.30213,472.5 141.62196,470.27262 135,466.4375 C 148.44295,458.65199 157.5,444.14213 157.5,427.5 C 157.5,410.85787 148.44295,396.34801 135,388.5625 C 141.62196,384.72738 149.30213,382.5 157.5,382.5 z"
       style="opacity:1;fill:#ffffff;fill-opacity:1;stroke:#000000;stroke-width:0.62500000000000000;stroke-linejoin:bevel;stroke-miterlimit:4;stroke-dasharray:none;stroke-dashoffset:0;stroke-opacity:1" />
    <g
       ns0:preamble=""
       ns0:text="$X$"
       word-spacing="normal"
       letter-spacing="normal"
       font-size-adjust="none"
       font-stretch="normal"
       font-weight="normal"
       font-variant="normal"
       font-style="normal"
       fill-rule="even-odd"
       stroke-miterlimit="10.433"
       transform="matrix(1,0,0,-1,-164.565,1062.785)"
       id="content"
       xml:space="preserve"
       style="font-style:normal;font-variant:normal;font-weight:normal;font-stretch:normal;letter-spacing:normal;word-spacing:normal;text-anchor:start;fill:none;fill-opacity:1;stroke:#000000;stroke-linecap:butt;stroke-linejoin:miter;stroke-miterlimit:10.43299961;stroke-dasharray:none;stroke-dashoffset:0;stroke-opacity:1">
<path
   id="path2871"
   d="M 228.26,661.33 L 227.43,663.31 C 227.4,663.39 227.38,663.43 227.38,663.44 C 227.38,663.5 227.55,663.69 227.96,663.73 C 228.07,663.74 228.16,663.75 228.16,663.92 C 228.16,664.04 228.04,664.04 228.01,664.04 C 227.61,664.04 227.18,664.01 226.76,664.01 C 226.51,664.01 225.89,664.04 225.64,664.04 C 225.58,664.04 225.46,664.04 225.46,663.84 C 225.46,663.73 225.56,663.73 225.69,663.73 C 226.29,663.73 226.35,663.63 226.44,663.41 L 227.62,660.63 L 225.51,658.37 C 225.46,658.32 225.45,658.31 225.38,658.26 C 224.9,657.73 224.43,657.57 223.92,657.54 C 223.79,657.53 223.7,657.53 223.7,657.34 C 223.7,657.33 223.7,657.23 223.83,657.23 C 224.13,657.23 224.46,657.26 224.77,657.26 C 225.14,657.26 225.52,657.23 225.88,657.23 C 225.94,657.23 226.06,657.23 226.06,657.43 C 226.06,657.53 225.96,657.54 225.94,657.54 C 225.85,657.55 225.54,657.57 225.54,657.85 C 225.54,658.01 225.69,658.17 225.81,658.3 L 226.83,659.37 C 227.13,659.7 227.52,660.11 227.73,660.35 L 228.73,657.97 C 228.77,657.86 228.78,657.85 228.78,657.83 C 228.78,657.75 228.59,657.58 228.21,657.54 C 228.1,657.53 228.01,657.52 228.01,657.35 C 228.01,657.23 228.12,657.23 228.15,657.23 C 228.43,657.23 229.13,657.26 229.41,657.26 C 229.66,657.26 230.27,657.23 230.52,657.23 C 230.59,657.23 230.71,657.23 230.71,657.42 C 230.71,657.54 230.61,657.54 230.53,657.54 C 229.86,657.55 229.84,657.58 229.67,657.98 C 229.28,658.91 228.61,660.46 228.38,661.06 C 229.06,661.76 230.11,662.94 230.43,663.22 C 230.71,663.46 231.09,663.7 231.69,663.73 C 231.82,663.74 231.91,663.74 231.91,663.93 C 231.91,663.94 231.91,664.04 231.78,664.04 C 231.48,664.04 231.15,664.01 230.85,664.01 C 230.48,664.01 230.1,664.04 229.74,664.04 C 229.68,664.04 229.55,664.04 229.55,663.84 C 229.55,663.77 229.6,663.74 229.67,663.73 C 229.76,663.72 230.07,663.7 230.07,663.42 C 230.07,663.28 229.96,663.15 229.88,663.06 L 228.26,661.33 z"
   style="fill:#000000;stroke-width:0" />
</g>    <g
       xml:space="preserve"
       id="g2895"
       transform="matrix(1,0,0,-1,-21.255,1062.275)"
       stroke-miterlimit="10.433"
       fill-rule="even-odd"
       font-style="normal"
       font-variant="normal"
       font-weight="normal"
       font-stretch="normal"
       font-size-adjust="none"
       letter-spacing="normal"
       word-spacing="normal"
       ns0:text="$Y$"
       ns0:preamble=""
       style="font-style:normal;font-variant:normal;font-weight:normal;font-stretch:normal;letter-spacing:normal;word-spacing:normal;text-anchor:start;fill:none;fill-opacity:1;stroke:#000000;stroke-linecap:butt;stroke-linejoin:miter;stroke-miterlimit:10.43299961;stroke-dasharray:none;stroke-dashoffset:0;stroke-opacity:1">
<path
   d="M 229.38,662.9 L 229.52,663.04 C 229.82,663.34 230.15,663.68 230.82,663.73 C 230.93,663.74 231.02,663.74 231.02,663.92 C 231.02,664 230.97,664.04 230.89,664.04 C 230.63,664.04 230.35,664.01 230.08,664.01 C 229.75,664.01 229.4,664.04 229.08,664.04 C 229.02,664.04 228.89,664.04 228.89,663.85 C 228.89,663.74 228.99,663.73 229.04,663.73 C 229.11,663.73 229.4,663.71 229.4,663.5 C 229.4,663.33 229.17,663.07 229.13,663.02 L 226.82,660.36 L 225.72,663.32 C 225.66,663.46 225.66,663.48 225.66,663.49 C 225.66,663.73 226.15,663.73 226.25,663.73 C 226.39,663.73 226.49,663.73 226.49,663.93 C 226.49,664.04 226.37,664.04 226.34,664.04 C 226.06,664.04 225.37,664.01 225.09,664.01 C 224.84,664.01 224.22,664.04 223.97,664.04 C 223.91,664.04 223.78,664.04 223.78,663.84 C 223.78,663.73 223.88,663.73 224.01,663.73 C 224.61,663.73 224.65,663.64 224.74,663.39 L 225.96,660.11 C 225.97,660.08 226,659.97 226,659.94 C 226,659.91 225.6,658.31 225.55,658.13 C 225.43,657.58 225.41,657.55 224.62,657.54 C 224.43,657.54 224.35,657.54 224.35,657.34 C 224.35,657.23 224.47,657.23 224.49,657.23 C 224.77,657.23 225.46,657.26 225.74,657.26 C 226.02,657.26 226.74,657.23 227.02,657.23 C 227.09,657.23 227.21,657.23 227.21,657.43 C 227.21,657.54 227.12,657.54 226.93,657.54 C 226.91,657.54 226.72,657.54 226.55,657.56 C 226.34,657.58 226.28,657.6 226.28,657.72 C 226.28,657.79 226.37,658.14 226.42,658.35 C 226.59,659.01 226.62,659.16 226.77,659.75 C 226.82,659.94 226.83,659.97 226.91,660.06 L 229.38,662.9 z"
   id="path2897"
   style="fill:#000000;stroke-width:0" />
</g>    <g
       ns0:preamble=""
       ns0:text="$X-Y$"
       word-spacing="normal"
       letter-spacing="normal"
       font-size-adjust="none"
       font-stretch="normal"
       font-weight="normal"
       font-variant="normal"
       font-style="normal"
       fill-rule="even-odd"
       stroke-miterlimit="10.433"
       transform="matrix(1,0,0,-1,-103.78625,1143.27)"
       id="g2925"
       xml:space="preserve"
       style="font-style:normal;font-variant:normal;font-weight:normal;font-stretch:normal;letter-spacing:normal;word-spacing:normal;text-anchor:start;fill:none;fill-opacity:1;stroke:#000000;stroke-linecap:butt;stroke-linejoin:miter;stroke-miterlimit:10.43299961;stroke-dasharray:none;stroke-dashoffset:0;stroke-opacity:1">
<path
   id="path2927"
   d="M 228.26,661.33 L 227.43,663.31 C 227.4,663.39 227.38,663.43 227.38,663.44 C 227.38,663.5 227.55,663.69 227.96,663.73 C 228.07,663.74 228.16,663.75 228.16,663.92 C 228.16,664.04 228.04,664.04 228.01,664.04 C 227.61,664.04 227.18,664.01 226.76,664.01 C 226.51,664.01 225.89,664.04 225.64,664.04 C 225.58,664.04 225.46,664.04 225.46,663.84 C 225.46,663.73 225.56,663.73 225.69,663.73 C 226.29,663.73 226.35,663.63 226.44,663.41 L 227.62,660.63 L 225.51,658.37 C 225.46,658.32 225.45,658.31 225.38,658.26 C 224.9,657.73 224.43,657.57 223.92,657.54 C 223.79,657.53 223.7,657.53 223.7,657.34 C 223.7,657.33 223.7,657.23 223.83,657.23 C 224.13,657.23 224.46,657.26 224.77,657.26 C 225.14,657.26 225.52,657.23 225.88,657.23 C 225.94,657.23 226.06,657.23 226.06,657.43 C 226.06,657.53 225.96,657.54 225.94,657.54 C 225.85,657.55 225.54,657.57 225.54,657.85 C 225.54,658.01 225.69,658.17 225.81,658.3 L 226.83,659.37 C 227.13,659.7 227.52,660.11 227.73,660.35 L 228.73,657.97 C 228.77,657.86 228.78,657.85 228.78,657.83 C 228.78,657.75 228.59,657.58 228.21,657.54 C 228.1,657.53 228.01,657.52 228.01,657.35 C 228.01,657.23 228.12,657.23 228.15,657.23 C 228.43,657.23 229.13,657.26 229.41,657.26 C 229.66,657.26 230.27,657.23 230.52,657.23 C 230.59,657.23 230.71,657.23 230.71,657.42 C 230.71,657.54 230.61,657.54 230.53,657.54 C 229.86,657.55 229.84,657.58 229.67,657.98 C 229.28,658.91 228.61,660.46 228.38,661.06 C 229.06,661.76 230.11,662.94 230.43,663.22 C 230.71,663.46 231.09,663.7 231.69,663.73 C 231.82,663.74 231.91,663.74 231.91,663.93 C 231.91,663.94 231.91,664.04 231.78,664.04 C 231.48,664.04 231.15,664.01 230.85,664.01 C 230.48,664.01 230.1,664.04 229.74,664.04 C 229.68,664.04 229.55,664.04 229.55,663.84 C 229.55,663.77 229.6,663.74 229.67,663.73 C 229.76,663.72 230.07,663.7 230.07,663.42 C 230.07,663.28 229.96,663.15 229.88,663.06 L 228.26,661.33 z"
   style="fill:#000000;stroke-width:0" />
<path
   id="path2929"
   d="M 241.27,659.52 L 241.28,659.52 L 241.29,659.52 L 241.32,659.52 L 241.35,659.53 L 241.36,659.53 L 241.38,659.53 L 241.39,659.53 L 241.41,659.53 L 241.42,659.53 L 241.43,659.53 L 241.45,659.54 L 241.46,659.54 L 241.47,659.54 L 241.48,659.55 L 241.5,659.55 L 241.51,659.56 L 241.52,659.57 L 241.53,659.57 L 241.54,659.58 L 241.55,659.59 L 241.56,659.6 L 241.56,659.6 L 241.57,659.61 L 241.57,659.61 L 241.57,659.62 L 241.58,659.62 L 241.58,659.63 L 241.58,659.64 L 241.58,659.64 L 241.59,659.65 L 241.59,659.66 L 241.59,659.66 L 241.59,659.67 L 241.59,659.68 L 241.59,659.69 L 241.6,659.7 L 241.6,659.7 L 241.6,659.71 L 241.6,659.72 C 241.6,659.92 241.41,659.92 241.27,659.92 L 235.84,659.92 C 235.7,659.92 235.51,659.92 235.51,659.72 C 235.51,659.52 235.7,659.52 235.84,659.52 L 241.27,659.52 z"
   style="fill:#000000;stroke-width:0" />
<path
   id="path2931"
   d="M 250.59,662.9 L 250.73,663.04 C 251.03,663.34 251.36,663.68 252.04,663.73 C 252.14,663.74 252.23,663.74 252.23,663.92 C 252.23,664 252.18,664.04 252.1,664.04 C 251.85,664.04 251.56,664.01 251.29,664.01 C 250.96,664.01 250.61,664.04 250.29,664.04 C 250.23,664.04 250.1,664.04 250.1,663.85 C 250.1,663.74 250.2,663.73 250.25,663.73 C 250.32,663.73 250.61,663.71 250.61,663.5 C 250.61,663.33 250.38,663.07 250.34,663.02 L 248.03,660.36 L 246.93,663.32 C 246.87,663.46 246.87,663.48 246.87,663.49 C 246.87,663.73 247.36,663.73 247.46,663.73 C 247.6,663.73 247.7,663.73 247.7,663.93 C 247.7,664.04 247.58,664.04 247.55,664.04 C 247.27,664.04 246.57,664.01 246.3,664.01 C 246.05,664.01 245.43,664.04 245.18,664.04 C 245.12,664.04 244.99,664.04 244.99,663.84 C 244.99,663.73 245.09,663.73 245.22,663.73 C 245.82,663.73 245.86,663.64 245.95,663.39 L 247.17,660.11 C 247.18,660.08 247.21,659.97 247.21,659.94 C 247.21,659.91 246.81,658.31 246.76,658.13 C 246.63,657.58 246.62,657.55 245.83,657.54 C 245.64,657.54 245.56,657.54 245.56,657.34 C 245.56,657.23 245.68,657.23 245.7,657.23 C 245.98,657.23 246.68,657.26 246.95,657.26 C 247.23,657.26 247.95,657.23 248.23,657.23 C 248.3,657.23 248.42,657.23 248.42,657.43 C 248.42,657.54 248.33,657.54 248.14,657.54 C 248.12,657.54 247.93,657.54 247.76,657.56 C 247.55,657.58 247.49,657.6 247.49,657.72 C 247.49,657.79 247.58,658.14 247.63,658.35 C 247.8,659.01 247.83,659.16 247.98,659.75 C 248.03,659.94 248.04,659.97 248.12,660.06 L 250.59,662.9 z"
   style="fill:#000000;stroke-width:0" />
</g>  </g>
</svg>
