<?xml version="1.0" encoding="UTF-8" standalone="no"?>
<!-- Created with Inkscape (http://www.inkscape.org/) -->
<svg
   xmlns:ns0="http://www.iki.fi/pav/software/textext/"
   xmlns:dc="http://purl.org/dc/elements/1.1/"
   xmlns:cc="http://creativecommons.org/ns#"
   xmlns:rdf="http://www.w3.org/1999/02/22-rdf-syntax-ns#"
   xmlns:svg="http://www.w3.org/2000/svg"
   xmlns="http://www.w3.org/2000/svg"
   xmlns:sodipodi="http://sodipodi.sourceforge.net/DTD/sodipodi-0.dtd"
   xmlns:inkscape="http://www.inkscape.org/namespaces/inkscape"
   width="765"
   height="990"
   id="svg2"
   sodipodi:version="0.32"
   inkscape:version="0.46"
   version="1.0"
   sodipodi:docname="setproof3.svg"
   inkscape:output_extension="org.inkscape.output.svg.inkscape">
  <sodipodi:namedview
     id="base"
     pagecolor="#ffffff"
     bordercolor="#666666"
     borderopacity="1.0"
     gridtolerance="10"
     guidetolerance="10"
     objecttolerance="10"
     inkscape:pageopacity="0.0"
     inkscape:pageshadow="2"
     inkscape:zoom="3.4577181"
     inkscape:cx="135"
     inkscape:cy="565.3125"
     inkscape:document-units="in"
     inkscape:current-layer="layer1"
     showgrid="true"
     units="in"
     inkscape:window-width="1440"
     inkscape:window-height="854"
     inkscape:window-x="0"
     inkscape:window-y="25"
     showguides="true"
     inkscape:guide-bbox="true">
    <inkscape:grid
       type="xygrid"
       id="grid3245"
       visible="true"
       enabled="true"
       units="in"
       spacingx="0.0625in"
       spacingy="0.0625in"
       empspacing="4" />
  </sodipodi:namedview>
  <defs
     id="defs4">
    <inkscape:perspective
       sodipodi:type="inkscape:persp3d"
       inkscape:vp_x="0 : 526.18109 : 1"
       inkscape:vp_y="0 : 1000 : 0"
       inkscape:vp_z="744.09448 : 526.18109 : 1"
       inkscape:persp3d-origin="372.04724 : 350.78739 : 1"
       id="perspective10" />
  </defs>
  <metadata
     id="metadata7">
    <rdf:RDF>
      <cc:Work
         rdf:about="">
        <dc:format>image/svg+xml</dc:format>
        <dc:type
           rdf:resource="http://purl.org/dc/dcmitype/StillImage" />
      </cc:Work>
    </rdf:RDF>
  </metadata>
  <g
     inkscape:label="Layer 1"
     inkscape:groupmode="layer"
     id="layer1">
    <path
       style="opacity:1;fill:#c8c8c8;fill-opacity:1;stroke:#000000;stroke-width:0;stroke-linejoin:bevel;stroke-miterlimit:4;stroke-dasharray:none;stroke-dashoffset:0;stroke-opacity:1"
       d="M 157.5,405.8125 C 157.35336,422.28092 148.32884,436.65221 135,444.375 C 141.62129,448.20896 149.30384,450.40625 157.5,450.40625 C 165.7009,450.40625 173.37639,448.21275 180,444.375 C 179.85332,427.90186 170.83568,413.53432 157.5,405.8125 z"
       id="path3236" />
    <path
       style="opacity:1;fill:#c8c8c8;fill-opacity:1;stroke:#000000;stroke-width:0;stroke-linejoin:bevel;stroke-miterlimit:4;stroke-dasharray:none;stroke-dashoffset:0;stroke-opacity:1"
       d="M 112.5,405.8125 C 99.164318,413.53432 90.146683,427.90186 90,444.375 C 96.623615,448.21275 104.2991,450.40625 112.5,450.40625 C 120.69616,450.40625 128.37871,448.20896 135,444.375 C 121.67116,436.65221 112.64664,422.28091 112.5,405.8125 z"
       id="path4003" />
    <path
       style="opacity:1;fill:#c8c8c8;fill-opacity:1;stroke:#000000;stroke-width:0;stroke-linejoin:bevel;stroke-miterlimit:4;stroke-dasharray:none;stroke-dashoffset:0;stroke-opacity:1"
       d="M 135,366.9579 C 121.55705,374.74341 112.5,389.25327 112.5,405.8954 C 112.5,406.03056 112.49881,406.16677 112.5,406.30165 C 119.11895,402.47129 126.80763,400.2704 135,400.2704 C 143.19237,400.2704 150.88105,402.47129 157.5,406.30165 C 157.50119,406.16677 157.5,406.03056 157.5,405.8954 C 157.5,389.25327 148.44295,374.74341 135,366.9579 z"
       id="path3330" />
    <rect
       style="opacity:1;fill:none;fill-opacity:1;stroke:#000000;stroke-width:0.625;stroke-linejoin:bevel;stroke-miterlimit:4;stroke-dasharray:none;stroke-dashoffset:0;stroke-opacity:1"
       id="rect3196"
       width="225"
       height="185.625"
       x="22.5"
       y="331.875" />
    <path
       style="opacity:1;fill:#c8c8c8;fill-opacity:1;stroke:#000000;stroke-width:0.62500000000000000;stroke-linejoin:bevel;stroke-miterlimit:4;stroke-dasharray:none;stroke-dashoffset:0;stroke-opacity:1"
       d="M 135,399.8125 C 126.80763,399.8125 119.11895,402.01339 112.5,405.84375 C 112.64667,422.31519 121.66713,436.65324 135,444.375 C 148.33287,436.65324 157.35333,422.31519 157.5,405.84375 C 150.88105,402.01339 143.19237,399.8125 135,399.8125 z"
       id="path3234" />
    <path
       style="opacity:1;fill:#c8c8c8;fill-opacity:1;stroke:#000000;stroke-width:0.62500000000000000;stroke-linejoin:bevel;stroke-miterlimit:4;stroke-dasharray:none;stroke-dashoffset:0;stroke-opacity:1"
       d="M 112.5,360.40625 C 87.66,360.40625 67.5,380.56625 67.5,405.40625 C 67.5,422.05388 76.549714,436.59138 90,444.375 C 90.145501,427.89688 99.15895,413.5329 112.5,405.8125 C 112.49879,405.67652 112.5,405.54252 112.5,405.40625 C 112.5,388.76412 121.55705,374.25426 135,366.46875 C 128.37804,362.63363 120.69787,360.40625 112.5,360.40625 z"
       id="path3306" />
    <path
       style="opacity:1;fill:#c8c8c8;fill-opacity:1;stroke:#000000;stroke-width:0.62500000000000000;stroke-linejoin:bevel;stroke-miterlimit:4;stroke-dasharray:none;stroke-dashoffset:0;stroke-opacity:1"
       d="M 135,444.375 C 128.37804,448.21012 120.69787,450.4375 112.5,450.4375 C 104.30763,450.4375 96.61895,448.23661 90,444.40625 C 89.99879,444.54223 90,444.67623 90,444.8125 C 90,469.6525 110.16,489.8125 135,489.8125 C 159.84,489.8125 180,469.6525 180,444.8125 C 180,444.67623 180.00121,444.54223 180,444.40625 C 173.38105,448.23661 165.69237,450.4375 157.5,450.4375 C 149.30213,450.4375 141.62196,448.21012 135,444.375 z"
       id="path3303" />
    <path
       id="path3322"
       d="M 157.5,360.40625 C 182.34,360.40625 202.5,380.56625 202.5,405.40625 C 202.5,422.05388 193.45029,436.59138 180,444.375 C 179.8545,427.89688 170.84105,413.5329 157.5,405.8125 C 157.50121,405.67652 157.5,405.54252 157.5,405.40625 C 157.5,388.76412 148.44295,374.25426 135,366.46875 C 141.62196,362.63363 149.30213,360.40625 157.5,360.40625 z"
       style="opacity:1;fill:none;fill-opacity:1;stroke:#000000;stroke-width:0.62500000000000000;stroke-linejoin:bevel;stroke-miterlimit:4;stroke-dasharray:none;stroke-dashoffset:0;stroke-opacity:1" />
    <g
       xml:space="preserve"
       id="content"
       transform="matrix(1,0,0,-1,-164.565,1040.285)"
       stroke-miterlimit="10.433"
       fill-rule="even-odd"
       font-style="normal"
       font-variant="normal"
       font-weight="normal"
       font-stretch="normal"
       font-size-adjust="none"
       letter-spacing="normal"
       word-spacing="normal"
       ns0:text="$X$"
       ns0:preamble=""
       style="font-style:normal;font-variant:normal;font-weight:normal;font-stretch:normal;letter-spacing:normal;word-spacing:normal;text-anchor:start;fill:none;fill-opacity:1;stroke:#000000;stroke-linecap:butt;stroke-linejoin:miter;stroke-miterlimit:10.43299961;stroke-dasharray:none;stroke-dashoffset:0;stroke-opacity:1">
<path
   d="M 228.26,661.33 L 227.43,663.31 C 227.4,663.39 227.38,663.43 227.38,663.44 C 227.38,663.5 227.55,663.69 227.96,663.73 C 228.07,663.74 228.16,663.75 228.16,663.92 C 228.16,664.04 228.04,664.04 228.01,664.04 C 227.61,664.04 227.18,664.01 226.76,664.01 C 226.51,664.01 225.89,664.04 225.64,664.04 C 225.58,664.04 225.46,664.04 225.46,663.84 C 225.46,663.73 225.56,663.73 225.69,663.73 C 226.29,663.73 226.35,663.63 226.44,663.41 L 227.62,660.63 L 225.51,658.37 C 225.46,658.32 225.45,658.31 225.38,658.26 C 224.9,657.73 224.43,657.57 223.92,657.54 C 223.79,657.53 223.7,657.53 223.7,657.34 C 223.7,657.33 223.7,657.23 223.83,657.23 C 224.13,657.23 224.46,657.26 224.77,657.26 C 225.14,657.26 225.52,657.23 225.88,657.23 C 225.94,657.23 226.06,657.23 226.06,657.43 C 226.06,657.53 225.96,657.54 225.94,657.54 C 225.85,657.55 225.54,657.57 225.54,657.85 C 225.54,658.01 225.69,658.17 225.81,658.3 L 226.83,659.37 C 227.13,659.7 227.52,660.11 227.73,660.35 L 228.73,657.97 C 228.77,657.86 228.78,657.85 228.78,657.83 C 228.78,657.75 228.59,657.58 228.21,657.54 C 228.1,657.53 228.01,657.52 228.01,657.35 C 228.01,657.23 228.12,657.23 228.15,657.23 C 228.43,657.23 229.13,657.26 229.41,657.26 C 229.66,657.26 230.27,657.23 230.52,657.23 C 230.59,657.23 230.71,657.23 230.71,657.42 C 230.71,657.54 230.61,657.54 230.53,657.54 C 229.86,657.55 229.84,657.58 229.67,657.98 C 229.28,658.91 228.61,660.46 228.38,661.06 C 229.06,661.76 230.11,662.94 230.43,663.22 C 230.71,663.46 231.09,663.7 231.69,663.73 C 231.82,663.74 231.91,663.74 231.91,663.93 C 231.91,663.94 231.91,664.04 231.78,664.04 C 231.48,664.04 231.15,664.01 230.85,664.01 C 230.48,664.01 230.1,664.04 229.74,664.04 C 229.68,664.04 229.55,664.04 229.55,663.84 C 229.55,663.77 229.6,663.74 229.67,663.73 C 229.76,663.72 230.07,663.7 230.07,663.42 C 230.07,663.28 229.96,663.15 229.88,663.06 L 228.26,661.33 z"
   id="path3839"
   style="fill:#000000;stroke-width:0" />
</g>    <g
       ns0:preamble=""
       ns0:text="$Y$"
       word-spacing="normal"
       letter-spacing="normal"
       font-size-adjust="none"
       font-stretch="normal"
       font-weight="normal"
       font-variant="normal"
       font-style="normal"
       fill-rule="even-odd"
       stroke-miterlimit="10.433"
       transform="matrix(1,0,0,-1,-21.255,1039.775)"
       id="g3873"
       xml:space="preserve"
       style="font-style:normal;font-variant:normal;font-weight:normal;font-stretch:normal;letter-spacing:normal;word-spacing:normal;text-anchor:start;fill:none;fill-opacity:1;stroke:#000000;stroke-linecap:butt;stroke-linejoin:miter;stroke-miterlimit:10.43299961;stroke-dasharray:none;stroke-dashoffset:0;stroke-opacity:1">
<path
   id="path3875"
   d="M 229.38,662.9 L 229.52,663.04 C 229.82,663.34 230.15,663.68 230.82,663.73 C 230.93,663.74 231.02,663.74 231.02,663.92 C 231.02,664 230.97,664.04 230.89,664.04 C 230.63,664.04 230.35,664.01 230.08,664.01 C 229.75,664.01 229.4,664.04 229.08,664.04 C 229.02,664.04 228.89,664.04 228.89,663.85 C 228.89,663.74 228.99,663.73 229.04,663.73 C 229.11,663.73 229.4,663.71 229.4,663.5 C 229.4,663.33 229.17,663.07 229.13,663.02 L 226.82,660.36 L 225.72,663.32 C 225.66,663.46 225.66,663.48 225.66,663.49 C 225.66,663.73 226.15,663.73 226.25,663.73 C 226.39,663.73 226.49,663.73 226.49,663.93 C 226.49,664.04 226.37,664.04 226.34,664.04 C 226.06,664.04 225.37,664.01 225.09,664.01 C 224.84,664.01 224.22,664.04 223.97,664.04 C 223.91,664.04 223.78,664.04 223.78,663.84 C 223.78,663.73 223.88,663.73 224.01,663.73 C 224.61,663.73 224.65,663.64 224.74,663.39 L 225.96,660.11 C 225.97,660.08 226,659.97 226,659.94 C 226,659.91 225.6,658.31 225.55,658.13 C 225.43,657.58 225.41,657.55 224.62,657.54 C 224.43,657.54 224.35,657.54 224.35,657.34 C 224.35,657.23 224.47,657.23 224.49,657.23 C 224.77,657.23 225.46,657.26 225.74,657.26 C 226.02,657.26 226.74,657.23 227.02,657.23 C 227.09,657.23 227.21,657.23 227.21,657.43 C 227.21,657.54 227.12,657.54 226.93,657.54 C 226.91,657.54 226.72,657.54 226.55,657.56 C 226.34,657.58 226.28,657.6 226.28,657.72 C 226.28,657.79 226.37,658.14 226.42,658.35 C 226.59,659.01 226.62,659.16 226.77,659.75 C 226.82,659.94 226.83,659.97 226.91,660.06 L 229.38,662.9 z"
   style="fill:#000000;stroke-width:0" />
</g>    <g
       xml:space="preserve"
       id="g3913"
       transform="matrix(1,0,0,-1,-92.99,1158.73)"
       stroke-miterlimit="10.433"
       fill-rule="even-odd"
       font-style="normal"
       font-variant="normal"
       font-weight="normal"
       font-stretch="normal"
       font-size-adjust="none"
       letter-spacing="normal"
       word-spacing="normal"
       ns0:text="$Z$"
       ns0:preamble=""
       style="font-style:normal;font-variant:normal;font-weight:normal;font-stretch:normal;letter-spacing:normal;word-spacing:normal;text-anchor:start;fill:none;fill-opacity:1;stroke:#000000;stroke-linecap:butt;stroke-linejoin:miter;stroke-miterlimit:10.43299961;stroke-dasharray:none;stroke-dashoffset:0;stroke-opacity:1">
<path
   d="M 230.61,663.8 L 230.61,663.81 L 230.61,663.81 L 230.61,663.82 L 230.61,663.83 L 230.62,663.84 L 230.62,663.85 L 230.62,663.86 L 230.62,663.87 L 230.63,663.87 L 230.63,663.88 L 230.63,663.89 L 230.63,663.9 L 230.63,663.91 L 230.63,663.93 L 230.63,663.93 L 230.63,663.94 L 230.63,663.94 L 230.63,663.95 C 230.63,664.04 230.59,664.04 230.39,664.04 L 226.18,664.04 C 225.94,664.04 225.93,664.03 225.87,663.84 L 225.32,662.04 C 225.3,661.99 225.3,661.92 225.3,661.91 C 225.3,661.9 225.3,661.79 225.41,661.79 C 225.51,661.79 225.52,661.86 225.54,661.9 C 225.92,663.07 226.44,663.73 227.99,663.73 L 229.62,663.73 L 224.05,657.5 C 224.05,657.49 224.01,657.35 224.01,657.32 C 224.01,657.23 224.08,657.23 224.26,657.23 L 228.59,657.23 C 228.83,657.23 228.84,657.24 228.9,657.43 L 229.61,659.63 C 229.62,659.67 229.65,659.74 229.65,659.78 C 229.65,659.83 229.61,659.89 229.52,659.89 C 229.43,659.89 229.42,659.85 229.35,659.64 C 228.91,658.29 228.43,657.57 226.74,657.57 L 225.04,657.57 L 230.61,663.8 z"
   id="path3915"
   style="fill:#000000;stroke-width:0" />
</g>    <g
       ns0:preamble=""
       ns0:text="$X\\cup Z$"
       word-spacing="normal"
       letter-spacing="normal"
       font-size-adjust="none"
       font-stretch="normal"
       font-weight="normal"
       font-variant="normal"
       font-style="normal"
       fill-rule="even-odd"
       stroke-miterlimit="10.433"
       transform="matrix(1,0,0,-1,-102.45,1005.98)"
       id="g3957"
       xml:space="preserve"
       style="font-style:normal;font-variant:normal;font-weight:normal;font-stretch:normal;letter-spacing:normal;word-spacing:normal;text-anchor:start;fill:none;fill-opacity:1;stroke:#000000;stroke-linecap:butt;stroke-linejoin:miter;stroke-miterlimit:10.43299961;stroke-dasharray:none;stroke-dashoffset:0;stroke-opacity:1">
<path
   id="path3959"
   d="M 228.26,661.33 L 227.43,663.31 C 227.4,663.39 227.38,663.43 227.38,663.44 C 227.38,663.5 227.55,663.69 227.96,663.73 C 228.07,663.74 228.16,663.75 228.16,663.92 C 228.16,664.04 228.04,664.04 228.01,664.04 C 227.61,664.04 227.18,664.01 226.76,664.01 C 226.51,664.01 225.89,664.04 225.64,664.04 C 225.58,664.04 225.46,664.04 225.46,663.84 C 225.46,663.73 225.56,663.73 225.69,663.73 C 226.29,663.73 226.35,663.63 226.44,663.41 L 227.62,660.63 L 225.51,658.37 C 225.46,658.32 225.45,658.31 225.38,658.26 C 224.9,657.73 224.43,657.57 223.92,657.54 C 223.79,657.53 223.7,657.53 223.7,657.34 C 223.7,657.33 223.7,657.23 223.83,657.23 C 224.13,657.23 224.46,657.26 224.77,657.26 C 225.14,657.26 225.52,657.23 225.88,657.23 C 225.94,657.23 226.06,657.23 226.06,657.43 C 226.06,657.53 225.96,657.54 225.94,657.54 C 225.85,657.55 225.54,657.57 225.54,657.85 C 225.54,658.01 225.69,658.17 225.81,658.3 L 226.83,659.37 C 227.13,659.7 227.52,660.11 227.73,660.35 L 228.73,657.97 C 228.77,657.86 228.78,657.85 228.78,657.83 C 228.78,657.75 228.59,657.58 228.21,657.54 C 228.1,657.53 228.01,657.52 228.01,657.35 C 228.01,657.23 228.12,657.23 228.15,657.23 C 228.43,657.23 229.13,657.26 229.41,657.26 C 229.66,657.26 230.27,657.23 230.52,657.23 C 230.59,657.23 230.71,657.23 230.71,657.42 C 230.71,657.54 230.61,657.54 230.53,657.54 C 229.86,657.55 229.84,657.58 229.67,657.98 C 229.28,658.91 228.61,660.46 228.38,661.06 C 229.06,661.76 230.11,662.94 230.43,663.22 C 230.71,663.46 231.09,663.7 231.69,663.73 C 231.82,663.74 231.91,663.74 231.91,663.93 C 231.91,663.94 231.91,664.04 231.78,664.04 C 231.48,664.04 231.15,664.01 230.85,664.01 C 230.48,664.01 230.1,664.04 229.74,664.04 C 229.68,664.04 229.55,664.04 229.55,663.84 C 229.55,663.77 229.6,663.74 229.67,663.73 C 229.76,663.72 230.07,663.7 230.07,663.42 C 230.07,663.28 229.96,663.15 229.88,663.06 L 228.26,661.33 z"
   style="fill:#000000;stroke-width:0" />
<path
   id="path3961"
   d="M 240.76,662.86 L 240.76,662.89 L 240.76,662.92 L 240.76,662.94 L 240.76,662.96 L 240.76,662.97 L 240.76,662.99 L 240.75,663 L 240.75,663.01 L 240.75,663.03 L 240.75,663.04 L 240.74,663.05 L 240.74,663.07 L 240.73,663.08 L 240.73,663.09 L 240.72,663.1 L 240.72,663.11 L 240.71,663.12 L 240.7,663.13 L 240.7,663.14 L 240.69,663.15 L 240.68,663.15 L 240.68,663.16 L 240.67,663.16 L 240.66,663.17 L 240.66,663.17 L 240.65,663.17 L 240.65,663.17 L 240.64,663.18 L 240.63,663.18 L 240.63,663.18 L 240.62,663.18 L 240.61,663.19 L 240.6,663.19 L 240.6,663.19 L 240.59,663.19 L 240.58,663.19 L 240.57,663.19 L 240.56,663.19 C 240.36,663.19 240.36,663 240.36,662.86 L 240.36,659.21 C 240.36,657.88 238.96,657.41 238,657.41 C 237.05,657.41 235.64,657.87 235.64,659.21 L 235.64,662.86 C 235.64,663 235.64,663.19 235.44,663.19 C 235.24,663.19 235.24,663 235.24,662.86 L 235.24,659.17 C 235.24,657.72 236.7,657.01 238,657.01 C 239.3,657.01 240.76,657.73 240.76,659.17 L 240.76,662.86 z"
   style="fill:#000000;stroke-width:0" />
<path
   id="path3963"
   d="M 250.71,663.8 L 250.71,663.81 L 250.72,663.81 L 250.72,663.82 L 250.72,663.83 L 250.72,663.84 L 250.73,663.85 L 250.73,663.86 L 250.73,663.87 L 250.73,663.87 L 250.74,663.88 L 250.74,663.89 L 250.74,663.9 L 250.74,663.91 L 250.74,663.93 L 250.74,663.93 L 250.74,663.94 L 250.74,663.94 L 250.74,663.95 C 250.74,664.04 250.69,664.04 250.49,664.04 L 246.29,664.04 C 246.05,664.04 246.04,664.03 245.98,663.84 L 245.43,662.04 C 245.41,661.99 245.4,661.92 245.4,661.91 C 245.4,661.9 245.4,661.79 245.52,661.79 C 245.61,661.79 245.63,661.86 245.65,661.9 C 246.03,663.07 246.55,663.73 248.1,663.73 L 249.73,663.73 L 244.16,657.5 C 244.16,657.49 244.12,657.35 244.12,657.32 C 244.12,657.23 244.19,657.23 244.37,657.23 L 248.7,657.23 C 248.94,657.23 248.95,657.24 249.01,657.43 L 249.72,659.63 C 249.73,659.67 249.76,659.74 249.76,659.78 C 249.76,659.83 249.72,659.89 249.63,659.89 C 249.54,659.89 249.53,659.85 249.46,659.64 C 249.02,658.29 248.54,657.57 246.85,657.57 L 245.14,657.57 L 250.71,663.8 z"
   style="fill:#000000;stroke-width:0" />
</g>  </g>
</svg>
