<?xml version="1.0" encoding="UTF-8" standalone="no"?>
<!-- Created with Inkscape (http://www.inkscape.org/) -->
<svg
   xmlns:ns0="http://www.iki.fi/pav/software/textext/"
   xmlns:dc="http://purl.org/dc/elements/1.1/"
   xmlns:cc="http://creativecommons.org/ns#"
   xmlns:rdf="http://www.w3.org/1999/02/22-rdf-syntax-ns#"
   xmlns:svg="http://www.w3.org/2000/svg"
   xmlns="http://www.w3.org/2000/svg"
   xmlns:sodipodi="http://sodipodi.sourceforge.net/DTD/sodipodi-0.dtd"
   xmlns:inkscape="http://www.inkscape.org/namespaces/inkscape"
   width="765"
   height="990"
   id="svg2"
   sodipodi:version="0.32"
   inkscape:version="0.46"
   version="1.0"
   sodipodi:docname="setproof4.svg"
   inkscape:output_extension="org.inkscape.output.svg.inkscape">
  <sodipodi:namedview
     id="base"
     pagecolor="#ffffff"
     bordercolor="#666666"
     borderopacity="1.0"
     gridtolerance="10"
     guidetolerance="10"
     objecttolerance="10"
     inkscape:pageopacity="0.0"
     inkscape:pageshadow="2"
     inkscape:zoom="3.4577181"
     inkscape:cx="135"
     inkscape:cy="565.3125"
     inkscape:document-units="in"
     inkscape:current-layer="layer1"
     showgrid="true"
     units="in"
     inkscape:window-width="1440"
     inkscape:window-height="854"
     inkscape:window-x="0"
     inkscape:window-y="25"
     showguides="true"
     inkscape:guide-bbox="true">
    <inkscape:grid
       type="xygrid"
       id="grid3245"
       visible="true"
       enabled="true"
       units="in"
       spacingx="0.0625in"
       spacingy="0.0625in"
       empspacing="4" />
  </sodipodi:namedview>
  <defs
     id="defs4">
    <inkscape:perspective
       sodipodi:type="inkscape:persp3d"
       inkscape:vp_x="0 : 526.18109 : 1"
       inkscape:vp_y="0 : 1000 : 0"
       inkscape:vp_z="744.09448 : 526.18109 : 1"
       inkscape:persp3d-origin="372.04724 : 350.78739 : 1"
       id="perspective10" />
  </defs>
  <metadata
     id="metadata7">
    <rdf:RDF>
      <cc:Work
         rdf:about="">
        <dc:format>image/svg+xml</dc:format>
        <dc:type
           rdf:resource="http://purl.org/dc/dcmitype/StillImage" />
      </cc:Work>
    </rdf:RDF>
  </metadata>
  <g
     inkscape:label="Layer 1"
     inkscape:groupmode="layer"
     id="layer1">
    <path
       style="opacity:1;fill:#c8c8c8;fill-opacity:1;stroke:#000000;stroke-width:0;stroke-linejoin:bevel;stroke-miterlimit:4;stroke-dasharray:none;stroke-dashoffset:0;stroke-opacity:1"
       d="M 157.5,405.8125 C 157.35336,422.28092 148.32884,436.65221 135,444.375 C 141.62129,448.20896 149.30384,450.40625 157.5,450.40625 C 165.7009,450.40625 173.37639,448.21275 180,444.375 C 179.85332,427.90186 170.83568,413.53432 157.5,405.8125 z"
       id="path3236" />
    <path
       style="opacity:1;fill:#c8c8c8;fill-opacity:1;stroke:#000000;stroke-width:0;stroke-linejoin:bevel;stroke-miterlimit:4;stroke-dasharray:none;stroke-dashoffset:0;stroke-opacity:1"
       d="M 112.5,405.8125 C 99.164318,413.53432 90.146683,427.90186 90,444.375 C 96.623615,448.21275 104.2991,450.40625 112.5,450.40625 C 120.69616,450.40625 128.37871,448.20896 135,444.375 C 121.67116,436.65221 112.64664,422.28091 112.5,405.8125 z"
       id="path4003" />
    <path
       style="opacity:1;fill:#c8c8c8;fill-opacity:1;stroke:#000000;stroke-width:0;stroke-linejoin:bevel;stroke-miterlimit:4;stroke-dasharray:none;stroke-dashoffset:0;stroke-opacity:1"
       d="M 135,366.9579 C 121.55705,374.74341 112.5,389.25327 112.5,405.8954 C 112.5,406.03056 112.49881,406.16677 112.5,406.30165 C 119.11895,402.47129 126.80763,400.2704 135,400.2704 C 143.19237,400.2704 150.88105,402.47129 157.5,406.30165 C 157.50119,406.16677 157.5,406.03056 157.5,405.8954 C 157.5,389.25327 148.44295,374.74341 135,366.9579 z"
       id="path3330" />
    <rect
       style="opacity:1;fill:none;fill-opacity:1;stroke:#000000;stroke-width:0.625;stroke-linejoin:bevel;stroke-miterlimit:4;stroke-dasharray:none;stroke-dashoffset:0;stroke-opacity:1"
       id="rect3196"
       width="225"
       height="185.625"
       x="22.5"
       y="331.875" />
    <path
       style="opacity:1;fill:#c8c8c8;fill-opacity:1;stroke:#000000;stroke-width:0.62500000000000000;stroke-linejoin:bevel;stroke-miterlimit:4;stroke-dasharray:none;stroke-dashoffset:0;stroke-opacity:1"
       d="M 135,399.8125 C 126.80763,399.8125 119.11895,402.01339 112.5,405.84375 C 112.64667,422.31519 121.66713,436.65324 135,444.375 C 148.33287,436.65324 157.35333,422.31519 157.5,405.84375 C 150.88105,402.01339 143.19237,399.8125 135,399.8125 z"
       id="path3234" />
    <path
       style="opacity:1;fill:#c8c8c8;fill-opacity:1;stroke:#000000;stroke-width:0.62500000000000000;stroke-linejoin:bevel;stroke-miterlimit:4;stroke-dasharray:none;stroke-dashoffset:0;stroke-opacity:1"
       d="M 112.5,360.40625 C 87.66,360.40625 67.5,380.56625 67.5,405.40625 C 67.5,422.05388 76.549714,436.59138 90,444.375 C 90.145501,427.89688 99.15895,413.5329 112.5,405.8125 C 112.49879,405.67652 112.5,405.54252 112.5,405.40625 C 112.5,388.76412 121.55705,374.25426 135,366.46875 C 128.37804,362.63363 120.69787,360.40625 112.5,360.40625 z"
       id="path3306" />
    <path
       style="opacity:1;fill:none;fill-opacity:1;stroke:#000000;stroke-width:0.625;stroke-linejoin:bevel;stroke-miterlimit:4;stroke-dasharray:none;stroke-dashoffset:0;stroke-opacity:1"
       d="M 135,444.375 C 128.37804,448.21012 120.69787,450.4375 112.5,450.4375 C 104.30763,450.4375 96.61895,448.23661 90,444.40625 C 89.99879,444.54223 90,444.67623 90,444.8125 C 90,469.6525 110.16,489.8125 135,489.8125 C 159.84,489.8125 180,469.6525 180,444.8125 C 180,444.67623 180.00121,444.54223 180,444.40625 C 173.38105,448.23661 165.69237,450.4375 157.5,450.4375 C 149.30213,450.4375 141.62196,448.21012 135,444.375 z"
       id="path3303" />
    <path
       id="path3322"
       d="M 157.5,360.40625 C 182.34,360.40625 202.5,380.56625 202.5,405.40625 C 202.5,422.05388 193.45029,436.59138 180,444.375 C 179.8545,427.89688 170.84105,413.5329 157.5,405.8125 C 157.50121,405.67652 157.5,405.54252 157.5,405.40625 C 157.5,388.76412 148.44295,374.25426 135,366.46875 C 141.62196,362.63363 149.30213,360.40625 157.5,360.40625 z"
       style="opacity:1;fill:none;fill-opacity:1;stroke:#000000;stroke-width:0.625;stroke-linejoin:bevel;stroke-miterlimit:4;stroke-dasharray:none;stroke-dashoffset:0;stroke-opacity:1" />
    <g
       xml:space="preserve"
       id="content"
       transform="matrix(1,0,0,-1,-165.555,1040.185)"
       stroke-miterlimit="10.433"
       fill-rule="even-odd"
       font-style="normal"
       font-variant="normal"
       font-weight="normal"
       font-stretch="normal"
       font-size-adjust="none"
       letter-spacing="normal"
       word-spacing="normal"
       ns0:text="$X$"
       ns0:preamble=""
       style="font-style:normal;font-variant:normal;font-weight:normal;font-stretch:normal;letter-spacing:normal;word-spacing:normal;text-anchor:start;fill:none;fill-opacity:1;stroke:#000000;stroke-linecap:butt;stroke-linejoin:miter;stroke-miterlimit:10.43299961;stroke-dasharray:none;stroke-dashoffset:0;stroke-opacity:1">
<path
   d="M 228.26,661.33 L 227.43,663.31 C 227.4,663.39 227.38,663.43 227.38,663.44 C 227.38,663.5 227.55,663.69 227.96,663.73 C 228.07,663.74 228.16,663.75 228.16,663.92 C 228.16,664.04 228.04,664.04 228.01,664.04 C 227.61,664.04 227.18,664.01 226.76,664.01 C 226.51,664.01 225.89,664.04 225.64,664.04 C 225.58,664.04 225.46,664.04 225.46,663.84 C 225.46,663.73 225.56,663.73 225.69,663.73 C 226.29,663.73 226.35,663.63 226.44,663.41 L 227.62,660.63 L 225.51,658.37 C 225.46,658.32 225.45,658.31 225.38,658.26 C 224.9,657.73 224.43,657.57 223.92,657.54 C 223.79,657.53 223.7,657.53 223.7,657.34 C 223.7,657.33 223.7,657.23 223.83,657.23 C 224.13,657.23 224.46,657.26 224.77,657.26 C 225.14,657.26 225.52,657.23 225.88,657.23 C 225.94,657.23 226.06,657.23 226.06,657.43 C 226.06,657.53 225.96,657.54 225.94,657.54 C 225.85,657.55 225.54,657.57 225.54,657.85 C 225.54,658.01 225.69,658.17 225.81,658.3 L 226.83,659.37 C 227.13,659.7 227.52,660.11 227.73,660.35 L 228.73,657.97 C 228.77,657.86 228.78,657.85 228.78,657.83 C 228.78,657.75 228.59,657.58 228.21,657.54 C 228.1,657.53 228.01,657.52 228.01,657.35 C 228.01,657.23 228.12,657.23 228.15,657.23 C 228.43,657.23 229.13,657.26 229.41,657.26 C 229.66,657.26 230.27,657.23 230.52,657.23 C 230.59,657.23 230.71,657.23 230.71,657.42 C 230.71,657.54 230.61,657.54 230.53,657.54 C 229.86,657.55 229.84,657.58 229.67,657.98 C 229.28,658.91 228.61,660.46 228.38,661.06 C 229.06,661.76 230.11,662.94 230.43,663.22 C 230.71,663.46 231.09,663.7 231.69,663.73 C 231.82,663.74 231.91,663.74 231.91,663.93 C 231.91,663.94 231.91,664.04 231.78,664.04 C 231.48,664.04 231.15,664.01 230.85,664.01 C 230.48,664.01 230.1,664.04 229.74,664.04 C 229.68,664.04 229.55,664.04 229.55,663.84 C 229.55,663.77 229.6,663.74 229.67,663.73 C 229.76,663.72 230.07,663.7 230.07,663.42 C 230.07,663.28 229.96,663.15 229.88,663.06 L 228.26,661.33 z"
   id="path4039"
   style="fill:#000000;stroke-width:0" />
</g>    <g
       ns0:preamble=""
       ns0:text="$Y$"
       word-spacing="normal"
       letter-spacing="normal"
       font-size-adjust="none"
       font-stretch="normal"
       font-weight="normal"
       font-variant="normal"
       font-style="normal"
       fill-rule="even-odd"
       stroke-miterlimit="10.433"
       transform="matrix(1,0,0,-1,-21.395,1039.915)"
       id="g4073"
       xml:space="preserve"
       style="font-style:normal;font-variant:normal;font-weight:normal;font-stretch:normal;letter-spacing:normal;word-spacing:normal;text-anchor:start;fill:none;fill-opacity:1;stroke:#000000;stroke-linecap:butt;stroke-linejoin:miter;stroke-miterlimit:10.43299961;stroke-dasharray:none;stroke-dashoffset:0;stroke-opacity:1">
<path
   id="path4075"
   d="M 229.38,662.9 L 229.52,663.04 C 229.82,663.34 230.15,663.68 230.82,663.73 C 230.93,663.74 231.02,663.74 231.02,663.92 C 231.02,664 230.97,664.04 230.89,664.04 C 230.63,664.04 230.35,664.01 230.08,664.01 C 229.75,664.01 229.4,664.04 229.08,664.04 C 229.02,664.04 228.89,664.04 228.89,663.85 C 228.89,663.74 228.99,663.73 229.04,663.73 C 229.11,663.73 229.4,663.71 229.4,663.5 C 229.4,663.33 229.17,663.07 229.13,663.02 L 226.82,660.36 L 225.72,663.32 C 225.66,663.46 225.66,663.48 225.66,663.49 C 225.66,663.73 226.15,663.73 226.25,663.73 C 226.39,663.73 226.49,663.73 226.49,663.93 C 226.49,664.04 226.37,664.04 226.34,664.04 C 226.06,664.04 225.37,664.01 225.09,664.01 C 224.84,664.01 224.22,664.04 223.97,664.04 C 223.91,664.04 223.78,664.04 223.78,663.84 C 223.78,663.73 223.88,663.73 224.01,663.73 C 224.61,663.73 224.65,663.64 224.74,663.39 L 225.96,660.11 C 225.97,660.08 226,659.97 226,659.94 C 226,659.91 225.6,658.31 225.55,658.13 C 225.43,657.58 225.41,657.55 224.62,657.54 C 224.43,657.54 224.35,657.54 224.35,657.34 C 224.35,657.23 224.47,657.23 224.49,657.23 C 224.77,657.23 225.46,657.26 225.74,657.26 C 226.02,657.26 226.74,657.23 227.02,657.23 C 227.09,657.23 227.21,657.23 227.21,657.43 C 227.21,657.54 227.12,657.54 226.93,657.54 C 226.91,657.54 226.72,657.54 226.55,657.56 C 226.34,657.58 226.28,657.6 226.28,657.72 C 226.28,657.79 226.37,658.14 226.42,658.35 C 226.59,659.01 226.62,659.16 226.77,659.75 C 226.82,659.94 226.83,659.97 226.91,660.06 L 229.38,662.9 z"
   style="fill:#000000;stroke-width:0" />
</g>    <g
       xml:space="preserve"
       id="g4113"
       transform="matrix(1,0,0,-1,-92.99,1158.73)"
       stroke-miterlimit="10.433"
       fill-rule="even-odd"
       font-style="normal"
       font-variant="normal"
       font-weight="normal"
       font-stretch="normal"
       font-size-adjust="none"
       letter-spacing="normal"
       word-spacing="normal"
       ns0:text="$Z$"
       ns0:preamble=""
       style="font-style:normal;font-variant:normal;font-weight:normal;font-stretch:normal;letter-spacing:normal;word-spacing:normal;text-anchor:start;fill:none;fill-opacity:1;stroke:#000000;stroke-linecap:butt;stroke-linejoin:miter;stroke-miterlimit:10.43299961;stroke-dasharray:none;stroke-dashoffset:0;stroke-opacity:1">
<path
   d="M 230.61,663.8 L 230.61,663.81 L 230.61,663.81 L 230.61,663.82 L 230.61,663.83 L 230.62,663.84 L 230.62,663.85 L 230.62,663.86 L 230.62,663.87 L 230.63,663.87 L 230.63,663.88 L 230.63,663.89 L 230.63,663.9 L 230.63,663.91 L 230.63,663.93 L 230.63,663.93 L 230.63,663.94 L 230.63,663.94 L 230.63,663.95 C 230.63,664.04 230.59,664.04 230.39,664.04 L 226.18,664.04 C 225.94,664.04 225.93,664.03 225.87,663.84 L 225.32,662.04 C 225.3,661.99 225.3,661.92 225.3,661.91 C 225.3,661.9 225.3,661.79 225.41,661.79 C 225.51,661.79 225.52,661.86 225.54,661.9 C 225.92,663.07 226.44,663.73 227.99,663.73 L 229.62,663.73 L 224.05,657.5 C 224.05,657.49 224.01,657.35 224.01,657.32 C 224.01,657.23 224.08,657.23 224.26,657.23 L 228.59,657.23 C 228.83,657.23 228.84,657.24 228.9,657.43 L 229.61,659.63 C 229.62,659.67 229.65,659.74 229.65,659.78 C 229.65,659.83 229.61,659.89 229.52,659.89 C 229.43,659.89 229.42,659.85 229.35,659.64 C 228.91,658.29 228.43,657.57 226.74,657.57 L 225.04,657.57 L 230.61,663.8 z"
   id="path4115"
   style="fill:#000000;stroke-width:0" />
</g>    <g
       ns0:preamble=""
       ns0:text="$(X\\cup Y)\\cap(X\\cup Z)$"
       word-spacing="normal"
       letter-spacing="normal"
       font-size-adjust="none"
       font-stretch="normal"
       font-weight="normal"
       font-variant="normal"
       font-style="normal"
       fill-rule="even-odd"
       stroke-miterlimit="10.433"
       transform="matrix(1,0,0,-1,-128.935,1007.165)"
       id="g4157"
       xml:space="preserve"
       style="font-style:normal;font-variant:normal;font-weight:normal;font-stretch:normal;letter-spacing:normal;word-spacing:normal;text-anchor:start;fill:none;fill-opacity:1;stroke:#000000;stroke-linecap:butt;stroke-linejoin:miter;stroke-miterlimit:10.43299961;stroke-dasharray:none;stroke-dashoffset:0;stroke-opacity:1">
<path
   id="path4159"
   d="M 226.73,654.84 L 226.73,654.85 L 226.73,654.85 L 226.73,654.85 L 226.73,654.86 L 226.73,654.86 L 226.73,654.86 L 226.73,654.87 L 226.72,654.87 L 226.72,654.87 L 226.72,654.88 L 226.72,654.88 L 226.72,654.89 L 226.71,654.89 L 226.71,654.9 L 226.7,654.9 L 226.7,654.91 L 226.69,654.92 L 226.69,654.92 L 226.69,654.93 L 226.68,654.93 L 226.68,654.94 L 226.68,654.94 L 226.67,654.95 L 226.67,654.95 L 226.66,654.95 L 226.66,654.96 L 226.65,654.96 L 226.65,654.97 L 226.64,654.97 L 226.64,654.98 L 226.63,654.99 L 226.63,654.99 L 226.62,655 L 226.62,655 L 226.61,655.01 L 226.6,655.02 L 226.6,655.02 L 226.59,655.03 L 226.58,655.04 L 226.58,655.05 L 226.57,655.05 L 226.56,655.06 C 225.32,656.32 225,658.2 225,659.72 C 225,661.46 225.38,663.19 226.6,664.43 C 226.73,664.55 226.73,664.58 226.73,664.6 C 226.73,664.67 226.69,664.7 226.63,664.7 C 226.53,664.7 225.63,664.03 225.05,662.76 C 224.54,661.67 224.42,660.56 224.42,659.72 C 224.42,658.95 224.53,657.74 225.08,656.61 C 225.67,655.39 226.53,654.74 226.63,654.74 C 226.69,654.74 226.73,654.77 226.73,654.84 z"
   style="fill:#000000;stroke-width:0" />
<path
   id="path4161"
   d="M 232.13,661.33 L 231.3,663.31 C 231.27,663.39 231.25,663.43 231.25,663.44 C 231.25,663.5 231.42,663.69 231.84,663.73 C 231.93,663.74 232.04,663.75 232.04,663.92 C 232.04,664.04 231.91,664.04 231.88,664.04 C 231.48,664.04 231.05,664.01 230.63,664.01 C 230.38,664.01 229.76,664.04 229.51,664.04 C 229.45,664.04 229.34,664.04 229.34,663.84 C 229.34,663.73 229.43,663.73 229.56,663.73 C 230.16,663.73 230.22,663.63 230.31,663.41 L 231.49,660.63 L 229.38,658.37 C 229.32,658.32 229.32,658.31 229.26,658.26 C 228.77,657.73 228.3,657.57 227.79,657.54 C 227.66,657.53 227.57,657.53 227.57,657.34 C 227.57,657.33 227.57,657.23 227.7,657.23 C 228,657.23 228.33,657.26 228.64,657.26 C 229.01,657.26 229.4,657.23 229.75,657.23 C 229.81,657.23 229.93,657.23 229.93,657.43 C 229.93,657.53 229.83,657.54 229.81,657.54 C 229.72,657.55 229.41,657.57 229.41,657.85 C 229.41,658.01 229.56,658.17 229.68,658.3 L 230.7,659.37 C 231,659.7 231.39,660.11 231.6,660.35 L 232.6,657.97 C 232.64,657.86 232.65,657.85 232.65,657.83 C 232.65,657.75 232.46,657.58 232.07,657.54 C 231.96,657.53 231.88,657.52 231.88,657.35 C 231.88,657.23 231.99,657.23 232.02,657.23 C 232.3,657.23 233,657.26 233.28,657.26 C 233.53,657.26 234.14,657.23 234.39,657.23 C 234.46,657.23 234.57,657.23 234.57,657.42 C 234.57,657.54 234.48,657.54 234.4,657.54 C 233.73,657.55 233.71,657.58 233.54,657.98 C 233.15,658.91 232.48,660.46 232.25,661.06 C 232.93,661.76 233.98,662.94 234.3,663.22 C 234.59,663.46 234.96,663.7 235.56,663.73 C 235.69,663.74 235.78,663.74 235.78,663.93 C 235.78,663.94 235.78,664.04 235.65,664.04 C 235.35,664.04 235.02,664.01 234.71,664.01 C 234.35,664.01 233.97,664.04 233.61,664.04 C 233.55,664.04 233.42,664.04 233.42,663.84 C 233.42,663.77 233.47,663.74 233.54,663.73 C 233.63,663.72 233.94,663.7 233.94,663.42 C 233.94,663.28 233.83,663.15 233.75,663.06 L 232.13,661.33 z"
   style="fill:#000000;stroke-width:0" />
<path
   id="path4163"
   d="M 244.63,662.86 L 244.63,662.89 L 244.63,662.92 L 244.63,662.94 L 244.63,662.96 L 244.63,662.97 L 244.63,662.99 L 244.62,663 L 244.62,663.01 L 244.62,663.03 L 244.62,663.04 L 244.61,663.05 L 244.61,663.07 L 244.61,663.08 L 244.6,663.09 L 244.59,663.1 L 244.59,663.11 L 244.58,663.12 L 244.57,663.13 L 244.57,663.14 L 244.56,663.15 L 244.55,663.15 L 244.55,663.16 L 244.54,663.16 L 244.53,663.17 L 244.53,663.17 L 244.52,663.17 L 244.52,663.17 L 244.51,663.18 L 244.5,663.18 L 244.5,663.18 L 244.49,663.18 L 244.48,663.19 L 244.47,663.19 L 244.47,663.19 L 244.46,663.19 L 244.45,663.19 L 244.44,663.19 L 244.43,663.19 C 244.23,663.19 244.23,663 244.23,662.86 L 244.23,659.21 C 244.23,657.88 242.83,657.41 241.87,657.41 C 240.92,657.41 239.51,657.87 239.51,659.21 L 239.51,662.86 C 239.51,663 239.51,663.19 239.31,663.19 C 239.11,663.19 239.11,663 239.11,662.86 L 239.11,659.17 C 239.11,657.72 240.57,657.01 241.87,657.01 C 243.18,657.01 244.63,657.73 244.63,659.17 L 244.63,662.86 z"
   style="fill:#000000;stroke-width:0" />
<path
   id="path4165"
   d="M 253.36,662.9 L 253.5,663.04 C 253.8,663.34 254.12,663.68 254.8,663.73 C 254.91,663.74 255,663.74 255,663.92 C 255,664 254.95,664.04 254.87,664.04 C 254.61,664.04 254.32,664.01 254.05,664.01 C 253.73,664.01 253.38,664.04 253.06,664.04 C 253,664.04 252.87,664.04 252.87,663.85 C 252.87,663.74 252.97,663.73 253.02,663.73 C 253.09,663.73 253.38,663.71 253.38,663.5 C 253.38,663.33 253.15,663.07 253.11,663.02 L 250.8,660.36 L 249.7,663.32 C 249.64,663.46 249.64,663.48 249.64,663.49 C 249.64,663.73 250.13,663.73 250.23,663.73 C 250.37,663.73 250.47,663.73 250.47,663.93 C 250.47,664.04 250.35,664.04 250.32,664.04 C 250.04,664.04 249.34,664.01 249.06,664.01 C 248.82,664.01 248.2,664.04 247.95,664.04 C 247.89,664.04 247.76,664.04 247.76,663.84 C 247.76,663.73 247.86,663.73 247.99,663.73 C 248.59,663.73 248.62,663.64 248.71,663.39 L 249.94,660.11 C 249.95,660.08 249.98,659.97 249.98,659.94 C 249.98,659.91 249.58,658.31 249.53,658.13 C 249.4,657.58 249.39,657.55 248.6,657.54 C 248.41,657.54 248.33,657.54 248.33,657.34 C 248.33,657.23 248.45,657.23 248.47,657.23 C 248.74,657.23 249.44,657.26 249.72,657.26 C 250,657.26 250.72,657.23 251,657.23 C 251.07,657.23 251.19,657.23 251.19,657.43 C 251.19,657.54 251.1,657.54 250.91,657.54 C 250.89,657.54 250.7,657.54 250.53,657.56 C 250.32,657.58 250.26,657.6 250.26,657.72 C 250.26,657.79 250.35,658.14 250.4,658.35 C 250.57,659.01 250.6,659.16 250.75,659.75 C 250.8,659.94 250.81,659.97 250.89,660.06 L 253.36,662.9 z"
   style="fill:#000000;stroke-width:0" />
<path
   id="path4167"
   d="M 258.29,659.72 L 258.29,659.8 L 258.29,659.87 L 258.29,659.95 L 258.29,660.03 L 258.28,660.2 L 258.27,660.38 L 258.25,660.56 L 258.23,660.75 L 258.2,660.95 L 258.17,661.15 L 258.13,661.35 L 258.08,661.56 L 258.03,661.77 L 257.97,661.98 L 257.9,662.19 L 257.82,662.41 L 257.78,662.51 L 257.73,662.62 L 257.68,662.73 L 257.63,662.83 C 257.04,664.06 256.18,664.7 256.08,664.7 C 256.02,664.7 255.98,664.66 255.98,664.6 C 255.98,664.58 255.98,664.55 256.17,664.38 C 257.15,663.39 257.71,661.8 257.71,659.72 C 257.71,658.02 257.35,656.27 256.11,655.01 C 255.98,654.89 255.98,654.87 255.98,654.84 C 255.98,654.78 256.02,654.74 256.08,654.74 C 256.18,654.74 257.08,655.42 257.66,656.68 C 258.17,657.78 258.29,658.89 258.29,659.72 z"
   style="fill:#000000;stroke-width:0" />
<path
   id="path4169"
   d="M 267.57,661.03 L 267.57,661.16 L 267.56,661.29 L 267.53,661.42 L 267.51,661.54 L 267.47,661.66 L 267.43,661.77 L 267.38,661.88 L 267.32,661.98 L 267.26,662.08 L 267.19,662.17 L 267.12,662.26 L 267.04,662.35 L 266.96,662.43 L 266.87,662.51 L 266.78,662.59 L 266.68,662.65 L 266.58,662.72 L 266.48,662.78 L 266.37,662.84 L 266.26,662.89 L 266.15,662.94 L 266.03,662.98 L 265.91,663.02 L 265.79,663.06 L 265.67,663.09 L 265.55,663.12 L 265.43,663.14 L 265.31,663.16 L 265.18,663.17 L 265.06,663.18 L 264.94,663.19 L 264.81,663.19 C 263.51,663.19 262.05,662.47 262.05,661.03 L 262.05,657.34 C 262.05,657.2 262.05,657.01 262.25,657.01 C 262.45,657.01 262.45,657.2 262.45,657.34 L 262.45,661 C 262.45,662.32 263.86,662.79 264.81,662.79 C 265.76,662.79 267.17,662.33 267.17,661 L 267.17,657.34 C 267.17,657.2 267.17,657.01 267.37,657.01 C 267.57,657.01 267.57,657.2 267.57,657.34 L 267.57,661.03 z"
   style="fill:#000000;stroke-width:0" />
<path
   id="path4171"
   d="M 273.65,654.84 L 273.65,654.85 L 273.65,654.85 L 273.65,654.85 L 273.65,654.86 L 273.65,654.86 L 273.65,654.86 L 273.65,654.87 L 273.64,654.87 L 273.64,654.87 L 273.64,654.88 L 273.64,654.88 L 273.64,654.89 L 273.63,654.89 L 273.63,654.9 L 273.62,654.9 L 273.62,654.91 L 273.61,654.92 L 273.61,654.92 L 273.61,654.93 L 273.6,654.93 L 273.6,654.94 L 273.6,654.94 L 273.59,654.95 L 273.59,654.95 L 273.58,654.95 L 273.58,654.96 L 273.57,654.96 L 273.57,654.97 L 273.56,654.97 L 273.56,654.98 L 273.55,654.99 L 273.55,654.99 L 273.54,655 L 273.54,655 L 273.53,655.01 L 273.52,655.02 L 273.52,655.02 L 273.51,655.03 L 273.5,655.04 L 273.5,655.05 L 273.49,655.05 L 273.48,655.06 C 272.23,656.32 271.92,658.2 271.92,659.72 C 271.92,661.46 272.3,663.19 273.52,664.43 C 273.65,664.55 273.65,664.58 273.65,664.6 C 273.65,664.67 273.61,664.7 273.55,664.7 C 273.45,664.7 272.55,664.03 271.97,662.76 C 271.46,661.67 271.34,660.56 271.34,659.72 C 271.34,658.95 271.45,657.74 272,656.61 C 272.59,655.39 273.45,654.74 273.55,654.74 C 273.61,654.74 273.65,654.77 273.65,654.84 z"
   style="fill:#000000;stroke-width:0" />
<path
   id="path4173"
   d="M 279.06,661.33 L 278.23,663.31 C 278.2,663.39 278.17,663.43 278.17,663.44 C 278.17,663.5 278.35,663.69 278.76,663.73 C 278.86,663.74 278.96,663.75 278.96,663.92 C 278.96,664.04 278.84,664.04 278.81,664.04 C 278.4,664.04 277.98,664.01 277.56,664.01 C 277.31,664.01 276.69,664.04 276.44,664.04 C 276.38,664.04 276.26,664.04 276.26,663.84 C 276.26,663.73 276.36,663.73 276.49,663.73 C 277.09,663.73 277.15,663.63 277.24,663.41 L 278.41,660.63 L 276.31,658.37 C 276.25,658.32 276.24,658.31 276.18,658.26 C 275.69,657.73 275.23,657.57 274.72,657.54 C 274.59,657.53 274.5,657.53 274.5,657.34 C 274.5,657.33 274.5,657.23 274.63,657.23 C 274.93,657.23 275.26,657.26 275.57,657.26 C 275.93,657.26 276.32,657.23 276.68,657.23 C 276.74,657.23 276.86,657.23 276.86,657.43 C 276.86,657.53 276.76,657.54 276.74,657.54 C 276.65,657.55 276.34,657.57 276.34,657.85 C 276.34,658.01 276.49,658.17 276.61,658.3 L 277.63,659.37 C 277.93,659.7 278.32,660.11 278.52,660.35 L 279.53,657.97 C 279.57,657.86 279.58,657.85 279.58,657.83 C 279.58,657.75 279.39,657.58 279,657.54 C 278.89,657.53 278.8,657.52 278.8,657.35 C 278.8,657.23 278.91,657.23 278.95,657.23 C 279.23,657.23 279.93,657.26 280.21,657.26 C 280.46,657.26 281.06,657.23 281.31,657.23 C 281.38,657.23 281.5,657.23 281.5,657.42 C 281.5,657.54 281.4,657.54 281.32,657.54 C 280.66,657.55 280.64,657.58 280.47,657.98 C 280.08,658.91 279.41,660.46 279.18,661.06 C 279.86,661.76 280.9,662.94 281.22,663.22 C 281.51,663.46 281.89,663.7 282.49,663.73 C 282.62,663.74 282.71,663.74 282.71,663.93 C 282.71,663.94 282.71,664.04 282.58,664.04 C 282.28,664.04 281.95,664.01 281.64,664.01 C 281.27,664.01 280.89,664.04 280.54,664.04 C 280.48,664.04 280.35,664.04 280.35,663.84 C 280.35,663.77 280.4,663.74 280.47,663.73 C 280.56,663.72 280.86,663.7 280.86,663.42 C 280.86,663.28 280.76,663.15 280.68,663.06 L 279.06,661.33 z"
   style="fill:#000000;stroke-width:0" />
<path
   id="path4175"
   d="M 291.56,662.86 L 291.56,662.89 L 291.56,662.92 L 291.56,662.94 L 291.55,662.96 L 291.55,662.97 L 291.55,662.99 L 291.55,663 L 291.55,663.01 L 291.55,663.03 L 291.54,663.04 L 291.54,663.05 L 291.54,663.07 L 291.53,663.08 L 291.53,663.09 L 291.52,663.1 L 291.52,663.11 L 291.51,663.12 L 291.5,663.13 L 291.49,663.14 L 291.48,663.15 L 291.48,663.15 L 291.47,663.16 L 291.47,663.16 L 291.46,663.17 L 291.46,663.17 L 291.45,663.17 L 291.44,663.17 L 291.44,663.18 L 291.43,663.18 L 291.42,663.18 L 291.42,663.18 L 291.41,663.19 L 291.4,663.19 L 291.39,663.19 L 291.38,663.19 L 291.38,663.19 L 291.37,663.19 L 291.36,663.19 C 291.16,663.19 291.16,663 291.16,662.86 L 291.16,659.21 C 291.16,657.88 289.75,657.41 288.8,657.41 C 287.85,657.41 286.44,657.87 286.44,659.21 L 286.44,662.86 C 286.44,663 286.44,663.19 286.24,663.19 C 286.04,663.19 286.04,663 286.04,662.86 L 286.04,659.17 C 286.04,657.72 287.49,657.01 288.8,657.01 C 290.1,657.01 291.56,657.73 291.56,659.17 L 291.56,662.86 z"
   style="fill:#000000;stroke-width:0" />
<path
   id="path4177"
   d="M 301.5,663.8 L 301.5,663.81 L 301.51,663.81 L 301.51,663.82 L 301.51,663.83 L 301.51,663.84 L 301.52,663.85 L 301.52,663.86 L 301.52,663.87 L 301.52,663.87 L 301.53,663.88 L 301.53,663.89 L 301.53,663.9 L 301.53,663.91 L 301.53,663.93 L 301.53,663.93 L 301.53,663.94 L 301.53,663.94 L 301.53,663.95 C 301.53,664.04 301.48,664.04 301.28,664.04 L 297.08,664.04 C 296.84,664.04 296.83,664.03 296.77,663.84 L 296.22,662.04 C 296.2,661.99 296.19,661.92 296.19,661.91 C 296.19,661.9 296.19,661.79 296.31,661.79 C 296.4,661.79 296.42,661.86 296.44,661.9 C 296.82,663.07 297.34,663.73 298.89,663.73 L 300.52,663.73 L 294.95,657.5 C 294.95,657.49 294.91,657.35 294.91,657.32 C 294.91,657.23 294.98,657.23 295.16,657.23 L 299.49,657.23 C 299.73,657.23 299.74,657.24 299.8,657.43 L 300.51,659.63 C 300.52,659.67 300.55,659.74 300.55,659.78 C 300.55,659.83 300.51,659.89 300.42,659.89 C 300.33,659.89 300.32,659.85 300.25,659.64 C 299.81,658.29 299.33,657.57 297.64,657.57 L 295.93,657.57 L 301.5,663.8 z"
   style="fill:#000000;stroke-width:0" />
<path
   id="path4179"
   d="M 304.72,659.72 L 304.72,659.8 L 304.72,659.87 L 304.72,659.95 L 304.72,660.03 L 304.71,660.2 L 304.7,660.38 L 304.68,660.56 L 304.66,660.75 L 304.63,660.95 L 304.6,661.15 L 304.56,661.35 L 304.52,661.56 L 304.46,661.77 L 304.4,661.98 L 304.33,662.19 L 304.25,662.41 L 304.21,662.51 L 304.16,662.62 L 304.12,662.73 L 304.07,662.83 C 303.47,664.06 302.61,664.7 302.51,664.7 C 302.45,664.7 302.41,664.66 302.41,664.6 C 302.41,664.58 302.41,664.55 302.6,664.38 C 303.58,663.39 304.15,661.8 304.15,659.72 C 304.15,658.02 303.78,656.27 302.54,655.01 C 302.41,654.89 302.41,654.87 302.41,654.84 C 302.41,654.78 302.45,654.74 302.51,654.74 C 302.61,654.74 303.51,655.42 304.1,656.68 C 304.61,657.78 304.72,658.89 304.72,659.72 z"
   style="fill:#000000;stroke-width:0" />
</g>  </g>
</svg>
