<?xml version="1.0" encoding="UTF-8" standalone="no"?>
<!-- Created with Inkscape (http://www.inkscape.org/) -->
<svg
   xmlns:ns0="http://www.iki.fi/pav/software/textext/"
   xmlns:dc="http://purl.org/dc/elements/1.1/"
   xmlns:cc="http://creativecommons.org/ns#"
   xmlns:rdf="http://www.w3.org/1999/02/22-rdf-syntax-ns#"
   xmlns:svg="http://www.w3.org/2000/svg"
   xmlns="http://www.w3.org/2000/svg"
   xmlns:xlink="http://www.w3.org/1999/xlink"
   xmlns:sodipodi="http://sodipodi.sourceforge.net/DTD/sodipodi-0.dtd"
   xmlns:inkscape="http://www.inkscape.org/namespaces/inkscape"
   id="svg2"
   sodipodi:version="0.32"
   inkscape:version="0.46"
   width="990"
   height="765"
   version="1.0"
   sodipodi:docname="symTriComp2.svg"
   inkscape:output_extension="org.inkscape.output.svg.inkscape">
  <sodipodi:namedview
     inkscape:window-height="723"
     inkscape:window-width="1162"
     inkscape:pageshadow="2"
     inkscape:pageopacity="0.0"
     guidetolerance="10.0"
     gridtolerance="10.0"
     objecttolerance="10.0"
     borderopacity="1.0"
     bordercolor="#666666"
     pagecolor="#ffffff"
     id="base"
     showgrid="true"
     inkscape:zoom="2.5615883"
     inkscape:cx="433.72237"
     inkscape:cy="620.75"
     inkscape:window-x="100"
     inkscape:window-y="0"
     inkscape:current-layer="svg2"
     inkscape:document-units="in"
     inkscape:snap-intersection-line-segments="true"
     inkscape:snap-bbox="true"
     inkscape:object-paths="true"
     inkscape:object-nodes="true"
     inkscape:snap-intersection-grid-guide="true"
     inkscape:snap-center="true"
     showguides="true"
     inkscape:guide-bbox="true">
    <inkscape:grid
       type="xygrid"
       id="grid2395"
       units="in"
       visible="true"
       enabled="true"
       spacingx="0.125in"
       spacingy="0.125in"
       empspacing="4" />
  </sodipodi:namedview>
  <metadata
     id="metadata7">
    <rdf:RDF>
      <cc:Work
         rdf:about="">
        <dc:format>image/svg+xml</dc:format>
        <dc:type
           rdf:resource="http://purl.org/dc/dcmitype/StillImage" />
      </cc:Work>
    </rdf:RDF>
  </metadata>
  <defs
     id="defs5">
    <marker
       inkscape:stockid="Arrow1Send"
       orient="auto"
       refY="0.0"
       refX="0.0"
       id="Arrow1Send"
       style="overflow:visible;">
      <path
         id="path3189"
         d="M 0.0,0.0 L 5.0,-5.0 L -12.5,0.0 L 5.0,5.0 L 0.0,0.0 z "
         style="fill-rule:evenodd;stroke:#000000;stroke-width:1.0pt;marker-start:none;"
         transform="scale(0.2) rotate(180) translate(6,0)" />
    </marker>
    <marker
       inkscape:stockid="Arrow2Lend"
       orient="auto"
       refY="0.0"
       refX="0.0"
       id="Arrow2Lend"
       style="overflow:visible;">
      <path
         id="path3195"
         style="font-size:12.0;fill-rule:evenodd;stroke-width:0.62500000;stroke-linejoin:round;"
         d="M 8.7185878,4.0337352 L -2.2072895,0.016013256 L 8.7185884,-4.0017078 C 6.9730900,-1.6296469 6.9831476,1.6157441 8.7185878,4.0337352 z "
         transform="scale(1.1) rotate(180) translate(1,0)" />
    </marker>
    <marker
       inkscape:stockid="Arrow2Mend"
       orient="auto"
       refY="0.0"
       refX="0.0"
       id="Arrow2Mend"
       style="overflow:visible;">
      <path
         id="path3201"
         style="font-size:12.0;fill-rule:evenodd;stroke-width:0.62500000;stroke-linejoin:round;"
         d="M 8.7185878,4.0337352 L -2.2072895,0.016013256 L 8.7185884,-4.0017078 C 6.9730900,-1.6296469 6.9831476,1.6157441 8.7185878,4.0337352 z "
         transform="scale(0.6) rotate(180) translate(0,0)" />
    </marker>
    <marker
       inkscape:stockid="Arrow1Mstart"
       orient="auto"
       refY="0.0"
       refX="0.0"
       id="Arrow1Mstart"
       style="overflow:visible">
      <path
         id="path3180"
         d="M 0.0,0.0 L 5.0,-5.0 L -12.5,0.0 L 5.0,5.0 L 0.0,0.0 z "
         style="fill-rule:evenodd;stroke:#000000;stroke-width:1.0pt;marker-start:none"
         transform="scale(0.4) translate(10,0)" />
    </marker>
    <inkscape:perspective
       sodipodi:type="inkscape:persp3d"
       inkscape:vp_x="0 : 526.18109 : 1"
       inkscape:vp_y="0 : 1000 : 0"
       inkscape:vp_z="744.09448 : 526.18109 : 1"
       inkscape:persp3d-origin="372.04724 : 350.78739 : 1"
       id="perspective9" />
    <marker
       inkscape:stockid="Arrow2LendH"
       orient="auto"
       refY="0.0"
       refX="0.0"
       id="Arrow2LendH"
       style="overflow:visible;">
      <path
         id="path11517"
         style="stroke-linejoin:round;font-size:12.0;fill-rule:evenodd;stroke:#000000;stroke-width:0.62500000;fill:#000000"
         d="M 8.7185878,4.0337352 L -2.2072895,0.016013256 L 8.7185884,-4.0017078 C 6.9730900,-1.6296469 6.9831476,1.6157441 8.7185878,4.0337352 z "
         transform="scale(1.1) rotate(180) translate(1,0)" />
    </marker>
    <marker
       inkscape:stockid="Arrow1SendJ"
       orient="auto"
       refY="0.0"
       refX="0.0"
       id="Arrow1SendJ"
       style="overflow:visible;">
      <path
         id="path11606"
         d="M 0.0,0.0 L 5.0,-5.0 L -12.5,0.0 L 5.0,5.0 L 0.0,0.0 z "
         style="marker-start:none;stroke:#7f7f7f;stroke-width:1.0pt;fill:#7f7f7f;fill-rule:evenodd"
         transform="scale(0.2) rotate(180) translate(6,0)" />
    </marker>
    <marker
       inkscape:stockid="Arrow1SendJm"
       orient="auto"
       refY="0.0"
       refX="0.0"
       id="Arrow1SendJm"
       style="overflow:visible;">
      <path
         id="path11817"
         d="M 0.0,0.0 L 5.0,-5.0 L -12.5,0.0 L 5.0,5.0 L 0.0,0.0 z "
         style="fill-rule:evenodd;marker-start:none;stroke:#a6a6a6;stroke-width:1.0pt;fill:#a6a6a6"
         transform="scale(0.2) rotate(180) translate(6,0)" />
    </marker>
    <defs
       id="defs3444">
      <g
         id="g3446">
        <symbol
           overflow="visible"
           id="textext-767a047d-0">
          <path
             style="stroke:none;"
             d=""
             id="path3449" />
        </symbol>
        <symbol
           overflow="visible"
           id="textext-767a047d-1">
          <path
             style="stroke:none;"
             d="M 3.296875 2.390625 C 3.296875 2.359375 3.296875 2.34375 3.125 2.171875 C 1.890625 0.921875 1.5625 -0.96875 1.5625 -2.5 C 1.5625 -4.234375 1.9375 -5.96875 3.171875 -7.203125 C 3.296875 -7.328125 3.296875 -7.34375 3.296875 -7.375 C 3.296875 -7.453125 3.265625 -7.484375 3.203125 -7.484375 C 3.09375 -7.484375 2.203125 -6.796875 1.609375 -5.53125 C 1.109375 -4.4375 0.984375 -3.328125 0.984375 -2.5 C 0.984375 -1.71875 1.09375 -0.515625 1.640625 0.625 C 2.25 1.84375 3.09375 2.5 3.203125 2.5 C 3.265625 2.5 3.296875 2.46875 3.296875 2.390625 Z M 3.296875 2.390625 "
             id="path3452" />
        </symbol>
        <symbol
           overflow="visible"
           id="textext-767a047d-2">
          <path
             style="stroke:none;"
             d="M 0.28125 -1.640625 L 2.9375 -1.640625 L 2.9375 -0.78125 C 2.9375 -0.421875 2.90625 -0.3125 2.171875 -0.3125 L 1.96875 -0.3125 L 1.96875 0 C 2.375 -0.03125 2.890625 -0.03125 3.3125 -0.03125 C 3.734375 -0.03125 4.25 -0.03125 4.671875 0 L 4.671875 -0.3125 L 4.453125 -0.3125 C 3.71875 -0.3125 3.703125 -0.421875 3.703125 -0.78125 L 3.703125 -1.640625 L 4.6875 -1.640625 L 4.6875 -1.953125 L 3.703125 -1.953125 L 3.703125 -6.484375 C 3.703125 -6.6875 3.703125 -6.75 3.53125 -6.75 C 3.453125 -6.75 3.421875 -6.75 3.34375 -6.625 L 0.28125 -1.953125 L 0.28125 -1.640625 Z M 2.984375 -1.953125 L 0.5625 -1.953125 L 2.984375 -5.671875 L 2.984375 -1.953125 Z M 2.984375 -1.953125 "
             id="path3455" />
        </symbol>
        <symbol
           overflow="visible"
           id="textext-767a047d-3">
          <path
             style="stroke:none;"
             d="M 4.46875 -1.734375 L 4.234375 -1.734375 C 4.171875 -1.4375 4.109375 -1 4 -0.84375 C 3.9375 -0.765625 3.28125 -0.765625 3.0625 -0.765625 L 1.265625 -0.765625 L 2.328125 -1.796875 C 3.875 -3.171875 4.46875 -3.703125 4.46875 -4.703125 C 4.46875 -5.84375 3.578125 -6.640625 2.359375 -6.640625 C 1.234375 -6.640625 0.5 -5.71875 0.5 -4.828125 C 0.5 -4.28125 1 -4.28125 1.03125 -4.28125 C 1.203125 -4.28125 1.546875 -4.390625 1.546875 -4.8125 C 1.546875 -5.0625 1.359375 -5.328125 1.015625 -5.328125 C 0.9375 -5.328125 0.921875 -5.328125 0.890625 -5.3125 C 1.109375 -5.96875 1.65625 -6.328125 2.234375 -6.328125 C 3.140625 -6.328125 3.5625 -5.515625 3.5625 -4.703125 C 3.5625 -3.90625 3.078125 -3.125 2.515625 -2.5 L 0.609375 -0.375 C 0.5 -0.265625 0.5 -0.234375 0.5 0 L 4.203125 0 L 4.46875 -1.734375 Z M 4.46875 -1.734375 "
             id="path3458" />
        </symbol>
        <symbol
           overflow="visible"
           id="textext-767a047d-4">
          <path
             style="stroke:none;"
             d="M 2.875 -2.5 C 2.875 -3.265625 2.765625 -4.46875 2.21875 -5.609375 C 1.625 -6.828125 0.765625 -7.484375 0.671875 -7.484375 C 0.609375 -7.484375 0.5625 -7.4375 0.5625 -7.375 C 0.5625 -7.34375 0.5625 -7.328125 0.75 -7.140625 C 1.734375 -6.15625 2.296875 -4.578125 2.296875 -2.5 C 2.296875 -0.78125 1.9375 0.96875 0.703125 2.21875 C 0.5625 2.34375 0.5625 2.359375 0.5625 2.390625 C 0.5625 2.453125 0.609375 2.5 0.671875 2.5 C 0.765625 2.5 1.671875 1.8125 2.25 0.546875 C 2.765625 -0.546875 2.875 -1.65625 2.875 -2.5 Z M 2.875 -2.5 "
             id="path3461" />
        </symbol>
        <symbol
           overflow="visible"
           id="textext-767a047d-5">
          <path
             style="stroke:none;"
             d=""
             id="path3464" />
        </symbol>
        <symbol
           overflow="visible"
           id="textext-767a047d-6">
          <path
             style="stroke:none;"
             d="M 2.03125 -0.015625 C 2.03125 -0.671875 1.78125 -1.0625 1.390625 -1.0625 C 1.0625 -1.0625 0.859375 -0.8125 0.859375 -0.53125 C 0.859375 -0.265625 1.0625 0 1.390625 0 C 1.5 0 1.640625 -0.046875 1.734375 -0.125 C 1.765625 -0.15625 1.78125 -0.15625 1.78125 -0.15625 C 1.796875 -0.15625 1.796875 -0.15625 1.796875 -0.015625 C 1.796875 0.734375 1.453125 1.328125 1.125 1.65625 C 1.015625 1.765625 1.015625 1.78125 1.015625 1.8125 C 1.015625 1.890625 1.0625 1.921875 1.109375 1.921875 C 1.21875 1.921875 2.03125 1.15625 2.03125 -0.015625 Z M 2.03125 -0.015625 "
             id="path3467" />
        </symbol>
        <symbol
           overflow="visible"
           id="textext-767a047d-7">
          <path
             style="stroke:none;"
             d=""
             id="path3470" />
        </symbol>
        <symbol
           overflow="visible"
           id="textext-767a047d-8">
          <path
             style="stroke:none;"
             d="M 6.59375 -2.296875 C 6.734375 -2.296875 6.921875 -2.296875 6.921875 -2.5 C 6.921875 -2.6875 6.734375 -2.6875 6.59375 -2.6875 L 1.15625 -2.6875 C 1.015625 -2.6875 0.828125 -2.6875 0.828125 -2.5 C 0.828125 -2.296875 1.015625 -2.296875 1.15625 -2.296875 L 6.59375 -2.296875 Z M 6.59375 -2.296875 "
             id="path3473" />
        </symbol>
      </g>
    </defs>
  </defs>
  <path
     d="M 202.5,112.5 A 0,0 0 1 1 202.5,112.5 A 0,0 0 1 1 202.5,112.5 z"
     sodipodi:ry="0"
     sodipodi:rx="0"
     sodipodi:cy="112.5"
     sodipodi:cx="202.5"
     id="path11772"
     style="opacity:1;fill:none;fill-opacity:1;stroke:#000000;stroke-width:0.5;stroke-linecap:square;stroke-linejoin:bevel;stroke-miterlimit:4;stroke-dasharray:none;stroke-opacity:0.39215686"
     sodipodi:type="arc" />
  <path
     transform="matrix(0.64,0,0,0.6417315,-14.4,29.475987)"
     d="M 450,129.375 A 5.625,5.625 0 1 1 438.75,129.375 A 5.625,5.625 0 1 1 450,129.375 z"
     sodipodi:ry="5.625"
     sodipodi:rx="5.625"
     sodipodi:cy="129.375"
     sodipodi:cx="444.375"
     id="path11794"
     style="fill:#000000;fill-opacity:1;stroke:none;stroke-width:0.5;stroke-linecap:square;stroke-linejoin:bevel;stroke-miterlimit:4;stroke-dasharray:none;stroke-opacity:0.43171806"
     sodipodi:type="arc" />
  <path
     transform="matrix(0.32,-0.5542563,0.5557558,0.3208657,94.860943,384.76952)"
     d="M 450,129.375 A 5.625,5.625 0 1 1 438.75,129.375 A 5.625,5.625 0 1 1 450,129.375 z"
     sodipodi:ry="5.625"
     sodipodi:rx="5.625"
     sodipodi:cy="129.375"
     sodipodi:cx="444.375"
     id="path2532"
     style="fill:#000000;fill-opacity:1;stroke:none;stroke-width:0.5;stroke-linecap:square;stroke-linejoin:bevel;stroke-miterlimit:4;stroke-dasharray:none;stroke-opacity:0.43171806"
     sodipodi:type="arc" />
  <path
     transform="matrix(-0.32,-0.5542563,0.5557558,-0.3208657,301.30003,467.77494)"
     d="M 450,129.375 A 5.625,5.625 0 1 1 438.75,129.375 A 5.625,5.625 0 1 1 450,129.375 z"
     sodipodi:ry="5.625"
     sodipodi:rx="5.625"
     sodipodi:cy="129.375"
     sodipodi:cx="444.375"
     id="path2540"
     style="fill:#000000;fill-opacity:1;stroke:none;stroke-width:0.5;stroke-linecap:square;stroke-linejoin:bevel;stroke-miterlimit:4;stroke-dasharray:none;stroke-opacity:0.43171806"
     sodipodi:type="arc" />
  <path
     style="fill:none;fill-rule:evenodd;stroke:#000000;stroke-width:1px;stroke-linecap:butt;stroke-linejoin:miter;stroke-opacity:1"
     d="M 269.9628,112.46281 L 230.94722,179.83932 L 308.76363,179.96281 L 269.9628,112.46281 z"
     id="path2550" />
  <g
     transform="translate(34.974243,-26.374374)"
     ns0:text="$A$"
     ns0:preamble=""
     id="g2740">
    <defs
       id="defs2742">
      <g
         id="g2744">
        <symbol
           style="overflow:visible"
           overflow="visible"
           id="textext-245121e3-0">
          <path
             style="stroke:none"
             d=""
             id="path2747" />
        </symbol>
        <symbol
           style="overflow:visible"
           overflow="visible"
           id="textext-245121e3-1">
          <path
             style="stroke:none"
             d="M 1.78125,-1.140625 C 1.390625,-0.484375 1,-0.34375 0.5625,-0.3125 C 0.4375,-0.296875 0.34375,-0.296875 0.34375,-0.109375 C 0.34375,-0.046875 0.40625,0 0.484375,0 C 0.75,0 1.0625,-0.03125 1.328125,-0.03125 C 1.671875,-0.03125 2.015625,0 2.328125,0 C 2.390625,0 2.515625,0 2.515625,-0.1875 C 2.515625,-0.296875 2.4375,-0.3125 2.359375,-0.3125 C 2.140625,-0.328125 1.890625,-0.40625 1.890625,-0.65625 C 1.890625,-0.78125 1.953125,-0.890625 2.03125,-1.03125 C 2.109375,-1.140625 2.109375,-1.140625 2.796875,-2.296875 L 5.296875,-2.296875 C 5.3125,-2.09375 5.453125,-0.734375 5.453125,-0.640625 C 5.453125,-0.34375 4.9375,-0.3125 4.734375,-0.3125 C 4.59375,-0.3125 4.5,-0.3125 4.5,-0.109375 C 4.5,0 4.609375,0 4.640625,0 C 5.046875,0 5.46875,-0.03125 5.875,-0.03125 C 6.125,-0.03125 6.765625,0 7.015625,0 C 7.0625,0 7.1875,0 7.1875,-0.203125 C 7.1875,-0.3125 7.09375,-0.3125 6.953125,-0.3125 C 6.34375,-0.3125 6.34375,-0.375 6.3125,-0.671875 L 5.703125,-6.890625 C 5.6875,-7.09375 5.6875,-7.140625 5.515625,-7.140625 C 5.359375,-7.140625 5.3125,-7.0625 5.25,-6.96875 L 1.78125,-1.140625 z M 2.984375,-2.609375 L 4.9375,-5.90625 L 5.265625,-2.609375 L 2.984375,-2.609375 z"
             id="path2750" />
        </symbol>
      </g>
    </defs>
    <g
       id="textext-245121e3-2">
      <g
         style="fill:#000000;fill-opacity:1"
         id="g2753">
        <use
           height="765"
           width="990"
           xlink:href="#textext-245121e3-1"
           x="223.43201"
           y="134.765"
           id="use2755" />
      </g>
    </g>
  </g>
  <g
     id="g2865"
     ns0:preamble=""
     ns0:text="$B$"
     transform="translate(-5.6875,51.8125)">
    <defs
       id="defs2867">
      <g
         id="g2869">
        <symbol
           id="textext-ebb944c4-0"
           overflow="visible"
           style="overflow:visible">
          <path
             id="path2872"
             d=""
             style="stroke:none" />
        </symbol>
        <symbol
           id="textext-ebb944c4-1"
           overflow="visible"
           style="overflow:visible">
          <path
             id="path2875"
             d="M 1.59375,-0.78125 C 1.5,-0.390625 1.46875,-0.3125 0.6875,-0.3125 C 0.515625,-0.3125 0.421875,-0.3125 0.421875,-0.109375 C 0.421875,0 0.515625,0 0.6875,0 L 4.25,0 C 5.828125,0 7,-1.171875 7,-2.15625 C 7,-2.875 6.421875,-3.453125 5.453125,-3.5625 C 6.484375,-3.75 7.53125,-4.484375 7.53125,-5.4375 C 7.53125,-6.171875 6.875,-6.8125 5.6875,-6.8125 L 2.328125,-6.8125 C 2.140625,-6.8125 2.046875,-6.8125 2.046875,-6.609375 C 2.046875,-6.5 2.140625,-6.5 2.328125,-6.5 C 2.34375,-6.5 2.53125,-6.5 2.703125,-6.484375 C 2.875,-6.453125 2.96875,-6.453125 2.96875,-6.3125 C 2.96875,-6.28125 2.953125,-6.25 2.9375,-6.125 L 1.59375,-0.78125 z M 3.09375,-3.65625 L 3.71875,-6.125 C 3.8125,-6.46875 3.828125,-6.5 4.25,-6.5 L 5.546875,-6.5 C 6.421875,-6.5 6.625,-5.90625 6.625,-5.46875 C 6.625,-4.59375 5.765625,-3.65625 4.5625,-3.65625 L 3.09375,-3.65625 z M 2.65625,-0.3125 C 2.515625,-0.3125 2.5,-0.3125 2.4375,-0.3125 C 2.328125,-0.328125 2.296875,-0.34375 2.296875,-0.421875 C 2.296875,-0.453125 2.296875,-0.46875 2.359375,-0.640625 L 3.046875,-3.421875 L 4.921875,-3.421875 C 5.875,-3.421875 6.078125,-2.6875 6.078125,-2.265625 C 6.078125,-1.28125 5.1875,-0.3125 4,-0.3125 L 2.65625,-0.3125 z"
             style="stroke:none" />
        </symbol>
      </g>
    </defs>
    <g
       id="textext-ebb944c4-2">
      <g
         id="g2878"
         style="fill:#000000;fill-opacity:1">
        <use
           id="use2880"
           y="134.765"
           x="223.43201"
           xlink:href="#textext-ebb944c4-1"
           width="990"
           height="765" />
      </g>
    </g>
  </g>
  <g
     transform="translate(90.22082,51.921875)"
     ns0:text="$C$"
     ns0:preamble=""
     id="g3010">
    <defs
       id="defs3012">
      <g
         id="g3014">
        <symbol
           style="overflow:visible"
           overflow="visible"
           id="textext-985e667b-0">
          <path
             style="stroke:none"
             d=""
             id="path3017" />
        </symbol>
        <symbol
           style="overflow:visible"
           overflow="visible"
           id="textext-985e667b-1">
          <path
             style="stroke:none"
             d="M 7.578125,-6.921875 C 7.578125,-6.953125 7.5625,-7.03125 7.46875,-7.03125 C 7.4375,-7.03125 7.421875,-7.015625 7.3125,-6.90625 L 6.625,-6.140625 C 6.53125,-6.28125 6.078125,-7.03125 4.96875,-7.03125 C 2.734375,-7.03125 0.5,-4.828125 0.5,-2.515625 C 0.5,-0.875 1.671875,0.21875 3.203125,0.21875 C 4.0625,0.21875 4.828125,-0.171875 5.359375,-0.640625 C 6.28125,-1.453125 6.453125,-2.359375 6.453125,-2.390625 C 6.453125,-2.5 6.34375,-2.5 6.328125,-2.5 C 6.265625,-2.5 6.21875,-2.46875 6.203125,-2.390625 C 6.109375,-2.109375 5.875,-1.390625 5.1875,-0.8125 C 4.5,-0.265625 3.875,-0.09375 3.359375,-0.09375 C 2.46875,-0.09375 1.40625,-0.609375 1.40625,-2.15625 C 1.40625,-2.734375 1.609375,-4.34375 2.609375,-5.515625 C 3.21875,-6.21875 4.15625,-6.71875 5.046875,-6.71875 C 6.0625,-6.71875 6.65625,-5.953125 6.65625,-4.796875 C 6.65625,-4.390625 6.625,-4.390625 6.625,-4.28125 C 6.625,-4.1875 6.734375,-4.1875 6.765625,-4.1875 C 6.890625,-4.1875 6.890625,-4.203125 6.953125,-4.390625 L 7.578125,-6.921875 z"
             id="path3020" />
        </symbol>
      </g>
    </defs>
    <g
       id="textext-985e667b-2">
      <g
         style="fill:#000000;fill-opacity:1"
         id="g3023">
        <use
           height="765"
           width="990"
           xlink:href="#textext-985e667b-1"
           x="223.43201"
           y="134.765"
           id="use3025" />
      </g>
    </g>
  </g>
  <path
     sodipodi:type="arc"
     style="fill:#000000;fill-opacity:1;stroke:none;stroke-width:0.5;stroke-linecap:square;stroke-linejoin:bevel;stroke-miterlimit:4;stroke-dasharray:none;stroke-opacity:0.43171806"
     id="path3120"
     sodipodi:cx="444.375"
     sodipodi:cy="129.375"
     sodipodi:rx="5.625"
     sodipodi:ry="5.625"
     d="M 450,129.375 A 5.625,5.625 0 1 1 438.75,129.375 A 5.625,5.625 0 1 1 450,129.375 z"
     transform="matrix(0.64,0,0,0.6417315,143.24458,29.513177)" />
  <path
     sodipodi:type="arc"
     style="fill:#000000;fill-opacity:1;stroke:none;stroke-width:0.5;stroke-linecap:square;stroke-linejoin:bevel;stroke-miterlimit:4;stroke-dasharray:none;stroke-opacity:0.43171806"
     id="path3122"
     sodipodi:cx="444.375"
     sodipodi:cy="129.375"
     sodipodi:rx="5.625"
     sodipodi:ry="5.625"
     d="M 450,129.375 A 5.625,5.625 0 1 1 438.75,129.375 A 5.625,5.625 0 1 1 450,129.375 z"
     transform="matrix(0.32,-0.5542563,0.5557558,0.3208657,252.50552,384.80671)" />
  <path
     sodipodi:type="arc"
     style="fill:#000000;fill-opacity:1;stroke:none;stroke-width:0.5;stroke-linecap:square;stroke-linejoin:bevel;stroke-miterlimit:4;stroke-dasharray:none;stroke-opacity:0.43171806"
     id="path3124"
     sodipodi:cx="444.375"
     sodipodi:cy="129.375"
     sodipodi:rx="5.625"
     sodipodi:ry="5.625"
     d="M 450,129.375 A 5.625,5.625 0 1 1 438.75,129.375 A 5.625,5.625 0 1 1 450,129.375 z"
     transform="matrix(-0.32,-0.5542563,0.5557558,-0.3208657,458.94461,467.81213)" />
  <path
     id="path3126"
     d="M 427.60738,112.5 L 388.5918,179.87651 L 466.40821,180 L 427.60738,112.5 z"
     style="fill:none;fill-rule:evenodd;stroke:#000000;stroke-width:1px;stroke-linecap:butt;stroke-linejoin:miter;stroke-opacity:1" />
  <g
     id="g3168"
     ns0:preamble=""
     ns0:text="$C$"
     transform="translate(192.31799,-26.483749)">
    <defs
       id="defs3170">
      <g
         id="g3172">
        <symbol
           id="symbol3174"
           overflow="visible"
           style="overflow:visible">
          <path
             id="path3176"
             d=""
             style="stroke:none" />
        </symbol>
        <symbol
           id="symbol3178"
           overflow="visible"
           style="overflow:visible">
          <path
             id="path3181"
             d="M 7.578125,-6.921875 C 7.578125,-6.953125 7.5625,-7.03125 7.46875,-7.03125 C 7.4375,-7.03125 7.421875,-7.015625 7.3125,-6.90625 L 6.625,-6.140625 C 6.53125,-6.28125 6.078125,-7.03125 4.96875,-7.03125 C 2.734375,-7.03125 0.5,-4.828125 0.5,-2.515625 C 0.5,-0.875 1.671875,0.21875 3.203125,0.21875 C 4.0625,0.21875 4.828125,-0.171875 5.359375,-0.640625 C 6.28125,-1.453125 6.453125,-2.359375 6.453125,-2.390625 C 6.453125,-2.5 6.34375,-2.5 6.328125,-2.5 C 6.265625,-2.5 6.21875,-2.46875 6.203125,-2.390625 C 6.109375,-2.109375 5.875,-1.390625 5.1875,-0.8125 C 4.5,-0.265625 3.875,-0.09375 3.359375,-0.09375 C 2.46875,-0.09375 1.40625,-0.609375 1.40625,-2.15625 C 1.40625,-2.734375 1.609375,-4.34375 2.609375,-5.515625 C 3.21875,-6.21875 4.15625,-6.71875 5.046875,-6.71875 C 6.0625,-6.71875 6.65625,-5.953125 6.65625,-4.796875 C 6.65625,-4.390625 6.625,-4.390625 6.625,-4.28125 C 6.625,-4.1875 6.734375,-4.1875 6.765625,-4.1875 C 6.890625,-4.1875 6.890625,-4.203125 6.953125,-4.390625 L 7.578125,-6.921875 z"
             style="stroke:none" />
        </symbol>
      </g>
    </defs>
    <g
       id="g3183">
      <g
         id="g3185"
         style="fill:#000000;fill-opacity:1">
        <use
           id="use3187"
           y="134.765"
           x="223.43201"
           xlink:href="#textext-985e667b-1"
           width="990"
           height="765" />
      </g>
    </g>
  </g>
  <path
     id="path3200"
     d="M 315,146.25 L 371.25,146.25"
     style="fill:none;fill-rule:evenodd;stroke:#000000;stroke-width:0.99;stroke-linecap:butt;stroke-linejoin:miter;stroke-opacity:1;stroke-miterlimit:4;stroke-dasharray:none;marker-end:url(#Arrow2Mend)" />
  <g
     transform="translate(248.72424,52.375626)"
     ns0:text="$A$"
     ns0:preamble=""
     id="g4898">
    <defs
       id="defs4900">
      <g
         id="g4902">
        <symbol
           style="overflow:visible"
           overflow="visible"
           id="symbol4904">
          <path
             style="stroke:none"
             d=""
             id="path4906" />
        </symbol>
        <symbol
           style="overflow:visible"
           overflow="visible"
           id="symbol4908">
          <path
             style="stroke:none"
             d="M 1.78125,-1.140625 C 1.390625,-0.484375 1,-0.34375 0.5625,-0.3125 C 0.4375,-0.296875 0.34375,-0.296875 0.34375,-0.109375 C 0.34375,-0.046875 0.40625,0 0.484375,0 C 0.75,0 1.0625,-0.03125 1.328125,-0.03125 C 1.671875,-0.03125 2.015625,0 2.328125,0 C 2.390625,0 2.515625,0 2.515625,-0.1875 C 2.515625,-0.296875 2.4375,-0.3125 2.359375,-0.3125 C 2.140625,-0.328125 1.890625,-0.40625 1.890625,-0.65625 C 1.890625,-0.78125 1.953125,-0.890625 2.03125,-1.03125 C 2.109375,-1.140625 2.109375,-1.140625 2.796875,-2.296875 L 5.296875,-2.296875 C 5.3125,-2.09375 5.453125,-0.734375 5.453125,-0.640625 C 5.453125,-0.34375 4.9375,-0.3125 4.734375,-0.3125 C 4.59375,-0.3125 4.5,-0.3125 4.5,-0.109375 C 4.5,0 4.609375,0 4.640625,0 C 5.046875,0 5.46875,-0.03125 5.875,-0.03125 C 6.125,-0.03125 6.765625,0 7.015625,0 C 7.0625,0 7.1875,0 7.1875,-0.203125 C 7.1875,-0.3125 7.09375,-0.3125 6.953125,-0.3125 C 6.34375,-0.3125 6.34375,-0.375 6.3125,-0.671875 L 5.703125,-6.890625 C 5.6875,-7.09375 5.6875,-7.140625 5.515625,-7.140625 C 5.359375,-7.140625 5.3125,-7.0625 5.25,-6.96875 L 1.78125,-1.140625 z M 2.984375,-2.609375 L 4.9375,-5.90625 L 5.265625,-2.609375 L 2.984375,-2.609375 z"
             id="path4910" />
        </symbol>
      </g>
    </defs>
    <g
       id="g4912">
      <g
         style="fill:#000000;fill-opacity:1"
         id="g4914">
        <use
           height="765"
           width="990"
           xlink:href="#textext-245121e3-1"
           x="223.43201"
           y="134.765"
           id="use4916" />
      </g>
    </g>
  </g>
  <g
     id="g4918"
     ns0:preamble=""
     ns0:text="$B$"
     transform="translate(151.8125,51.8125)">
    <defs
       id="defs4920">
      <g
         id="g4922">
        <symbol
           id="symbol4924"
           overflow="visible"
           style="overflow:visible">
          <path
             id="path4926"
             d=""
             style="stroke:none" />
        </symbol>
        <symbol
           id="symbol4928"
           overflow="visible"
           style="overflow:visible">
          <path
             id="path4930"
             d="M 1.59375,-0.78125 C 1.5,-0.390625 1.46875,-0.3125 0.6875,-0.3125 C 0.515625,-0.3125 0.421875,-0.3125 0.421875,-0.109375 C 0.421875,0 0.515625,0 0.6875,0 L 4.25,0 C 5.828125,0 7,-1.171875 7,-2.15625 C 7,-2.875 6.421875,-3.453125 5.453125,-3.5625 C 6.484375,-3.75 7.53125,-4.484375 7.53125,-5.4375 C 7.53125,-6.171875 6.875,-6.8125 5.6875,-6.8125 L 2.328125,-6.8125 C 2.140625,-6.8125 2.046875,-6.8125 2.046875,-6.609375 C 2.046875,-6.5 2.140625,-6.5 2.328125,-6.5 C 2.34375,-6.5 2.53125,-6.5 2.703125,-6.484375 C 2.875,-6.453125 2.96875,-6.453125 2.96875,-6.3125 C 2.96875,-6.28125 2.953125,-6.25 2.9375,-6.125 L 1.59375,-0.78125 z M 3.09375,-3.65625 L 3.71875,-6.125 C 3.8125,-6.46875 3.828125,-6.5 4.25,-6.5 L 5.546875,-6.5 C 6.421875,-6.5 6.625,-5.90625 6.625,-5.46875 C 6.625,-4.59375 5.765625,-3.65625 4.5625,-3.65625 L 3.09375,-3.65625 z M 2.65625,-0.3125 C 2.515625,-0.3125 2.5,-0.3125 2.4375,-0.3125 C 2.328125,-0.328125 2.296875,-0.34375 2.296875,-0.421875 C 2.296875,-0.453125 2.296875,-0.46875 2.359375,-0.640625 L 3.046875,-3.421875 L 4.921875,-3.421875 C 5.875,-3.421875 6.078125,-2.6875 6.078125,-2.265625 C 6.078125,-1.28125 5.1875,-0.3125 4,-0.3125 L 2.65625,-0.3125 z"
             style="stroke:none" />
        </symbol>
      </g>
    </defs>
    <g
       id="g4932">
      <g
         id="g4934"
         style="fill:#000000;fill-opacity:1">
        <use
           id="use4936"
           y="134.765"
           x="223.43201"
           xlink:href="#textext-ebb944c4-1"
           width="990"
           height="765" />
      </g>
    </g>
  </g>
  <g
     id="g5539"
     ns0:preamble=""
     ns0:text="$\\mathsf{F}_{y = \\frac{1}{\\sqrt{3}} x}$"
     transform="translate(105.1785,0.7807656)">
    <defs
       id="defs5541">
      <g
         id="g5543">
        <symbol
           id="textext-6aaa6e1f-0"
           overflow="visible"
           style="overflow:visible">
          <path
             id="path5546"
             d=""
             style="stroke:none" />
        </symbol>
        <symbol
           id="textext-6aaa6e1f-1"
           overflow="visible"
           style="overflow:visible">
          <path
             id="path5549"
             d="M 4.828125,-3.140625 L 4.828125,-3.75 L 1.828125,-3.75 L 1.828125,-6.25 L 3.125,-6.25 C 3.25,-6.25 3.375,-6.234375 3.484375,-6.234375 L 5.25,-6.234375 L 5.25,-6.890625 L 0.9375,-6.890625 L 0.9375,0 L 1.828125,0 L 1.828125,-3.140625 L 4.828125,-3.140625 z"
             style="stroke:none" />
        </symbol>
        <symbol
           id="textext-6aaa6e1f-2"
           overflow="visible"
           style="overflow:visible">
          <path
             id="path5552"
             d=""
             style="stroke:none" />
        </symbol>
        <symbol
           id="textext-6aaa6e1f-3"
           overflow="visible"
           style="overflow:visible">
          <path
             id="path5555"
             d="M 3.875,-2.625 C 3.90625,-2.71875 3.90625,-2.734375 3.90625,-2.78125 C 3.90625,-2.921875 3.796875,-3 3.671875,-3 C 3.59375,-3 3.46875,-2.96875 3.390625,-2.84375 C 3.359375,-2.796875 3.3125,-2.578125 3.28125,-2.4375 L 3.125,-1.859375 C 3.09375,-1.6875 2.875,-0.8125 2.84375,-0.734375 C 2.84375,-0.734375 2.53125,-0.125 2,-0.125 C 1.515625,-0.125 1.515625,-0.578125 1.515625,-0.703125 C 1.515625,-1.078125 1.671875,-1.515625 1.890625,-2.0625 C 1.96875,-2.28125 2,-2.359375 2,-2.484375 C 2,-2.8125 1.71875,-3.078125 1.34375,-3.078125 C 0.640625,-3.078125 0.328125,-2.125 0.328125,-2 C 0.328125,-1.921875 0.421875,-1.921875 0.453125,-1.921875 C 0.546875,-1.921875 0.546875,-1.953125 0.578125,-2.03125 C 0.75,-2.609375 1.046875,-2.875 1.328125,-2.875 C 1.4375,-2.875 1.5,-2.796875 1.5,-2.640625 C 1.5,-2.46875 1.4375,-2.328125 1.40625,-2.234375 C 1.0625,-1.375 1,-1.125 1,-0.8125 C 1,-0.703125 1,-0.375 1.265625,-0.140625 C 1.484375,0.03125 1.78125,0.0625 1.96875,0.0625 C 2.25,0.0625 2.5,-0.03125 2.71875,-0.25 C 2.640625,0.140625 2.5625,0.4375 2.265625,0.78125 C 2.078125,1 1.796875,1.21875 1.421875,1.21875 C 1.375,1.21875 1.046875,1.21875 0.90625,1 C 1.28125,0.953125 1.28125,0.625 1.28125,0.609375 C 1.28125,0.390625 1.078125,0.34375 1.015625,0.34375 C 0.84375,0.34375 0.609375,0.484375 0.609375,0.8125 C 0.609375,1.15625 0.9375,1.421875 1.4375,1.421875 C 2.140625,1.421875 3,0.875 3.21875,0 L 3.875,-2.625 z"
             style="stroke:none" />
        </symbol>
        <symbol
           id="textext-6aaa6e1f-4"
           overflow="visible"
           style="overflow:visible">
          <path
             id="path5558"
             d="M 1.734375,-0.734375 C 1.671875,-0.5 1.4375,-0.125 1.078125,-0.125 C 1.0625,-0.125 0.84375,-0.125 0.703125,-0.21875 C 0.984375,-0.3125 1.015625,-0.5625 1.015625,-0.609375 C 1.015625,-0.765625 0.890625,-0.859375 0.734375,-0.859375 C 0.53125,-0.859375 0.328125,-0.703125 0.328125,-0.4375 C 0.328125,-0.09375 0.71875,0.0625 1.0625,0.0625 C 1.390625,0.0625 1.671875,-0.125 1.84375,-0.421875 C 2.015625,-0.0625 2.390625,0.0625 2.671875,0.0625 C 3.484375,0.0625 3.90625,-0.796875 3.90625,-1 C 3.90625,-1.09375 3.8125,-1.09375 3.796875,-1.09375 C 3.6875,-1.09375 3.6875,-1.046875 3.65625,-0.96875 C 3.515625,-0.484375 3.09375,-0.125 2.703125,-0.125 C 2.421875,-0.125 2.28125,-0.3125 2.28125,-0.578125 C 2.28125,-0.765625 2.453125,-1.390625 2.640625,-2.171875 C 2.78125,-2.703125 3.09375,-2.875 3.328125,-2.875 C 3.34375,-2.875 3.546875,-2.875 3.703125,-2.78125 C 3.484375,-2.71875 3.390625,-2.515625 3.390625,-2.390625 C 3.390625,-2.25 3.515625,-2.140625 3.671875,-2.140625 C 3.828125,-2.140625 4.0625,-2.265625 4.0625,-2.5625 C 4.0625,-2.953125 3.609375,-3.078125 3.34375,-3.078125 C 2.984375,-3.078125 2.703125,-2.84375 2.5625,-2.578125 C 2.4375,-2.859375 2.109375,-3.078125 1.71875,-3.078125 C 0.9375,-3.078125 0.5,-2.21875 0.5,-2 C 0.5,-1.921875 0.59375,-1.921875 0.609375,-1.921875 C 0.703125,-1.921875 0.703125,-1.9375 0.75,-2.03125 C 0.921875,-2.578125 1.359375,-2.875 1.703125,-2.875 C 1.9375,-2.875 2.125,-2.75 2.125,-2.421875 C 2.125,-2.28125 2.03125,-1.9375 1.96875,-1.6875 L 1.734375,-0.734375 z"
             style="stroke:none" />
        </symbol>
        <symbol
           id="textext-6aaa6e1f-5"
           overflow="visible"
           style="overflow:visible">
          <path
             id="path5561"
             d=""
             style="stroke:none" />
        </symbol>
        <symbol
           id="textext-6aaa6e1f-6"
           overflow="visible"
           style="overflow:visible">
          <path
             id="path5564"
             d="M 5.359375,-2.34375 C 5.453125,-2.34375 5.609375,-2.34375 5.609375,-2.515625 C 5.609375,-2.6875 5.453125,-2.6875 5.359375,-2.6875 L 0.75,-2.6875 C 0.65625,-2.6875 0.484375,-2.6875 0.484375,-2.515625 C 0.484375,-2.34375 0.640625,-2.34375 0.75,-2.34375 L 5.359375,-2.34375 z M 5.359375,-0.8125 C 5.453125,-0.8125 5.609375,-0.8125 5.609375,-0.96875 C 5.609375,-1.15625 5.453125,-1.15625 5.359375,-1.15625 L 0.75,-1.15625 C 0.640625,-1.15625 0.484375,-1.15625 0.484375,-0.96875 C 0.484375,-0.8125 0.65625,-0.8125 0.75,-0.8125 L 5.359375,-0.8125 z"
             style="stroke:none" />
        </symbol>
        <symbol
           id="textext-6aaa6e1f-7"
           overflow="visible"
           style="overflow:visible">
          <path
             id="path5567"
             d=""
             style="stroke:none" />
        </symbol>
        <symbol
           id="textext-6aaa6e1f-8"
           overflow="visible"
           style="overflow:visible">
          <path
             id="path5570"
             d="M 1.984375,-3.171875 C 1.984375,-3.3125 1.96875,-3.3125 1.796875,-3.3125 C 1.453125,-3 0.890625,-3 0.796875,-3 L 0.71875,-3 L 0.71875,-2.78125 L 0.796875,-2.78125 C 0.90625,-2.78125 1.234375,-2.796875 1.53125,-2.921875 L 1.53125,-0.421875 C 1.53125,-0.28125 1.53125,-0.21875 1,-0.21875 L 0.75,-0.21875 L 0.75,0 C 1.015625,-0.015625 1.46875,-0.015625 1.75,-0.015625 C 2.046875,-0.015625 2.484375,-0.015625 2.765625,0 L 2.765625,-0.21875 L 2.515625,-0.21875 C 1.984375,-0.21875 1.984375,-0.28125 1.984375,-0.421875 L 1.984375,-3.171875 z"
             style="stroke:none" />
        </symbol>
        <symbol
           id="textext-6aaa6e1f-9"
           overflow="visible"
           style="overflow:visible">
          <path
             id="path5573"
             d="M 1.640625,-1.65625 C 2.109375,-1.65625 2.40625,-1.359375 2.40625,-0.875 C 2.40625,-0.359375 2.09375,-0.09375 1.65625,-0.09375 C 1.59375,-0.09375 1,-0.09375 0.75,-0.359375 C 0.953125,-0.390625 1.015625,-0.53125 1.015625,-0.65625 C 1.015625,-0.84375 0.875,-0.96875 0.703125,-0.96875 C 0.546875,-0.96875 0.40625,-0.859375 0.40625,-0.640625 C 0.40625,-0.125 0.984375,0.109375 1.671875,0.109375 C 2.484375,0.109375 2.984375,-0.390625 2.984375,-0.875 C 2.984375,-1.28125 2.625,-1.625 2.0625,-1.75 C 2.65625,-1.953125 2.8125,-2.328125 2.8125,-2.609375 C 2.8125,-3.015625 2.3125,-3.3125 1.6875,-3.3125 C 1.0625,-3.3125 0.578125,-3.0625 0.578125,-2.609375 C 0.578125,-2.375 0.765625,-2.3125 0.859375,-2.3125 C 1,-2.3125 1.140625,-2.421875 1.140625,-2.609375 C 1.140625,-2.71875 1.078125,-2.859375 0.90625,-2.890625 C 1.109375,-3.109375 1.5625,-3.125 1.671875,-3.125 C 2.03125,-3.125 2.28125,-2.953125 2.28125,-2.609375 C 2.28125,-2.3125 2.09375,-1.859375 1.578125,-1.828125 C 1.4375,-1.828125 1.421875,-1.828125 1.28125,-1.8125 C 1.234375,-1.8125 1.171875,-1.8125 1.171875,-1.734375 C 1.171875,-1.65625 1.21875,-1.65625 1.3125,-1.65625 L 1.640625,-1.65625 z"
             style="stroke:none" />
        </symbol>
        <symbol
           id="textext-6aaa6e1f-10"
           overflow="visible"
           style="overflow:visible">
          <path
             id="path5576"
             d=""
             style="stroke:none" />
        </symbol>
        <symbol
           id="textext-6aaa6e1f-11"
           overflow="visible"
           style="overflow:visible">
          <path
             id="path5579"
             d="M 2.671875,4.15625 L 1.5625,2.203125 C 1.53125,2.171875 1.515625,2.140625 1.453125,2.140625 C 1.4375,2.140625 1.40625,2.140625 1.390625,2.15625 L 0.796875,2.5 C 0.75,2.53125 0.71875,2.5625 0.71875,2.609375 C 0.71875,2.65625 0.765625,2.6875 0.796875,2.6875 C 0.828125,2.6875 0.84375,2.671875 0.875,2.65625 L 1.203125,2.46875 L 2.4375,4.625 C 2.484375,4.703125 2.5,4.703125 2.5625,4.703125 C 2.65625,4.703125 2.671875,4.671875 2.71875,4.609375 L 5.5625,-0.03125 C 5.609375,-0.09375 5.609375,-0.09375 5.609375,-0.140625 C 5.609375,-0.21875 5.546875,-0.28125 5.46875,-0.28125 C 5.390625,-0.28125 5.375,-0.234375 5.34375,-0.1875 L 2.671875,4.15625 z"
             style="stroke:none" />
        </symbol>
      </g>
    </defs>
    <g
       id="textext-6aaa6e1f-12">
      <g
         id="g5582"
         style="fill:#000000;fill-opacity:1">
        <use
           id="use5584"
           y="134.765"
           x="223.43201"
           xlink:href="#textext-6aaa6e1f-1"
           width="990"
           height="765" />
      </g>
      <g
         id="g5586"
         style="fill:#000000;fill-opacity:1">
        <use
           id="use5588"
           y="137.22099"
           x="229.105"
           xlink:href="#textext-6aaa6e1f-3"
           width="990"
           height="765" />
      </g>
      <g
         id="g5590"
         style="fill:#000000;fill-opacity:1">
        <use
           id="use5592"
           y="137.22099"
           x="233.396"
           xlink:href="#textext-6aaa6e1f-6"
           width="990"
           height="765" />
      </g>
      <g
         id="g5594"
         style="fill:#000000;fill-opacity:1">
        <use
           id="use5596"
           y="134.543"
           x="243.44"
           xlink:href="#textext-6aaa6e1f-8"
           width="990"
           height="765" />
      </g>
      <path
         id="path5598"
         transform="matrix(1,0,0,-1,240.707,135.477)"
         d="M 3.125e-05,0.0004375 L 8.8555,0.0004375"
         style="fill:none;stroke:#000000;stroke-width:0.398;stroke-linecap:butt;stroke-linejoin:miter;stroke-miterlimit:10;stroke-opacity:1" />
      <g
         id="g5600"
         style="fill:#000000;fill-opacity:1">
        <use
           id="use5602"
           y="136.633"
           x="240.707"
           xlink:href="#textext-6aaa6e1f-11"
           width="990"
           height="765" />
      </g>
      <path
         id="path5604"
         transform="matrix(1,0,0,-1,246.173,136.493)"
         d="M -0.001125,0.0008125 L 3.3895,0.0008125"
         style="fill:none;stroke:#000000;stroke-width:0.27900001;stroke-linecap:butt;stroke-linejoin:miter;stroke-miterlimit:10;stroke-opacity:1" />
      <g
         id="g5606"
         style="fill:#000000;fill-opacity:1">
        <use
           id="use5608"
           y="140.838"
           x="246.173"
           xlink:href="#textext-6aaa6e1f-9"
           width="990"
           height="765" />
      </g>
      <g
         id="g5610"
         style="fill:#000000;fill-opacity:1">
        <use
           id="use5612"
           y="137.22099"
           x="250.759"
           xlink:href="#textext-6aaa6e1f-4"
           width="990"
           height="765" />
      </g>
    </g>
  </g>
</svg>
