<?xml version="1.0" encoding="UTF-8" standalone="no"?>
<!-- Created with Inkscape (http://www.inkscape.org/) -->

<svg
   xmlns:ns0="http://www.iki.fi/pav/software/textext/"
   xmlns:dc="http://purl.org/dc/elements/1.1/"
   xmlns:cc="http://creativecommons.org/ns#"
   xmlns:rdf="http://www.w3.org/1999/02/22-rdf-syntax-ns#"
   xmlns:svg="http://www.w3.org/2000/svg"
   xmlns="http://www.w3.org/2000/svg"
   xmlns:xlink="http://www.w3.org/1999/xlink"
   xmlns:sodipodi="http://sodipodi.sourceforge.net/DTD/sodipodi-0.dtd"
   xmlns:inkscape="http://www.inkscape.org/namespaces/inkscape"
   id="svg2"
   sodipodi:version="0.32"
   inkscape:version="0.48.1 r9760"
   width="268.5296"
   height="93.086609"
   version="1.0"
   sodipodi:docname="symTriRef1.svg"
   inkscape:output_extension="org.inkscape.output.svg.inkscape">
  <sodipodi:namedview
     inkscape:window-height="776"
     inkscape:window-width="1280"
     inkscape:pageshadow="2"
     inkscape:pageopacity="0.0"
     guidetolerance="10.0"
     gridtolerance="10.0"
     objecttolerance="10.0"
     borderopacity="1.0"
     bordercolor="#666666"
     pagecolor="#ffffff"
     id="base"
     showgrid="true"
     inkscape:zoom="2.9914343"
     inkscape:cx="134.2648"
     inkscape:cy="25.886636"
     inkscape:window-x="0"
     inkscape:window-y="24"
     inkscape:current-layer="svg2"
     inkscape:document-units="in"
     inkscape:snap-intersection-line-segments="true"
     inkscape:snap-bbox="true"
     inkscape:object-paths="true"
     inkscape:object-nodes="true"
     inkscape:snap-intersection-grid-guide="true"
     inkscape:snap-center="true"
     showguides="true"
     inkscape:guide-bbox="true"
     inkscape:window-maximized="1"
     units="mm"
     fit-margin-top="1"
     fit-margin-right="1"
     fit-margin-bottom="1"
     fit-margin-left="1">
    <inkscape:grid
       empspacing="4"
       spacingy="0.125in"
       spacingx="0.125in"
       enabled="true"
       visible="true"
       units="in"
       id="grid2395"
       type="xygrid"
       snapvisiblegridlinesonly="true" />
  </sodipodi:namedview>
  <metadata
     id="metadata7">
    <rdf:RDF>
      <cc:Work
         rdf:about="">
        <dc:format>image/svg+xml</dc:format>
        <dc:type
           rdf:resource="http://purl.org/dc/dcmitype/StillImage" />
      </cc:Work>
    </rdf:RDF>
  </metadata>
  <defs
     id="defs5">
    <marker
       style="overflow:visible"
       id="Arrow1Send"
       refX="0"
       refY="0"
       orient="auto"
       inkscape:stockid="Arrow1Send">
      <path
         transform="matrix(-0.2,0,0,-0.2,-1.2,0)"
         style="fill-rule:evenodd;stroke:#000000;stroke-width:1pt;marker-start:none"
         d="M 0,0 5,-5 -12.5,0 5,5 0,0 z"
         id="path3189"
         inkscape:connector-curvature="0" />
    </marker>
    <marker
       style="overflow:visible"
       id="Arrow2Lend"
       refX="0"
       refY="0"
       orient="auto"
       inkscape:stockid="Arrow2Lend">
      <path
         transform="matrix(-1.1,0,0,-1.1,-1.1,0)"
         d="M 8.7185878,4.0337352 -2.2072895,0.01601326 8.7185884,-4.0017078 c -1.7454984,2.3720609 -1.7354408,5.6174519 -6e-7,8.035443 z"
         style="font-size:12px;fill-rule:evenodd;stroke-width:0.625;stroke-linejoin:round"
         id="path3195"
         inkscape:connector-curvature="0" />
    </marker>
    <marker
       style="overflow:visible"
       id="Arrow2Mend"
       refX="0"
       refY="0"
       orient="auto"
       inkscape:stockid="Arrow2Mend">
      <path
         transform="scale(-0.6,-0.6)"
         d="M 8.7185878,4.0337352 -2.2072895,0.01601326 8.7185884,-4.0017078 c -1.7454984,2.3720609 -1.7354408,5.6174519 -6e-7,8.035443 z"
         style="font-size:12px;fill-rule:evenodd;stroke-width:0.625;stroke-linejoin:round"
         id="path3201"
         inkscape:connector-curvature="0" />
    </marker>
    <marker
       style="overflow:visible"
       id="Arrow1Mstart"
       refX="0"
       refY="0"
       orient="auto"
       inkscape:stockid="Arrow1Mstart">
      <path
         transform="matrix(0.4,0,0,0.4,4,0)"
         style="fill-rule:evenodd;stroke:#000000;stroke-width:1pt;marker-start:none"
         d="M 0,0 5,-5 -12.5,0 5,5 0,0 z"
         id="path3180"
         inkscape:connector-curvature="0" />
    </marker>
    <inkscape:perspective
       id="perspective9"
       inkscape:persp3d-origin="372.04724 : 350.78739 : 1"
       inkscape:vp_z="744.09448 : 526.18109 : 1"
       inkscape:vp_y="0 : 1000 : 0"
       inkscape:vp_x="0 : 526.18109 : 1"
       sodipodi:type="inkscape:persp3d" />
    <marker
       style="overflow:visible"
       id="Arrow2LendH"
       refX="0"
       refY="0"
       orient="auto"
       inkscape:stockid="Arrow2LendH">
      <path
         transform="matrix(-1.1,0,0,-1.1,-1.1,0)"
         d="M 8.7185878,4.0337352 -2.2072895,0.01601326 8.7185884,-4.0017078 c -1.7454984,2.3720609 -1.7354408,5.6174519 -6e-7,8.035443 z"
         style="font-size:12px;fill:#000000;fill-rule:evenodd;stroke:#000000;stroke-width:0.625;stroke-linejoin:round"
         id="path11517"
         inkscape:connector-curvature="0" />
    </marker>
    <marker
       style="overflow:visible"
       id="Arrow1SendJ"
       refX="0"
       refY="0"
       orient="auto"
       inkscape:stockid="Arrow1SendJ">
      <path
         transform="matrix(-0.2,0,0,-0.2,-1.2,0)"
         style="fill:#7f7f7f;fill-rule:evenodd;stroke:#7f7f7f;stroke-width:1pt;marker-start:none"
         d="M 0,0 5,-5 -12.5,0 5,5 0,0 z"
         id="path11606"
         inkscape:connector-curvature="0" />
    </marker>
    <marker
       style="overflow:visible"
       id="Arrow1SendJm"
       refX="0"
       refY="0"
       orient="auto"
       inkscape:stockid="Arrow1SendJm">
      <path
         transform="matrix(-0.2,0,0,-0.2,-1.2,0)"
         style="fill:#a6a6a6;fill-rule:evenodd;stroke:#a6a6a6;stroke-width:1pt;marker-start:none"
         d="M 0,0 5,-5 -12.5,0 5,5 0,0 z"
         id="path11817"
         inkscape:connector-curvature="0" />
    </marker>
    <defs
       id="defs3444">
      <g
         id="g3446">
        <symbol
           id="textext-767a047d-0"
           overflow="visible"
           style="overflow:visible">
          <path
             id="path3449"
             d=""
             style="stroke:none"
             inkscape:connector-curvature="0" />
        </symbol>
        <symbol
           id="textext-767a047d-1"
           overflow="visible"
           style="overflow:visible">
          <path
             id="path3452"
             d="m 3.296875,2.390625 c 0,-0.03125 0,-0.046875 -0.171875,-0.21875 C 1.890625,0.921875 1.5625,-0.96875 1.5625,-2.5 c 0,-1.734375 0.375,-3.46875 1.609375,-4.703125 0.125,-0.125 0.125,-0.140625 0.125,-0.171875 0,-0.078125 -0.03125,-0.109375 -0.09375,-0.109375 -0.109375,0 -1,0.6875 -1.59375,1.953125 -0.5,1.09375 -0.625,2.203125 -0.625,3.03125 0,0.78125 0.109375,1.984375 0.65625,3.125 C 2.25,1.84375 3.09375,2.5 3.203125,2.5 c 0.0625,0 0.09375,-0.03125 0.09375,-0.109375 z m 0,0"
             style="stroke:none"
             inkscape:connector-curvature="0" />
        </symbol>
        <symbol
           id="textext-767a047d-2"
           overflow="visible"
           style="overflow:visible">
          <path
             id="path3455"
             d="m 0.28125,-1.640625 2.65625,0 0,0.859375 c 0,0.359375 -0.03125,0.46875 -0.765625,0.46875 l -0.203125,0 0,0.3125 C 2.375,-0.03125 2.890625,-0.03125 3.3125,-0.03125 c 0.421875,0 0.9375,0 1.359375,0.03125 l 0,-0.3125 -0.21875,0 c -0.734375,0 -0.75,-0.109375 -0.75,-0.46875 l 0,-0.859375 0.984375,0 0,-0.3125 -0.984375,0 0,-4.53125 c 0,-0.203125 0,-0.265625 -0.171875,-0.265625 -0.078125,0 -0.109375,0 -0.1875,0.125 l -3.0625,4.671875 0,0.3125 z m 2.703125,-0.3125 -2.421875,0 2.421875,-3.71875 0,3.71875 z m 0,0"
             style="stroke:none"
             inkscape:connector-curvature="0" />
        </symbol>
        <symbol
           id="textext-767a047d-3"
           overflow="visible"
           style="overflow:visible">
          <path
             id="path3458"
             d="m 4.46875,-1.734375 -0.234375,0 C 4.171875,-1.4375 4.109375,-1 4,-0.84375 3.9375,-0.765625 3.28125,-0.765625 3.0625,-0.765625 l -1.796875,0 1.0625,-1.03125 c 1.546875,-1.375 2.140625,-1.90625 2.140625,-2.90625 0,-1.140625 -0.890625,-1.9375 -2.109375,-1.9375 -1.125,0 -1.859375,0.921875 -1.859375,1.8125 0,0.546875 0.5,0.546875 0.53125,0.546875 0.171875,0 0.515625,-0.109375 0.515625,-0.53125 0,-0.25 -0.1875,-0.515625 -0.53125,-0.515625 -0.078125,0 -0.09375,0 -0.125,0.015625 0.21875,-0.65625 0.765625,-1.015625 1.34375,-1.015625 0.90625,0 1.328125,0.8125 1.328125,1.625 C 3.5625,-3.90625 3.078125,-3.125 2.515625,-2.5 l -1.90625,2.125 C 0.5,-0.265625 0.5,-0.234375 0.5,0 L 4.203125,0 4.46875,-1.734375 z m 0,0"
             style="stroke:none"
             inkscape:connector-curvature="0" />
        </symbol>
        <symbol
           id="textext-767a047d-4"
           overflow="visible"
           style="overflow:visible">
          <path
             id="path3461"
             d="m 2.875,-2.5 c 0,-0.765625 -0.109375,-1.96875 -0.65625,-3.109375 -0.59375,-1.21875 -1.453125,-1.875 -1.546875,-1.875 -0.0625,0 -0.109375,0.046875 -0.109375,0.109375 0,0.03125 0,0.046875 0.1875,0.234375 0.984375,0.984375 1.546875,2.5625 1.546875,4.640625 0,1.71875 -0.359375,3.46875 -1.59375,4.71875 C 0.5625,2.34375 0.5625,2.359375 0.5625,2.390625 0.5625,2.453125 0.609375,2.5 0.671875,2.5 0.765625,2.5 1.671875,1.8125 2.25,0.546875 2.765625,-0.546875 2.875,-1.65625 2.875,-2.5 z m 0,0"
             style="stroke:none"
             inkscape:connector-curvature="0" />
        </symbol>
        <symbol
           id="textext-767a047d-5"
           overflow="visible"
           style="overflow:visible">
          <path
             id="path3464"
             d=""
             style="stroke:none"
             inkscape:connector-curvature="0" />
        </symbol>
        <symbol
           id="textext-767a047d-6"
           overflow="visible"
           style="overflow:visible">
          <path
             id="path3467"
             d="m 2.03125,-0.015625 c 0,-0.65625 -0.25,-1.046875 -0.640625,-1.046875 -0.328125,0 -0.53125,0.25 -0.53125,0.53125 C 0.859375,-0.265625 1.0625,0 1.390625,0 1.5,0 1.640625,-0.046875 1.734375,-0.125 1.765625,-0.15625 1.78125,-0.15625 1.78125,-0.15625 c 0.015625,0 0.015625,0 0.015625,0.140625 0,0.75 -0.34375,1.34375 -0.671875,1.671875 -0.109375,0.109375 -0.109375,0.125 -0.109375,0.15625 0,0.078125 0.046875,0.109375 0.09375,0.109375 0.109375,0 0.921875,-0.765625 0.921875,-1.9375 z m 0,0"
             style="stroke:none"
             inkscape:connector-curvature="0" />
        </symbol>
        <symbol
           id="textext-767a047d-7"
           overflow="visible"
           style="overflow:visible">
          <path
             id="path3470"
             d=""
             style="stroke:none"
             inkscape:connector-curvature="0" />
        </symbol>
        <symbol
           id="textext-767a047d-8"
           overflow="visible"
           style="overflow:visible">
          <path
             id="path3473"
             d="m 6.59375,-2.296875 c 0.140625,0 0.328125,0 0.328125,-0.203125 0,-0.1875 -0.1875,-0.1875 -0.328125,-0.1875 l -5.4375,0 c -0.140625,0 -0.328125,0 -0.328125,0.1875 0,0.203125 0.1875,0.203125 0.328125,0.203125 l 5.4375,0 z m 0,0"
             style="stroke:none"
             inkscape:connector-curvature="0" />
        </symbol>
      </g>
    </defs>
  </defs>
  <path
     sodipodi:type="arc"
     style="fill:none;stroke:#000000;stroke-width:0.5;stroke-linecap:square;stroke-linejoin:bevel;stroke-miterlimit:4;stroke-opacity:0.39215686;stroke-dasharray:none"
     id="path11772"
     sodipodi:cx="202.5"
     sodipodi:cy="112.5"
     sodipodi:rx="0"
     sodipodi:ry="0"
     d="m 202.5,112.5 a 0,0 0 1 1 0,0 0,0 0 1 1 0,0 z"
     transform="translate(-214.62307,-97.706697)" />
  <path
     sodipodi:type="arc"
     style="fill:#000000;fill-opacity:1;stroke:none"
     id="path11794"
     sodipodi:cx="444.375"
     sodipodi:cy="129.375"
     sodipodi:rx="5.625"
     sodipodi:ry="5.625"
     d="m 450,129.375 a 5.625,5.625 0 1 1 -11.25,0 5.625,5.625 0 1 1 11.25,0 z"
     transform="matrix(0.64,0,0,0.6417315,-229.02307,-68.230707)" />
  <path
     sodipodi:type="arc"
     style="fill:#000000;fill-opacity:1;stroke:none"
     id="path2532"
     sodipodi:cx="444.375"
     sodipodi:cy="129.375"
     sodipodi:rx="5.625"
     sodipodi:ry="5.625"
     d="m 450,129.375 a 5.625,5.625 0 1 1 -11.25,0 5.625,5.625 0 1 1 11.25,0 z"
     transform="matrix(0.32,-0.5542563,0.5557558,0.3208657,-119.76213,287.06282)" />
  <path
     sodipodi:type="arc"
     style="fill:#000000;fill-opacity:1;stroke:none"
     id="path2540"
     sodipodi:cx="444.375"
     sodipodi:cy="129.375"
     sodipodi:rx="5.625"
     sodipodi:ry="5.625"
     d="m 450,129.375 a 5.625,5.625 0 1 1 -11.25,0 5.625,5.625 0 1 1 11.25,0 z"
     transform="matrix(-0.32,-0.5542563,0.5557558,-0.3208657,86.676955,370.06824)" />
  <path
     id="path2550"
     d="m 55.339725,14.756112 -39.01558,67.37651 77.81641,0.12349 -38.80083,-67.5 z"
     style="fill:none;stroke:#000000;stroke-width:1px;stroke-linecap:butt;stroke-linejoin:miter;stroke-opacity:1"
     inkscape:connector-curvature="0" />
  <g
     id="g2740"
     ns0:preamble=""
     ns0:text="$A$"
     transform="translate(-179.64883,-124.08107)">
    <defs
       id="defs2742">
      <g
         id="g2744">
        <symbol
           id="textext-245121e3-0"
           overflow="visible"
           style="overflow:visible">
          <path
             id="path2747"
             d=""
             style="stroke:none"
             inkscape:connector-curvature="0" />
        </symbol>
        <symbol
           id="textext-245121e3-1"
           overflow="visible"
           style="overflow:visible">
          <path
             id="path2750"
             d="M 1.78125,-1.140625 C 1.390625,-0.484375 1,-0.34375 0.5625,-0.3125 0.4375,-0.296875 0.34375,-0.296875 0.34375,-0.109375 0.34375,-0.046875 0.40625,0 0.484375,0 0.75,0 1.0625,-0.03125 1.328125,-0.03125 c 0.34375,0 0.6875,0.03125 1,0.03125 0.0625,0 0.1875,0 0.1875,-0.1875 0,-0.109375 -0.078125,-0.125 -0.15625,-0.125 -0.21875,-0.015625 -0.46875,-0.09375 -0.46875,-0.34375 0,-0.125 0.0625,-0.234375 0.140625,-0.375 0.078125,-0.109375 0.078125,-0.109375 0.765625,-1.265625 l 2.5,0 c 0.015625,0.203125 0.15625,1.5625 0.15625,1.65625 0,0.296875 -0.515625,0.328125 -0.71875,0.328125 C 4.59375,-0.3125 4.5,-0.3125 4.5,-0.109375 4.5,0 4.609375,0 4.640625,0 5.046875,0 5.46875,-0.03125 5.875,-0.03125 6.125,-0.03125 6.765625,0 7.015625,0 7.0625,0 7.1875,0 7.1875,-0.203125 7.1875,-0.3125 7.09375,-0.3125 6.953125,-0.3125 6.34375,-0.3125 6.34375,-0.375 6.3125,-0.671875 l -0.609375,-6.21875 c -0.015625,-0.203125 -0.015625,-0.25 -0.1875,-0.25 -0.15625,0 -0.203125,0.078125 -0.265625,0.171875 l -3.46875,5.828125 z m 1.203125,-1.46875 1.953125,-3.296875 0.328125,3.296875 -2.28125,0 z"
             style="stroke:none"
             inkscape:connector-curvature="0" />
        </symbol>
      </g>
    </defs>
    <g
       id="textext-245121e3-2">
      <g
         id="g2753"
         style="fill:#000000;fill-opacity:1">
        <use
           id="use2755"
           y="134.765"
           x="223.43201"
           xlink:href="#textext-245121e3-1"
           width="990"
           height="765" />
      </g>
    </g>
  </g>
  <g
     transform="translate(-220.31057,-45.894197)"
     ns0:text="$B$"
     ns0:preamble=""
     id="g2865">
    <defs
       id="defs2867">
      <g
         id="g2869">
        <symbol
           style="overflow:visible"
           overflow="visible"
           id="textext-ebb944c4-0">
          <path
             style="stroke:none"
             d=""
             id="path2872"
             inkscape:connector-curvature="0" />
        </symbol>
        <symbol
           style="overflow:visible"
           overflow="visible"
           id="textext-ebb944c4-1">
          <path
             style="stroke:none"
             d="M 1.59375,-0.78125 C 1.5,-0.390625 1.46875,-0.3125 0.6875,-0.3125 c -0.171875,0 -0.265625,0 -0.265625,0.203125 C 0.421875,0 0.515625,0 0.6875,0 L 4.25,0 C 5.828125,0 7,-1.171875 7,-2.15625 7,-2.875 6.421875,-3.453125 5.453125,-3.5625 6.484375,-3.75 7.53125,-4.484375 7.53125,-5.4375 c 0,-0.734375 -0.65625,-1.375 -1.84375,-1.375 l -3.359375,0 c -0.1875,0 -0.28125,0 -0.28125,0.203125 0,0.109375 0.09375,0.109375 0.28125,0.109375 0.015625,0 0.203125,0 0.375,0.015625 0.171875,0.03125 0.265625,0.03125 0.265625,0.171875 0,0.03125 -0.015625,0.0625 -0.03125,0.1875 l -1.34375,5.34375 z m 1.5,-2.875 0.625,-2.46875 C 3.8125,-6.46875 3.828125,-6.5 4.25,-6.5 l 1.296875,0 c 0.875,0 1.078125,0.59375 1.078125,1.03125 0,0.875 -0.859375,1.8125 -2.0625,1.8125 l -1.46875,0 z m -0.4375,3.34375 c -0.140625,0 -0.15625,0 -0.21875,0 -0.109375,-0.015625 -0.140625,-0.03125 -0.140625,-0.109375 0,-0.03125 0,-0.046875 0.0625,-0.21875 l 0.6875,-2.78125 1.875,0 c 0.953125,0 1.15625,0.734375 1.15625,1.15625 C 6.078125,-1.28125 5.1875,-0.3125 4,-0.3125 l -1.34375,0 z"
             id="path2875"
             inkscape:connector-curvature="0" />
        </symbol>
      </g>
    </defs>
    <g
       id="textext-ebb944c4-2">
      <g
         style="fill:#000000;fill-opacity:1"
         id="g2878">
        <use
           height="765"
           width="990"
           xlink:href="#textext-ebb944c4-1"
           x="223.43201"
           y="134.765"
           id="use2880" />
      </g>
    </g>
  </g>
  <g
     id="g3010"
     ns0:preamble=""
     ns0:text="$C$"
     transform="translate(-124.40225,-45.784827)">
    <defs
       id="defs3012">
      <g
         id="g3014">
        <symbol
           id="textext-985e667b-0"
           overflow="visible"
           style="overflow:visible">
          <path
             id="path3017"
             d=""
             style="stroke:none"
             inkscape:connector-curvature="0" />
        </symbol>
        <symbol
           id="textext-985e667b-1"
           overflow="visible"
           style="overflow:visible">
          <path
             id="path3020"
             d="m 7.578125,-6.921875 c 0,-0.03125 -0.015625,-0.109375 -0.109375,-0.109375 -0.03125,0 -0.046875,0.015625 -0.15625,0.125 L 6.625,-6.140625 C 6.53125,-6.28125 6.078125,-7.03125 4.96875,-7.03125 2.734375,-7.03125 0.5,-4.828125 0.5,-2.515625 0.5,-0.875 1.671875,0.21875 3.203125,0.21875 c 0.859375,0 1.625,-0.390625 2.15625,-0.859375 0.921875,-0.8125 1.09375,-1.71875 1.09375,-1.75 C 6.453125,-2.5 6.34375,-2.5 6.328125,-2.5 c -0.0625,0 -0.109375,0.03125 -0.125,0.109375 -0.09375,0.28125 -0.328125,1 -1.015625,1.578125 -0.6875,0.546875 -1.3125,0.71875 -1.828125,0.71875 -0.890625,0 -1.953125,-0.515625 -1.953125,-2.0625 0,-0.578125 0.203125,-2.1875 1.203125,-3.359375 0.609375,-0.703125 1.546875,-1.203125 2.4375,-1.203125 1.015625,0 1.609375,0.765625 1.609375,1.921875 0,0.40625 -0.03125,0.40625 -0.03125,0.515625 0,0.09375 0.109375,0.09375 0.140625,0.09375 0.125,0 0.125,-0.015625 0.1875,-0.203125 l 0.625,-2.53125 z"
             style="stroke:none"
             inkscape:connector-curvature="0" />
        </symbol>
      </g>
    </defs>
    <g
       id="textext-985e667b-2">
      <g
         id="g3023"
         style="fill:#000000;fill-opacity:1">
        <use
           id="use3025"
           y="134.765"
           x="223.43201"
           xlink:href="#textext-985e667b-1"
           width="990"
           height="765" />
      </g>
    </g>
  </g>
  <path
     transform="matrix(0.64,0,0,0.6417315,-71.378495,-68.193517)"
     d="m 450,129.375 a 5.625,5.625 0 1 1 -11.25,0 5.625,5.625 0 1 1 11.25,0 z"
     sodipodi:ry="5.625"
     sodipodi:rx="5.625"
     sodipodi:cy="129.375"
     sodipodi:cx="444.375"
     id="path3120"
     style="fill:#000000;fill-opacity:1;stroke:none"
     sodipodi:type="arc" />
  <path
     transform="matrix(0.32,-0.5542563,0.5557558,0.3208657,37.882445,287.10001)"
     d="m 450,129.375 a 5.625,5.625 0 1 1 -11.25,0 5.625,5.625 0 1 1 11.25,0 z"
     sodipodi:ry="5.625"
     sodipodi:rx="5.625"
     sodipodi:cy="129.375"
     sodipodi:cx="444.375"
     id="path3122"
     style="fill:#000000;fill-opacity:1;stroke:none"
     sodipodi:type="arc" />
  <path
     transform="matrix(-0.32,-0.5542563,0.5557558,-0.3208657,244.32154,370.10543)"
     d="m 450,129.375 a 5.625,5.625 0 1 1 -11.25,0 5.625,5.625 0 1 1 11.25,0 z"
     sodipodi:ry="5.625"
     sodipodi:rx="5.625"
     sodipodi:cy="129.375"
     sodipodi:cx="444.375"
     id="path3124"
     style="fill:#000000;fill-opacity:1;stroke:none"
     sodipodi:type="arc" />
  <path
     style="fill:none;stroke:#000000;stroke-width:1px;stroke-linecap:butt;stroke-linejoin:miter;stroke-opacity:1"
     d="m 212.98431,14.793302 -39.01558,67.37651 77.81641,0.12349 -38.80083,-67.5 z"
     id="path3126"
     inkscape:connector-curvature="0" />
  <g
     transform="translate(-22.004255,-124.04388)"
     ns0:text="$A$"
     ns0:preamble=""
     id="g3128">
    <defs
       id="defs3130">
      <g
         id="g3132">
        <symbol
           style="overflow:visible"
           overflow="visible"
           id="symbol3134">
          <path
             style="stroke:none"
             d=""
             id="path3136"
             inkscape:connector-curvature="0" />
        </symbol>
        <symbol
           style="overflow:visible"
           overflow="visible"
           id="symbol3138">
          <path
             style="stroke:none"
             d="M 1.78125,-1.140625 C 1.390625,-0.484375 1,-0.34375 0.5625,-0.3125 0.4375,-0.296875 0.34375,-0.296875 0.34375,-0.109375 0.34375,-0.046875 0.40625,0 0.484375,0 0.75,0 1.0625,-0.03125 1.328125,-0.03125 c 0.34375,0 0.6875,0.03125 1,0.03125 0.0625,0 0.1875,0 0.1875,-0.1875 0,-0.109375 -0.078125,-0.125 -0.15625,-0.125 -0.21875,-0.015625 -0.46875,-0.09375 -0.46875,-0.34375 0,-0.125 0.0625,-0.234375 0.140625,-0.375 0.078125,-0.109375 0.078125,-0.109375 0.765625,-1.265625 l 2.5,0 c 0.015625,0.203125 0.15625,1.5625 0.15625,1.65625 0,0.296875 -0.515625,0.328125 -0.71875,0.328125 C 4.59375,-0.3125 4.5,-0.3125 4.5,-0.109375 4.5,0 4.609375,0 4.640625,0 5.046875,0 5.46875,-0.03125 5.875,-0.03125 6.125,-0.03125 6.765625,0 7.015625,0 7.0625,0 7.1875,0 7.1875,-0.203125 7.1875,-0.3125 7.09375,-0.3125 6.953125,-0.3125 6.34375,-0.3125 6.34375,-0.375 6.3125,-0.671875 l -0.609375,-6.21875 c -0.015625,-0.203125 -0.015625,-0.25 -0.1875,-0.25 -0.15625,0 -0.203125,0.078125 -0.265625,0.171875 l -3.46875,5.828125 z m 1.203125,-1.46875 1.953125,-3.296875 0.328125,3.296875 -2.28125,0 z"
             id="path3140"
             inkscape:connector-curvature="0" />
        </symbol>
      </g>
    </defs>
    <g
       id="g3142">
      <g
         style="fill:#000000;fill-opacity:1"
         id="g3144">
        <use
           height="765"
           width="990"
           xlink:href="#textext-245121e3-1"
           x="223.43201"
           y="134.765"
           id="use3146" />
      </g>
    </g>
  </g>
  <g
     id="g3148"
     ns0:preamble=""
     ns0:text="$B$"
     transform="translate(34.023045,-45.659197)">
    <defs
       id="defs3150">
      <g
         id="g3152">
        <symbol
           id="symbol3154"
           overflow="visible"
           style="overflow:visible">
          <path
             id="path3156"
             d=""
             style="stroke:none"
             inkscape:connector-curvature="0" />
        </symbol>
        <symbol
           id="symbol3158"
           overflow="visible"
           style="overflow:visible">
          <path
             id="path3160"
             d="M 1.59375,-0.78125 C 1.5,-0.390625 1.46875,-0.3125 0.6875,-0.3125 c -0.171875,0 -0.265625,0 -0.265625,0.203125 C 0.421875,0 0.515625,0 0.6875,0 L 4.25,0 C 5.828125,0 7,-1.171875 7,-2.15625 7,-2.875 6.421875,-3.453125 5.453125,-3.5625 6.484375,-3.75 7.53125,-4.484375 7.53125,-5.4375 c 0,-0.734375 -0.65625,-1.375 -1.84375,-1.375 l -3.359375,0 c -0.1875,0 -0.28125,0 -0.28125,0.203125 0,0.109375 0.09375,0.109375 0.28125,0.109375 0.015625,0 0.203125,0 0.375,0.015625 0.171875,0.03125 0.265625,0.03125 0.265625,0.171875 0,0.03125 -0.015625,0.0625 -0.03125,0.1875 l -1.34375,5.34375 z m 1.5,-2.875 0.625,-2.46875 C 3.8125,-6.46875 3.828125,-6.5 4.25,-6.5 l 1.296875,0 c 0.875,0 1.078125,0.59375 1.078125,1.03125 0,0.875 -0.859375,1.8125 -2.0625,1.8125 l -1.46875,0 z m -0.4375,3.34375 c -0.140625,0 -0.15625,0 -0.21875,0 -0.109375,-0.015625 -0.140625,-0.03125 -0.140625,-0.109375 0,-0.03125 0,-0.046875 0.0625,-0.21875 l 0.6875,-2.78125 1.875,0 c 0.953125,0 1.15625,0.734375 1.15625,1.15625 C 6.078125,-1.28125 5.1875,-0.3125 4,-0.3125 l -1.34375,0 z"
             style="stroke:none"
             inkscape:connector-curvature="0" />
        </symbol>
      </g>
    </defs>
    <g
       id="g3162">
      <g
         id="g3164"
         style="fill:#000000;fill-opacity:1">
        <use
           id="use3166"
           y="134.765"
           x="223.43201"
           xlink:href="#textext-ebb944c4-1"
           width="990"
           height="765" />
      </g>
    </g>
  </g>
  <g
     transform="translate(-63.133205,-45.440447)"
     ns0:text="$C$"
     ns0:preamble=""
     id="g3168">
    <defs
       id="defs3170">
      <g
         id="g3172">
        <symbol
           style="overflow:visible"
           overflow="visible"
           id="symbol3174">
          <path
             style="stroke:none"
             d=""
             id="path3176"
             inkscape:connector-curvature="0" />
        </symbol>
        <symbol
           style="overflow:visible"
           overflow="visible"
           id="symbol3178">
          <path
             style="stroke:none"
             d="m 7.578125,-6.921875 c 0,-0.03125 -0.015625,-0.109375 -0.109375,-0.109375 -0.03125,0 -0.046875,0.015625 -0.15625,0.125 L 6.625,-6.140625 C 6.53125,-6.28125 6.078125,-7.03125 4.96875,-7.03125 2.734375,-7.03125 0.5,-4.828125 0.5,-2.515625 0.5,-0.875 1.671875,0.21875 3.203125,0.21875 c 0.859375,0 1.625,-0.390625 2.15625,-0.859375 0.921875,-0.8125 1.09375,-1.71875 1.09375,-1.75 C 6.453125,-2.5 6.34375,-2.5 6.328125,-2.5 c -0.0625,0 -0.109375,0.03125 -0.125,0.109375 -0.09375,0.28125 -0.328125,1 -1.015625,1.578125 -0.6875,0.546875 -1.3125,0.71875 -1.828125,0.71875 -0.890625,0 -1.953125,-0.515625 -1.953125,-2.0625 0,-0.578125 0.203125,-2.1875 1.203125,-3.359375 0.609375,-0.703125 1.546875,-1.203125 2.4375,-1.203125 1.015625,0 1.609375,0.765625 1.609375,1.921875 0,0.40625 -0.03125,0.40625 -0.03125,0.515625 0,0.09375 0.109375,0.09375 0.140625,0.09375 0.125,0 0.125,-0.015625 0.1875,-0.203125 l 0.625,-2.53125 z"
             id="path3181"
             inkscape:connector-curvature="0" />
        </symbol>
      </g>
    </defs>
    <g
       id="g3183">
      <g
         style="fill:#000000;fill-opacity:1"
         id="g3185">
        <use
           height="765"
           width="990"
           xlink:href="#textext-985e667b-1"
           x="223.43201"
           y="134.765"
           id="use3187" />
      </g>
    </g>
  </g>
  <path
     style="fill:none;stroke:#000000;stroke-width:0.99000001;stroke-linecap:butt;stroke-linejoin:miter;stroke-miterlimit:4;stroke-opacity:1;stroke-dasharray:none;marker-end:url(#Arrow2Mend)"
     d="m 100.37693,48.543302 56.25,0"
     id="path3200"
     inkscape:connector-curvature="0" />
  <g
     id="g3854"
     transform="matrix(0.185,0,0,0.185,65.277165,-10.772087)">
    <g
       word-spacing="normal"
       letter-spacing="normal"
       font-size-adjust="none"
       font-stretch="normal"
       font-weight="normal"
       font-variant="normal"
       font-style="normal"
       stroke-miterlimit="10.433"
       xml:space="preserve"
       transform="matrix(1.0928571,0,0,-1.0928571,-191.25,742.5)"
       id="content"
       style="font-style:normal;font-variant:normal;font-weight:normal;font-stretch:normal;letter-spacing:normal;word-spacing:normal;text-anchor:start;fill:none;stroke:#000000;stroke-linecap:butt;stroke-linejoin:miter;stroke-miterlimit:10.43299961;stroke-opacity:1;stroke-dasharray:none;stroke-dashoffset:0"><path
         id="path3857"
         d="m 479.68,421.89 v 3.04 h -15.04 v 12.5 h 6.52 c 0.59,0 1.2,-0.04 1.8,-0.04 h 8.76 v 3.23 H 460.21 V 406.2 h 4.43 v 15.69 z"
         inkscape:connector-curvature="0"
         style="fill:#000000;stroke-width:0" /><path
         id="path3859"
         d="m 487.98,403.54 0.04,-0.21 0.04,-0.22 0.04,-0.22 0.05,-0.22 0.06,-0.22 0.06,-0.23 0.07,-0.22 0.07,-0.23 0.08,-0.22 0.09,-0.22 0.09,-0.22 0.1,-0.21 0.11,-0.21 0.11,-0.2 0.12,-0.2 0.13,-0.2 0.13,-0.19 0.14,-0.18 0.16,-0.17 0.16,-0.16 0.16,-0.16 0.18,-0.14 0.18,-0.13 0.2,-0.13 0.2,-0.11 0.21,-0.09 0.23,-0.09 0.23,-0.07 0.24,-0.06 0.25,-0.04 0.27,-0.02 0.27,-0.01 c 1.11,0 2.36,0.45 3.62,1.27 0.6,0.34 2.41,1.62 2.41,2.04 0,0.21 -0.25,0.66 -0.56,0.66 -0.17,0 -0.25,0 -0.77,-0.52 -1.5,-1.33 -3.11,-2.47 -4.67,-2.47 -2.37,0 -2.37,4.08 -2.37,4.74 0,0.45 0,0.51 0.07,1.19 0.03,0.34 0.03,0.42 0.46,0.79 1.92,1.82 8.5,8.16 8.5,14.22 0,0.52 0,3.03 -2.3,3.03 l -0.03,-0.97 c 0.8,0 1.22,-0.56 1.22,-1.81 0,-0.42 0,-3.53 -3,-7.81 -1.78,-2.52 -3.71,-4.39 -4.53,-5.19 h 0 c 0.62,3.55 3.37,14.81 6.31,14.81 l 0.03,0.97 c -2.89,0 -5.23,-4.5 -5.78,-5.54 -1.55,-2.96 -2.35,-5.82 -2.72,-7.57 -0.53,-2.32 -0.53,-3.54 -0.53,-5.25 -0.24,-0.25 -2.22,-2.03 -2.58,-2.29 -0.55,-0.5 -0.59,-0.53 -0.59,-0.74 0,-0.25 0.31,-0.62 0.59,-0.62 0.25,0 1.19,0.86 1.44,1.11 z"
         inkscape:connector-curvature="0"
         style="fill:#000000;stroke-width:0" /></g>  </g>
</svg>
