<?xml version="1.0" encoding="UTF-8" standalone="no"?>
<!-- Created with Inkscape (http://www.inkscape.org/) -->
<svg
   xmlns:ns0="http://www.iki.fi/pav/software/textext/"
   xmlns:dc="http://purl.org/dc/elements/1.1/"
   xmlns:cc="http://creativecommons.org/ns#"
   xmlns:rdf="http://www.w3.org/1999/02/22-rdf-syntax-ns#"
   xmlns:svg="http://www.w3.org/2000/svg"
   xmlns="http://www.w3.org/2000/svg"
   xmlns:xlink="http://www.w3.org/1999/xlink"
   xmlns:sodipodi="http://sodipodi.sourceforge.net/DTD/sodipodi-0.dtd"
   xmlns:inkscape="http://www.inkscape.org/namespaces/inkscape"
   id="svg2"
   sodipodi:version="0.32"
   inkscape:version="0.46"
   width="990"
   height="765"
   version="1.0"
   sodipodi:docname="transEg1.svg"
   inkscape:output_extension="org.inkscape.output.svg.inkscape">
  <sodipodi:namedview
     inkscape:window-height="723"
     inkscape:window-width="1162"
     inkscape:pageshadow="2"
     inkscape:pageopacity="0.0"
     guidetolerance="10.0"
     gridtolerance="10.0"
     objecttolerance="10.0"
     borderopacity="1.0"
     bordercolor="#666666"
     pagecolor="#ffffff"
     id="base"
     showgrid="true"
     inkscape:zoom="2.73861"
     inkscape:cx="270.03719"
     inkscape:cy="607.46281"
     inkscape:window-x="100"
     inkscape:window-y="0"
     inkscape:current-layer="svg2"
     inkscape:document-units="in"
     inkscape:snap-intersection-line-segments="true"
     inkscape:snap-bbox="true"
     inkscape:object-paths="true"
     inkscape:object-nodes="true"
     inkscape:snap-intersection-grid-guide="true"
     inkscape:snap-center="true">
    <inkscape:grid
       empspacing="4"
       spacingy="0.125in"
       spacingx="0.125in"
       enabled="true"
       visible="true"
       units="in"
       id="grid2395"
       type="xygrid" />
  </sodipodi:namedview>
  <metadata
     id="metadata7">
    <rdf:RDF>
      <cc:Work
         rdf:about="">
        <dc:format>image/svg+xml</dc:format>
        <dc:type
           rdf:resource="http://purl.org/dc/dcmitype/StillImage" />
      </cc:Work>
    </rdf:RDF>
  </metadata>
  <defs
     id="defs5">
    <marker
       inkscape:stockid="Arrow2Mstart"
       orient="auto"
       refY="0.0"
       refX="0.0"
       id="Arrow2Mstart"
       style="overflow:visible">
      <path
         id="path3249"
         style="font-size:12.0;fill-rule:evenodd;stroke-width:0.62500000;stroke-linejoin:round"
         d="M 8.7185878,4.0337352 L -2.2072895,0.016013256 L 8.7185884,-4.0017078 C 6.9730900,-1.6296469 6.9831476,1.6157441 8.7185878,4.0337352 z "
         transform="scale(0.6) translate(0,0)" />
    </marker>
    <marker
       style="overflow:visible;"
       id="Arrow2Send"
       refX="0.0"
       refY="0.0"
       orient="auto"
       inkscape:stockid="Arrow2Send">
      <path
         transform="scale(0.3) rotate(180) translate(-2.3,0)"
         d="M 8.7185878,4.0337352 L -2.2072895,0.016013256 L 8.7185884,-4.0017078 C 6.9730900,-1.6296469 6.9831476,1.6157441 8.7185878,4.0337352 z "
         style="font-size:12.0;fill-rule:evenodd;stroke-width:0.62500000;stroke-linejoin:round;"
         id="path3258" />
    </marker>
    <marker
       style="overflow:visible;"
       id="Arrow1Send"
       refX="0.0"
       refY="0.0"
       orient="auto"
       inkscape:stockid="Arrow1Send">
      <path
         transform="scale(0.2) rotate(180) translate(6,0)"
         style="fill-rule:evenodd;stroke:#000000;stroke-width:1.0pt;marker-start:none;"
         d="M 0.0,0.0 L 5.0,-5.0 L -12.5,0.0 L 5.0,5.0 L 0.0,0.0 z "
         id="path3189" />
    </marker>
    <marker
       style="overflow:visible;"
       id="Arrow2Lend"
       refX="0.0"
       refY="0.0"
       orient="auto"
       inkscape:stockid="Arrow2Lend">
      <path
         transform="scale(1.1) rotate(180) translate(1,0)"
         d="M 8.7185878,4.0337352 L -2.2072895,0.016013256 L 8.7185884,-4.0017078 C 6.9730900,-1.6296469 6.9831476,1.6157441 8.7185878,4.0337352 z "
         style="font-size:12.0;fill-rule:evenodd;stroke-width:0.62500000;stroke-linejoin:round;"
         id="path3195" />
    </marker>
    <marker
       style="overflow:visible;"
       id="Arrow2Mend"
       refX="0.0"
       refY="0.0"
       orient="auto"
       inkscape:stockid="Arrow2Mend">
      <path
         transform="scale(0.6) rotate(180) translate(0,0)"
         d="M 8.7185878,4.0337352 L -2.2072895,0.016013256 L 8.7185884,-4.0017078 C 6.9730900,-1.6296469 6.9831476,1.6157441 8.7185878,4.0337352 z "
         style="font-size:12.0;fill-rule:evenodd;stroke-width:0.62500000;stroke-linejoin:round;"
         id="path3201" />
    </marker>
    <marker
       style="overflow:visible"
       id="Arrow1Mstart"
       refX="0.0"
       refY="0.0"
       orient="auto"
       inkscape:stockid="Arrow1Mstart">
      <path
         transform="scale(0.4) translate(10,0)"
         style="fill-rule:evenodd;stroke:#000000;stroke-width:1.0pt;marker-start:none"
         d="M 0.0,0.0 L 5.0,-5.0 L -12.5,0.0 L 5.0,5.0 L 0.0,0.0 z "
         id="path3180" />
    </marker>
    <inkscape:perspective
       id="perspective9"
       inkscape:persp3d-origin="372.04724 : 350.78739 : 1"
       inkscape:vp_z="744.09448 : 526.18109 : 1"
       inkscape:vp_y="0 : 1000 : 0"
       inkscape:vp_x="0 : 526.18109 : 1"
       sodipodi:type="inkscape:persp3d" />
    <marker
       style="overflow:visible;"
       id="Arrow2LendH"
       refX="0.0"
       refY="0.0"
       orient="auto"
       inkscape:stockid="Arrow2LendH">
      <path
         transform="scale(1.1) rotate(180) translate(1,0)"
         d="M 8.7185878,4.0337352 L -2.2072895,0.016013256 L 8.7185884,-4.0017078 C 6.9730900,-1.6296469 6.9831476,1.6157441 8.7185878,4.0337352 z "
         style="stroke-linejoin:round;font-size:12.0;fill-rule:evenodd;stroke:#000000;stroke-width:0.62500000;fill:#000000"
         id="path11517" />
    </marker>
    <marker
       style="overflow:visible;"
       id="Arrow1SendJ"
       refX="0.0"
       refY="0.0"
       orient="auto"
       inkscape:stockid="Arrow1SendJ">
      <path
         transform="scale(0.2) rotate(180) translate(6,0)"
         style="marker-start:none;stroke:#7f7f7f;stroke-width:1.0pt;fill:#7f7f7f;fill-rule:evenodd"
         d="M 0.0,0.0 L 5.0,-5.0 L -12.5,0.0 L 5.0,5.0 L 0.0,0.0 z "
         id="path11606" />
    </marker>
    <marker
       style="overflow:visible;"
       id="Arrow1SendJm"
       refX="0.0"
       refY="0.0"
       orient="auto"
       inkscape:stockid="Arrow1SendJm">
      <path
         transform="scale(0.2) rotate(180) translate(6,0)"
         style="fill-rule:evenodd;marker-start:none;stroke:#a6a6a6;stroke-width:1.0pt;fill:#a6a6a6"
         d="M 0.0,0.0 L 5.0,-5.0 L -12.5,0.0 L 5.0,5.0 L 0.0,0.0 z "
         id="path11817" />
    </marker>
    <marker
       style="overflow:visible;"
       id="Arrow2SendB"
       refX="0.0"
       refY="0.0"
       orient="auto"
       inkscape:stockid="Arrow2SendB">
      <path
         transform="scale(0.3) rotate(180) translate(-2.3,0)"
         d="M 8.7185878,4.0337352 L -2.2072895,0.016013256 L 8.7185884,-4.0017078 C 6.9730900,-1.6296469 6.9831476,1.6157441 8.7185878,4.0337352 z "
         style="stroke-linejoin:round;font-size:12.0;fill-rule:evenodd;stroke:#a6a6a6;stroke-width:0.62500000;fill:#a6a6a6"
         id="path8144" />
    </marker>
  </defs>
  <path
     sodipodi:nodetypes="cc"
     id="path7081"
     d="M 213.75,123.75 L 286.65762,180"
     style="opacity:1;stroke-linejoin:miter;marker-end:url(#Arrow2SendB);stroke-opacity:1;fill-rule:evenodd;stroke:#a6a6a6;stroke-linecap:butt;stroke-miterlimit:4;stroke-dasharray:none;stroke-width:12.51;fill:none" />
  <g
     id="g9441">
    <g
       id="g6132">
      <path
         style="fill:none;fill-rule:evenodd;stroke:#7f7f7f;stroke-width:0.54000002;stroke-linecap:butt;stroke-linejoin:miter;stroke-miterlimit:4;stroke-dasharray:none;stroke-opacity:1"
         d="M 146.25,135 L 393.75,135"
         id="path11718"
         sodipodi:nodetypes="cc" />
      <path
         sodipodi:nodetypes="cc"
         style="fill:none;fill-rule:evenodd;stroke:#7f7f7f;stroke-width:0.54000002;stroke-linecap:butt;stroke-linejoin:miter;stroke-miterlimit:4;stroke-dasharray:none;stroke-opacity:1"
         d="M 247.5,78.75 L 247.5,236.25"
         id="path11742" />
      <path
         id="path11744"
         d="M 292.5,78.75 L 292.5,236.25"
         style="fill:none;fill-rule:evenodd;stroke:#7f7f7f;stroke-width:0.54000002;stroke-linecap:butt;stroke-linejoin:miter;stroke-miterlimit:4;stroke-dasharray:none;stroke-opacity:1"
         sodipodi:nodetypes="cc" />
      <path
         sodipodi:nodetypes="cc"
         style="fill:none;fill-rule:evenodd;stroke:#7f7f7f;stroke-width:0.54000002;stroke-linecap:butt;stroke-linejoin:miter;stroke-miterlimit:4;stroke-dasharray:none;stroke-opacity:1"
         d="M 315,78.75 L 315,236.25"
         id="path11746" />
      <path
         id="path11748"
         d="M 337.5,78.75 L 337.5,236.25"
         style="fill:none;fill-rule:evenodd;stroke:#7f7f7f;stroke-width:0.54000002;stroke-linecap:butt;stroke-linejoin:miter;stroke-miterlimit:4;stroke-dasharray:none;stroke-opacity:1"
         sodipodi:nodetypes="cc" />
      <path
         sodipodi:nodetypes="cc"
         style="fill:none;fill-rule:evenodd;stroke:#7f7f7f;stroke-width:0.54000002;stroke-linecap:butt;stroke-linejoin:miter;stroke-miterlimit:4;stroke-dasharray:none;stroke-opacity:1"
         d="M 360,78.75 L 360,236.25"
         id="path11750" />
      <path
         id="path11752"
         d="M 382.5,78.75 L 382.5,236.25"
         style="fill:none;fill-rule:evenodd;stroke:#7f7f7f;stroke-width:0.54000002;stroke-linecap:butt;stroke-linejoin:miter;stroke-miterlimit:4;stroke-dasharray:none;stroke-opacity:1"
         sodipodi:nodetypes="cc" />
      <path
         id="path11754"
         d="M 225,78.75 L 225,236.25"
         style="fill:none;fill-rule:evenodd;stroke:#7f7f7f;stroke-width:0.54000002;stroke-linecap:butt;stroke-linejoin:miter;stroke-miterlimit:4;stroke-dasharray:none;stroke-opacity:1"
         sodipodi:nodetypes="cc" />
      <path
         sodipodi:nodetypes="cc"
         style="fill:none;fill-rule:evenodd;stroke:#7f7f7f;stroke-width:0.54000002;stroke-linecap:butt;stroke-linejoin:miter;stroke-miterlimit:4;stroke-dasharray:none;stroke-opacity:1"
         d="M 202.5,78.75 L 202.5,236.25"
         id="path11756" />
      <path
         id="path11758"
         d="M 180,78.75 L 180,236.25"
         style="fill:none;fill-rule:evenodd;stroke:#7f7f7f;stroke-width:0.54000002;stroke-linecap:butt;stroke-linejoin:miter;stroke-miterlimit:4;stroke-dasharray:none;stroke-opacity:1"
         sodipodi:nodetypes="cc" />
      <path
         sodipodi:nodetypes="cc"
         style="fill:none;fill-rule:evenodd;stroke:#7f7f7f;stroke-width:0.54000002;stroke-linecap:butt;stroke-linejoin:miter;stroke-miterlimit:4;stroke-dasharray:none;stroke-opacity:1"
         d="M 157.5,78.75 L 157.5,236.25"
         id="path11760" />
      <path
         sodipodi:nodetypes="cc"
         id="path11762"
         d="M 146.25,112.5 L 393.75,112.5"
         style="fill:none;fill-rule:evenodd;stroke:#7f7f7f;stroke-width:0.54000002;stroke-linecap:butt;stroke-linejoin:miter;stroke-miterlimit:4;stroke-dasharray:none;stroke-opacity:1" />
      <path
         style="fill:none;fill-rule:evenodd;stroke:#7f7f7f;stroke-width:0.54000002;stroke-linecap:butt;stroke-linejoin:miter;stroke-miterlimit:4;stroke-dasharray:none;stroke-opacity:1"
         d="M 146.25,90 L 393.75,90"
         id="path11764"
         sodipodi:nodetypes="cc" />
      <path
         sodipodi:nodetypes="cc"
         id="path11766"
         d="M 146.25,180 L 393.75,180"
         style="fill:none;fill-rule:evenodd;stroke:#7f7f7f;stroke-width:0.54000002;stroke-linecap:butt;stroke-linejoin:miter;stroke-miterlimit:4;stroke-dasharray:none;stroke-opacity:1" />
      <path
         style="fill:none;fill-rule:evenodd;stroke:#7f7f7f;stroke-width:0.54000002;stroke-linecap:butt;stroke-linejoin:miter;stroke-miterlimit:4;stroke-dasharray:none;stroke-opacity:1"
         d="M 146.25,202.5 L 393.75,202.5"
         id="path11768"
         sodipodi:nodetypes="cc" />
      <path
         sodipodi:nodetypes="cc"
         id="path11770"
         d="M 146.25,225 L 393.75,225"
         style="fill:none;fill-rule:evenodd;stroke:#7f7f7f;stroke-width:0.54000002;stroke-linecap:butt;stroke-linejoin:miter;stroke-miterlimit:4;stroke-dasharray:none;stroke-opacity:1" />
    </g>
    <path
       style="fill:none;fill-rule:evenodd;stroke:#000000;stroke-width:1px;stroke-linecap:butt;stroke-linejoin:miter;marker-start:url(#Arrow2Mstart);marker-end:url(#Arrow2Mend);stroke-opacity:1"
       d="M 270,67.5 L 270,247.5"
       id="path3169"
       sodipodi:nodetypes="cc" />
    <path
       style="fill:none;fill-rule:evenodd;stroke:#000000;stroke-width:1px;stroke-linecap:butt;stroke-linejoin:miter;marker-start:url(#Arrow2Mstart);marker-mid:none;marker-end:url(#Arrow2Mend);stroke-opacity:1"
       d="M 135,157.5 L 405,157.5"
       id="path4472"
       sodipodi:nodetypes="cc" />
  </g>
  <path
     sodipodi:type="arc"
     style="opacity:1;fill:none;fill-opacity:1;stroke:#000000;stroke-width:0.5;stroke-linecap:square;stroke-linejoin:bevel;stroke-miterlimit:4;stroke-dasharray:none;stroke-opacity:0.39215686"
     id="path11772"
     sodipodi:cx="202.5"
     sodipodi:cy="112.5"
     sodipodi:rx="0"
     sodipodi:ry="0"
     d="M 202.5,112.5 A 0,0 0 1 1 202.5,112.5 A 0,0 0 1 1 202.5,112.5 z" />
  <path
     sodipodi:type="arc"
     style="opacity:1;fill:#000000;fill-opacity:1;stroke:none;stroke-width:0.5;stroke-linecap:square;stroke-linejoin:bevel;stroke-miterlimit:4;stroke-dasharray:none;stroke-opacity:0.43171806"
     id="path11794"
     sodipodi:cx="444.375"
     sodipodi:cy="129.375"
     sodipodi:rx="5.625"
     sodipodi:ry="5.625"
     d="M 450,129.375 A 5.625,5.625 0 1 1 438.75,129.375 A 5.625,5.625 0 1 1 450,129.375 z"
     transform="matrix(0.64,0,0,0.6417315,-81.9,29.475987)" />
  <path
     transform="matrix(0.64,0,0,0.6417315,30.6,119.47599)"
     d="M 450,129.375 A 5.625,5.625 0 1 1 438.75,129.375 A 5.625,5.625 0 1 1 450,129.375 z"
     sodipodi:ry="5.625"
     sodipodi:rx="5.625"
     sodipodi:cy="129.375"
     sodipodi:cx="444.375"
     id="path11796"
     style="opacity:1;fill:#000000;fill-opacity:1;stroke:none;stroke-width:0.5;stroke-linecap:square;stroke-linejoin:bevel;stroke-miterlimit:4;stroke-dasharray:none;stroke-opacity:0.43171806"
     sodipodi:type="arc" />
  <g
     id="g11926"
     ns0:preamble=""
     ns0:text="$(-3,2)$"
     transform="translate(-16.070297,-26.030624)">
    <defs
       id="defs11928">
      <g
         id="g11930">
        <symbol
           id="textext-83f10992-0"
           overflow="visible"
           style="overflow:visible">
          <path
             id="path11933"
             d=""
             style="stroke:none" />
        </symbol>
        <symbol
           id="textext-83f10992-1"
           overflow="visible"
           style="overflow:visible">
          <path
             id="path11936"
             d="M 3.296875,2.390625 C 3.296875,2.359375 3.296875,2.34375 3.125,2.171875 C 1.890625,0.921875 1.5625,-0.96875 1.5625,-2.5 C 1.5625,-4.234375 1.9375,-5.96875 3.171875,-7.203125 C 3.296875,-7.328125 3.296875,-7.34375 3.296875,-7.375 C 3.296875,-7.453125 3.265625,-7.484375 3.203125,-7.484375 C 3.09375,-7.484375 2.203125,-6.796875 1.609375,-5.53125 C 1.109375,-4.4375 0.984375,-3.328125 0.984375,-2.5 C 0.984375,-1.71875 1.09375,-0.515625 1.640625,0.625 C 2.25,1.84375 3.09375,2.5 3.203125,2.5 C 3.265625,2.5 3.296875,2.46875 3.296875,2.390625 z"
             style="stroke:none" />
        </symbol>
        <symbol
           id="textext-83f10992-2"
           overflow="visible"
           style="overflow:visible">
          <path
             id="path11939"
             d="M 2.890625,-3.515625 C 3.703125,-3.78125 4.28125,-4.46875 4.28125,-5.265625 C 4.28125,-6.078125 3.40625,-6.640625 2.453125,-6.640625 C 1.453125,-6.640625 0.6875,-6.046875 0.6875,-5.28125 C 0.6875,-4.953125 0.90625,-4.765625 1.203125,-4.765625 C 1.5,-4.765625 1.703125,-4.984375 1.703125,-5.28125 C 1.703125,-5.765625 1.234375,-5.765625 1.09375,-5.765625 C 1.390625,-6.265625 2.046875,-6.390625 2.40625,-6.390625 C 2.828125,-6.390625 3.375,-6.171875 3.375,-5.28125 C 3.375,-5.15625 3.34375,-4.578125 3.09375,-4.140625 C 2.796875,-3.65625 2.453125,-3.625 2.203125,-3.625 C 2.125,-3.609375 1.890625,-3.59375 1.8125,-3.59375 C 1.734375,-3.578125 1.671875,-3.5625 1.671875,-3.46875 C 1.671875,-3.359375 1.734375,-3.359375 1.90625,-3.359375 L 2.34375,-3.359375 C 3.15625,-3.359375 3.53125,-2.6875 3.53125,-1.703125 C 3.53125,-0.34375 2.84375,-0.0625 2.40625,-0.0625 C 1.96875,-0.0625 1.21875,-0.234375 0.875,-0.8125 C 1.21875,-0.765625 1.53125,-0.984375 1.53125,-1.359375 C 1.53125,-1.71875 1.265625,-1.921875 0.984375,-1.921875 C 0.734375,-1.921875 0.421875,-1.78125 0.421875,-1.34375 C 0.421875,-0.4375 1.34375,0.21875 2.4375,0.21875 C 3.65625,0.21875 4.5625,-0.6875 4.5625,-1.703125 C 4.5625,-2.515625 3.921875,-3.296875 2.890625,-3.515625 z"
             style="stroke:none" />
        </symbol>
        <symbol
           id="textext-83f10992-3"
           overflow="visible"
           style="overflow:visible">
          <path
             id="path11942"
             d="M 4.46875,-1.734375 L 4.234375,-1.734375 C 4.171875,-1.4375 4.109375,-1 4,-0.84375 C 3.9375,-0.765625 3.28125,-0.765625 3.0625,-0.765625 L 1.265625,-0.765625 L 2.328125,-1.796875 C 3.875,-3.171875 4.46875,-3.703125 4.46875,-4.703125 C 4.46875,-5.84375 3.578125,-6.640625 2.359375,-6.640625 C 1.234375,-6.640625 0.5,-5.71875 0.5,-4.828125 C 0.5,-4.28125 1,-4.28125 1.03125,-4.28125 C 1.203125,-4.28125 1.546875,-4.390625 1.546875,-4.8125 C 1.546875,-5.0625 1.359375,-5.328125 1.015625,-5.328125 C 0.9375,-5.328125 0.921875,-5.328125 0.890625,-5.3125 C 1.109375,-5.96875 1.65625,-6.328125 2.234375,-6.328125 C 3.140625,-6.328125 3.5625,-5.515625 3.5625,-4.703125 C 3.5625,-3.90625 3.078125,-3.125 2.515625,-2.5 L 0.609375,-0.375 C 0.5,-0.265625 0.5,-0.234375 0.5,0 L 4.203125,0 L 4.46875,-1.734375 z"
             style="stroke:none" />
        </symbol>
        <symbol
           id="textext-83f10992-4"
           overflow="visible"
           style="overflow:visible">
          <path
             id="path11945"
             d="M 2.875,-2.5 C 2.875,-3.265625 2.765625,-4.46875 2.21875,-5.609375 C 1.625,-6.828125 0.765625,-7.484375 0.671875,-7.484375 C 0.609375,-7.484375 0.5625,-7.4375 0.5625,-7.375 C 0.5625,-7.34375 0.5625,-7.328125 0.75,-7.140625 C 1.734375,-6.15625 2.296875,-4.578125 2.296875,-2.5 C 2.296875,-0.78125 1.9375,0.96875 0.703125,2.21875 C 0.5625,2.34375 0.5625,2.359375 0.5625,2.390625 C 0.5625,2.453125 0.609375,2.5 0.671875,2.5 C 0.765625,2.5 1.671875,1.8125 2.25,0.546875 C 2.765625,-0.546875 2.875,-1.65625 2.875,-2.5 z"
             style="stroke:none" />
        </symbol>
        <symbol
           id="textext-83f10992-5"
           overflow="visible"
           style="overflow:visible">
          <path
             id="path11948"
             d=""
             style="stroke:none" />
        </symbol>
        <symbol
           id="textext-83f10992-6"
           overflow="visible"
           style="overflow:visible">
          <path
             id="path11951"
             d="M 6.59375,-2.296875 C 6.734375,-2.296875 6.921875,-2.296875 6.921875,-2.5 C 6.921875,-2.6875 6.734375,-2.6875 6.59375,-2.6875 L 1.15625,-2.6875 C 1.015625,-2.6875 0.828125,-2.6875 0.828125,-2.5 C 0.828125,-2.296875 1.015625,-2.296875 1.15625,-2.296875 L 6.59375,-2.296875 z"
             style="stroke:none" />
        </symbol>
        <symbol
           id="textext-83f10992-7"
           overflow="visible"
           style="overflow:visible">
          <path
             id="path11954"
             d=""
             style="stroke:none" />
        </symbol>
        <symbol
           id="textext-83f10992-8"
           overflow="visible"
           style="overflow:visible">
          <path
             id="path11957"
             d="M 2.03125,-0.015625 C 2.03125,-0.671875 1.78125,-1.0625 1.390625,-1.0625 C 1.0625,-1.0625 0.859375,-0.8125 0.859375,-0.53125 C 0.859375,-0.265625 1.0625,0 1.390625,0 C 1.5,0 1.640625,-0.046875 1.734375,-0.125 C 1.765625,-0.15625 1.78125,-0.15625 1.78125,-0.15625 C 1.796875,-0.15625 1.796875,-0.15625 1.796875,-0.015625 C 1.796875,0.734375 1.453125,1.328125 1.125,1.65625 C 1.015625,1.765625 1.015625,1.78125 1.015625,1.8125 C 1.015625,1.890625 1.0625,1.921875 1.109375,1.921875 C 1.21875,1.921875 2.03125,1.15625 2.03125,-0.015625 z"
             style="stroke:none" />
        </symbol>
      </g>
    </defs>
    <g
       id="textext-83f10992-9">
      <g
         id="g11960"
         style="fill:#000000;fill-opacity:1">
        <use
           id="use11962"
           y="134.765"
           x="223.43201"
           xlink:href="#textext-83f10992-1"
           width="990"
           height="765" />
      </g>
      <g
         id="g11964"
         style="fill:#000000;fill-opacity:1">
        <use
           id="use11966"
           y="134.765"
           x="227.306"
           xlink:href="#textext-83f10992-6"
           width="990"
           height="765" />
      </g>
      <g
         id="g11968"
         style="fill:#000000;fill-opacity:1">
        <use
           id="use11970"
           y="134.765"
           x="235.05499"
           xlink:href="#textext-83f10992-2"
           width="990"
           height="765" />
      </g>
      <g
         id="g11972"
         style="fill:#000000;fill-opacity:1">
        <use
           id="use11974"
           y="134.765"
           x="240.037"
           xlink:href="#textext-83f10992-8"
           width="990"
           height="765" />
      </g>
      <g
         id="g11976"
         style="fill:#000000;fill-opacity:1">
        <use
           id="use11978"
           y="134.765"
           x="244.464"
           xlink:href="#textext-83f10992-3"
           width="990"
           height="765" />
        <use
           id="use11980"
           y="134.765"
           x="249.4453"
           xlink:href="#textext-83f10992-4"
           width="990"
           height="765" />
      </g>
    </g>
  </g>
</svg>
