<?xml version="1.0" encoding="UTF-8" standalone="no"?>
<!-- Created with Inkscape (http://www.inkscape.org/) -->

<svg
   xmlns:dc="http://purl.org/dc/elements/1.1/"
   xmlns:cc="http://creativecommons.org/ns#"
   xmlns:rdf="http://www.w3.org/1999/02/22-rdf-syntax-ns#"
   xmlns:svg="http://www.w3.org/2000/svg"
   xmlns="http://www.w3.org/2000/svg"
   xmlns:sodipodi="http://sodipodi.sourceforge.net/DTD/sodipodi-0.dtd"
   xmlns:inkscape="http://www.inkscape.org/namespaces/inkscape"
   width="765"
   height="990"
   id="svg2"
   sodipodi:version="0.32"
   inkscape:version="0.48.4 r9939"
   version="1.0"
   sodipodi:docname="venn.svg"
   inkscape:output_extension="org.inkscape.output.svg.inkscape">
  <sodipodi:namedview
     id="base"
     pagecolor="#ffffff"
     bordercolor="#666666"
     borderopacity="1.0"
     gridtolerance="10"
     guidetolerance="10"
     objecttolerance="10"
     inkscape:pageopacity="0.0"
     inkscape:pageshadow="2"
     inkscape:zoom="3.4577181"
     inkscape:cx="135"
     inkscape:cy="561.8245"
     inkscape:document-units="in"
     inkscape:current-layer="layer1"
     showgrid="true"
     units="in"
     inkscape:window-width="1280"
     inkscape:window-height="741"
     inkscape:window-x="0"
     inkscape:window-y="27"
     showguides="true"
     inkscape:guide-bbox="true"
     inkscape:window-maximized="1">
    <inkscape:grid
       type="xygrid"
       id="grid3245"
       visible="true"
       enabled="true"
       units="in"
       spacingx="0.0625in"
       spacingy="0.0625in"
       empspacing="4" />
  </sodipodi:namedview>
  <defs
     id="defs4">
    <inkscape:perspective
       sodipodi:type="inkscape:persp3d"
       inkscape:vp_x="0 : 526.18109 : 1"
       inkscape:vp_y="0 : 1000 : 0"
       inkscape:vp_z="744.09448 : 526.18109 : 1"
       inkscape:persp3d-origin="372.04724 : 350.78739 : 1"
       id="perspective10" />
  </defs>
  <metadata
     id="metadata7">
    <rdf:RDF>
      <cc:Work
         rdf:about="">
        <dc:format>image/svg+xml</dc:format>
        <dc:type
           rdf:resource="http://purl.org/dc/dcmitype/StillImage" />
        <dc:title></dc:title>
      </cc:Work>
    </rdf:RDF>
  </metadata>
  <g
     inkscape:label="Layer 1"
     inkscape:groupmode="layer"
     id="layer1">
    <path
       style="fill:#ffffff;fill-opacity:1;stroke:#000000;stroke-width:0;stroke-linejoin:bevel;stroke-miterlimit:4;stroke-opacity:1;stroke-dasharray:none;stroke-dashoffset:0"
       d="m 106.875,401.09375 c -16.669603,9.65227 -27.941646,27.6117 -28.125,48.20312 8.279519,4.79719 17.873875,7.53906 28.125,7.53906 10.2452,0 19.84839,-2.74661 28.125,-7.53906 -16.66105,-9.65349 -27.9417,-27.61761 -28.125,-48.20312 z"
       id="path4003"
       inkscape:connector-curvature="0" />
    <path
       style="fill:#ffffff;fill-opacity:1;stroke:#000000;stroke-width:0;stroke-linejoin:bevel;stroke-miterlimit:4;stroke-opacity:1;stroke-dasharray:none;stroke-dashoffset:0"
       d="m 135,352.52549 c -16.80369,9.73189 -28.125,27.86922 -28.125,48.67188 0,0.16895 -0.001,0.33921 0,0.50781 8.27369,-4.78795 17.88454,-7.53906 28.125,-7.53906 10.24046,0 19.85131,2.75111 28.125,7.53906 0.001,-0.1686 0,-0.33886 0,-0.50781 0,-20.80266 -11.32131,-38.93999 -28.125,-48.67188 z"
       id="path3330"
       inkscape:connector-curvature="0" />
    <rect
       style="fill:none;stroke:#000000;stroke-width:0.625;stroke-linejoin:bevel;stroke-miterlimit:4;stroke-opacity:1;stroke-dasharray:none;stroke-dashoffset:0"
       id="rect3196"
       width="281.25"
       height="232.03125"
       x="-5.625"
       y="308.67188" />
    <path
       style="fill:#ffffff;fill-opacity:1;stroke:#000000;stroke-width:0.625;stroke-linejoin:bevel;stroke-miterlimit:4;stroke-opacity:1;stroke-dasharray:none;stroke-dashoffset:0"
       d="m 135,393.59375 c -10.24046,0 -19.85131,2.75111 -28.125,7.53906 0.18334,20.5893 11.45891,38.51186 28.125,48.16406 16.66609,-9.6522 27.94166,-27.57476 28.125,-48.16406 -8.27369,-4.78795 -17.88454,-7.53906 -28.125,-7.53906 z"
       id="path3234"
       inkscape:connector-curvature="0" />
    <path
       style="fill:#ffffff;fill-opacity:1;stroke:#000000;stroke-width:0.625;stroke-linejoin:bevel;stroke-miterlimit:4;stroke-opacity:1;stroke-dasharray:none;stroke-dashoffset:0"
       d="m 106.875,344.33593 c -31.05,0 -56.25,25.2 -56.25,56.25 0,20.80954 11.312142,38.98142 28.125,48.71094 0.181876,-20.59765 11.448688,-38.55263 28.125,-48.20312 -0.001,-0.16998 0,-0.33748 0,-0.50782 0,-20.80266 11.32131,-38.93999 28.125,-48.67187 -8.27745,-4.7939 -17.87766,-7.57813 -28.125,-7.57813 z"
       id="path3306"
       inkscape:connector-curvature="0" />
    <path
       style="fill:none;stroke:#000000;stroke-width:0.625;stroke-linejoin:bevel;stroke-miterlimit:4;stroke-opacity:1;stroke-dasharray:none;stroke-dashoffset:0"
       d="m 135,449.29687 c -8.27745,4.7939 -17.87766,7.57813 -28.125,7.57813 -10.240463,0 -19.851313,-2.75112 -28.125,-7.53907 -0.0015,0.16998 0,0.33748 0,0.50782 0,31.04999 25.2,56.25 56.25,56.25 31.05,0 56.25,-25.20001 56.25,-56.25 0,-0.17034 0.001,-0.33784 0,-0.50782 -8.27369,4.78795 -17.88454,7.53907 -28.125,7.53907 -10.24734,0 -19.84755,-2.78423 -28.125,-7.57813 z"
       id="path3303"
       inkscape:connector-curvature="0" />
    <path
       id="path3322"
       d="m 163.125,344.33593 c 31.05,0 56.25,25.2 56.25,56.25 0,20.80954 -11.31214,38.98142 -28.125,48.71094 -0.18188,-20.59765 -11.44869,-38.55263 -28.125,-48.20312 0.001,-0.16998 0,-0.33748 0,-0.50782 0,-20.80266 -11.32131,-38.93999 -28.125,-48.67187 8.27745,-4.7939 17.87766,-7.57813 28.125,-7.57813 z"
       style="fill:none;stroke:#000000;stroke-width:0.625;stroke-linejoin:bevel;stroke-miterlimit:4;stroke-opacity:1;stroke-dasharray:none;stroke-dashoffset:0"
       inkscape:connector-curvature="0" />
    <text
       xml:space="preserve"
       style="font-size:8px;font-style:italic;font-variant:normal;font-weight:normal;font-stretch:normal;line-height:125%;letter-spacing:0px;word-spacing:0px;fill:#000000;fill-opacity:1;stroke:none;font-family:Serif;-inkscape-font-specification:Sans Italic"
       x="56.25"
       y="388.125"
       id="text6439"
       sodipodi:linespacing="125%"><tspan
         sodipodi:role="line"
         id="tspan6441"
         x="56.25"
         y="388.125">rectangles</tspan></text>
  </g>
</svg>
